<?xml version="1.0" encoding="utf-8" standalone="no"?>
<!DOCTYPE svg PUBLIC "-//W3C//DTD SVG 1.1//EN"
  "http://www.w3.org/Graphics/SVG/1.1/DTD/svg11.dtd">
<svg xmlns:xlink="http://www.w3.org/1999/xlink" width="443.538381pt" height="269.29116pt" viewBox="0 0 443.538381 269.29116" xmlns="http://www.w3.org/2000/svg" version="1.1">
 <metadata>
  <rdf:RDF xmlns:dc="http://purl.org/dc/elements/1.1/" xmlns:cc="http://creativecommons.org/ns#" xmlns:rdf="http://www.w3.org/1999/02/22-rdf-syntax-ns#">
   <cc:Work>
    <dc:type rdf:resource="http://purl.org/dc/dcmitype/StillImage"/>
    <dc:date>2024-06-10T21:35:27.988557</dc:date>
    <dc:format>image/svg+xml</dc:format>
    <dc:creator>
     <cc:Agent>
      <dc:title>Matplotlib v3.8.4, https://matplotlib.org/</dc:title>
     </cc:Agent>
    </dc:creator>
   </cc:Work>
  </rdf:RDF>
 </metadata>
 <defs>
  <style type="text/css">*{stroke-linejoin: round; stroke-linecap: butt}</style>
 </defs>
 <g id="figure_1">
  <g id="patch_1">
   <path d="M 0 269.29116 
L 443.538381 269.29116 
L 443.538381 0 
L 0 0 
z
" style="fill: #ffffff"/>
  </g>
  <g id="axes_1">
   <g id="patch_2">
    <path d="M 55.442298 239.669132 
L 399.184543 239.669132 
L 399.184543 32.314939 
L 55.442298 32.314939 
z
" style="fill: #ffffff"/>
   </g>
   <g id="patch_3">
    <path d="M 61.580552 239.669132 
L 67.718806 239.669132 
L 67.718806 200.171519 
L 61.580552 200.171519 
z
" clip-path="url(#p9d18846cbd)" style="fill: #1f77b4"/>
   </g>
   <g id="patch_4">
    <path d="M 86.13357 239.669132 
L 92.271824 239.669132 
L 92.271824 234.423179 
L 86.13357 234.423179 
z
" clip-path="url(#p9d18846cbd)" style="fill: #1f77b4"/>
   </g>
   <g id="patch_5">
    <path d="M 110.686587 239.669132 
L 116.824841 239.669132 
L 116.824841 232.747021 
L 110.686587 232.747021 
z
" clip-path="url(#p9d18846cbd)" style="fill: #1f77b4"/>
   </g>
   <g id="patch_6">
    <path d="M 135.239605 239.669132 
L 141.377859 239.669132 
L 141.377859 235.509031 
L 135.239605 235.509031 
z
" clip-path="url(#p9d18846cbd)" style="fill: #1f77b4"/>
   </g>
   <g id="patch_7">
    <path d="M 159.792622 239.669132 
L 165.930877 239.669132 
L 165.930877 232.6354 
L 159.792622 232.6354 
z
" clip-path="url(#p9d18846cbd)" style="fill: #1f77b4"/>
   </g>
   <g id="patch_8">
    <path d="M 184.34564 239.669132 
L 190.483894 239.669132 
L 190.483894 230.745916 
L 184.34564 230.745916 
z
" clip-path="url(#p9d18846cbd)" style="fill: #1f77b4"/>
   </g>
   <g id="patch_9">
    <path d="M 208.898657 239.669132 
L 215.036912 239.669132 
L 215.036912 233.410723 
L 208.898657 233.410723 
z
" clip-path="url(#p9d18846cbd)" style="fill: #1f77b4"/>
   </g>
   <g id="patch_10">
    <path d="M 233.451675 239.669132 
L 239.589929 239.669132 
L 239.589929 233.977201 
L 233.451675 233.977201 
z
" clip-path="url(#p9d18846cbd)" style="fill: #1f77b4"/>
   </g>
   <g id="patch_11">
    <path d="M 258.004692 239.669132 
L 264.142947 239.669132 
L 264.142947 235.284281 
L 258.004692 235.284281 
z
" clip-path="url(#p9d18846cbd)" style="fill: #1f77b4"/>
   </g>
   <g id="patch_12">
    <path d="M 282.55771 239.669132 
L 288.695964 239.669132 
L 288.695964 239.419414 
L 282.55771 239.419414 
z
" clip-path="url(#p9d18846cbd)" style="fill: #1f77b4"/>
   </g>
   <g id="patch_13">
    <path d="M 307.110727 239.669132 
L 313.248982 239.669132 
L 313.248982 226.862028 
L 307.110727 226.862028 
z
" clip-path="url(#p9d18846cbd)" style="fill: #1f77b4"/>
   </g>
   <g id="patch_14">
    <path d="M 331.663745 239.669132 
L 337.801999 239.669132 
L 337.801999 229.560865 
L 331.663745 229.560865 
z
" clip-path="url(#p9d18846cbd)" style="fill: #1f77b4"/>
   </g>
   <g id="patch_15">
    <path d="M 356.216762 239.669132 
L 362.355017 239.669132 
L 362.355017 236.86069 
L 356.216762 236.86069 
z
" clip-path="url(#p9d18846cbd)" style="fill: #1f77b4"/>
   </g>
   <g id="patch_16">
    <path d="M 380.76978 239.669132 
L 386.908034 239.669132 
L 386.908034 230.230962 
L 380.76978 230.230962 
z
" clip-path="url(#p9d18846cbd)" style="fill: #1f77b4"/>
   </g>
   <g id="patch_17">
    <path d="M 67.718806 239.669132 
L 73.857061 239.669132 
L 73.857061 202.123788 
L 67.718806 202.123788 
z
" clip-path="url(#p9d18846cbd)" style="fill: #ff7f0e"/>
   </g>
   <g id="patch_18">
    <path d="M 92.271824 239.669132 
L 98.410078 239.669132 
L 98.410078 234.38365 
L 92.271824 234.38365 
z
" clip-path="url(#p9d18846cbd)" style="fill: #ff7f0e"/>
   </g>
   <g id="patch_19">
    <path d="M 116.824841 239.669132 
L 122.963096 239.669132 
L 122.963096 233.895374 
L 116.824841 233.895374 
z
" clip-path="url(#p9d18846cbd)" style="fill: #ff7f0e"/>
   </g>
   <g id="patch_20">
    <path d="M 141.377859 239.669132 
L 147.516113 239.669132 
L 147.516113 236.316063 
L 141.377859 236.316063 
z
" clip-path="url(#p9d18846cbd)" style="fill: #ff7f0e"/>
   </g>
   <g id="patch_21">
    <path d="M 165.930877 239.669132 
L 172.069131 239.669132 
L 172.069131 234.360902 
L 165.930877 234.360902 
z
" clip-path="url(#p9d18846cbd)" style="fill: #ff7f0e"/>
   </g>
   <g id="patch_22">
    <path d="M 190.483894 239.669132 
L 196.622148 239.669132 
L 196.622148 233.918326 
L 190.483894 233.918326 
z
" clip-path="url(#p9d18846cbd)" style="fill: #ff7f0e"/>
   </g>
   <g id="patch_23">
    <path d="M 215.036912 239.669132 
L 221.175166 239.669132 
L 221.175166 235.485041 
L 215.036912 235.485041 
z
" clip-path="url(#p9d18846cbd)" style="fill: #ff7f0e"/>
   </g>
   <g id="patch_24">
    <path d="M 239.589929 239.669132 
L 245.728184 239.669132 
L 245.728184 235.95898 
L 239.589929 235.95898 
z
" clip-path="url(#p9d18846cbd)" style="fill: #ff7f0e"/>
   </g>
   <g id="patch_25">
    <path d="M 264.142947 239.669132 
L 270.281201 239.669132 
L 270.281201 235.756407 
L 264.142947 235.756407 
z
" clip-path="url(#p9d18846cbd)" style="fill: #ff7f0e"/>
   </g>
   <g id="patch_26">
    <path d="M 288.695964 239.669132 
L 294.834219 239.669132 
L 294.834219 239.533582 
L 288.695964 239.533582 
z
" clip-path="url(#p9d18846cbd)" style="fill: #ff7f0e"/>
   </g>
   <g id="patch_27">
    <path d="M 313.248982 239.669132 
L 319.387236 239.669132 
L 319.387236 229.564918 
L 313.248982 229.564918 
z
" clip-path="url(#p9d18846cbd)" style="fill: #ff7f0e"/>
   </g>
   <g id="patch_28">
    <path d="M 337.801999 239.669132 
L 343.940254 239.669132 
L 343.940254 233.922501 
L 337.801999 233.922501 
z
" clip-path="url(#p9d18846cbd)" style="fill: #ff7f0e"/>
   </g>
   <g id="patch_29">
    <path d="M 362.355017 239.669132 
L 368.493271 239.669132 
L 368.493271 238.406449 
L 362.355017 238.406449 
z
" clip-path="url(#p9d18846cbd)" style="fill: #ff7f0e"/>
   </g>
   <g id="patch_30">
    <path d="M 386.908034 239.669132 
L 393.046289 239.669132 
L 393.046289 232.733295 
L 386.908034 232.733295 
z
" clip-path="url(#p9d18846cbd)" style="fill: #ff7f0e"/>
   </g>
   <g id="matplotlib.axis_1">
    <g id="xtick_1">
     <g id="line2d_1">
      <defs>
       <path id="mc1b6b53bb2" d="M 0 0 
L 0 3.5 
" style="stroke: #000000; stroke-width: 0.8"/>
      </defs>
      <g>
       <use xlink:href="#mc1b6b53bb2" x="67.718806" y="239.669132" style="stroke: #000000; stroke-width: 0.8"/>
      </g>
     </g>
     <g id="text_1">
      <!-- 401 -->
      <g transform="translate(69.49615 258.770382) rotate(-90) scale(0.07 -0.07)">
       <defs>
        <path id="PretendardGOV-Regular-34" d="M 231 1388 
L 1994 4525 
L 2550 4525 
L 825 1456 
L 825 1419 
L 2313 1419 
L 2313 2831 
L 2844 2831 
L 2844 1419 
L 3450 1419 
L 3450 925 
L 2844 925 
L 2844 0 
L 2313 0 
L 2313 925 
L 231 925 
L 231 1388 
z
" transform="scale(0.015625)"/>
        <path id="PretendardGOV-Regular-30" d="M 1844 -63 
Q 1359 -63 1018 187 
Q 678 438 501 920 
Q 325 1403 325 2088 
L 325 2438 
Q 325 3125 501 3606 
Q 678 4088 1018 4338 
Q 1359 4588 1844 4588 
Q 2325 4588 2664 4338 
Q 3003 4088 3179 3606 
Q 3356 3125 3356 2438 
L 3356 2088 
Q 3356 1403 3179 920 
Q 3003 438 2664 187 
Q 2325 -63 1844 -63 
z
M 1844 431 
Q 2813 431 2813 2081 
L 2813 2438 
Q 2813 4094 1844 4094 
Q 1356 4094 1115 3681 
Q 875 3269 875 2438 
L 875 2081 
Q 875 1256 1115 843 
Q 1356 431 1844 431 
z
" transform="scale(0.015625)"/>
        <path id="PretendardGOV-Regular-31" d="M 2163 456 
L 3144 456 
L 3144 0 
L 569 0 
L 569 456 
L 1600 456 
L 1600 3938 
L 1575 3938 
L 569 3269 
L 569 3844 
L 1600 4525 
L 2163 4525 
L 2163 456 
z
" transform="scale(0.015625)"/>
       </defs>
       <use xlink:href="#PretendardGOV-Regular-34"/>
       <use xlink:href="#PretendardGOV-Regular-30" x="57.617188"/>
       <use xlink:href="#PretendardGOV-Regular-31" x="115.234375"/>
      </g>
     </g>
    </g>
    <g id="xtick_2">
     <g id="line2d_2">
      <g>
       <use xlink:href="#mc1b6b53bb2" x="92.271824" y="239.669132" style="stroke: #000000; stroke-width: 0.8"/>
      </g>
     </g>
     <g id="text_2">
      <!-- 402 -->
      <g transform="translate(94.049168 258.770382) rotate(-90) scale(0.07 -0.07)">
       <defs>
        <path id="PretendardGOV-Regular-32" d="M 481 406 
L 1956 2038 
Q 2238 2350 2391 2550 
Q 2544 2750 2623 2937 
Q 2703 3125 2706 3331 
Q 2703 3559 2592 3734 
Q 2481 3909 2290 4004 
Q 2100 4100 1863 4100 
Q 1613 4100 1427 3995 
Q 1241 3891 1139 3697 
Q 1038 3503 1038 3250 
L 500 3250 
Q 500 3641 679 3945 
Q 859 4250 1175 4419 
Q 1491 4588 1881 4588 
Q 2266 4588 2573 4420 
Q 2881 4253 3054 3965 
Q 3228 3678 3231 3331 
Q 3228 3075 3139 2840 
Q 3050 2606 2839 2317 
Q 2628 2028 2238 1606 
L 1250 538 
L 1250 500 
L 3306 500 
L 3306 0 
L 481 0 
L 481 406 
z
" transform="scale(0.015625)"/>
       </defs>
       <use xlink:href="#PretendardGOV-Regular-34"/>
       <use xlink:href="#PretendardGOV-Regular-30" x="57.617188"/>
       <use xlink:href="#PretendardGOV-Regular-32" x="115.234375"/>
      </g>
     </g>
    </g>
    <g id="xtick_3">
     <g id="line2d_3">
      <g>
       <use xlink:href="#mc1b6b53bb2" x="116.824841" y="239.669132" style="stroke: #000000; stroke-width: 0.8"/>
      </g>
     </g>
     <g id="text_3">
      <!-- 403 -->
      <g transform="translate(118.602185 258.770382) rotate(-90) scale(0.07 -0.07)">
       <defs>
        <path id="PretendardGOV-Regular-33" d="M 900 1144 
Q 922 922 1048 762 
Q 1175 603 1381 520 
Q 1588 438 1844 438 
Q 2119 438 2336 534 
Q 2553 631 2678 823 
Q 2803 1016 2800 1288 
Q 2803 1547 2689 1755 
Q 2575 1963 2325 2088 
Q 2075 2213 1688 2213 
L 1319 2213 
L 1319 2656 
L 2425 3988 
L 2425 4025 
L 544 4025 
L 544 4525 
L 3181 4525 
L 3181 4119 
L 2000 2681 
L 2000 2644 
Q 2384 2622 2693 2439 
Q 3003 2256 3179 1953 
Q 3356 1650 3356 1281 
Q 3356 897 3161 590 
Q 2966 284 2619 110 
Q 2272 -63 1831 -63 
Q 1428 -63 1093 82 
Q 759 228 554 501 
Q 350 775 325 1144 
L 900 1144 
z
" transform="scale(0.015625)"/>
       </defs>
       <use xlink:href="#PretendardGOV-Regular-34"/>
       <use xlink:href="#PretendardGOV-Regular-30" x="57.617188"/>
       <use xlink:href="#PretendardGOV-Regular-33" x="115.234375"/>
      </g>
     </g>
    </g>
    <g id="xtick_4">
     <g id="line2d_4">
      <g>
       <use xlink:href="#mc1b6b53bb2" x="141.377859" y="239.669132" style="stroke: #000000; stroke-width: 0.8"/>
      </g>
     </g>
     <g id="text_4">
      <!-- 404 -->
      <g transform="translate(143.155203 258.770382) rotate(-90) scale(0.07 -0.07)">
       <use xlink:href="#PretendardGOV-Regular-34"/>
       <use xlink:href="#PretendardGOV-Regular-30" x="57.617188"/>
       <use xlink:href="#PretendardGOV-Regular-34" x="115.234375"/>
      </g>
     </g>
    </g>
    <g id="xtick_5">
     <g id="line2d_5">
      <g>
       <use xlink:href="#mc1b6b53bb2" x="165.930877" y="239.669132" style="stroke: #000000; stroke-width: 0.8"/>
      </g>
     </g>
     <g id="text_5">
      <!-- 405 -->
      <g transform="translate(167.70822 258.770382) rotate(-90) scale(0.07 -0.07)">
       <defs>
        <path id="PretendardGOV-Regular-35" d="M 1888 -63 
Q 1500 -63 1183 92 
Q 866 247 677 520 
Q 488 794 469 1138 
L 1025 1138 
Q 1041 938 1158 777 
Q 1275 616 1467 523 
Q 1659 431 1888 431 
Q 2159 431 2373 561 
Q 2588 691 2709 919 
Q 2831 1147 2831 1431 
Q 2831 1725 2704 1956 
Q 2578 2188 2354 2320 
Q 2131 2453 1850 2456 
Q 1572 2463 1373 2366 
Q 1175 2269 1063 2050 
L 513 2050 
L 813 4525 
L 3175 4525 
L 3175 4025 
L 1294 4025 
L 1138 2700 
L 1188 2700 
Q 1309 2816 1514 2889 
Q 1719 2963 1944 2963 
Q 2350 2963 2678 2766 
Q 3006 2569 3193 2222 
Q 3381 1875 3381 1444 
Q 3381 1016 3187 672 
Q 2994 328 2653 132 
Q 2313 -63 1888 -63 
z
" transform="scale(0.015625)"/>
       </defs>
       <use xlink:href="#PretendardGOV-Regular-34"/>
       <use xlink:href="#PretendardGOV-Regular-30" x="57.617188"/>
       <use xlink:href="#PretendardGOV-Regular-35" x="115.234375"/>
      </g>
     </g>
    </g>
    <g id="xtick_6">
     <g id="line2d_6">
      <g>
       <use xlink:href="#mc1b6b53bb2" x="190.483894" y="239.669132" style="stroke: #000000; stroke-width: 0.8"/>
      </g>
     </g>
     <g id="text_6">
      <!-- 406 -->
      <g transform="translate(192.261238 258.770382) rotate(-90) scale(0.07 -0.07)">
       <defs>
        <path id="PretendardGOV-Regular-36" d="M 1838 -63 
Q 1416 -63 1064 131 
Q 713 325 509 659 
Q 306 994 306 1394 
Q 306 1734 473 2104 
Q 641 2475 1000 3006 
L 2019 4525 
L 2663 4525 
L 1444 2713 
L 1475 2688 
Q 1550 2763 1694 2809 
Q 1838 2856 2031 2856 
Q 2419 2856 2728 2662 
Q 3038 2469 3209 2134 
Q 3381 1800 3381 1394 
Q 3381 994 3175 659 
Q 2969 325 2616 131 
Q 2263 -63 1838 -63 
z
M 1844 431 
Q 2131 431 2356 556 
Q 2581 681 2706 906 
Q 2831 1131 2831 1419 
Q 2831 1706 2706 1932 
Q 2581 2159 2356 2286 
Q 2131 2413 1844 2413 
Q 1556 2413 1329 2286 
Q 1103 2159 976 1932 
Q 850 1706 850 1419 
Q 850 1131 976 906 
Q 1103 681 1329 556 
Q 1556 431 1844 431 
z
" transform="scale(0.015625)"/>
       </defs>
       <use xlink:href="#PretendardGOV-Regular-34"/>
       <use xlink:href="#PretendardGOV-Regular-30" x="57.617188"/>
       <use xlink:href="#PretendardGOV-Regular-36" x="115.234375"/>
      </g>
     </g>
    </g>
    <g id="xtick_7">
     <g id="line2d_7">
      <g>
       <use xlink:href="#mc1b6b53bb2" x="215.036912" y="239.669132" style="stroke: #000000; stroke-width: 0.8"/>
      </g>
     </g>
     <g id="text_7">
      <!-- 407 -->
      <g transform="translate(216.814255 258.770382) rotate(-90) scale(0.07 -0.07)">
       <defs>
        <path id="PretendardGOV-Regular-37" d="M 2681 3994 
L 2681 4025 
L 425 4025 
L 425 4525 
L 3275 4525 
L 3275 4000 
L 1313 0 
L 719 0 
L 2681 3994 
z
" transform="scale(0.015625)"/>
       </defs>
       <use xlink:href="#PretendardGOV-Regular-34"/>
       <use xlink:href="#PretendardGOV-Regular-30" x="57.617188"/>
       <use xlink:href="#PretendardGOV-Regular-37" x="115.234375"/>
      </g>
     </g>
    </g>
    <g id="xtick_8">
     <g id="line2d_8">
      <g>
       <use xlink:href="#mc1b6b53bb2" x="239.589929" y="239.669132" style="stroke: #000000; stroke-width: 0.8"/>
      </g>
     </g>
     <g id="text_8">
      <!-- 408 -->
      <g transform="translate(241.367273 258.770382) rotate(-90) scale(0.07 -0.07)">
       <defs>
        <path id="PretendardGOV-Regular-38" d="M 1844 -63 
Q 1394 -63 1042 100 
Q 691 263 495 550 
Q 300 838 300 1200 
Q 300 1481 415 1728 
Q 531 1975 731 2139 
Q 931 2303 1175 2350 
L 1175 2375 
Q 959 2431 800 2578 
Q 641 2725 553 2936 
Q 466 3147 463 3388 
Q 466 3728 644 4001 
Q 822 4275 1136 4431 
Q 1450 4588 1844 4588 
Q 2231 4588 2543 4431 
Q 2856 4275 3036 4001 
Q 3216 3728 3219 3388 
Q 3216 3147 3127 2936 
Q 3038 2725 2878 2578 
Q 2719 2431 2506 2375 
L 2506 2350 
Q 2750 2303 2950 2139 
Q 3150 1975 3267 1728 
Q 3384 1481 3388 1200 
Q 3384 838 3187 550 
Q 2991 263 2641 100 
Q 2291 -63 1844 -63 
z
M 1844 431 
Q 2144 431 2366 531 
Q 2588 631 2706 811 
Q 2825 991 2825 1231 
Q 2825 1481 2698 1679 
Q 2572 1878 2348 1989 
Q 2125 2100 1844 2100 
Q 1563 2100 1336 1987 
Q 1109 1875 982 1678 
Q 856 1481 863 1231 
Q 856 994 975 812 
Q 1094 631 1317 531 
Q 1541 431 1844 431 
z
M 1844 2575 
Q 2081 2575 2270 2670 
Q 2459 2766 2564 2941 
Q 2669 3116 2669 3344 
Q 2669 3569 2564 3741 
Q 2459 3913 2271 4006 
Q 2084 4100 1844 4100 
Q 1597 4100 1408 4006 
Q 1219 3913 1116 3741 
Q 1013 3569 1013 3344 
Q 1013 3116 1119 2941 
Q 1225 2766 1414 2670 
Q 1603 2575 1844 2575 
z
" transform="scale(0.015625)"/>
       </defs>
       <use xlink:href="#PretendardGOV-Regular-34"/>
       <use xlink:href="#PretendardGOV-Regular-30" x="57.617188"/>
       <use xlink:href="#PretendardGOV-Regular-38" x="115.234375"/>
      </g>
     </g>
    </g>
    <g id="xtick_9">
     <g id="line2d_9">
      <g>
       <use xlink:href="#mc1b6b53bb2" x="264.142947" y="239.669132" style="stroke: #000000; stroke-width: 0.8"/>
      </g>
     </g>
     <g id="text_9">
      <!-- 409 -->
      <g transform="translate(265.92029 258.770382) rotate(-90) scale(0.07 -0.07)">
       <defs>
        <path id="PretendardGOV-Regular-39" d="M 1850 4588 
Q 2272 4588 2623 4394 
Q 2975 4200 3178 3865 
Q 3381 3531 3381 3131 
Q 3381 2791 3214 2420 
Q 3047 2050 2688 1519 
L 1669 0 
L 1025 0 
L 2244 1813 
L 2213 1838 
Q 2138 1763 1994 1716 
Q 1850 1669 1656 1669 
Q 1269 1669 959 1862 
Q 650 2056 478 2390 
Q 306 2725 306 3131 
Q 306 3531 512 3865 
Q 719 4200 1072 4394 
Q 1425 4588 1850 4588 
z
M 1844 4094 
Q 1556 4094 1331 3969 
Q 1106 3844 981 3619 
Q 856 3394 856 3106 
Q 856 2819 981 2592 
Q 1106 2366 1331 2239 
Q 1556 2113 1844 2113 
Q 2131 2113 2357 2239 
Q 2584 2366 2711 2592 
Q 2838 2819 2838 3106 
Q 2838 3394 2711 3619 
Q 2584 3844 2357 3969 
Q 2131 4094 1844 4094 
z
" transform="scale(0.015625)"/>
       </defs>
       <use xlink:href="#PretendardGOV-Regular-34"/>
       <use xlink:href="#PretendardGOV-Regular-30" x="57.617188"/>
       <use xlink:href="#PretendardGOV-Regular-39" x="115.234375"/>
      </g>
     </g>
    </g>
    <g id="xtick_10">
     <g id="line2d_10">
      <g>
       <use xlink:href="#mc1b6b53bb2" x="288.695964" y="239.669132" style="stroke: #000000; stroke-width: 0.8"/>
      </g>
     </g>
     <g id="text_10">
      <!-- 410 -->
      <g transform="translate(290.473308 258.770382) rotate(-90) scale(0.07 -0.07)">
       <use xlink:href="#PretendardGOV-Regular-34"/>
       <use xlink:href="#PretendardGOV-Regular-31" x="57.617188"/>
       <use xlink:href="#PretendardGOV-Regular-30" x="115.234375"/>
      </g>
     </g>
    </g>
    <g id="xtick_11">
     <g id="line2d_11">
      <g>
       <use xlink:href="#mc1b6b53bb2" x="313.248982" y="239.669132" style="stroke: #000000; stroke-width: 0.8"/>
      </g>
     </g>
     <g id="text_11">
      <!-- 411 -->
      <g transform="translate(315.026325 258.770382) rotate(-90) scale(0.07 -0.07)">
       <use xlink:href="#PretendardGOV-Regular-34"/>
       <use xlink:href="#PretendardGOV-Regular-31" x="57.617188"/>
       <use xlink:href="#PretendardGOV-Regular-31" x="115.234375"/>
      </g>
     </g>
    </g>
    <g id="xtick_12">
     <g id="line2d_12">
      <g>
       <use xlink:href="#mc1b6b53bb2" x="337.801999" y="239.669132" style="stroke: #000000; stroke-width: 0.8"/>
      </g>
     </g>
     <g id="text_12">
      <!-- 412 -->
      <g transform="translate(339.579343 258.770382) rotate(-90) scale(0.07 -0.07)">
       <use xlink:href="#PretendardGOV-Regular-34"/>
       <use xlink:href="#PretendardGOV-Regular-31" x="57.617188"/>
       <use xlink:href="#PretendardGOV-Regular-32" x="115.234375"/>
      </g>
     </g>
    </g>
    <g id="xtick_13">
     <g id="line2d_13">
      <g>
       <use xlink:href="#mc1b6b53bb2" x="362.355017" y="239.669132" style="stroke: #000000; stroke-width: 0.8"/>
      </g>
     </g>
     <g id="text_13">
      <!-- 413 -->
      <g transform="translate(364.132361 258.770382) rotate(-90) scale(0.07 -0.07)">
       <use xlink:href="#PretendardGOV-Regular-34"/>
       <use xlink:href="#PretendardGOV-Regular-31" x="57.617188"/>
       <use xlink:href="#PretendardGOV-Regular-33" x="115.234375"/>
      </g>
     </g>
    </g>
    <g id="xtick_14">
     <g id="line2d_14">
      <g>
       <use xlink:href="#mc1b6b53bb2" x="386.908034" y="239.669132" style="stroke: #000000; stroke-width: 0.8"/>
      </g>
     </g>
     <g id="text_14">
      <!-- 414 -->
      <g transform="translate(388.685378 258.770382) rotate(-90) scale(0.07 -0.07)">
       <use xlink:href="#PretendardGOV-Regular-34"/>
       <use xlink:href="#PretendardGOV-Regular-31" x="57.617188"/>
       <use xlink:href="#PretendardGOV-Regular-34" x="115.234375"/>
      </g>
     </g>
    </g>
   </g>
   <g id="matplotlib.axis_2">
    <g id="ytick_1">
     <g id="line2d_15">
      <defs>
       <path id="m7b63ae7e62" d="M 0 0 
L -3.5 0 
" style="stroke: #000000; stroke-width: 0.8"/>
      </defs>
      <g>
       <use xlink:href="#m7b63ae7e62" x="55.442298" y="239.669132" style="stroke: #000000; stroke-width: 0.8"/>
      </g>
     </g>
     <g id="text_15">
      <!-- 0.0 -->
      <g transform="translate(38.357923 242.143742) scale(0.07 -0.07)">
       <defs>
        <path id="PretendardGOV-Regular-2e" d="M 919 -38 
Q 809 -38 717 17 
Q 625 72 570 165 
Q 516 259 519 369 
Q 516 475 570 567 
Q 625 659 717 714 
Q 809 769 919 769 
Q 1025 769 1117 714 
Q 1209 659 1264 567 
Q 1319 475 1319 369 
Q 1319 259 1264 165 
Q 1209 72 1117 17 
Q 1025 -38 919 -38 
z
" transform="scale(0.015625)"/>
       </defs>
       <use xlink:href="#PretendardGOV-Regular-30"/>
       <use xlink:href="#PretendardGOV-Regular-2e" x="57.617188"/>
       <use xlink:href="#PretendardGOV-Regular-30" x="86.425781"/>
      </g>
     </g>
    </g>
    <g id="ytick_2">
     <g id="line2d_16">
      <g>
       <use xlink:href="#m7b63ae7e62" x="55.442298" y="198.938732" style="stroke: #000000; stroke-width: 0.8"/>
      </g>
     </g>
     <g id="text_16">
      <!-- 0.2 -->
      <g transform="translate(38.357923 201.413341) scale(0.07 -0.07)">
       <use xlink:href="#PretendardGOV-Regular-30"/>
       <use xlink:href="#PretendardGOV-Regular-2e" x="57.617188"/>
       <use xlink:href="#PretendardGOV-Regular-32" x="86.425781"/>
      </g>
     </g>
    </g>
    <g id="ytick_3">
     <g id="line2d_17">
      <g>
       <use xlink:href="#m7b63ae7e62" x="55.442298" y="158.208331" style="stroke: #000000; stroke-width: 0.8"/>
      </g>
     </g>
     <g id="text_17">
      <!-- 0.4 -->
      <g transform="translate(38.357923 160.68294) scale(0.07 -0.07)">
       <use xlink:href="#PretendardGOV-Regular-30"/>
       <use xlink:href="#PretendardGOV-Regular-2e" x="57.617188"/>
       <use xlink:href="#PretendardGOV-Regular-34" x="86.425781"/>
      </g>
     </g>
    </g>
    <g id="ytick_4">
     <g id="line2d_18">
      <g>
       <use xlink:href="#m7b63ae7e62" x="55.442298" y="117.47793" style="stroke: #000000; stroke-width: 0.8"/>
      </g>
     </g>
     <g id="text_18">
      <!-- 0.6 -->
      <g transform="translate(38.357923 119.95254) scale(0.07 -0.07)">
       <use xlink:href="#PretendardGOV-Regular-30"/>
       <use xlink:href="#PretendardGOV-Regular-2e" x="57.617188"/>
       <use xlink:href="#PretendardGOV-Regular-36" x="86.425781"/>
      </g>
     </g>
    </g>
    <g id="ytick_5">
     <g id="line2d_19">
      <g>
       <use xlink:href="#m7b63ae7e62" x="55.442298" y="76.74753" style="stroke: #000000; stroke-width: 0.8"/>
      </g>
     </g>
     <g id="text_19">
      <!-- 0.8 -->
      <g transform="translate(38.357923 79.222139) scale(0.07 -0.07)">
       <use xlink:href="#PretendardGOV-Regular-30"/>
       <use xlink:href="#PretendardGOV-Regular-2e" x="57.617188"/>
       <use xlink:href="#PretendardGOV-Regular-38" x="86.425781"/>
      </g>
     </g>
    </g>
    <g id="ytick_6">
     <g id="line2d_20">
      <g>
       <use xlink:href="#m7b63ae7e62" x="55.442298" y="36.017129" style="stroke: #000000; stroke-width: 0.8"/>
      </g>
     </g>
     <g id="text_20">
      <!-- 1.0 -->
      <g transform="translate(38.357923 38.491738) scale(0.07 -0.07)">
       <use xlink:href="#PretendardGOV-Regular-31"/>
       <use xlink:href="#PretendardGOV-Regular-2e" x="57.617188"/>
       <use xlink:href="#PretendardGOV-Regular-30" x="86.425781"/>
      </g>
     </g>
    </g>
    <g id="text_21">
     <!-- 1e7 -->
     <g transform="translate(55.442298 29.314939) scale(0.07 -0.07)">
      <defs>
       <path id="PretendardGOV-Regular-65" d="M 1856 -69 
Q 1372 -69 1012 147 
Q 653 363 461 756 
Q 269 1150 269 1669 
Q 269 2188 461 2589 
Q 653 2991 1001 3214 
Q 1350 3438 1806 3438 
Q 2191 3438 2522 3267 
Q 2853 3097 3061 2717 
Q 3269 2338 3269 1744 
L 3269 1519 
L 806 1519 
Q 819 1166 953 916 
Q 1088 666 1320 536 
Q 1553 406 1856 406 
Q 2144 406 2342 514 
Q 2541 622 2644 794 
L 3219 794 
Q 3138 538 2948 342 
Q 2759 147 2479 39 
Q 2200 -69 1856 -69 
z
M 2725 1975 
Q 2725 2259 2611 2482 
Q 2497 2706 2287 2834 
Q 2078 2963 1806 2963 
Q 1522 2963 1301 2828 
Q 1081 2694 954 2467 
Q 828 2241 809 1975 
L 2725 1975 
z
" transform="scale(0.015625)"/>
      </defs>
      <use xlink:href="#PretendardGOV-Regular-31"/>
      <use xlink:href="#PretendardGOV-Regular-65" x="57.617188"/>
      <use xlink:href="#PretendardGOV-Regular-37" x="112.890625"/>
     </g>
    </g>
   </g>
   <g id="patch_31">
    <path d="M 55.442298 239.669132 
L 55.442298 32.314939 
" style="fill: none; stroke: #000000; stroke-width: 0.8; stroke-linejoin: miter; stroke-linecap: square"/>
   </g>
   <g id="patch_32">
    <path d="M 399.184543 239.669132 
L 399.184543 32.314939 
" style="fill: none; stroke: #000000; stroke-width: 0.8; stroke-linejoin: miter; stroke-linecap: square"/>
   </g>
   <g id="patch_33">
    <path d="M 55.442298 239.669132 
L 399.184543 239.669132 
" style="fill: none; stroke: #000000; stroke-width: 0.8; stroke-linejoin: miter; stroke-linecap: square"/>
   </g>
   <g id="patch_34">
    <path d="M 55.442298 32.314939 
L 399.184543 32.314939 
" style="fill: none; stroke: #000000; stroke-width: 0.8; stroke-linejoin: miter; stroke-linecap: square"/>
   </g>
   <g id="legend_1">
    <g id="patch_35">
     <path d="M 336.670168 57.602439 
L 394.284543 57.602439 
Q 395.684543 57.602439 395.684543 56.202439 
L 395.684543 37.214939 
Q 395.684543 35.814939 394.284543 35.814939 
L 336.670168 35.814939 
Q 335.270168 35.814939 335.270168 37.214939 
L 335.270168 56.202439 
Q 335.270168 57.602439 336.670168 57.602439 
z
" style="fill: #ffffff; opacity: 0.8; stroke: #cccccc; stroke-linejoin: miter"/>
    </g>
    <g id="patch_36">
     <path d="M 338.070168 43.564158 
L 352.070168 43.564158 
L 352.070168 38.664158 
L 338.070168 38.664158 
z
" style="fill: #1f77b4"/>
    </g>
    <g id="text_22">
     <!-- IN_FLUX -->
     <g transform="translate(357.670168 43.564158) scale(0.07 -0.07)">
      <defs>
       <path id="PretendardGOV-Regular-49" d="M 250 4525 
L 2425 4525 
L 2425 4025 
L 1631 4025 
L 1631 500 
L 2425 500 
L 2425 0 
L 250 0 
L 250 500 
L 1069 500 
L 1069 4025 
L 250 4025 
L 250 4525 
z
" transform="scale(0.015625)"/>
       <path id="PretendardGOV-Regular-4e" d="M 4094 0 
L 3556 0 
L 1106 3525 
L 1063 3525 
L 1063 0 
L 500 0 
L 500 4525 
L 1044 4525 
L 3494 994 
L 3538 994 
L 3538 4525 
L 4094 4525 
L 4094 0 
z
" transform="scale(0.015625)"/>
       <path id="PretendardGOV-Regular-5f" d="M 3688 -494 
L 0 -494 
L 0 0 
L 3688 0 
L 3688 -494 
z
" transform="scale(0.015625)"/>
       <path id="PretendardGOV-Regular-46" d="M 500 4525 
L 3225 4525 
L 3225 4025 
L 1063 4025 
L 1063 2513 
L 3019 2513 
L 3019 2019 
L 1063 2019 
L 1063 0 
L 500 0 
L 500 4525 
z
" transform="scale(0.015625)"/>
       <path id="PretendardGOV-Regular-4c" d="M 500 4525 
L 1063 4525 
L 1063 500 
L 3163 500 
L 3163 0 
L 500 0 
L 500 4525 
z
" transform="scale(0.015625)"/>
       <path id="PretendardGOV-Regular-55" d="M 4025 4525 
L 4025 1531 
Q 4025 1069 3806 701 
Q 3588 334 3188 126 
Q 2788 -81 2263 -81 
Q 1738 -81 1338 126 
Q 938 334 719 701 
Q 500 1069 500 1531 
L 500 4525 
L 1063 4525 
L 1063 1575 
Q 1063 1247 1208 990 
Q 1353 734 1625 589 
Q 1897 444 2263 444 
Q 2631 444 2901 589 
Q 3172 734 3317 990 
Q 3463 1247 3463 1575 
L 3463 4525 
L 4025 4525 
z
" transform="scale(0.015625)"/>
       <path id="PretendardGOV-Regular-58" d="M 1938 2656 
L 1975 2656 
L 3131 4525 
L 3794 4525 
L 2375 2263 
L 3794 0 
L 3131 0 
L 1975 1831 
L 1938 1831 
L 781 0 
L 119 0 
L 1575 2263 
L 119 4525 
L 788 4525 
L 1938 2656 
z
" transform="scale(0.015625)"/>
      </defs>
      <use xlink:href="#PretendardGOV-Regular-49"/>
      <use xlink:href="#PretendardGOV-Regular-4e" x="41.894531"/>
      <use xlink:href="#PretendardGOV-Regular-5f" x="113.671875"/>
      <use xlink:href="#PretendardGOV-Regular-46" x="171.289062"/>
      <use xlink:href="#PretendardGOV-Regular-4c" x="226.953125"/>
      <use xlink:href="#PretendardGOV-Regular-55" x="280.273438"/>
      <use xlink:href="#PretendardGOV-Regular-58" x="350.976562"/>
     </g>
    </g>
    <g id="patch_37">
     <path d="M 338.070168 53.407908 
L 352.070168 53.407908 
L 352.070168 48.507908 
L 338.070168 48.507908 
z
" style="fill: #ff7f0e"/>
    </g>
    <g id="text_23">
     <!-- OUT_FLUX -->
     <g transform="translate(357.670168 53.407908) scale(0.07 -0.07)">
      <defs>
       <path id="PretendardGOV-Regular-4f" d="M 4325 2263 
Q 4325 1559 4069 1032 
Q 3813 506 3358 221 
Q 2903 -63 2325 -63 
Q 1744 -63 1291 221 
Q 838 506 581 1032 
Q 325 1559 325 2263 
Q 325 2966 581 3492 
Q 838 4019 1291 4303 
Q 1744 4588 2325 4588 
Q 2903 4588 3358 4303 
Q 3813 4019 4069 3492 
Q 4325 2966 4325 2263 
z
M 3781 2263 
Q 3781 2831 3590 3237 
Q 3400 3644 3070 3853 
Q 2741 4063 2325 4063 
Q 1909 4063 1579 3853 
Q 1250 3644 1059 3237 
Q 869 2831 869 2263 
Q 869 1694 1059 1287 
Q 1250 881 1579 672 
Q 1909 463 2325 463 
Q 2741 463 3070 672 
Q 3400 881 3590 1287 
Q 3781 1694 3781 2263 
z
" transform="scale(0.015625)"/>
       <path id="PretendardGOV-Regular-54" d="M 250 4525 
L 3663 4525 
L 3663 4025 
L 2244 4025 
L 2244 0 
L 1675 0 
L 1675 4025 
L 250 4025 
L 250 4525 
z
" transform="scale(0.015625)"/>
      </defs>
      <use xlink:href="#PretendardGOV-Regular-4f"/>
      <use xlink:href="#PretendardGOV-Regular-55" x="72.65625"/>
      <use xlink:href="#PretendardGOV-Regular-54" x="143.359375"/>
      <use xlink:href="#PretendardGOV-Regular-5f" x="204.492188"/>
      <use xlink:href="#PretendardGOV-Regular-46" x="262.109375"/>
      <use xlink:href="#PretendardGOV-Regular-4c" x="317.773438"/>
      <use xlink:href="#PretendardGOV-Regular-55" x="371.09375"/>
      <use xlink:href="#PretendardGOV-Regular-58" x="441.796875"/>
     </g>
    </g>
   </g>
  </g>
 </g>
 <defs>
  <clipPath id="p9d18846cbd">
   <rect x="55.442298" y="32.314939" width="343.742245" height="207.354193"/>
  </clipPath>
 </defs>
</svg>
