<?xml version="1.0" encoding="utf-8" standalone="no"?>
<!DOCTYPE svg PUBLIC "-//W3C//DTD SVG 1.1//EN"
  "http://www.w3.org/Graphics/SVG/1.1/DTD/svg11.dtd">
<svg xmlns:xlink="http://www.w3.org/1999/xlink" width="785.196pt" height="269.29116pt" viewBox="0 0 785.196 269.29116" xmlns="http://www.w3.org/2000/svg" version="1.1">
 <metadata>
  <rdf:RDF xmlns:dc="http://purl.org/dc/elements/1.1/" xmlns:cc="http://creativecommons.org/ns#" xmlns:rdf="http://www.w3.org/1999/02/22-rdf-syntax-ns#">
   <cc:Work>
    <dc:type rdf:resource="http://purl.org/dc/dcmitype/StillImage"/>
    <dc:date>2024-06-10T21:35:27.698279</dc:date>
    <dc:format>image/svg+xml</dc:format>
    <dc:creator>
     <cc:Agent>
      <dc:title>Matplotlib v3.8.4, https://matplotlib.org/</dc:title>
     </cc:Agent>
    </dc:creator>
   </cc:Work>
  </rdf:RDF>
 </metadata>
 <defs>
  <style type="text/css">*{stroke-linejoin: round; stroke-linecap: butt}</style>
 </defs>
 <g id="figure_1">
  <g id="patch_1">
   <path d="M 0 269.29116 
L 785.196 269.29116 
L 785.196 0 
L 0 0 
z
" style="fill: #ffffff"/>
  </g>
  <g id="axes_1">
   <g id="patch_2">
    <path d="M 98.1495 239.669132 
L 706.6764 239.669132 
L 706.6764 32.314939 
L 98.1495 32.314939 
z
" style="fill: #ffffff"/>
   </g>
   <g id="patch_3">
    <path d="M 101.687447 239.669132 
L 105.225394 239.669132 
L 105.225394 150.922518 
L 101.687447 150.922518 
z
" clip-path="url(#p9b1a340f54)" style="fill: #1f77b4"/>
   </g>
   <g id="patch_4">
    <path d="M 115.839235 239.669132 
L 119.377183 239.669132 
L 119.377183 198.736505 
L 115.839235 198.736505 
z
" clip-path="url(#p9b1a340f54)" style="fill: #1f77b4"/>
   </g>
   <g id="patch_5">
    <path d="M 129.991024 239.669132 
L 133.528971 239.669132 
L 133.528971 162.962913 
L 129.991024 162.962913 
z
" clip-path="url(#p9b1a340f54)" style="fill: #1f77b4"/>
   </g>
   <g id="patch_6">
    <path d="M 144.142812 239.669132 
L 147.680759 239.669132 
L 147.680759 205.548868 
L 144.142812 205.548868 
z
" clip-path="url(#p9b1a340f54)" style="fill: #1f77b4"/>
   </g>
   <g id="patch_7">
    <path d="M 158.294601 239.669132 
L 161.832548 239.669132 
L 161.832548 200.78335 
L 158.294601 200.78335 
z
" clip-path="url(#p9b1a340f54)" style="fill: #1f77b4"/>
   </g>
   <g id="patch_8">
    <path d="M 172.446389 239.669132 
L 175.984336 239.669132 
L 175.984336 150.565801 
L 172.446389 150.565801 
z
" clip-path="url(#p9b1a340f54)" style="fill: #1f77b4"/>
   </g>
   <g id="patch_9">
    <path d="M 186.598177 239.669132 
L 190.136124 239.669132 
L 190.136124 226.020273 
L 186.598177 226.020273 
z
" clip-path="url(#p9b1a340f54)" style="fill: #1f77b4"/>
   </g>
   <g id="patch_10">
    <path d="M 200.749966 239.669132 
L 204.287913 239.669132 
L 204.287913 178.99947 
L 200.749966 178.99947 
z
" clip-path="url(#p9b1a340f54)" style="fill: #1f77b4"/>
   </g>
   <g id="patch_11">
    <path d="M 214.901754 239.669132 
L 218.439701 239.669132 
L 218.439701 190.489495 
L 214.901754 190.489495 
z
" clip-path="url(#p9b1a340f54)" style="fill: #1f77b4"/>
   </g>
   <g id="patch_12">
    <path d="M 229.053542 239.669132 
L 232.59149 239.669132 
L 232.59149 207.461853 
L 229.053542 207.461853 
z
" clip-path="url(#p9b1a340f54)" style="fill: #1f77b4"/>
   </g>
   <g id="patch_13">
    <path d="M 243.205331 239.669132 
L 246.743278 239.669132 
L 246.743278 211.282854 
L 243.205331 211.282854 
z
" clip-path="url(#p9b1a340f54)" style="fill: #1f77b4"/>
   </g>
   <g id="patch_14">
    <path d="M 257.357119 239.669132 
L 260.895066 239.669132 
L 260.895066 155.565478 
L 257.357119 155.565478 
z
" clip-path="url(#p9b1a340f54)" style="fill: #1f77b4"/>
   </g>
   <g id="patch_15">
    <path d="M 271.508908 239.669132 
L 275.046855 239.669132 
L 275.046855 195.997203 
L 271.508908 195.997203 
z
" clip-path="url(#p9b1a340f54)" style="fill: #1f77b4"/>
   </g>
   <g id="patch_16">
    <path d="M 285.660696 239.669132 
L 289.198643 239.669132 
L 289.198643 219.447751 
L 285.660696 219.447751 
z
" clip-path="url(#p9b1a340f54)" style="fill: #1f77b4"/>
   </g>
   <g id="patch_17">
    <path d="M 299.812484 239.669132 
L 303.350431 239.669132 
L 303.350431 228.843664 
L 299.812484 228.843664 
z
" clip-path="url(#p9b1a340f54)" style="fill: #1f77b4"/>
   </g>
   <g id="patch_18">
    <path d="M 313.964273 239.669132 
L 317.50222 239.669132 
L 317.50222 217.905026 
L 313.964273 217.905026 
z
" clip-path="url(#p9b1a340f54)" style="fill: #1f77b4"/>
   </g>
   <g id="patch_19">
    <path d="M 328.116061 239.669132 
L 331.654008 239.669132 
L 331.654008 219.567967 
L 328.116061 219.567967 
z
" clip-path="url(#p9b1a340f54)" style="fill: #1f77b4"/>
   </g>
   <g id="patch_20">
    <path d="M 342.267849 239.669132 
L 345.805797 239.669132 
L 345.805797 197.273571 
L 342.267849 197.273571 
z
" clip-path="url(#p9b1a340f54)" style="fill: #1f77b4"/>
   </g>
   <g id="patch_21">
    <path d="M 356.419638 239.669132 
L 359.957585 239.669132 
L 359.957585 115.458965 
L 356.419638 115.458965 
z
" clip-path="url(#p9b1a340f54)" style="fill: #1f77b4"/>
   </g>
   <g id="patch_22">
    <path d="M 370.571426 239.669132 
L 374.109373 239.669132 
L 374.109373 212.210366 
L 370.571426 212.210366 
z
" clip-path="url(#p9b1a340f54)" style="fill: #1f77b4"/>
   </g>
   <g id="patch_23">
    <path d="M 384.723215 239.669132 
L 388.261162 239.669132 
L 388.261162 225.523749 
L 384.723215 225.523749 
z
" clip-path="url(#p9b1a340f54)" style="fill: #1f77b4"/>
   </g>
   <g id="patch_24">
    <path d="M 398.875003 239.669132 
L 402.41295 239.669132 
L 402.41295 207.68976 
L 398.875003 207.68976 
z
" clip-path="url(#p9b1a340f54)" style="fill: #1f77b4"/>
   </g>
   <g id="patch_25">
    <path d="M 413.026791 239.669132 
L 416.564738 239.669132 
L 416.564738 200.709771 
L 413.026791 200.709771 
z
" clip-path="url(#p9b1a340f54)" style="fill: #1f77b4"/>
   </g>
   <g id="patch_26">
    <path d="M 427.17858 239.669132 
L 430.716527 239.669132 
L 430.716527 211.694068 
L 427.17858 211.694068 
z
" clip-path="url(#p9b1a340f54)" style="fill: #1f77b4"/>
   </g>
   <g id="patch_27">
    <path d="M 441.330368 239.669132 
L 444.868315 239.669132 
L 444.868315 203.054579 
L 441.330368 203.054579 
z
" clip-path="url(#p9b1a340f54)" style="fill: #1f77b4"/>
   </g>
   <g id="patch_28">
    <path d="M 455.482156 239.669132 
L 459.020103 239.669132 
L 459.020103 218.97982 
L 455.482156 218.97982 
z
" clip-path="url(#p9b1a340f54)" style="fill: #1f77b4"/>
   </g>
   <g id="patch_29">
    <path d="M 469.633945 239.669132 
L 473.171892 239.669132 
L 473.171892 119.2819 
L 469.633945 119.2819 
z
" clip-path="url(#p9b1a340f54)" style="fill: #1f77b4"/>
   </g>
   <g id="patch_30">
    <path d="M 483.785733 239.669132 
L 487.32368 239.669132 
L 487.32368 218.47517 
L 483.785733 218.47517 
z
" clip-path="url(#p9b1a340f54)" style="fill: #1f77b4"/>
   </g>
   <g id="patch_31">
    <path d="M 497.937522 239.669132 
L 501.475469 239.669132 
L 501.475469 228.579507 
L 497.937522 228.579507 
z
" clip-path="url(#p9b1a340f54)" style="fill: #1f77b4"/>
   </g>
   <g id="patch_32">
    <path d="M 512.08931 239.669132 
L 515.627257 239.669132 
L 515.627257 216.035847 
L 512.08931 216.035847 
z
" clip-path="url(#p9b1a340f54)" style="fill: #1f77b4"/>
   </g>
   <g id="patch_33">
    <path d="M 526.241098 239.669132 
L 529.779045 239.669132 
L 529.779045 221.070308 
L 526.241098 221.070308 
z
" clip-path="url(#p9b1a340f54)" style="fill: #1f77b4"/>
   </g>
   <g id="patch_34">
    <path d="M 540.392887 239.669132 
L 543.930834 239.669132 
L 543.930834 221.534166 
L 540.392887 221.534166 
z
" clip-path="url(#p9b1a340f54)" style="fill: #1f77b4"/>
   </g>
   <g id="patch_35">
    <path d="M 554.544675 239.669132 
L 558.082622 239.669132 
L 558.082622 217.190941 
L 554.544675 217.190941 
z
" clip-path="url(#p9b1a340f54)" style="fill: #1f77b4"/>
   </g>
   <g id="patch_36">
    <path d="M 568.696463 239.669132 
L 572.23441 239.669132 
L 572.23441 209.147847 
L 568.696463 209.147847 
z
" clip-path="url(#p9b1a340f54)" style="fill: #1f77b4"/>
   </g>
   <g id="patch_37">
    <path d="M 582.848252 239.669132 
L 586.386199 239.669132 
L 586.386199 183.900722 
L 582.848252 183.900722 
z
" clip-path="url(#p9b1a340f54)" style="fill: #1f77b4"/>
   </g>
   <g id="patch_38">
    <path d="M 597.00004 239.669132 
L 600.537987 239.669132 
L 600.537987 213.365175 
L 597.00004 213.365175 
z
" clip-path="url(#p9b1a340f54)" style="fill: #1f77b4"/>
   </g>
   <g id="patch_39">
    <path d="M 611.151828 239.669132 
L 614.689776 239.669132 
L 614.689776 230.937695 
L 611.151828 230.937695 
z
" clip-path="url(#p9b1a340f54)" style="fill: #1f77b4"/>
   </g>
   <g id="patch_40">
    <path d="M 625.303617 239.669132 
L 628.841564 239.669132 
L 628.841564 224.442703 
L 625.303617 224.442703 
z
" clip-path="url(#p9b1a340f54)" style="fill: #1f77b4"/>
   </g>
   <g id="patch_41">
    <path d="M 639.455405 239.669132 
L 642.993352 239.669132 
L 642.993352 234.232174 
L 639.455405 234.232174 
z
" clip-path="url(#p9b1a340f54)" style="fill: #1f77b4"/>
   </g>
   <g id="patch_42">
    <path d="M 653.607194 239.669132 
L 657.145141 239.669132 
L 657.145141 201.403532 
L 653.607194 201.403532 
z
" clip-path="url(#p9b1a340f54)" style="fill: #1f77b4"/>
   </g>
   <g id="patch_43">
    <path d="M 667.758982 239.669132 
L 671.296929 239.669132 
L 671.296929 221.742522 
L 667.758982 221.742522 
z
" clip-path="url(#p9b1a340f54)" style="fill: #1f77b4"/>
   </g>
   <g id="patch_44">
    <path d="M 681.91077 239.669132 
L 685.448717 239.669132 
L 685.448717 207.023309 
L 681.91077 207.023309 
z
" clip-path="url(#p9b1a340f54)" style="fill: #1f77b4"/>
   </g>
   <g id="patch_45">
    <path d="M 696.062559 239.669132 
L 699.600506 239.669132 
L 699.600506 179.45231 
L 696.062559 179.45231 
z
" clip-path="url(#p9b1a340f54)" style="fill: #1f77b4"/>
   </g>
   <g id="patch_46">
    <path d="M 105.225394 239.669132 
L 108.763341 239.669132 
L 108.763341 155.00405 
L 105.225394 155.00405 
z
" clip-path="url(#p9b1a340f54)" style="fill: #ff7f0e"/>
   </g>
   <g id="patch_47">
    <path d="M 119.377183 239.669132 
L 122.91513 239.669132 
L 122.91513 201.731147 
L 119.377183 201.731147 
z
" clip-path="url(#p9b1a340f54)" style="fill: #ff7f0e"/>
   </g>
   <g id="patch_48">
    <path d="M 133.528971 239.669132 
L 137.066918 239.669132 
L 137.066918 157.945701 
L 133.528971 157.945701 
z
" clip-path="url(#p9b1a340f54)" style="fill: #ff7f0e"/>
   </g>
   <g id="patch_49">
    <path d="M 147.680759 239.669132 
L 151.218706 239.669132 
L 151.218706 204.720147 
L 147.680759 204.720147 
z
" clip-path="url(#p9b1a340f54)" style="fill: #ff7f0e"/>
   </g>
   <g id="patch_50">
    <path d="M 161.832548 239.669132 
L 165.370495 239.669132 
L 165.370495 201.226905 
L 161.832548 201.226905 
z
" clip-path="url(#p9b1a340f54)" style="fill: #ff7f0e"/>
   </g>
   <g id="patch_51">
    <path d="M 175.984336 239.669132 
L 179.522283 239.669132 
L 179.522283 149.485223 
L 175.984336 149.485223 
z
" clip-path="url(#p9b1a340f54)" style="fill: #ff7f0e"/>
   </g>
   <g id="patch_52">
    <path d="M 190.136124 239.669132 
L 193.674072 239.669132 
L 193.674072 226.126172 
L 190.136124 226.126172 
z
" clip-path="url(#p9b1a340f54)" style="fill: #ff7f0e"/>
   </g>
   <g id="patch_53">
    <path d="M 204.287913 239.669132 
L 207.82586 239.669132 
L 207.82586 180.021721 
L 204.287913 180.021721 
z
" clip-path="url(#p9b1a340f54)" style="fill: #ff7f0e"/>
   </g>
   <g id="patch_54">
    <path d="M 218.439701 239.669132 
L 221.977648 239.669132 
L 221.977648 184.886458 
L 218.439701 184.886458 
z
" clip-path="url(#p9b1a340f54)" style="fill: #ff7f0e"/>
   </g>
   <g id="patch_55">
    <path d="M 232.59149 239.669132 
L 236.129437 239.669132 
L 236.129437 206.139378 
L 232.59149 206.139378 
z
" clip-path="url(#p9b1a340f54)" style="fill: #ff7f0e"/>
   </g>
   <g id="patch_56">
    <path d="M 246.743278 239.669132 
L 250.281225 239.669132 
L 250.281225 209.564458 
L 246.743278 209.564458 
z
" clip-path="url(#p9b1a340f54)" style="fill: #ff7f0e"/>
   </g>
   <g id="patch_57">
    <path d="M 260.895066 239.669132 
L 264.433013 239.669132 
L 264.433013 152.150458 
L 260.895066 152.150458 
z
" clip-path="url(#p9b1a340f54)" style="fill: #ff7f0e"/>
   </g>
   <g id="patch_58">
    <path d="M 275.046855 239.669132 
L 278.584802 239.669132 
L 278.584802 196.500732 
L 275.046855 196.500732 
z
" clip-path="url(#p9b1a340f54)" style="fill: #ff7f0e"/>
   </g>
   <g id="patch_59">
    <path d="M 289.198643 239.669132 
L 292.73659 239.669132 
L 292.73659 217.082089 
L 289.198643 217.082089 
z
" clip-path="url(#p9b1a340f54)" style="fill: #ff7f0e"/>
   </g>
   <g id="patch_60">
    <path d="M 303.350431 239.669132 
L 306.888378 239.669132 
L 306.888378 228.651518 
L 303.350431 228.651518 
z
" clip-path="url(#p9b1a340f54)" style="fill: #ff7f0e"/>
   </g>
   <g id="patch_61">
    <path d="M 317.50222 239.669132 
L 321.040167 239.669132 
L 321.040167 218.283717 
L 317.50222 218.283717 
z
" clip-path="url(#p9b1a340f54)" style="fill: #ff7f0e"/>
   </g>
   <g id="patch_62">
    <path d="M 331.654008 239.669132 
L 335.191955 239.669132 
L 335.191955 217.691517 
L 331.654008 217.691517 
z
" clip-path="url(#p9b1a340f54)" style="fill: #ff7f0e"/>
   </g>
   <g id="patch_63">
    <path d="M 345.805797 239.669132 
L 349.343744 239.669132 
L 349.343744 187.918837 
L 345.805797 187.918837 
z
" clip-path="url(#p9b1a340f54)" style="fill: #ff7f0e"/>
   </g>
   <g id="patch_64">
    <path d="M 359.957585 239.669132 
L 363.495532 239.669132 
L 363.495532 110.745236 
L 359.957585 110.745236 
z
" clip-path="url(#p9b1a340f54)" style="fill: #ff7f0e"/>
   </g>
   <g id="patch_65">
    <path d="M 374.109373 239.669132 
L 377.64732 239.669132 
L 377.64732 214.947368 
L 374.109373 214.947368 
z
" clip-path="url(#p9b1a340f54)" style="fill: #ff7f0e"/>
   </g>
   <g id="patch_66">
    <path d="M 388.261162 239.669132 
L 391.799109 239.669132 
L 391.799109 226.734114 
L 388.261162 226.734114 
z
" clip-path="url(#p9b1a340f54)" style="fill: #ff7f0e"/>
   </g>
   <g id="patch_67">
    <path d="M 402.41295 239.669132 
L 405.950897 239.669132 
L 405.950897 209.516906 
L 402.41295 209.516906 
z
" clip-path="url(#p9b1a340f54)" style="fill: #ff7f0e"/>
   </g>
   <g id="patch_68">
    <path d="M 416.564738 239.669132 
L 420.102685 239.669132 
L 420.102685 201.762041 
L 416.564738 201.762041 
z
" clip-path="url(#p9b1a340f54)" style="fill: #ff7f0e"/>
   </g>
   <g id="patch_69">
    <path d="M 430.716527 239.669132 
L 434.254474 239.669132 
L 434.254474 211.095697 
L 430.716527 211.095697 
z
" clip-path="url(#p9b1a340f54)" style="fill: #ff7f0e"/>
   </g>
   <g id="patch_70">
    <path d="M 444.868315 239.669132 
L 448.406262 239.669132 
L 448.406262 210.187063 
L 444.868315 210.187063 
z
" clip-path="url(#p9b1a340f54)" style="fill: #ff7f0e"/>
   </g>
   <g id="patch_71">
    <path d="M 459.020103 239.669132 
L 462.558051 239.669132 
L 462.558051 220.169025 
L 459.020103 220.169025 
z
" clip-path="url(#p9b1a340f54)" style="fill: #ff7f0e"/>
   </g>
   <g id="patch_72">
    <path d="M 473.171892 239.669132 
L 476.709839 239.669132 
L 476.709839 115.487965 
L 473.171892 115.487965 
z
" clip-path="url(#p9b1a340f54)" style="fill: #ff7f0e"/>
   </g>
   <g id="patch_73">
    <path d="M 487.32368 239.669132 
L 490.861627 239.669132 
L 490.861627 220.273743 
L 487.32368 220.273743 
z
" clip-path="url(#p9b1a340f54)" style="fill: #ff7f0e"/>
   </g>
   <g id="patch_74">
    <path d="M 501.475469 239.669132 
L 505.013416 239.669132 
L 505.013416 228.935776 
L 501.475469 228.935776 
z
" clip-path="url(#p9b1a340f54)" style="fill: #ff7f0e"/>
   </g>
   <g id="patch_75">
    <path d="M 515.627257 239.669132 
L 519.165204 239.669132 
L 519.165204 218.559238 
L 515.627257 218.559238 
z
" clip-path="url(#p9b1a340f54)" style="fill: #ff7f0e"/>
   </g>
   <g id="patch_76">
    <path d="M 529.779045 239.669132 
L 533.316992 239.669132 
L 533.316992 221.962324 
L 529.779045 221.962324 
z
" clip-path="url(#p9b1a340f54)" style="fill: #ff7f0e"/>
   </g>
   <g id="patch_77">
    <path d="M 543.930834 239.669132 
L 547.468781 239.669132 
L 547.468781 227.081137 
L 543.930834 227.081137 
z
" clip-path="url(#p9b1a340f54)" style="fill: #ff7f0e"/>
   </g>
   <g id="patch_78">
    <path d="M 558.082622 239.669132 
L 561.620569 239.669132 
L 561.620569 209.341582 
L 558.082622 209.341582 
z
" clip-path="url(#p9b1a340f54)" style="fill: #ff7f0e"/>
   </g>
   <g id="patch_79">
    <path d="M 572.23441 239.669132 
L 575.772358 239.669132 
L 575.772358 211.599207 
L 572.23441 211.599207 
z
" clip-path="url(#p9b1a340f54)" style="fill: #ff7f0e"/>
   </g>
   <g id="patch_80">
    <path d="M 586.386199 239.669132 
L 589.924146 239.669132 
L 589.924146 181.87192 
L 586.386199 181.87192 
z
" clip-path="url(#p9b1a340f54)" style="fill: #ff7f0e"/>
   </g>
   <g id="patch_81">
    <path d="M 600.537987 239.669132 
L 604.075934 239.669132 
L 604.075934 215.750938 
L 600.537987 215.750938 
z
" clip-path="url(#p9b1a340f54)" style="fill: #ff7f0e"/>
   </g>
   <g id="patch_82">
    <path d="M 614.689776 239.669132 
L 618.227723 239.669132 
L 618.227723 232.79492 
L 614.689776 232.79492 
z
" clip-path="url(#p9b1a340f54)" style="fill: #ff7f0e"/>
   </g>
   <g id="patch_83">
    <path d="M 628.841564 239.669132 
L 632.379511 239.669132 
L 632.379511 228.126218 
L 628.841564 228.126218 
z
" clip-path="url(#p9b1a340f54)" style="fill: #ff7f0e"/>
   </g>
   <g id="patch_84">
    <path d="M 642.993352 239.669132 
L 646.531299 239.669132 
L 646.531299 231.512177 
L 642.993352 231.512177 
z
" clip-path="url(#p9b1a340f54)" style="fill: #ff7f0e"/>
   </g>
   <g id="patch_85">
    <path d="M 657.145141 239.669132 
L 660.683088 239.669132 
L 660.683088 198.630403 
L 657.145141 198.630403 
z
" clip-path="url(#p9b1a340f54)" style="fill: #ff7f0e"/>
   </g>
   <g id="patch_86">
    <path d="M 671.296929 239.669132 
L 674.834876 239.669132 
L 674.834876 223.75886 
L 671.296929 223.75886 
z
" clip-path="url(#p9b1a340f54)" style="fill: #ff7f0e"/>
   </g>
   <g id="patch_87">
    <path d="M 685.448717 239.669132 
L 688.986665 239.669132 
L 688.986665 208.181498 
L 685.448717 208.181498 
z
" clip-path="url(#p9b1a340f54)" style="fill: #ff7f0e"/>
   </g>
   <g id="patch_88">
    <path d="M 699.600506 239.669132 
L 703.138453 239.669132 
L 703.138453 180.348746 
L 699.600506 180.348746 
z
" clip-path="url(#p9b1a340f54)" style="fill: #ff7f0e"/>
   </g>
   <g id="matplotlib.axis_1">
    <g id="xtick_1">
     <g id="line2d_1">
      <defs>
       <path id="m159c6251fc" d="M 0 0 
L 0 3.5 
" style="stroke: #000000; stroke-width: 0.8"/>
      </defs>
      <g>
       <use xlink:href="#m159c6251fc" x="105.225394" y="239.669132" style="stroke: #000000; stroke-width: 0.8"/>
      </g>
     </g>
     <g id="text_1">
      <!-- 201 -->
      <g transform="translate(107.002738 258.770382) rotate(-90) scale(0.07 -0.07)">
       <defs>
        <path id="PretendardGOV-Regular-32" d="M 481 406 
L 1956 2038 
Q 2238 2350 2391 2550 
Q 2544 2750 2623 2937 
Q 2703 3125 2706 3331 
Q 2703 3559 2592 3734 
Q 2481 3909 2290 4004 
Q 2100 4100 1863 4100 
Q 1613 4100 1427 3995 
Q 1241 3891 1139 3697 
Q 1038 3503 1038 3250 
L 500 3250 
Q 500 3641 679 3945 
Q 859 4250 1175 4419 
Q 1491 4588 1881 4588 
Q 2266 4588 2573 4420 
Q 2881 4253 3054 3965 
Q 3228 3678 3231 3331 
Q 3228 3075 3139 2840 
Q 3050 2606 2839 2317 
Q 2628 2028 2238 1606 
L 1250 538 
L 1250 500 
L 3306 500 
L 3306 0 
L 481 0 
L 481 406 
z
" transform="scale(0.015625)"/>
        <path id="PretendardGOV-Regular-30" d="M 1844 -63 
Q 1359 -63 1018 187 
Q 678 438 501 920 
Q 325 1403 325 2088 
L 325 2438 
Q 325 3125 501 3606 
Q 678 4088 1018 4338 
Q 1359 4588 1844 4588 
Q 2325 4588 2664 4338 
Q 3003 4088 3179 3606 
Q 3356 3125 3356 2438 
L 3356 2088 
Q 3356 1403 3179 920 
Q 3003 438 2664 187 
Q 2325 -63 1844 -63 
z
M 1844 431 
Q 2813 431 2813 2081 
L 2813 2438 
Q 2813 4094 1844 4094 
Q 1356 4094 1115 3681 
Q 875 3269 875 2438 
L 875 2081 
Q 875 1256 1115 843 
Q 1356 431 1844 431 
z
" transform="scale(0.015625)"/>
        <path id="PretendardGOV-Regular-31" d="M 2163 456 
L 3144 456 
L 3144 0 
L 569 0 
L 569 456 
L 1600 456 
L 1600 3938 
L 1575 3938 
L 569 3269 
L 569 3844 
L 1600 4525 
L 2163 4525 
L 2163 456 
z
" transform="scale(0.015625)"/>
       </defs>
       <use xlink:href="#PretendardGOV-Regular-32"/>
       <use xlink:href="#PretendardGOV-Regular-30" x="57.617188"/>
       <use xlink:href="#PretendardGOV-Regular-31" x="115.234375"/>
      </g>
     </g>
    </g>
    <g id="xtick_2">
     <g id="line2d_2">
      <g>
       <use xlink:href="#m159c6251fc" x="119.377183" y="239.669132" style="stroke: #000000; stroke-width: 0.8"/>
      </g>
     </g>
     <g id="text_2">
      <!-- 202 -->
      <g transform="translate(121.154526 258.770382) rotate(-90) scale(0.07 -0.07)">
       <use xlink:href="#PretendardGOV-Regular-32"/>
       <use xlink:href="#PretendardGOV-Regular-30" x="57.617188"/>
       <use xlink:href="#PretendardGOV-Regular-32" x="115.234375"/>
      </g>
     </g>
    </g>
    <g id="xtick_3">
     <g id="line2d_3">
      <g>
       <use xlink:href="#m159c6251fc" x="133.528971" y="239.669132" style="stroke: #000000; stroke-width: 0.8"/>
      </g>
     </g>
     <g id="text_3">
      <!-- 203 -->
      <g transform="translate(135.306315 258.770382) rotate(-90) scale(0.07 -0.07)">
       <defs>
        <path id="PretendardGOV-Regular-33" d="M 900 1144 
Q 922 922 1048 762 
Q 1175 603 1381 520 
Q 1588 438 1844 438 
Q 2119 438 2336 534 
Q 2553 631 2678 823 
Q 2803 1016 2800 1288 
Q 2803 1547 2689 1755 
Q 2575 1963 2325 2088 
Q 2075 2213 1688 2213 
L 1319 2213 
L 1319 2656 
L 2425 3988 
L 2425 4025 
L 544 4025 
L 544 4525 
L 3181 4525 
L 3181 4119 
L 2000 2681 
L 2000 2644 
Q 2384 2622 2693 2439 
Q 3003 2256 3179 1953 
Q 3356 1650 3356 1281 
Q 3356 897 3161 590 
Q 2966 284 2619 110 
Q 2272 -63 1831 -63 
Q 1428 -63 1093 82 
Q 759 228 554 501 
Q 350 775 325 1144 
L 900 1144 
z
" transform="scale(0.015625)"/>
       </defs>
       <use xlink:href="#PretendardGOV-Regular-32"/>
       <use xlink:href="#PretendardGOV-Regular-30" x="57.617188"/>
       <use xlink:href="#PretendardGOV-Regular-33" x="115.234375"/>
      </g>
     </g>
    </g>
    <g id="xtick_4">
     <g id="line2d_4">
      <g>
       <use xlink:href="#m159c6251fc" x="147.680759" y="239.669132" style="stroke: #000000; stroke-width: 0.8"/>
      </g>
     </g>
     <g id="text_4">
      <!-- 204 -->
      <g transform="translate(149.458103 258.770382) rotate(-90) scale(0.07 -0.07)">
       <defs>
        <path id="PretendardGOV-Regular-34" d="M 231 1388 
L 1994 4525 
L 2550 4525 
L 825 1456 
L 825 1419 
L 2313 1419 
L 2313 2831 
L 2844 2831 
L 2844 1419 
L 3450 1419 
L 3450 925 
L 2844 925 
L 2844 0 
L 2313 0 
L 2313 925 
L 231 925 
L 231 1388 
z
" transform="scale(0.015625)"/>
       </defs>
       <use xlink:href="#PretendardGOV-Regular-32"/>
       <use xlink:href="#PretendardGOV-Regular-30" x="57.617188"/>
       <use xlink:href="#PretendardGOV-Regular-34" x="115.234375"/>
      </g>
     </g>
    </g>
    <g id="xtick_5">
     <g id="line2d_5">
      <g>
       <use xlink:href="#m159c6251fc" x="161.832548" y="239.669132" style="stroke: #000000; stroke-width: 0.8"/>
      </g>
     </g>
     <g id="text_5">
      <!-- 205 -->
      <g transform="translate(163.609891 258.770382) rotate(-90) scale(0.07 -0.07)">
       <defs>
        <path id="PretendardGOV-Regular-35" d="M 1888 -63 
Q 1500 -63 1183 92 
Q 866 247 677 520 
Q 488 794 469 1138 
L 1025 1138 
Q 1041 938 1158 777 
Q 1275 616 1467 523 
Q 1659 431 1888 431 
Q 2159 431 2373 561 
Q 2588 691 2709 919 
Q 2831 1147 2831 1431 
Q 2831 1725 2704 1956 
Q 2578 2188 2354 2320 
Q 2131 2453 1850 2456 
Q 1572 2463 1373 2366 
Q 1175 2269 1063 2050 
L 513 2050 
L 813 4525 
L 3175 4525 
L 3175 4025 
L 1294 4025 
L 1138 2700 
L 1188 2700 
Q 1309 2816 1514 2889 
Q 1719 2963 1944 2963 
Q 2350 2963 2678 2766 
Q 3006 2569 3193 2222 
Q 3381 1875 3381 1444 
Q 3381 1016 3187 672 
Q 2994 328 2653 132 
Q 2313 -63 1888 -63 
z
" transform="scale(0.015625)"/>
       </defs>
       <use xlink:href="#PretendardGOV-Regular-32"/>
       <use xlink:href="#PretendardGOV-Regular-30" x="57.617188"/>
       <use xlink:href="#PretendardGOV-Regular-35" x="115.234375"/>
      </g>
     </g>
    </g>
    <g id="xtick_6">
     <g id="line2d_6">
      <g>
       <use xlink:href="#m159c6251fc" x="175.984336" y="239.669132" style="stroke: #000000; stroke-width: 0.8"/>
      </g>
     </g>
     <g id="text_6">
      <!-- 206 -->
      <g transform="translate(177.76168 258.770382) rotate(-90) scale(0.07 -0.07)">
       <defs>
        <path id="PretendardGOV-Regular-36" d="M 1838 -63 
Q 1416 -63 1064 131 
Q 713 325 509 659 
Q 306 994 306 1394 
Q 306 1734 473 2104 
Q 641 2475 1000 3006 
L 2019 4525 
L 2663 4525 
L 1444 2713 
L 1475 2688 
Q 1550 2763 1694 2809 
Q 1838 2856 2031 2856 
Q 2419 2856 2728 2662 
Q 3038 2469 3209 2134 
Q 3381 1800 3381 1394 
Q 3381 994 3175 659 
Q 2969 325 2616 131 
Q 2263 -63 1838 -63 
z
M 1844 431 
Q 2131 431 2356 556 
Q 2581 681 2706 906 
Q 2831 1131 2831 1419 
Q 2831 1706 2706 1932 
Q 2581 2159 2356 2286 
Q 2131 2413 1844 2413 
Q 1556 2413 1329 2286 
Q 1103 2159 976 1932 
Q 850 1706 850 1419 
Q 850 1131 976 906 
Q 1103 681 1329 556 
Q 1556 431 1844 431 
z
" transform="scale(0.015625)"/>
       </defs>
       <use xlink:href="#PretendardGOV-Regular-32"/>
       <use xlink:href="#PretendardGOV-Regular-30" x="57.617188"/>
       <use xlink:href="#PretendardGOV-Regular-36" x="115.234375"/>
      </g>
     </g>
    </g>
    <g id="xtick_7">
     <g id="line2d_7">
      <g>
       <use xlink:href="#m159c6251fc" x="190.136124" y="239.669132" style="stroke: #000000; stroke-width: 0.8"/>
      </g>
     </g>
     <g id="text_7">
      <!-- 207 -->
      <g transform="translate(191.913468 258.770382) rotate(-90) scale(0.07 -0.07)">
       <defs>
        <path id="PretendardGOV-Regular-37" d="M 2681 3994 
L 2681 4025 
L 425 4025 
L 425 4525 
L 3275 4525 
L 3275 4000 
L 1313 0 
L 719 0 
L 2681 3994 
z
" transform="scale(0.015625)"/>
       </defs>
       <use xlink:href="#PretendardGOV-Regular-32"/>
       <use xlink:href="#PretendardGOV-Regular-30" x="57.617188"/>
       <use xlink:href="#PretendardGOV-Regular-37" x="115.234375"/>
      </g>
     </g>
    </g>
    <g id="xtick_8">
     <g id="line2d_8">
      <g>
       <use xlink:href="#m159c6251fc" x="204.287913" y="239.669132" style="stroke: #000000; stroke-width: 0.8"/>
      </g>
     </g>
     <g id="text_8">
      <!-- 208 -->
      <g transform="translate(206.065257 258.770382) rotate(-90) scale(0.07 -0.07)">
       <defs>
        <path id="PretendardGOV-Regular-38" d="M 1844 -63 
Q 1394 -63 1042 100 
Q 691 263 495 550 
Q 300 838 300 1200 
Q 300 1481 415 1728 
Q 531 1975 731 2139 
Q 931 2303 1175 2350 
L 1175 2375 
Q 959 2431 800 2578 
Q 641 2725 553 2936 
Q 466 3147 463 3388 
Q 466 3728 644 4001 
Q 822 4275 1136 4431 
Q 1450 4588 1844 4588 
Q 2231 4588 2543 4431 
Q 2856 4275 3036 4001 
Q 3216 3728 3219 3388 
Q 3216 3147 3127 2936 
Q 3038 2725 2878 2578 
Q 2719 2431 2506 2375 
L 2506 2350 
Q 2750 2303 2950 2139 
Q 3150 1975 3267 1728 
Q 3384 1481 3388 1200 
Q 3384 838 3187 550 
Q 2991 263 2641 100 
Q 2291 -63 1844 -63 
z
M 1844 431 
Q 2144 431 2366 531 
Q 2588 631 2706 811 
Q 2825 991 2825 1231 
Q 2825 1481 2698 1679 
Q 2572 1878 2348 1989 
Q 2125 2100 1844 2100 
Q 1563 2100 1336 1987 
Q 1109 1875 982 1678 
Q 856 1481 863 1231 
Q 856 994 975 812 
Q 1094 631 1317 531 
Q 1541 431 1844 431 
z
M 1844 2575 
Q 2081 2575 2270 2670 
Q 2459 2766 2564 2941 
Q 2669 3116 2669 3344 
Q 2669 3569 2564 3741 
Q 2459 3913 2271 4006 
Q 2084 4100 1844 4100 
Q 1597 4100 1408 4006 
Q 1219 3913 1116 3741 
Q 1013 3569 1013 3344 
Q 1013 3116 1119 2941 
Q 1225 2766 1414 2670 
Q 1603 2575 1844 2575 
z
" transform="scale(0.015625)"/>
       </defs>
       <use xlink:href="#PretendardGOV-Regular-32"/>
       <use xlink:href="#PretendardGOV-Regular-30" x="57.617188"/>
       <use xlink:href="#PretendardGOV-Regular-38" x="115.234375"/>
      </g>
     </g>
    </g>
    <g id="xtick_9">
     <g id="line2d_9">
      <g>
       <use xlink:href="#m159c6251fc" x="218.439701" y="239.669132" style="stroke: #000000; stroke-width: 0.8"/>
      </g>
     </g>
     <g id="text_9">
      <!-- 209 -->
      <g transform="translate(220.217045 258.770382) rotate(-90) scale(0.07 -0.07)">
       <defs>
        <path id="PretendardGOV-Regular-39" d="M 1850 4588 
Q 2272 4588 2623 4394 
Q 2975 4200 3178 3865 
Q 3381 3531 3381 3131 
Q 3381 2791 3214 2420 
Q 3047 2050 2688 1519 
L 1669 0 
L 1025 0 
L 2244 1813 
L 2213 1838 
Q 2138 1763 1994 1716 
Q 1850 1669 1656 1669 
Q 1269 1669 959 1862 
Q 650 2056 478 2390 
Q 306 2725 306 3131 
Q 306 3531 512 3865 
Q 719 4200 1072 4394 
Q 1425 4588 1850 4588 
z
M 1844 4094 
Q 1556 4094 1331 3969 
Q 1106 3844 981 3619 
Q 856 3394 856 3106 
Q 856 2819 981 2592 
Q 1106 2366 1331 2239 
Q 1556 2113 1844 2113 
Q 2131 2113 2357 2239 
Q 2584 2366 2711 2592 
Q 2838 2819 2838 3106 
Q 2838 3394 2711 3619 
Q 2584 3844 2357 3969 
Q 2131 4094 1844 4094 
z
" transform="scale(0.015625)"/>
       </defs>
       <use xlink:href="#PretendardGOV-Regular-32"/>
       <use xlink:href="#PretendardGOV-Regular-30" x="57.617188"/>
       <use xlink:href="#PretendardGOV-Regular-39" x="115.234375"/>
      </g>
     </g>
    </g>
    <g id="xtick_10">
     <g id="line2d_10">
      <g>
       <use xlink:href="#m159c6251fc" x="232.59149" y="239.669132" style="stroke: #000000; stroke-width: 0.8"/>
      </g>
     </g>
     <g id="text_10">
      <!-- 210 -->
      <g transform="translate(234.368833 258.770382) rotate(-90) scale(0.07 -0.07)">
       <use xlink:href="#PretendardGOV-Regular-32"/>
       <use xlink:href="#PretendardGOV-Regular-31" x="57.617188"/>
       <use xlink:href="#PretendardGOV-Regular-30" x="115.234375"/>
      </g>
     </g>
    </g>
    <g id="xtick_11">
     <g id="line2d_11">
      <g>
       <use xlink:href="#m159c6251fc" x="246.743278" y="239.669132" style="stroke: #000000; stroke-width: 0.8"/>
      </g>
     </g>
     <g id="text_11">
      <!-- 211 -->
      <g transform="translate(248.520622 258.770382) rotate(-90) scale(0.07 -0.07)">
       <use xlink:href="#PretendardGOV-Regular-32"/>
       <use xlink:href="#PretendardGOV-Regular-31" x="57.617188"/>
       <use xlink:href="#PretendardGOV-Regular-31" x="115.234375"/>
      </g>
     </g>
    </g>
    <g id="xtick_12">
     <g id="line2d_12">
      <g>
       <use xlink:href="#m159c6251fc" x="260.895066" y="239.669132" style="stroke: #000000; stroke-width: 0.8"/>
      </g>
     </g>
     <g id="text_12">
      <!-- 212 -->
      <g transform="translate(262.67241 258.770382) rotate(-90) scale(0.07 -0.07)">
       <use xlink:href="#PretendardGOV-Regular-32"/>
       <use xlink:href="#PretendardGOV-Regular-31" x="57.617188"/>
       <use xlink:href="#PretendardGOV-Regular-32" x="115.234375"/>
      </g>
     </g>
    </g>
    <g id="xtick_13">
     <g id="line2d_13">
      <g>
       <use xlink:href="#m159c6251fc" x="275.046855" y="239.669132" style="stroke: #000000; stroke-width: 0.8"/>
      </g>
     </g>
     <g id="text_13">
      <!-- 213 -->
      <g transform="translate(276.824198 258.770382) rotate(-90) scale(0.07 -0.07)">
       <use xlink:href="#PretendardGOV-Regular-32"/>
       <use xlink:href="#PretendardGOV-Regular-31" x="57.617188"/>
       <use xlink:href="#PretendardGOV-Regular-33" x="115.234375"/>
      </g>
     </g>
    </g>
    <g id="xtick_14">
     <g id="line2d_14">
      <g>
       <use xlink:href="#m159c6251fc" x="289.198643" y="239.669132" style="stroke: #000000; stroke-width: 0.8"/>
      </g>
     </g>
     <g id="text_14">
      <!-- 214 -->
      <g transform="translate(290.975987 258.770382) rotate(-90) scale(0.07 -0.07)">
       <use xlink:href="#PretendardGOV-Regular-32"/>
       <use xlink:href="#PretendardGOV-Regular-31" x="57.617188"/>
       <use xlink:href="#PretendardGOV-Regular-34" x="115.234375"/>
      </g>
     </g>
    </g>
    <g id="xtick_15">
     <g id="line2d_15">
      <g>
       <use xlink:href="#m159c6251fc" x="303.350431" y="239.669132" style="stroke: #000000; stroke-width: 0.8"/>
      </g>
     </g>
     <g id="text_15">
      <!-- 215 -->
      <g transform="translate(305.127775 258.770382) rotate(-90) scale(0.07 -0.07)">
       <use xlink:href="#PretendardGOV-Regular-32"/>
       <use xlink:href="#PretendardGOV-Regular-31" x="57.617188"/>
       <use xlink:href="#PretendardGOV-Regular-35" x="115.234375"/>
      </g>
     </g>
    </g>
    <g id="xtick_16">
     <g id="line2d_16">
      <g>
       <use xlink:href="#m159c6251fc" x="317.50222" y="239.669132" style="stroke: #000000; stroke-width: 0.8"/>
      </g>
     </g>
     <g id="text_16">
      <!-- 216 -->
      <g transform="translate(319.279564 258.770382) rotate(-90) scale(0.07 -0.07)">
       <use xlink:href="#PretendardGOV-Regular-32"/>
       <use xlink:href="#PretendardGOV-Regular-31" x="57.617188"/>
       <use xlink:href="#PretendardGOV-Regular-36" x="115.234375"/>
      </g>
     </g>
    </g>
    <g id="xtick_17">
     <g id="line2d_17">
      <g>
       <use xlink:href="#m159c6251fc" x="331.654008" y="239.669132" style="stroke: #000000; stroke-width: 0.8"/>
      </g>
     </g>
     <g id="text_17">
      <!-- 217 -->
      <g transform="translate(333.431352 258.770382) rotate(-90) scale(0.07 -0.07)">
       <use xlink:href="#PretendardGOV-Regular-32"/>
       <use xlink:href="#PretendardGOV-Regular-31" x="57.617188"/>
       <use xlink:href="#PretendardGOV-Regular-37" x="115.234375"/>
      </g>
     </g>
    </g>
    <g id="xtick_18">
     <g id="line2d_18">
      <g>
       <use xlink:href="#m159c6251fc" x="345.805797" y="239.669132" style="stroke: #000000; stroke-width: 0.8"/>
      </g>
     </g>
     <g id="text_18">
      <!-- 218 -->
      <g transform="translate(347.58314 258.770382) rotate(-90) scale(0.07 -0.07)">
       <use xlink:href="#PretendardGOV-Regular-32"/>
       <use xlink:href="#PretendardGOV-Regular-31" x="57.617188"/>
       <use xlink:href="#PretendardGOV-Regular-38" x="115.234375"/>
      </g>
     </g>
    </g>
    <g id="xtick_19">
     <g id="line2d_19">
      <g>
       <use xlink:href="#m159c6251fc" x="359.957585" y="239.669132" style="stroke: #000000; stroke-width: 0.8"/>
      </g>
     </g>
     <g id="text_19">
      <!-- 219 -->
      <g transform="translate(361.734929 258.770382) rotate(-90) scale(0.07 -0.07)">
       <use xlink:href="#PretendardGOV-Regular-32"/>
       <use xlink:href="#PretendardGOV-Regular-31" x="57.617188"/>
       <use xlink:href="#PretendardGOV-Regular-39" x="115.234375"/>
      </g>
     </g>
    </g>
    <g id="xtick_20">
     <g id="line2d_20">
      <g>
       <use xlink:href="#m159c6251fc" x="374.109373" y="239.669132" style="stroke: #000000; stroke-width: 0.8"/>
      </g>
     </g>
     <g id="text_20">
      <!-- 220 -->
      <g transform="translate(375.886717 258.770382) rotate(-90) scale(0.07 -0.07)">
       <use xlink:href="#PretendardGOV-Regular-32"/>
       <use xlink:href="#PretendardGOV-Regular-32" x="57.617188"/>
       <use xlink:href="#PretendardGOV-Regular-30" x="115.234375"/>
      </g>
     </g>
    </g>
    <g id="xtick_21">
     <g id="line2d_21">
      <g>
       <use xlink:href="#m159c6251fc" x="388.261162" y="239.669132" style="stroke: #000000; stroke-width: 0.8"/>
      </g>
     </g>
     <g id="text_21">
      <!-- 221 -->
      <g transform="translate(390.038505 258.770382) rotate(-90) scale(0.07 -0.07)">
       <use xlink:href="#PretendardGOV-Regular-32"/>
       <use xlink:href="#PretendardGOV-Regular-32" x="57.617188"/>
       <use xlink:href="#PretendardGOV-Regular-31" x="115.234375"/>
      </g>
     </g>
    </g>
    <g id="xtick_22">
     <g id="line2d_22">
      <g>
       <use xlink:href="#m159c6251fc" x="402.41295" y="239.669132" style="stroke: #000000; stroke-width: 0.8"/>
      </g>
     </g>
     <g id="text_22">
      <!-- 222 -->
      <g transform="translate(404.190294 258.770382) rotate(-90) scale(0.07 -0.07)">
       <use xlink:href="#PretendardGOV-Regular-32"/>
       <use xlink:href="#PretendardGOV-Regular-32" x="57.617188"/>
       <use xlink:href="#PretendardGOV-Regular-32" x="115.234375"/>
      </g>
     </g>
    </g>
    <g id="xtick_23">
     <g id="line2d_23">
      <g>
       <use xlink:href="#m159c6251fc" x="416.564738" y="239.669132" style="stroke: #000000; stroke-width: 0.8"/>
      </g>
     </g>
     <g id="text_23">
      <!-- 223 -->
      <g transform="translate(418.342082 258.770382) rotate(-90) scale(0.07 -0.07)">
       <use xlink:href="#PretendardGOV-Regular-32"/>
       <use xlink:href="#PretendardGOV-Regular-32" x="57.617188"/>
       <use xlink:href="#PretendardGOV-Regular-33" x="115.234375"/>
      </g>
     </g>
    </g>
    <g id="xtick_24">
     <g id="line2d_24">
      <g>
       <use xlink:href="#m159c6251fc" x="430.716527" y="239.669132" style="stroke: #000000; stroke-width: 0.8"/>
      </g>
     </g>
     <g id="text_24">
      <!-- 224 -->
      <g transform="translate(432.49387 258.770382) rotate(-90) scale(0.07 -0.07)">
       <use xlink:href="#PretendardGOV-Regular-32"/>
       <use xlink:href="#PretendardGOV-Regular-32" x="57.617188"/>
       <use xlink:href="#PretendardGOV-Regular-34" x="115.234375"/>
      </g>
     </g>
    </g>
    <g id="xtick_25">
     <g id="line2d_25">
      <g>
       <use xlink:href="#m159c6251fc" x="444.868315" y="239.669132" style="stroke: #000000; stroke-width: 0.8"/>
      </g>
     </g>
     <g id="text_25">
      <!-- 225 -->
      <g transform="translate(446.645659 258.770382) rotate(-90) scale(0.07 -0.07)">
       <use xlink:href="#PretendardGOV-Regular-32"/>
       <use xlink:href="#PretendardGOV-Regular-32" x="57.617188"/>
       <use xlink:href="#PretendardGOV-Regular-35" x="115.234375"/>
      </g>
     </g>
    </g>
    <g id="xtick_26">
     <g id="line2d_26">
      <g>
       <use xlink:href="#m159c6251fc" x="459.020103" y="239.669132" style="stroke: #000000; stroke-width: 0.8"/>
      </g>
     </g>
     <g id="text_26">
      <!-- 226 -->
      <g transform="translate(460.797447 258.770382) rotate(-90) scale(0.07 -0.07)">
       <use xlink:href="#PretendardGOV-Regular-32"/>
       <use xlink:href="#PretendardGOV-Regular-32" x="57.617188"/>
       <use xlink:href="#PretendardGOV-Regular-36" x="115.234375"/>
      </g>
     </g>
    </g>
    <g id="xtick_27">
     <g id="line2d_27">
      <g>
       <use xlink:href="#m159c6251fc" x="473.171892" y="239.669132" style="stroke: #000000; stroke-width: 0.8"/>
      </g>
     </g>
     <g id="text_27">
      <!-- 227 -->
      <g transform="translate(474.949236 258.770382) rotate(-90) scale(0.07 -0.07)">
       <use xlink:href="#PretendardGOV-Regular-32"/>
       <use xlink:href="#PretendardGOV-Regular-32" x="57.617188"/>
       <use xlink:href="#PretendardGOV-Regular-37" x="115.234375"/>
      </g>
     </g>
    </g>
    <g id="xtick_28">
     <g id="line2d_28">
      <g>
       <use xlink:href="#m159c6251fc" x="487.32368" y="239.669132" style="stroke: #000000; stroke-width: 0.8"/>
      </g>
     </g>
     <g id="text_28">
      <!-- 228 -->
      <g transform="translate(489.101024 258.770382) rotate(-90) scale(0.07 -0.07)">
       <use xlink:href="#PretendardGOV-Regular-32"/>
       <use xlink:href="#PretendardGOV-Regular-32" x="57.617188"/>
       <use xlink:href="#PretendardGOV-Regular-38" x="115.234375"/>
      </g>
     </g>
    </g>
    <g id="xtick_29">
     <g id="line2d_29">
      <g>
       <use xlink:href="#m159c6251fc" x="501.475469" y="239.669132" style="stroke: #000000; stroke-width: 0.8"/>
      </g>
     </g>
     <g id="text_29">
      <!-- 229 -->
      <g transform="translate(503.252812 258.770382) rotate(-90) scale(0.07 -0.07)">
       <use xlink:href="#PretendardGOV-Regular-32"/>
       <use xlink:href="#PretendardGOV-Regular-32" x="57.617188"/>
       <use xlink:href="#PretendardGOV-Regular-39" x="115.234375"/>
      </g>
     </g>
    </g>
    <g id="xtick_30">
     <g id="line2d_30">
      <g>
       <use xlink:href="#m159c6251fc" x="515.627257" y="239.669132" style="stroke: #000000; stroke-width: 0.8"/>
      </g>
     </g>
     <g id="text_30">
      <!-- 230 -->
      <g transform="translate(517.404601 258.770382) rotate(-90) scale(0.07 -0.07)">
       <use xlink:href="#PretendardGOV-Regular-32"/>
       <use xlink:href="#PretendardGOV-Regular-33" x="57.617188"/>
       <use xlink:href="#PretendardGOV-Regular-30" x="115.234375"/>
      </g>
     </g>
    </g>
    <g id="xtick_31">
     <g id="line2d_31">
      <g>
       <use xlink:href="#m159c6251fc" x="529.779045" y="239.669132" style="stroke: #000000; stroke-width: 0.8"/>
      </g>
     </g>
     <g id="text_31">
      <!-- 231 -->
      <g transform="translate(531.556389 258.770382) rotate(-90) scale(0.07 -0.07)">
       <use xlink:href="#PretendardGOV-Regular-32"/>
       <use xlink:href="#PretendardGOV-Regular-33" x="57.617188"/>
       <use xlink:href="#PretendardGOV-Regular-31" x="115.234375"/>
      </g>
     </g>
    </g>
    <g id="xtick_32">
     <g id="line2d_32">
      <g>
       <use xlink:href="#m159c6251fc" x="543.930834" y="239.669132" style="stroke: #000000; stroke-width: 0.8"/>
      </g>
     </g>
     <g id="text_32">
      <!-- 232 -->
      <g transform="translate(545.708177 258.770382) rotate(-90) scale(0.07 -0.07)">
       <use xlink:href="#PretendardGOV-Regular-32"/>
       <use xlink:href="#PretendardGOV-Regular-33" x="57.617188"/>
       <use xlink:href="#PretendardGOV-Regular-32" x="115.234375"/>
      </g>
     </g>
    </g>
    <g id="xtick_33">
     <g id="line2d_33">
      <g>
       <use xlink:href="#m159c6251fc" x="558.082622" y="239.669132" style="stroke: #000000; stroke-width: 0.8"/>
      </g>
     </g>
     <g id="text_33">
      <!-- 233 -->
      <g transform="translate(559.859966 258.770382) rotate(-90) scale(0.07 -0.07)">
       <use xlink:href="#PretendardGOV-Regular-32"/>
       <use xlink:href="#PretendardGOV-Regular-33" x="57.617188"/>
       <use xlink:href="#PretendardGOV-Regular-33" x="115.234375"/>
      </g>
     </g>
    </g>
    <g id="xtick_34">
     <g id="line2d_34">
      <g>
       <use xlink:href="#m159c6251fc" x="572.23441" y="239.669132" style="stroke: #000000; stroke-width: 0.8"/>
      </g>
     </g>
     <g id="text_34">
      <!-- 234 -->
      <g transform="translate(574.011754 258.770382) rotate(-90) scale(0.07 -0.07)">
       <use xlink:href="#PretendardGOV-Regular-32"/>
       <use xlink:href="#PretendardGOV-Regular-33" x="57.617188"/>
       <use xlink:href="#PretendardGOV-Regular-34" x="115.234375"/>
      </g>
     </g>
    </g>
    <g id="xtick_35">
     <g id="line2d_35">
      <g>
       <use xlink:href="#m159c6251fc" x="586.386199" y="239.669132" style="stroke: #000000; stroke-width: 0.8"/>
      </g>
     </g>
     <g id="text_35">
      <!-- 235 -->
      <g transform="translate(588.163543 258.770382) rotate(-90) scale(0.07 -0.07)">
       <use xlink:href="#PretendardGOV-Regular-32"/>
       <use xlink:href="#PretendardGOV-Regular-33" x="57.617188"/>
       <use xlink:href="#PretendardGOV-Regular-35" x="115.234375"/>
      </g>
     </g>
    </g>
    <g id="xtick_36">
     <g id="line2d_36">
      <g>
       <use xlink:href="#m159c6251fc" x="600.537987" y="239.669132" style="stroke: #000000; stroke-width: 0.8"/>
      </g>
     </g>
     <g id="text_36">
      <!-- 236 -->
      <g transform="translate(602.315331 258.770382) rotate(-90) scale(0.07 -0.07)">
       <use xlink:href="#PretendardGOV-Regular-32"/>
       <use xlink:href="#PretendardGOV-Regular-33" x="57.617188"/>
       <use xlink:href="#PretendardGOV-Regular-36" x="115.234375"/>
      </g>
     </g>
    </g>
    <g id="xtick_37">
     <g id="line2d_37">
      <g>
       <use xlink:href="#m159c6251fc" x="614.689776" y="239.669132" style="stroke: #000000; stroke-width: 0.8"/>
      </g>
     </g>
     <g id="text_37">
      <!-- 237 -->
      <g transform="translate(616.467119 258.770382) rotate(-90) scale(0.07 -0.07)">
       <use xlink:href="#PretendardGOV-Regular-32"/>
       <use xlink:href="#PretendardGOV-Regular-33" x="57.617188"/>
       <use xlink:href="#PretendardGOV-Regular-37" x="115.234375"/>
      </g>
     </g>
    </g>
    <g id="xtick_38">
     <g id="line2d_38">
      <g>
       <use xlink:href="#m159c6251fc" x="628.841564" y="239.669132" style="stroke: #000000; stroke-width: 0.8"/>
      </g>
     </g>
     <g id="text_38">
      <!-- 238 -->
      <g transform="translate(630.618908 258.770382) rotate(-90) scale(0.07 -0.07)">
       <use xlink:href="#PretendardGOV-Regular-32"/>
       <use xlink:href="#PretendardGOV-Regular-33" x="57.617188"/>
       <use xlink:href="#PretendardGOV-Regular-38" x="115.234375"/>
      </g>
     </g>
    </g>
    <g id="xtick_39">
     <g id="line2d_39">
      <g>
       <use xlink:href="#m159c6251fc" x="642.993352" y="239.669132" style="stroke: #000000; stroke-width: 0.8"/>
      </g>
     </g>
     <g id="text_39">
      <!-- 239 -->
      <g transform="translate(644.770696 258.770382) rotate(-90) scale(0.07 -0.07)">
       <use xlink:href="#PretendardGOV-Regular-32"/>
       <use xlink:href="#PretendardGOV-Regular-33" x="57.617188"/>
       <use xlink:href="#PretendardGOV-Regular-39" x="115.234375"/>
      </g>
     </g>
    </g>
    <g id="xtick_40">
     <g id="line2d_40">
      <g>
       <use xlink:href="#m159c6251fc" x="657.145141" y="239.669132" style="stroke: #000000; stroke-width: 0.8"/>
      </g>
     </g>
     <g id="text_40">
      <!-- 240 -->
      <g transform="translate(658.922484 258.770382) rotate(-90) scale(0.07 -0.07)">
       <use xlink:href="#PretendardGOV-Regular-32"/>
       <use xlink:href="#PretendardGOV-Regular-34" x="57.617188"/>
       <use xlink:href="#PretendardGOV-Regular-30" x="115.234375"/>
      </g>
     </g>
    </g>
    <g id="xtick_41">
     <g id="line2d_41">
      <g>
       <use xlink:href="#m159c6251fc" x="671.296929" y="239.669132" style="stroke: #000000; stroke-width: 0.8"/>
      </g>
     </g>
     <g id="text_41">
      <!-- 241 -->
      <g transform="translate(673.074273 258.770382) rotate(-90) scale(0.07 -0.07)">
       <use xlink:href="#PretendardGOV-Regular-32"/>
       <use xlink:href="#PretendardGOV-Regular-34" x="57.617188"/>
       <use xlink:href="#PretendardGOV-Regular-31" x="115.234375"/>
      </g>
     </g>
    </g>
    <g id="xtick_42">
     <g id="line2d_42">
      <g>
       <use xlink:href="#m159c6251fc" x="685.448717" y="239.669132" style="stroke: #000000; stroke-width: 0.8"/>
      </g>
     </g>
     <g id="text_42">
      <!-- 242 -->
      <g transform="translate(687.226061 258.770382) rotate(-90) scale(0.07 -0.07)">
       <use xlink:href="#PretendardGOV-Regular-32"/>
       <use xlink:href="#PretendardGOV-Regular-34" x="57.617188"/>
       <use xlink:href="#PretendardGOV-Regular-32" x="115.234375"/>
      </g>
     </g>
    </g>
    <g id="xtick_43">
     <g id="line2d_43">
      <g>
       <use xlink:href="#m159c6251fc" x="699.600506" y="239.669132" style="stroke: #000000; stroke-width: 0.8"/>
      </g>
     </g>
     <g id="text_43">
      <!-- 243 -->
      <g transform="translate(701.37785 258.770382) rotate(-90) scale(0.07 -0.07)">
       <use xlink:href="#PretendardGOV-Regular-32"/>
       <use xlink:href="#PretendardGOV-Regular-34" x="57.617188"/>
       <use xlink:href="#PretendardGOV-Regular-33" x="115.234375"/>
      </g>
     </g>
    </g>
   </g>
   <g id="matplotlib.axis_2">
    <g id="ytick_1">
     <g id="line2d_44">
      <defs>
       <path id="m52eec68e44" d="M 0 0 
L -3.5 0 
" style="stroke: #000000; stroke-width: 0.8"/>
      </defs>
      <g>
       <use xlink:href="#m52eec68e44" x="98.1495" y="239.669132" style="stroke: #000000; stroke-width: 0.8"/>
      </g>
     </g>
     <g id="text_44">
      <!-- 0.0 -->
      <g transform="translate(81.065125 242.143742) scale(0.07 -0.07)">
       <defs>
        <path id="PretendardGOV-Regular-2e" d="M 919 -38 
Q 809 -38 717 17 
Q 625 72 570 165 
Q 516 259 519 369 
Q 516 475 570 567 
Q 625 659 717 714 
Q 809 769 919 769 
Q 1025 769 1117 714 
Q 1209 659 1264 567 
Q 1319 475 1319 369 
Q 1319 259 1264 165 
Q 1209 72 1117 17 
Q 1025 -38 919 -38 
z
" transform="scale(0.015625)"/>
       </defs>
       <use xlink:href="#PretendardGOV-Regular-30"/>
       <use xlink:href="#PretendardGOV-Regular-2e" x="57.617188"/>
       <use xlink:href="#PretendardGOV-Regular-30" x="86.425781"/>
      </g>
     </g>
    </g>
    <g id="ytick_2">
     <g id="line2d_45">
      <g>
       <use xlink:href="#m52eec68e44" x="98.1495" y="198.938732" style="stroke: #000000; stroke-width: 0.8"/>
      </g>
     </g>
     <g id="text_45">
      <!-- 0.2 -->
      <g transform="translate(81.065125 201.413341) scale(0.07 -0.07)">
       <use xlink:href="#PretendardGOV-Regular-30"/>
       <use xlink:href="#PretendardGOV-Regular-2e" x="57.617188"/>
       <use xlink:href="#PretendardGOV-Regular-32" x="86.425781"/>
      </g>
     </g>
    </g>
    <g id="ytick_3">
     <g id="line2d_46">
      <g>
       <use xlink:href="#m52eec68e44" x="98.1495" y="158.208331" style="stroke: #000000; stroke-width: 0.8"/>
      </g>
     </g>
     <g id="text_46">
      <!-- 0.4 -->
      <g transform="translate(81.065125 160.68294) scale(0.07 -0.07)">
       <use xlink:href="#PretendardGOV-Regular-30"/>
       <use xlink:href="#PretendardGOV-Regular-2e" x="57.617188"/>
       <use xlink:href="#PretendardGOV-Regular-34" x="86.425781"/>
      </g>
     </g>
    </g>
    <g id="ytick_4">
     <g id="line2d_47">
      <g>
       <use xlink:href="#m52eec68e44" x="98.1495" y="117.47793" style="stroke: #000000; stroke-width: 0.8"/>
      </g>
     </g>
     <g id="text_47">
      <!-- 0.6 -->
      <g transform="translate(81.065125 119.95254) scale(0.07 -0.07)">
       <use xlink:href="#PretendardGOV-Regular-30"/>
       <use xlink:href="#PretendardGOV-Regular-2e" x="57.617188"/>
       <use xlink:href="#PretendardGOV-Regular-36" x="86.425781"/>
      </g>
     </g>
    </g>
    <g id="ytick_5">
     <g id="line2d_48">
      <g>
       <use xlink:href="#m52eec68e44" x="98.1495" y="76.74753" style="stroke: #000000; stroke-width: 0.8"/>
      </g>
     </g>
     <g id="text_48">
      <!-- 0.8 -->
      <g transform="translate(81.065125 79.222139) scale(0.07 -0.07)">
       <use xlink:href="#PretendardGOV-Regular-30"/>
       <use xlink:href="#PretendardGOV-Regular-2e" x="57.617188"/>
       <use xlink:href="#PretendardGOV-Regular-38" x="86.425781"/>
      </g>
     </g>
    </g>
    <g id="ytick_6">
     <g id="line2d_49">
      <g>
       <use xlink:href="#m52eec68e44" x="98.1495" y="36.017129" style="stroke: #000000; stroke-width: 0.8"/>
      </g>
     </g>
     <g id="text_49">
      <!-- 1.0 -->
      <g transform="translate(81.065125 38.491738) scale(0.07 -0.07)">
       <use xlink:href="#PretendardGOV-Regular-31"/>
       <use xlink:href="#PretendardGOV-Regular-2e" x="57.617188"/>
       <use xlink:href="#PretendardGOV-Regular-30" x="86.425781"/>
      </g>
     </g>
    </g>
    <g id="text_50">
     <!-- 1e7 -->
     <g transform="translate(98.1495 29.314939) scale(0.07 -0.07)">
      <defs>
       <path id="PretendardGOV-Regular-65" d="M 1856 -69 
Q 1372 -69 1012 147 
Q 653 363 461 756 
Q 269 1150 269 1669 
Q 269 2188 461 2589 
Q 653 2991 1001 3214 
Q 1350 3438 1806 3438 
Q 2191 3438 2522 3267 
Q 2853 3097 3061 2717 
Q 3269 2338 3269 1744 
L 3269 1519 
L 806 1519 
Q 819 1166 953 916 
Q 1088 666 1320 536 
Q 1553 406 1856 406 
Q 2144 406 2342 514 
Q 2541 622 2644 794 
L 3219 794 
Q 3138 538 2948 342 
Q 2759 147 2479 39 
Q 2200 -69 1856 -69 
z
M 2725 1975 
Q 2725 2259 2611 2482 
Q 2497 2706 2287 2834 
Q 2078 2963 1806 2963 
Q 1522 2963 1301 2828 
Q 1081 2694 954 2467 
Q 828 2241 809 1975 
L 2725 1975 
z
" transform="scale(0.015625)"/>
      </defs>
      <use xlink:href="#PretendardGOV-Regular-31"/>
      <use xlink:href="#PretendardGOV-Regular-65" x="57.617188"/>
      <use xlink:href="#PretendardGOV-Regular-37" x="112.890625"/>
     </g>
    </g>
   </g>
   <g id="patch_89">
    <path d="M 98.1495 239.669132 
L 98.1495 32.314939 
" style="fill: none; stroke: #000000; stroke-width: 0.8; stroke-linejoin: miter; stroke-linecap: square"/>
   </g>
   <g id="patch_90">
    <path d="M 706.6764 239.669132 
L 706.6764 32.314939 
" style="fill: none; stroke: #000000; stroke-width: 0.8; stroke-linejoin: miter; stroke-linecap: square"/>
   </g>
   <g id="patch_91">
    <path d="M 98.1495 239.669132 
L 706.6764 239.669132 
" style="fill: none; stroke: #000000; stroke-width: 0.8; stroke-linejoin: miter; stroke-linecap: square"/>
   </g>
   <g id="patch_92">
    <path d="M 98.1495 32.314939 
L 706.6764 32.314939 
" style="fill: none; stroke: #000000; stroke-width: 0.8; stroke-linejoin: miter; stroke-linecap: square"/>
   </g>
   <g id="legend_1">
    <g id="patch_93">
     <path d="M 644.162025 57.602439 
L 701.7764 57.602439 
Q 703.1764 57.602439 703.1764 56.202439 
L 703.1764 37.214939 
Q 703.1764 35.814939 701.7764 35.814939 
L 644.162025 35.814939 
Q 642.762025 35.814939 642.762025 37.214939 
L 642.762025 56.202439 
Q 642.762025 57.602439 644.162025 57.602439 
z
" style="fill: #ffffff; opacity: 0.8; stroke: #cccccc; stroke-linejoin: miter"/>
    </g>
    <g id="patch_94">
     <path d="M 645.562025 43.564158 
L 659.562025 43.564158 
L 659.562025 38.664158 
L 645.562025 38.664158 
z
" style="fill: #1f77b4"/>
    </g>
    <g id="text_51">
     <!-- IN_FLUX -->
     <g transform="translate(665.162025 43.564158) scale(0.07 -0.07)">
      <defs>
       <path id="PretendardGOV-Regular-49" d="M 250 4525 
L 2425 4525 
L 2425 4025 
L 1631 4025 
L 1631 500 
L 2425 500 
L 2425 0 
L 250 0 
L 250 500 
L 1069 500 
L 1069 4025 
L 250 4025 
L 250 4525 
z
" transform="scale(0.015625)"/>
       <path id="PretendardGOV-Regular-4e" d="M 4094 0 
L 3556 0 
L 1106 3525 
L 1063 3525 
L 1063 0 
L 500 0 
L 500 4525 
L 1044 4525 
L 3494 994 
L 3538 994 
L 3538 4525 
L 4094 4525 
L 4094 0 
z
" transform="scale(0.015625)"/>
       <path id="PretendardGOV-Regular-5f" d="M 3688 -494 
L 0 -494 
L 0 0 
L 3688 0 
L 3688 -494 
z
" transform="scale(0.015625)"/>
       <path id="PretendardGOV-Regular-46" d="M 500 4525 
L 3225 4525 
L 3225 4025 
L 1063 4025 
L 1063 2513 
L 3019 2513 
L 3019 2019 
L 1063 2019 
L 1063 0 
L 500 0 
L 500 4525 
z
" transform="scale(0.015625)"/>
       <path id="PretendardGOV-Regular-4c" d="M 500 4525 
L 1063 4525 
L 1063 500 
L 3163 500 
L 3163 0 
L 500 0 
L 500 4525 
z
" transform="scale(0.015625)"/>
       <path id="PretendardGOV-Regular-55" d="M 4025 4525 
L 4025 1531 
Q 4025 1069 3806 701 
Q 3588 334 3188 126 
Q 2788 -81 2263 -81 
Q 1738 -81 1338 126 
Q 938 334 719 701 
Q 500 1069 500 1531 
L 500 4525 
L 1063 4525 
L 1063 1575 
Q 1063 1247 1208 990 
Q 1353 734 1625 589 
Q 1897 444 2263 444 
Q 2631 444 2901 589 
Q 3172 734 3317 990 
Q 3463 1247 3463 1575 
L 3463 4525 
L 4025 4525 
z
" transform="scale(0.015625)"/>
       <path id="PretendardGOV-Regular-58" d="M 1938 2656 
L 1975 2656 
L 3131 4525 
L 3794 4525 
L 2375 2263 
L 3794 0 
L 3131 0 
L 1975 1831 
L 1938 1831 
L 781 0 
L 119 0 
L 1575 2263 
L 119 4525 
L 788 4525 
L 1938 2656 
z
" transform="scale(0.015625)"/>
      </defs>
      <use xlink:href="#PretendardGOV-Regular-49"/>
      <use xlink:href="#PretendardGOV-Regular-4e" x="41.894531"/>
      <use xlink:href="#PretendardGOV-Regular-5f" x="113.671875"/>
      <use xlink:href="#PretendardGOV-Regular-46" x="171.289062"/>
      <use xlink:href="#PretendardGOV-Regular-4c" x="226.953125"/>
      <use xlink:href="#PretendardGOV-Regular-55" x="280.273438"/>
      <use xlink:href="#PretendardGOV-Regular-58" x="350.976562"/>
     </g>
    </g>
    <g id="patch_95">
     <path d="M 645.562025 53.407908 
L 659.562025 53.407908 
L 659.562025 48.507908 
L 645.562025 48.507908 
z
" style="fill: #ff7f0e"/>
    </g>
    <g id="text_52">
     <!-- OUT_FLUX -->
     <g transform="translate(665.162025 53.407908) scale(0.07 -0.07)">
      <defs>
       <path id="PretendardGOV-Regular-4f" d="M 4325 2263 
Q 4325 1559 4069 1032 
Q 3813 506 3358 221 
Q 2903 -63 2325 -63 
Q 1744 -63 1291 221 
Q 838 506 581 1032 
Q 325 1559 325 2263 
Q 325 2966 581 3492 
Q 838 4019 1291 4303 
Q 1744 4588 2325 4588 
Q 2903 4588 3358 4303 
Q 3813 4019 4069 3492 
Q 4325 2966 4325 2263 
z
M 3781 2263 
Q 3781 2831 3590 3237 
Q 3400 3644 3070 3853 
Q 2741 4063 2325 4063 
Q 1909 4063 1579 3853 
Q 1250 3644 1059 3237 
Q 869 2831 869 2263 
Q 869 1694 1059 1287 
Q 1250 881 1579 672 
Q 1909 463 2325 463 
Q 2741 463 3070 672 
Q 3400 881 3590 1287 
Q 3781 1694 3781 2263 
z
" transform="scale(0.015625)"/>
       <path id="PretendardGOV-Regular-54" d="M 250 4525 
L 3663 4525 
L 3663 4025 
L 2244 4025 
L 2244 0 
L 1675 0 
L 1675 4025 
L 250 4025 
L 250 4525 
z
" transform="scale(0.015625)"/>
      </defs>
      <use xlink:href="#PretendardGOV-Regular-4f"/>
      <use xlink:href="#PretendardGOV-Regular-55" x="72.65625"/>
      <use xlink:href="#PretendardGOV-Regular-54" x="143.359375"/>
      <use xlink:href="#PretendardGOV-Regular-5f" x="204.492188"/>
      <use xlink:href="#PretendardGOV-Regular-46" x="262.109375"/>
      <use xlink:href="#PretendardGOV-Regular-4c" x="317.773438"/>
      <use xlink:href="#PretendardGOV-Regular-55" x="371.09375"/>
      <use xlink:href="#PretendardGOV-Regular-58" x="441.796875"/>
     </g>
    </g>
   </g>
  </g>
 </g>
 <defs>
  <clipPath id="p9b1a340f54">
   <rect x="98.1495" y="32.314939" width="608.5269" height="207.354193"/>
  </clipPath>
 </defs>
</svg>
