<?xml version="1.0" encoding="utf-8" standalone="no"?>
<!DOCTYPE svg PUBLIC "-//W3C//DTD SVG 1.1//EN"
  "http://www.w3.org/Graphics/SVG/1.1/DTD/svg11.dtd">
<svg xmlns:xlink="http://www.w3.org/1999/xlink" width="538.58232pt" height="269.29116pt" viewBox="0 0 538.58232 269.29116" xmlns="http://www.w3.org/2000/svg" version="1.1">
 <metadata>
  <rdf:RDF xmlns:dc="http://purl.org/dc/elements/1.1/" xmlns:cc="http://creativecommons.org/ns#" xmlns:rdf="http://www.w3.org/1999/02/22-rdf-syntax-ns#">
   <cc:Work>
    <dc:type rdf:resource="http://purl.org/dc/dcmitype/StillImage"/>
    <dc:date>2024-06-10T21:35:27.878206</dc:date>
    <dc:format>image/svg+xml</dc:format>
    <dc:creator>
     <cc:Agent>
      <dc:title>Matplotlib v3.8.4, https://matplotlib.org/</dc:title>
     </cc:Agent>
    </dc:creator>
   </cc:Work>
  </rdf:RDF>
 </metadata>
 <defs>
  <style type="text/css">*{stroke-linejoin: round; stroke-linecap: butt}</style>
 </defs>
 <g id="figure_1">
  <g id="patch_1">
   <path d="M 0 269.29116 
L 538.58232 269.29116 
L 538.58232 0 
L 0 0 
z
" style="fill: #ffffff"/>
  </g>
  <g id="axes_1">
   <g id="patch_2">
    <path d="M 67.32279 239.669132 
L 484.724088 239.669132 
L 484.724088 32.314939 
L 67.32279 32.314939 
z
" style="fill: #ffffff"/>
   </g>
   <g id="patch_3">
    <path d="M 73.461044 239.669132 
L 79.599299 239.669132 
L 79.599299 178.99947 
L 73.461044 178.99947 
z
" clip-path="url(#p347971b941)" style="fill: #1f77b4"/>
   </g>
   <g id="patch_4">
    <path d="M 98.014062 239.669132 
L 104.152316 239.669132 
L 104.152316 218.974158 
L 98.014062 218.974158 
z
" clip-path="url(#p347971b941)" style="fill: #1f77b4"/>
   </g>
   <g id="patch_5">
    <path d="M 122.567079 239.669132 
L 128.705334 239.669132 
L 128.705334 222.576925 
L 122.567079 222.576925 
z
" clip-path="url(#p347971b941)" style="fill: #1f77b4"/>
   </g>
   <g id="patch_6">
    <path d="M 147.120097 239.669132 
L 153.258351 239.669132 
L 153.258351 226.269116 
L 147.120097 226.269116 
z
" clip-path="url(#p347971b941)" style="fill: #1f77b4"/>
   </g>
   <g id="patch_7">
    <path d="M 171.673114 239.669132 
L 177.811369 239.669132 
L 177.811369 201.752775 
L 171.673114 201.752775 
z
" clip-path="url(#p347971b941)" style="fill: #1f77b4"/>
   </g>
   <g id="patch_8">
    <path d="M 196.226132 239.669132 
L 202.364386 239.669132 
L 202.364386 216.629391 
L 196.226132 216.629391 
z
" clip-path="url(#p347971b941)" style="fill: #1f77b4"/>
   </g>
   <g id="patch_9">
    <path d="M 220.77915 239.669132 
L 226.917404 239.669132 
L 226.917404 218.146639 
L 220.77915 218.146639 
z
" clip-path="url(#p347971b941)" style="fill: #1f77b4"/>
   </g>
   <g id="patch_10">
    <path d="M 245.332167 239.669132 
L 251.470421 239.669132 
L 251.470421 211.378203 
L 245.332167 211.378203 
z
" clip-path="url(#p347971b941)" style="fill: #1f77b4"/>
   </g>
   <g id="patch_11">
    <path d="M 269.885185 239.669132 
L 276.023439 239.669132 
L 276.023439 200.171519 
L 269.885185 200.171519 
z
" clip-path="url(#p347971b941)" style="fill: #1f77b4"/>
   </g>
   <g id="patch_12">
    <path d="M 294.438202 239.669132 
L 300.576457 239.669132 
L 300.576457 210.073772 
L 294.438202 210.073772 
z
" clip-path="url(#p347971b941)" style="fill: #1f77b4"/>
   </g>
   <g id="patch_13">
    <path d="M 318.99122 239.669132 
L 325.129474 239.669132 
L 325.129474 216.888049 
L 318.99122 216.888049 
z
" clip-path="url(#p347971b941)" style="fill: #1f77b4"/>
   </g>
   <g id="patch_14">
    <path d="M 343.544237 239.669132 
L 349.682492 239.669132 
L 349.682492 223.175051 
L 343.544237 223.175051 
z
" clip-path="url(#p347971b941)" style="fill: #1f77b4"/>
   </g>
   <g id="patch_15">
    <path d="M 368.097255 239.669132 
L 374.235509 239.669132 
L 374.235509 189.333505 
L 368.097255 189.333505 
z
" clip-path="url(#p347971b941)" style="fill: #1f77b4"/>
   </g>
   <g id="patch_16">
    <path d="M 392.650272 239.669132 
L 398.788527 239.669132 
L 398.788527 225.854236 
L 392.650272 225.854236 
z
" clip-path="url(#p347971b941)" style="fill: #1f77b4"/>
   </g>
   <g id="patch_17">
    <path d="M 417.20329 239.669132 
L 423.341544 239.669132 
L 423.341544 227.366556 
L 417.20329 227.366556 
z
" clip-path="url(#p347971b941)" style="fill: #1f77b4"/>
   </g>
   <g id="patch_18">
    <path d="M 441.756307 239.669132 
L 447.894562 239.669132 
L 447.894562 234.789121 
L 441.756307 234.789121 
z
" clip-path="url(#p347971b941)" style="fill: #1f77b4"/>
   </g>
   <g id="patch_19">
    <path d="M 466.309325 239.669132 
L 472.447579 239.669132 
L 472.447579 185.923393 
L 466.309325 185.923393 
z
" clip-path="url(#p347971b941)" style="fill: #1f77b4"/>
   </g>
   <g id="patch_20">
    <path d="M 79.599299 239.669132 
L 85.737553 239.669132 
L 85.737553 180.021721 
L 79.599299 180.021721 
z
" clip-path="url(#p347971b941)" style="fill: #ff7f0e"/>
   </g>
   <g id="patch_21">
    <path d="M 104.152316 239.669132 
L 110.290571 239.669132 
L 110.290571 219.165225 
L 104.152316 219.165225 
z
" clip-path="url(#p347971b941)" style="fill: #ff7f0e"/>
   </g>
   <g id="patch_22">
    <path d="M 128.705334 239.669132 
L 134.843588 239.669132 
L 134.843588 221.36487 
L 128.705334 221.36487 
z
" clip-path="url(#p347971b941)" style="fill: #ff7f0e"/>
   </g>
   <g id="patch_23">
    <path d="M 153.258351 239.669132 
L 159.396606 239.669132 
L 159.396606 225.96486 
L 153.258351 225.96486 
z
" clip-path="url(#p347971b941)" style="fill: #ff7f0e"/>
   </g>
   <g id="patch_24">
    <path d="M 177.811369 239.669132 
L 183.949623 239.669132 
L 183.949623 203.107753 
L 177.811369 203.107753 
z
" clip-path="url(#p347971b941)" style="fill: #ff7f0e"/>
   </g>
   <g id="patch_25">
    <path d="M 202.364386 239.669132 
L 208.502641 239.669132 
L 208.502641 215.590603 
L 202.364386 215.590603 
z
" clip-path="url(#p347971b941)" style="fill: #ff7f0e"/>
   </g>
   <g id="patch_26">
    <path d="M 226.917404 239.669132 
L 233.055658 239.669132 
L 233.055658 217.738602 
L 226.917404 217.738602 
z
" clip-path="url(#p347971b941)" style="fill: #ff7f0e"/>
   </g>
   <g id="patch_27">
    <path d="M 251.470421 239.669132 
L 257.608676 239.669132 
L 257.608676 211.062482 
L 251.470421 211.062482 
z
" clip-path="url(#p347971b941)" style="fill: #ff7f0e"/>
   </g>
   <g id="patch_28">
    <path d="M 276.023439 239.669132 
L 282.161693 239.669132 
L 282.161693 202.123788 
L 276.023439 202.123788 
z
" clip-path="url(#p347971b941)" style="fill: #ff7f0e"/>
   </g>
   <g id="patch_29">
    <path d="M 300.576457 239.669132 
L 306.714711 239.669132 
L 306.714711 208.850434 
L 300.576457 208.850434 
z
" clip-path="url(#p347971b941)" style="fill: #ff7f0e"/>
   </g>
   <g id="patch_30">
    <path d="M 325.129474 239.669132 
L 331.267728 239.669132 
L 331.267728 222.776973 
L 325.129474 222.776973 
z
" clip-path="url(#p347971b941)" style="fill: #ff7f0e"/>
   </g>
   <g id="patch_31">
    <path d="M 349.682492 239.669132 
L 355.820746 239.669132 
L 355.820746 224.663157 
L 349.682492 224.663157 
z
" clip-path="url(#p347971b941)" style="fill: #ff7f0e"/>
   </g>
   <g id="patch_32">
    <path d="M 374.235509 239.669132 
L 380.373764 239.669132 
L 380.373764 190.381254 
L 374.235509 190.381254 
z
" clip-path="url(#p347971b941)" style="fill: #ff7f0e"/>
   </g>
   <g id="patch_33">
    <path d="M 398.788527 239.669132 
L 404.926781 239.669132 
L 404.926781 223.696217 
L 398.788527 223.696217 
z
" clip-path="url(#p347971b941)" style="fill: #ff7f0e"/>
   </g>
   <g id="patch_34">
    <path d="M 423.341544 239.669132 
L 429.479799 239.669132 
L 429.479799 227.126083 
L 423.341544 227.126083 
z
" clip-path="url(#p347971b941)" style="fill: #ff7f0e"/>
   </g>
   <g id="patch_35">
    <path d="M 447.894562 239.669132 
L 454.032816 239.669132 
L 454.032816 234.921862 
L 447.894562 234.921862 
z
" clip-path="url(#p347971b941)" style="fill: #ff7f0e"/>
   </g>
   <g id="patch_36">
    <path d="M 472.447579 239.669132 
L 478.585834 239.669132 
L 478.585834 192.260636 
L 472.447579 192.260636 
z
" clip-path="url(#p347971b941)" style="fill: #ff7f0e"/>
   </g>
   <g id="matplotlib.axis_1">
    <g id="xtick_1">
     <g id="line2d_1">
      <defs>
       <path id="mc1eb502806" d="M 0 0 
L 0 3.5 
" style="stroke: #000000; stroke-width: 0.8"/>
      </defs>
      <g>
       <use xlink:href="#mc1eb502806" x="79.599299" y="239.669132" style="stroke: #000000; stroke-width: 0.8"/>
      </g>
     </g>
     <g id="text_1">
      <!-- 301 -->
      <g transform="translate(81.376643 258.770382) rotate(-90) scale(0.07 -0.07)">
       <defs>
        <path id="PretendardGOV-Regular-33" d="M 900 1144 
Q 922 922 1048 762 
Q 1175 603 1381 520 
Q 1588 438 1844 438 
Q 2119 438 2336 534 
Q 2553 631 2678 823 
Q 2803 1016 2800 1288 
Q 2803 1547 2689 1755 
Q 2575 1963 2325 2088 
Q 2075 2213 1688 2213 
L 1319 2213 
L 1319 2656 
L 2425 3988 
L 2425 4025 
L 544 4025 
L 544 4525 
L 3181 4525 
L 3181 4119 
L 2000 2681 
L 2000 2644 
Q 2384 2622 2693 2439 
Q 3003 2256 3179 1953 
Q 3356 1650 3356 1281 
Q 3356 897 3161 590 
Q 2966 284 2619 110 
Q 2272 -63 1831 -63 
Q 1428 -63 1093 82 
Q 759 228 554 501 
Q 350 775 325 1144 
L 900 1144 
z
" transform="scale(0.015625)"/>
        <path id="PretendardGOV-Regular-30" d="M 1844 -63 
Q 1359 -63 1018 187 
Q 678 438 501 920 
Q 325 1403 325 2088 
L 325 2438 
Q 325 3125 501 3606 
Q 678 4088 1018 4338 
Q 1359 4588 1844 4588 
Q 2325 4588 2664 4338 
Q 3003 4088 3179 3606 
Q 3356 3125 3356 2438 
L 3356 2088 
Q 3356 1403 3179 920 
Q 3003 438 2664 187 
Q 2325 -63 1844 -63 
z
M 1844 431 
Q 2813 431 2813 2081 
L 2813 2438 
Q 2813 4094 1844 4094 
Q 1356 4094 1115 3681 
Q 875 3269 875 2438 
L 875 2081 
Q 875 1256 1115 843 
Q 1356 431 1844 431 
z
" transform="scale(0.015625)"/>
        <path id="PretendardGOV-Regular-31" d="M 2163 456 
L 3144 456 
L 3144 0 
L 569 0 
L 569 456 
L 1600 456 
L 1600 3938 
L 1575 3938 
L 569 3269 
L 569 3844 
L 1600 4525 
L 2163 4525 
L 2163 456 
z
" transform="scale(0.015625)"/>
       </defs>
       <use xlink:href="#PretendardGOV-Regular-33"/>
       <use xlink:href="#PretendardGOV-Regular-30" x="57.617188"/>
       <use xlink:href="#PretendardGOV-Regular-31" x="115.234375"/>
      </g>
     </g>
    </g>
    <g id="xtick_2">
     <g id="line2d_2">
      <g>
       <use xlink:href="#mc1eb502806" x="104.152316" y="239.669132" style="stroke: #000000; stroke-width: 0.8"/>
      </g>
     </g>
     <g id="text_2">
      <!-- 302 -->
      <g transform="translate(105.92966 258.770382) rotate(-90) scale(0.07 -0.07)">
       <defs>
        <path id="PretendardGOV-Regular-32" d="M 481 406 
L 1956 2038 
Q 2238 2350 2391 2550 
Q 2544 2750 2623 2937 
Q 2703 3125 2706 3331 
Q 2703 3559 2592 3734 
Q 2481 3909 2290 4004 
Q 2100 4100 1863 4100 
Q 1613 4100 1427 3995 
Q 1241 3891 1139 3697 
Q 1038 3503 1038 3250 
L 500 3250 
Q 500 3641 679 3945 
Q 859 4250 1175 4419 
Q 1491 4588 1881 4588 
Q 2266 4588 2573 4420 
Q 2881 4253 3054 3965 
Q 3228 3678 3231 3331 
Q 3228 3075 3139 2840 
Q 3050 2606 2839 2317 
Q 2628 2028 2238 1606 
L 1250 538 
L 1250 500 
L 3306 500 
L 3306 0 
L 481 0 
L 481 406 
z
" transform="scale(0.015625)"/>
       </defs>
       <use xlink:href="#PretendardGOV-Regular-33"/>
       <use xlink:href="#PretendardGOV-Regular-30" x="57.617188"/>
       <use xlink:href="#PretendardGOV-Regular-32" x="115.234375"/>
      </g>
     </g>
    </g>
    <g id="xtick_3">
     <g id="line2d_3">
      <g>
       <use xlink:href="#mc1eb502806" x="128.705334" y="239.669132" style="stroke: #000000; stroke-width: 0.8"/>
      </g>
     </g>
     <g id="text_3">
      <!-- 303 -->
      <g transform="translate(130.482678 258.770382) rotate(-90) scale(0.07 -0.07)">
       <use xlink:href="#PretendardGOV-Regular-33"/>
       <use xlink:href="#PretendardGOV-Regular-30" x="57.617188"/>
       <use xlink:href="#PretendardGOV-Regular-33" x="115.234375"/>
      </g>
     </g>
    </g>
    <g id="xtick_4">
     <g id="line2d_4">
      <g>
       <use xlink:href="#mc1eb502806" x="153.258351" y="239.669132" style="stroke: #000000; stroke-width: 0.8"/>
      </g>
     </g>
     <g id="text_4">
      <!-- 304 -->
      <g transform="translate(155.035695 258.770382) rotate(-90) scale(0.07 -0.07)">
       <defs>
        <path id="PretendardGOV-Regular-34" d="M 231 1388 
L 1994 4525 
L 2550 4525 
L 825 1456 
L 825 1419 
L 2313 1419 
L 2313 2831 
L 2844 2831 
L 2844 1419 
L 3450 1419 
L 3450 925 
L 2844 925 
L 2844 0 
L 2313 0 
L 2313 925 
L 231 925 
L 231 1388 
z
" transform="scale(0.015625)"/>
       </defs>
       <use xlink:href="#PretendardGOV-Regular-33"/>
       <use xlink:href="#PretendardGOV-Regular-30" x="57.617188"/>
       <use xlink:href="#PretendardGOV-Regular-34" x="115.234375"/>
      </g>
     </g>
    </g>
    <g id="xtick_5">
     <g id="line2d_5">
      <g>
       <use xlink:href="#mc1eb502806" x="177.811369" y="239.669132" style="stroke: #000000; stroke-width: 0.8"/>
      </g>
     </g>
     <g id="text_5">
      <!-- 305 -->
      <g transform="translate(179.588713 258.770382) rotate(-90) scale(0.07 -0.07)">
       <defs>
        <path id="PretendardGOV-Regular-35" d="M 1888 -63 
Q 1500 -63 1183 92 
Q 866 247 677 520 
Q 488 794 469 1138 
L 1025 1138 
Q 1041 938 1158 777 
Q 1275 616 1467 523 
Q 1659 431 1888 431 
Q 2159 431 2373 561 
Q 2588 691 2709 919 
Q 2831 1147 2831 1431 
Q 2831 1725 2704 1956 
Q 2578 2188 2354 2320 
Q 2131 2453 1850 2456 
Q 1572 2463 1373 2366 
Q 1175 2269 1063 2050 
L 513 2050 
L 813 4525 
L 3175 4525 
L 3175 4025 
L 1294 4025 
L 1138 2700 
L 1188 2700 
Q 1309 2816 1514 2889 
Q 1719 2963 1944 2963 
Q 2350 2963 2678 2766 
Q 3006 2569 3193 2222 
Q 3381 1875 3381 1444 
Q 3381 1016 3187 672 
Q 2994 328 2653 132 
Q 2313 -63 1888 -63 
z
" transform="scale(0.015625)"/>
       </defs>
       <use xlink:href="#PretendardGOV-Regular-33"/>
       <use xlink:href="#PretendardGOV-Regular-30" x="57.617188"/>
       <use xlink:href="#PretendardGOV-Regular-35" x="115.234375"/>
      </g>
     </g>
    </g>
    <g id="xtick_6">
     <g id="line2d_6">
      <g>
       <use xlink:href="#mc1eb502806" x="202.364386" y="239.669132" style="stroke: #000000; stroke-width: 0.8"/>
      </g>
     </g>
     <g id="text_6">
      <!-- 306 -->
      <g transform="translate(204.14173 258.770382) rotate(-90) scale(0.07 -0.07)">
       <defs>
        <path id="PretendardGOV-Regular-36" d="M 1838 -63 
Q 1416 -63 1064 131 
Q 713 325 509 659 
Q 306 994 306 1394 
Q 306 1734 473 2104 
Q 641 2475 1000 3006 
L 2019 4525 
L 2663 4525 
L 1444 2713 
L 1475 2688 
Q 1550 2763 1694 2809 
Q 1838 2856 2031 2856 
Q 2419 2856 2728 2662 
Q 3038 2469 3209 2134 
Q 3381 1800 3381 1394 
Q 3381 994 3175 659 
Q 2969 325 2616 131 
Q 2263 -63 1838 -63 
z
M 1844 431 
Q 2131 431 2356 556 
Q 2581 681 2706 906 
Q 2831 1131 2831 1419 
Q 2831 1706 2706 1932 
Q 2581 2159 2356 2286 
Q 2131 2413 1844 2413 
Q 1556 2413 1329 2286 
Q 1103 2159 976 1932 
Q 850 1706 850 1419 
Q 850 1131 976 906 
Q 1103 681 1329 556 
Q 1556 431 1844 431 
z
" transform="scale(0.015625)"/>
       </defs>
       <use xlink:href="#PretendardGOV-Regular-33"/>
       <use xlink:href="#PretendardGOV-Regular-30" x="57.617188"/>
       <use xlink:href="#PretendardGOV-Regular-36" x="115.234375"/>
      </g>
     </g>
    </g>
    <g id="xtick_7">
     <g id="line2d_7">
      <g>
       <use xlink:href="#mc1eb502806" x="226.917404" y="239.669132" style="stroke: #000000; stroke-width: 0.8"/>
      </g>
     </g>
     <g id="text_7">
      <!-- 307 -->
      <g transform="translate(228.694748 258.770382) rotate(-90) scale(0.07 -0.07)">
       <defs>
        <path id="PretendardGOV-Regular-37" d="M 2681 3994 
L 2681 4025 
L 425 4025 
L 425 4525 
L 3275 4525 
L 3275 4000 
L 1313 0 
L 719 0 
L 2681 3994 
z
" transform="scale(0.015625)"/>
       </defs>
       <use xlink:href="#PretendardGOV-Regular-33"/>
       <use xlink:href="#PretendardGOV-Regular-30" x="57.617188"/>
       <use xlink:href="#PretendardGOV-Regular-37" x="115.234375"/>
      </g>
     </g>
    </g>
    <g id="xtick_8">
     <g id="line2d_8">
      <g>
       <use xlink:href="#mc1eb502806" x="251.470421" y="239.669132" style="stroke: #000000; stroke-width: 0.8"/>
      </g>
     </g>
     <g id="text_8">
      <!-- 308 -->
      <g transform="translate(253.247765 258.770382) rotate(-90) scale(0.07 -0.07)">
       <defs>
        <path id="PretendardGOV-Regular-38" d="M 1844 -63 
Q 1394 -63 1042 100 
Q 691 263 495 550 
Q 300 838 300 1200 
Q 300 1481 415 1728 
Q 531 1975 731 2139 
Q 931 2303 1175 2350 
L 1175 2375 
Q 959 2431 800 2578 
Q 641 2725 553 2936 
Q 466 3147 463 3388 
Q 466 3728 644 4001 
Q 822 4275 1136 4431 
Q 1450 4588 1844 4588 
Q 2231 4588 2543 4431 
Q 2856 4275 3036 4001 
Q 3216 3728 3219 3388 
Q 3216 3147 3127 2936 
Q 3038 2725 2878 2578 
Q 2719 2431 2506 2375 
L 2506 2350 
Q 2750 2303 2950 2139 
Q 3150 1975 3267 1728 
Q 3384 1481 3388 1200 
Q 3384 838 3187 550 
Q 2991 263 2641 100 
Q 2291 -63 1844 -63 
z
M 1844 431 
Q 2144 431 2366 531 
Q 2588 631 2706 811 
Q 2825 991 2825 1231 
Q 2825 1481 2698 1679 
Q 2572 1878 2348 1989 
Q 2125 2100 1844 2100 
Q 1563 2100 1336 1987 
Q 1109 1875 982 1678 
Q 856 1481 863 1231 
Q 856 994 975 812 
Q 1094 631 1317 531 
Q 1541 431 1844 431 
z
M 1844 2575 
Q 2081 2575 2270 2670 
Q 2459 2766 2564 2941 
Q 2669 3116 2669 3344 
Q 2669 3569 2564 3741 
Q 2459 3913 2271 4006 
Q 2084 4100 1844 4100 
Q 1597 4100 1408 4006 
Q 1219 3913 1116 3741 
Q 1013 3569 1013 3344 
Q 1013 3116 1119 2941 
Q 1225 2766 1414 2670 
Q 1603 2575 1844 2575 
z
" transform="scale(0.015625)"/>
       </defs>
       <use xlink:href="#PretendardGOV-Regular-33"/>
       <use xlink:href="#PretendardGOV-Regular-30" x="57.617188"/>
       <use xlink:href="#PretendardGOV-Regular-38" x="115.234375"/>
      </g>
     </g>
    </g>
    <g id="xtick_9">
     <g id="line2d_9">
      <g>
       <use xlink:href="#mc1eb502806" x="276.023439" y="239.669132" style="stroke: #000000; stroke-width: 0.8"/>
      </g>
     </g>
     <g id="text_9">
      <!-- 309 -->
      <g transform="translate(277.800783 258.770382) rotate(-90) scale(0.07 -0.07)">
       <defs>
        <path id="PretendardGOV-Regular-39" d="M 1850 4588 
Q 2272 4588 2623 4394 
Q 2975 4200 3178 3865 
Q 3381 3531 3381 3131 
Q 3381 2791 3214 2420 
Q 3047 2050 2688 1519 
L 1669 0 
L 1025 0 
L 2244 1813 
L 2213 1838 
Q 2138 1763 1994 1716 
Q 1850 1669 1656 1669 
Q 1269 1669 959 1862 
Q 650 2056 478 2390 
Q 306 2725 306 3131 
Q 306 3531 512 3865 
Q 719 4200 1072 4394 
Q 1425 4588 1850 4588 
z
M 1844 4094 
Q 1556 4094 1331 3969 
Q 1106 3844 981 3619 
Q 856 3394 856 3106 
Q 856 2819 981 2592 
Q 1106 2366 1331 2239 
Q 1556 2113 1844 2113 
Q 2131 2113 2357 2239 
Q 2584 2366 2711 2592 
Q 2838 2819 2838 3106 
Q 2838 3394 2711 3619 
Q 2584 3844 2357 3969 
Q 2131 4094 1844 4094 
z
" transform="scale(0.015625)"/>
       </defs>
       <use xlink:href="#PretendardGOV-Regular-33"/>
       <use xlink:href="#PretendardGOV-Regular-30" x="57.617188"/>
       <use xlink:href="#PretendardGOV-Regular-39" x="115.234375"/>
      </g>
     </g>
    </g>
    <g id="xtick_10">
     <g id="line2d_10">
      <g>
       <use xlink:href="#mc1eb502806" x="300.576457" y="239.669132" style="stroke: #000000; stroke-width: 0.8"/>
      </g>
     </g>
     <g id="text_10">
      <!-- 310 -->
      <g transform="translate(302.3538 258.770382) rotate(-90) scale(0.07 -0.07)">
       <use xlink:href="#PretendardGOV-Regular-33"/>
       <use xlink:href="#PretendardGOV-Regular-31" x="57.617188"/>
       <use xlink:href="#PretendardGOV-Regular-30" x="115.234375"/>
      </g>
     </g>
    </g>
    <g id="xtick_11">
     <g id="line2d_11">
      <g>
       <use xlink:href="#mc1eb502806" x="325.129474" y="239.669132" style="stroke: #000000; stroke-width: 0.8"/>
      </g>
     </g>
     <g id="text_11">
      <!-- 311 -->
      <g transform="translate(326.906818 258.770382) rotate(-90) scale(0.07 -0.07)">
       <use xlink:href="#PretendardGOV-Regular-33"/>
       <use xlink:href="#PretendardGOV-Regular-31" x="57.617188"/>
       <use xlink:href="#PretendardGOV-Regular-31" x="115.234375"/>
      </g>
     </g>
    </g>
    <g id="xtick_12">
     <g id="line2d_12">
      <g>
       <use xlink:href="#mc1eb502806" x="349.682492" y="239.669132" style="stroke: #000000; stroke-width: 0.8"/>
      </g>
     </g>
     <g id="text_12">
      <!-- 312 -->
      <g transform="translate(351.459835 258.770382) rotate(-90) scale(0.07 -0.07)">
       <use xlink:href="#PretendardGOV-Regular-33"/>
       <use xlink:href="#PretendardGOV-Regular-31" x="57.617188"/>
       <use xlink:href="#PretendardGOV-Regular-32" x="115.234375"/>
      </g>
     </g>
    </g>
    <g id="xtick_13">
     <g id="line2d_13">
      <g>
       <use xlink:href="#mc1eb502806" x="374.235509" y="239.669132" style="stroke: #000000; stroke-width: 0.8"/>
      </g>
     </g>
     <g id="text_13">
      <!-- 313 -->
      <g transform="translate(376.012853 258.770382) rotate(-90) scale(0.07 -0.07)">
       <use xlink:href="#PretendardGOV-Regular-33"/>
       <use xlink:href="#PretendardGOV-Regular-31" x="57.617188"/>
       <use xlink:href="#PretendardGOV-Regular-33" x="115.234375"/>
      </g>
     </g>
    </g>
    <g id="xtick_14">
     <g id="line2d_14">
      <g>
       <use xlink:href="#mc1eb502806" x="398.788527" y="239.669132" style="stroke: #000000; stroke-width: 0.8"/>
      </g>
     </g>
     <g id="text_14">
      <!-- 314 -->
      <g transform="translate(400.56587 258.770382) rotate(-90) scale(0.07 -0.07)">
       <use xlink:href="#PretendardGOV-Regular-33"/>
       <use xlink:href="#PretendardGOV-Regular-31" x="57.617188"/>
       <use xlink:href="#PretendardGOV-Regular-34" x="115.234375"/>
      </g>
     </g>
    </g>
    <g id="xtick_15">
     <g id="line2d_15">
      <g>
       <use xlink:href="#mc1eb502806" x="423.341544" y="239.669132" style="stroke: #000000; stroke-width: 0.8"/>
      </g>
     </g>
     <g id="text_15">
      <!-- 315 -->
      <g transform="translate(425.118888 258.770382) rotate(-90) scale(0.07 -0.07)">
       <use xlink:href="#PretendardGOV-Regular-33"/>
       <use xlink:href="#PretendardGOV-Regular-31" x="57.617188"/>
       <use xlink:href="#PretendardGOV-Regular-35" x="115.234375"/>
      </g>
     </g>
    </g>
    <g id="xtick_16">
     <g id="line2d_16">
      <g>
       <use xlink:href="#mc1eb502806" x="447.894562" y="239.669132" style="stroke: #000000; stroke-width: 0.8"/>
      </g>
     </g>
     <g id="text_16">
      <!-- 316 -->
      <g transform="translate(449.671905 258.770382) rotate(-90) scale(0.07 -0.07)">
       <use xlink:href="#PretendardGOV-Regular-33"/>
       <use xlink:href="#PretendardGOV-Regular-31" x="57.617188"/>
       <use xlink:href="#PretendardGOV-Regular-36" x="115.234375"/>
      </g>
     </g>
    </g>
    <g id="xtick_17">
     <g id="line2d_17">
      <g>
       <use xlink:href="#mc1eb502806" x="472.447579" y="239.669132" style="stroke: #000000; stroke-width: 0.8"/>
      </g>
     </g>
     <g id="text_17">
      <!-- 317 -->
      <g transform="translate(474.224923 258.770382) rotate(-90) scale(0.07 -0.07)">
       <use xlink:href="#PretendardGOV-Regular-33"/>
       <use xlink:href="#PretendardGOV-Regular-31" x="57.617188"/>
       <use xlink:href="#PretendardGOV-Regular-37" x="115.234375"/>
      </g>
     </g>
    </g>
   </g>
   <g id="matplotlib.axis_2">
    <g id="ytick_1">
     <g id="line2d_18">
      <defs>
       <path id="maa946a4d15" d="M 0 0 
L -3.5 0 
" style="stroke: #000000; stroke-width: 0.8"/>
      </defs>
      <g>
       <use xlink:href="#maa946a4d15" x="67.32279" y="239.669132" style="stroke: #000000; stroke-width: 0.8"/>
      </g>
     </g>
     <g id="text_18">
      <!-- 0.0 -->
      <g transform="translate(50.238415 242.143742) scale(0.07 -0.07)">
       <defs>
        <path id="PretendardGOV-Regular-2e" d="M 919 -38 
Q 809 -38 717 17 
Q 625 72 570 165 
Q 516 259 519 369 
Q 516 475 570 567 
Q 625 659 717 714 
Q 809 769 919 769 
Q 1025 769 1117 714 
Q 1209 659 1264 567 
Q 1319 475 1319 369 
Q 1319 259 1264 165 
Q 1209 72 1117 17 
Q 1025 -38 919 -38 
z
" transform="scale(0.015625)"/>
       </defs>
       <use xlink:href="#PretendardGOV-Regular-30"/>
       <use xlink:href="#PretendardGOV-Regular-2e" x="57.617188"/>
       <use xlink:href="#PretendardGOV-Regular-30" x="86.425781"/>
      </g>
     </g>
    </g>
    <g id="ytick_2">
     <g id="line2d_19">
      <g>
       <use xlink:href="#maa946a4d15" x="67.32279" y="198.938732" style="stroke: #000000; stroke-width: 0.8"/>
      </g>
     </g>
     <g id="text_19">
      <!-- 0.2 -->
      <g transform="translate(50.238415 201.413341) scale(0.07 -0.07)">
       <use xlink:href="#PretendardGOV-Regular-30"/>
       <use xlink:href="#PretendardGOV-Regular-2e" x="57.617188"/>
       <use xlink:href="#PretendardGOV-Regular-32" x="86.425781"/>
      </g>
     </g>
    </g>
    <g id="ytick_3">
     <g id="line2d_20">
      <g>
       <use xlink:href="#maa946a4d15" x="67.32279" y="158.208331" style="stroke: #000000; stroke-width: 0.8"/>
      </g>
     </g>
     <g id="text_20">
      <!-- 0.4 -->
      <g transform="translate(50.238415 160.68294) scale(0.07 -0.07)">
       <use xlink:href="#PretendardGOV-Regular-30"/>
       <use xlink:href="#PretendardGOV-Regular-2e" x="57.617188"/>
       <use xlink:href="#PretendardGOV-Regular-34" x="86.425781"/>
      </g>
     </g>
    </g>
    <g id="ytick_4">
     <g id="line2d_21">
      <g>
       <use xlink:href="#maa946a4d15" x="67.32279" y="117.47793" style="stroke: #000000; stroke-width: 0.8"/>
      </g>
     </g>
     <g id="text_21">
      <!-- 0.6 -->
      <g transform="translate(50.238415 119.95254) scale(0.07 -0.07)">
       <use xlink:href="#PretendardGOV-Regular-30"/>
       <use xlink:href="#PretendardGOV-Regular-2e" x="57.617188"/>
       <use xlink:href="#PretendardGOV-Regular-36" x="86.425781"/>
      </g>
     </g>
    </g>
    <g id="ytick_5">
     <g id="line2d_22">
      <g>
       <use xlink:href="#maa946a4d15" x="67.32279" y="76.74753" style="stroke: #000000; stroke-width: 0.8"/>
      </g>
     </g>
     <g id="text_22">
      <!-- 0.8 -->
      <g transform="translate(50.238415 79.222139) scale(0.07 -0.07)">
       <use xlink:href="#PretendardGOV-Regular-30"/>
       <use xlink:href="#PretendardGOV-Regular-2e" x="57.617188"/>
       <use xlink:href="#PretendardGOV-Regular-38" x="86.425781"/>
      </g>
     </g>
    </g>
    <g id="ytick_6">
     <g id="line2d_23">
      <g>
       <use xlink:href="#maa946a4d15" x="67.32279" y="36.017129" style="stroke: #000000; stroke-width: 0.8"/>
      </g>
     </g>
     <g id="text_23">
      <!-- 1.0 -->
      <g transform="translate(50.238415 38.491738) scale(0.07 -0.07)">
       <use xlink:href="#PretendardGOV-Regular-31"/>
       <use xlink:href="#PretendardGOV-Regular-2e" x="57.617188"/>
       <use xlink:href="#PretendardGOV-Regular-30" x="86.425781"/>
      </g>
     </g>
    </g>
    <g id="text_24">
     <!-- 1e7 -->
     <g transform="translate(67.32279 29.314939) scale(0.07 -0.07)">
      <defs>
       <path id="PretendardGOV-Regular-65" d="M 1856 -69 
Q 1372 -69 1012 147 
Q 653 363 461 756 
Q 269 1150 269 1669 
Q 269 2188 461 2589 
Q 653 2991 1001 3214 
Q 1350 3438 1806 3438 
Q 2191 3438 2522 3267 
Q 2853 3097 3061 2717 
Q 3269 2338 3269 1744 
L 3269 1519 
L 806 1519 
Q 819 1166 953 916 
Q 1088 666 1320 536 
Q 1553 406 1856 406 
Q 2144 406 2342 514 
Q 2541 622 2644 794 
L 3219 794 
Q 3138 538 2948 342 
Q 2759 147 2479 39 
Q 2200 -69 1856 -69 
z
M 2725 1975 
Q 2725 2259 2611 2482 
Q 2497 2706 2287 2834 
Q 2078 2963 1806 2963 
Q 1522 2963 1301 2828 
Q 1081 2694 954 2467 
Q 828 2241 809 1975 
L 2725 1975 
z
" transform="scale(0.015625)"/>
      </defs>
      <use xlink:href="#PretendardGOV-Regular-31"/>
      <use xlink:href="#PretendardGOV-Regular-65" x="57.617188"/>
      <use xlink:href="#PretendardGOV-Regular-37" x="112.890625"/>
     </g>
    </g>
   </g>
   <g id="patch_37">
    <path d="M 67.32279 239.669132 
L 67.32279 32.314939 
" style="fill: none; stroke: #000000; stroke-width: 0.8; stroke-linejoin: miter; stroke-linecap: square"/>
   </g>
   <g id="patch_38">
    <path d="M 484.724088 239.669132 
L 484.724088 32.314939 
" style="fill: none; stroke: #000000; stroke-width: 0.8; stroke-linejoin: miter; stroke-linecap: square"/>
   </g>
   <g id="patch_39">
    <path d="M 67.32279 239.669132 
L 484.724088 239.669132 
" style="fill: none; stroke: #000000; stroke-width: 0.8; stroke-linejoin: miter; stroke-linecap: square"/>
   </g>
   <g id="patch_40">
    <path d="M 67.32279 32.314939 
L 484.724088 32.314939 
" style="fill: none; stroke: #000000; stroke-width: 0.8; stroke-linejoin: miter; stroke-linecap: square"/>
   </g>
   <g id="legend_1">
    <g id="patch_41">
     <path d="M 422.209713 57.602439 
L 479.824088 57.602439 
Q 481.224088 57.602439 481.224088 56.202439 
L 481.224088 37.214939 
Q 481.224088 35.814939 479.824088 35.814939 
L 422.209713 35.814939 
Q 420.809713 35.814939 420.809713 37.214939 
L 420.809713 56.202439 
Q 420.809713 57.602439 422.209713 57.602439 
z
" style="fill: #ffffff; opacity: 0.8; stroke: #cccccc; stroke-linejoin: miter"/>
    </g>
    <g id="patch_42">
     <path d="M 423.609713 43.564158 
L 437.609713 43.564158 
L 437.609713 38.664158 
L 423.609713 38.664158 
z
" style="fill: #1f77b4"/>
    </g>
    <g id="text_25">
     <!-- IN_FLUX -->
     <g transform="translate(443.209713 43.564158) scale(0.07 -0.07)">
      <defs>
       <path id="PretendardGOV-Regular-49" d="M 250 4525 
L 2425 4525 
L 2425 4025 
L 1631 4025 
L 1631 500 
L 2425 500 
L 2425 0 
L 250 0 
L 250 500 
L 1069 500 
L 1069 4025 
L 250 4025 
L 250 4525 
z
" transform="scale(0.015625)"/>
       <path id="PretendardGOV-Regular-4e" d="M 4094 0 
L 3556 0 
L 1106 3525 
L 1063 3525 
L 1063 0 
L 500 0 
L 500 4525 
L 1044 4525 
L 3494 994 
L 3538 994 
L 3538 4525 
L 4094 4525 
L 4094 0 
z
" transform="scale(0.015625)"/>
       <path id="PretendardGOV-Regular-5f" d="M 3688 -494 
L 0 -494 
L 0 0 
L 3688 0 
L 3688 -494 
z
" transform="scale(0.015625)"/>
       <path id="PretendardGOV-Regular-46" d="M 500 4525 
L 3225 4525 
L 3225 4025 
L 1063 4025 
L 1063 2513 
L 3019 2513 
L 3019 2019 
L 1063 2019 
L 1063 0 
L 500 0 
L 500 4525 
z
" transform="scale(0.015625)"/>
       <path id="PretendardGOV-Regular-4c" d="M 500 4525 
L 1063 4525 
L 1063 500 
L 3163 500 
L 3163 0 
L 500 0 
L 500 4525 
z
" transform="scale(0.015625)"/>
       <path id="PretendardGOV-Regular-55" d="M 4025 4525 
L 4025 1531 
Q 4025 1069 3806 701 
Q 3588 334 3188 126 
Q 2788 -81 2263 -81 
Q 1738 -81 1338 126 
Q 938 334 719 701 
Q 500 1069 500 1531 
L 500 4525 
L 1063 4525 
L 1063 1575 
Q 1063 1247 1208 990 
Q 1353 734 1625 589 
Q 1897 444 2263 444 
Q 2631 444 2901 589 
Q 3172 734 3317 990 
Q 3463 1247 3463 1575 
L 3463 4525 
L 4025 4525 
z
" transform="scale(0.015625)"/>
       <path id="PretendardGOV-Regular-58" d="M 1938 2656 
L 1975 2656 
L 3131 4525 
L 3794 4525 
L 2375 2263 
L 3794 0 
L 3131 0 
L 1975 1831 
L 1938 1831 
L 781 0 
L 119 0 
L 1575 2263 
L 119 4525 
L 788 4525 
L 1938 2656 
z
" transform="scale(0.015625)"/>
      </defs>
      <use xlink:href="#PretendardGOV-Regular-49"/>
      <use xlink:href="#PretendardGOV-Regular-4e" x="41.894531"/>
      <use xlink:href="#PretendardGOV-Regular-5f" x="113.671875"/>
      <use xlink:href="#PretendardGOV-Regular-46" x="171.289062"/>
      <use xlink:href="#PretendardGOV-Regular-4c" x="226.953125"/>
      <use xlink:href="#PretendardGOV-Regular-55" x="280.273438"/>
      <use xlink:href="#PretendardGOV-Regular-58" x="350.976562"/>
     </g>
    </g>
    <g id="patch_43">
     <path d="M 423.609713 53.407908 
L 437.609713 53.407908 
L 437.609713 48.507908 
L 423.609713 48.507908 
z
" style="fill: #ff7f0e"/>
    </g>
    <g id="text_26">
     <!-- OUT_FLUX -->
     <g transform="translate(443.209713 53.407908) scale(0.07 -0.07)">
      <defs>
       <path id="PretendardGOV-Regular-4f" d="M 4325 2263 
Q 4325 1559 4069 1032 
Q 3813 506 3358 221 
Q 2903 -63 2325 -63 
Q 1744 -63 1291 221 
Q 838 506 581 1032 
Q 325 1559 325 2263 
Q 325 2966 581 3492 
Q 838 4019 1291 4303 
Q 1744 4588 2325 4588 
Q 2903 4588 3358 4303 
Q 3813 4019 4069 3492 
Q 4325 2966 4325 2263 
z
M 3781 2263 
Q 3781 2831 3590 3237 
Q 3400 3644 3070 3853 
Q 2741 4063 2325 4063 
Q 1909 4063 1579 3853 
Q 1250 3644 1059 3237 
Q 869 2831 869 2263 
Q 869 1694 1059 1287 
Q 1250 881 1579 672 
Q 1909 463 2325 463 
Q 2741 463 3070 672 
Q 3400 881 3590 1287 
Q 3781 1694 3781 2263 
z
" transform="scale(0.015625)"/>
       <path id="PretendardGOV-Regular-54" d="M 250 4525 
L 3663 4525 
L 3663 4025 
L 2244 4025 
L 2244 0 
L 1675 0 
L 1675 4025 
L 250 4025 
L 250 4525 
z
" transform="scale(0.015625)"/>
      </defs>
      <use xlink:href="#PretendardGOV-Regular-4f"/>
      <use xlink:href="#PretendardGOV-Regular-55" x="72.65625"/>
      <use xlink:href="#PretendardGOV-Regular-54" x="143.359375"/>
      <use xlink:href="#PretendardGOV-Regular-5f" x="204.492188"/>
      <use xlink:href="#PretendardGOV-Regular-46" x="262.109375"/>
      <use xlink:href="#PretendardGOV-Regular-4c" x="317.773438"/>
      <use xlink:href="#PretendardGOV-Regular-55" x="371.09375"/>
      <use xlink:href="#PretendardGOV-Regular-58" x="441.796875"/>
     </g>
    </g>
   </g>
  </g>
 </g>
 <defs>
  <clipPath id="p347971b941">
   <rect x="67.32279" y="32.314939" width="417.401298" height="207.354193"/>
  </clipPath>
 </defs>
</svg>
