<?xml version="1.0" encoding="utf-8" standalone="no"?>
<!DOCTYPE svg PUBLIC "-//W3C//DTD SVG 1.1//EN"
  "http://www.w3.org/Graphics/SVG/1.1/DTD/svg11.dtd">
<svg xmlns:xlink="http://www.w3.org/1999/xlink" width="3024pt" height="720pt" viewBox="0 0 3024 720" xmlns="http://www.w3.org/2000/svg" version="1.1">
 <metadata>
  <rdf:RDF xmlns:dc="http://purl.org/dc/elements/1.1/" xmlns:cc="http://creativecommons.org/ns#" xmlns:rdf="http://www.w3.org/1999/02/22-rdf-syntax-ns#">
   <cc:Work>
    <dc:type rdf:resource="http://purl.org/dc/dcmitype/StillImage"/>
    <dc:date>2024-05-29T21:56:41.150593</dc:date>
    <dc:format>image/svg+xml</dc:format>
    <dc:creator>
     <cc:Agent>
      <dc:title>Matplotlib v3.8.4, https://matplotlib.org/</dc:title>
     </cc:Agent>
    </dc:creator>
   </cc:Work>
  </rdf:RDF>
 </metadata>
 <defs>
  <style type="text/css">*{stroke-linejoin: round; stroke-linecap: butt}</style>
 </defs>
 <g id="figure_1">
  <g id="patch_1">
   <path d="M 0 720 
L 3024 720 
L 3024 0 
L 0 0 
z
" style="fill: #ffffff"/>
  </g>
  <g id="axes_1">
   <g id="patch_2">
    <path d="M 378 640.8 
L 2721.6 640.8 
L 2721.6 86.4 
L 378 86.4 
z
" style="fill: #ffffff"/>
   </g>
   <g id="patch_3">
    <path d="M 419.85 640.8 
L 503.55 640.8 
L 503.55 531.782276 
L 419.85 531.782276 
z
" clip-path="url(#pd5fe226c39)" style="fill: #1f77b4"/>
   </g>
   <g id="patch_4">
    <path d="M 587.25 640.8 
L 670.95 640.8 
L 670.95 625.897774 
L 587.25 625.897774 
z
" clip-path="url(#pd5fe226c39)" style="fill: #1f77b4"/>
   </g>
   <g id="patch_5">
    <path d="M 754.65 640.8 
L 838.35 640.8 
L 838.35 622.835028 
L 754.65 622.835028 
z
" clip-path="url(#pd5fe226c39)" style="fill: #1f77b4"/>
   </g>
   <g id="patch_6">
    <path d="M 922.05 640.8 
L 1005.75 640.8 
L 1005.75 630.172179 
L 922.05 630.172179 
z
" clip-path="url(#pd5fe226c39)" style="fill: #1f77b4"/>
   </g>
   <g id="patch_7">
    <path d="M 1089.45 640.8 
L 1173.15 640.8 
L 1173.15 623.335815 
L 1089.45 623.335815 
z
" clip-path="url(#pd5fe226c39)" style="fill: #1f77b4"/>
   </g>
   <g id="patch_8">
    <path d="M 1256.85 640.8 
L 1340.55 640.8 
L 1340.55 620.035897 
L 1256.85 620.035897 
z
" clip-path="url(#pd5fe226c39)" style="fill: #1f77b4"/>
   </g>
   <g id="patch_9">
    <path d="M 1424.25 640.8 
L 1507.95 640.8 
L 1507.95 626.023587 
L 1424.25 626.023587 
z
" clip-path="url(#pd5fe226c39)" style="fill: #1f77b4"/>
   </g>
   <g id="patch_10">
    <path d="M 1591.65 640.8 
L 1675.35 640.8 
L 1675.35 627.495833 
L 1591.65 627.495833 
z
" clip-path="url(#pd5fe226c39)" style="fill: #1f77b4"/>
   </g>
   <g id="patch_11">
    <path d="M 1759.05 640.8 
L 1842.75 640.8 
L 1842.75 629.058711 
L 1759.05 629.058711 
z
" clip-path="url(#pd5fe226c39)" style="fill: #1f77b4"/>
   </g>
   <g id="patch_12">
    <path d="M 1926.45 640.8 
L 2010.15 640.8 
L 2010.15 640.319086 
L 1926.45 640.319086 
z
" clip-path="url(#pd5fe226c39)" style="fill: #1f77b4"/>
   </g>
   <g id="patch_13">
    <path d="M 2093.85 640.8 
L 2177.55 640.8 
L 2177.55 608.379893 
L 2093.85 608.379893 
z
" clip-path="url(#pd5fe226c39)" style="fill: #1f77b4"/>
   </g>
   <g id="patch_14">
    <path d="M 2261.25 640.8 
L 2344.95 640.8 
L 2344.95 618.36491 
L 2261.25 618.36491 
z
" clip-path="url(#pd5fe226c39)" style="fill: #1f77b4"/>
   </g>
   <g id="patch_15">
    <path d="M 2428.65 640.8 
L 2512.35 640.8 
L 2512.35 635.084449 
L 2428.65 635.084449 
z
" clip-path="url(#pd5fe226c39)" style="fill: #1f77b4"/>
   </g>
   <g id="patch_16">
    <path d="M 2596.05 640.8 
L 2679.75 640.8 
L 2679.75 617.630372 
L 2596.05 617.630372 
z
" clip-path="url(#pd5fe226c39)" style="fill: #1f77b4"/>
   </g>
   <g id="matplotlib.axis_1">
    <g id="xtick_1">
     <g id="line2d_1">
      <defs>
       <path id="m105244ecae" d="M 0 0 
L 0 3.5 
" style="stroke: #000000; stroke-width: 0.8"/>
      </defs>
      <g>
       <use xlink:href="#m105244ecae" x="461.7" y="640.8" style="stroke: #000000; stroke-width: 0.8"/>
      </g>
     </g>
     <g id="text_1">
      <!-- 401 -->
      <g transform="translate(464.239062 665.0875) rotate(-90) scale(0.1 -0.1)">
       <defs>
        <path id="PretendardGOV-Regular-34" d="M 231 1388 
L 1994 4525 
L 2550 4525 
L 825 1456 
L 825 1419 
L 2313 1419 
L 2313 2831 
L 2844 2831 
L 2844 1419 
L 3450 1419 
L 3450 925 
L 2844 925 
L 2844 0 
L 2313 0 
L 2313 925 
L 231 925 
L 231 1388 
z
" transform="scale(0.015625)"/>
        <path id="PretendardGOV-Regular-30" d="M 1844 -63 
Q 1359 -63 1018 187 
Q 678 438 501 920 
Q 325 1403 325 2088 
L 325 2438 
Q 325 3125 501 3606 
Q 678 4088 1018 4338 
Q 1359 4588 1844 4588 
Q 2325 4588 2664 4338 
Q 3003 4088 3179 3606 
Q 3356 3125 3356 2438 
L 3356 2088 
Q 3356 1403 3179 920 
Q 3003 438 2664 187 
Q 2325 -63 1844 -63 
z
M 1844 431 
Q 2813 431 2813 2081 
L 2813 2438 
Q 2813 4094 1844 4094 
Q 1356 4094 1115 3681 
Q 875 3269 875 2438 
L 875 2081 
Q 875 1256 1115 843 
Q 1356 431 1844 431 
z
" transform="scale(0.015625)"/>
        <path id="PretendardGOV-Regular-31" d="M 2163 456 
L 3144 456 
L 3144 0 
L 569 0 
L 569 456 
L 1600 456 
L 1600 3938 
L 1575 3938 
L 569 3269 
L 569 3844 
L 1600 4525 
L 2163 4525 
L 2163 456 
z
" transform="scale(0.015625)"/>
       </defs>
       <use xlink:href="#PretendardGOV-Regular-34"/>
       <use xlink:href="#PretendardGOV-Regular-30" x="57.617188"/>
       <use xlink:href="#PretendardGOV-Regular-31" x="115.234375"/>
      </g>
     </g>
    </g>
    <g id="xtick_2">
     <g id="line2d_2">
      <g>
       <use xlink:href="#m105244ecae" x="629.1" y="640.8" style="stroke: #000000; stroke-width: 0.8"/>
      </g>
     </g>
     <g id="text_2">
      <!-- 402 -->
      <g transform="translate(631.639062 665.0875) rotate(-90) scale(0.1 -0.1)">
       <defs>
        <path id="PretendardGOV-Regular-32" d="M 481 406 
L 1956 2038 
Q 2238 2350 2391 2550 
Q 2544 2750 2623 2937 
Q 2703 3125 2706 3331 
Q 2703 3559 2592 3734 
Q 2481 3909 2290 4004 
Q 2100 4100 1863 4100 
Q 1613 4100 1427 3995 
Q 1241 3891 1139 3697 
Q 1038 3503 1038 3250 
L 500 3250 
Q 500 3641 679 3945 
Q 859 4250 1175 4419 
Q 1491 4588 1881 4588 
Q 2266 4588 2573 4420 
Q 2881 4253 3054 3965 
Q 3228 3678 3231 3331 
Q 3228 3075 3139 2840 
Q 3050 2606 2839 2317 
Q 2628 2028 2238 1606 
L 1250 538 
L 1250 500 
L 3306 500 
L 3306 0 
L 481 0 
L 481 406 
z
" transform="scale(0.015625)"/>
       </defs>
       <use xlink:href="#PretendardGOV-Regular-34"/>
       <use xlink:href="#PretendardGOV-Regular-30" x="57.617188"/>
       <use xlink:href="#PretendardGOV-Regular-32" x="115.234375"/>
      </g>
     </g>
    </g>
    <g id="xtick_3">
     <g id="line2d_3">
      <g>
       <use xlink:href="#m105244ecae" x="796.5" y="640.8" style="stroke: #000000; stroke-width: 0.8"/>
      </g>
     </g>
     <g id="text_3">
      <!-- 403 -->
      <g transform="translate(799.039062 665.0875) rotate(-90) scale(0.1 -0.1)">
       <defs>
        <path id="PretendardGOV-Regular-33" d="M 900 1144 
Q 922 922 1048 762 
Q 1175 603 1381 520 
Q 1588 438 1844 438 
Q 2119 438 2336 534 
Q 2553 631 2678 823 
Q 2803 1016 2800 1288 
Q 2803 1547 2689 1755 
Q 2575 1963 2325 2088 
Q 2075 2213 1688 2213 
L 1319 2213 
L 1319 2656 
L 2425 3988 
L 2425 4025 
L 544 4025 
L 544 4525 
L 3181 4525 
L 3181 4119 
L 2000 2681 
L 2000 2644 
Q 2384 2622 2693 2439 
Q 3003 2256 3179 1953 
Q 3356 1650 3356 1281 
Q 3356 897 3161 590 
Q 2966 284 2619 110 
Q 2272 -63 1831 -63 
Q 1428 -63 1093 82 
Q 759 228 554 501 
Q 350 775 325 1144 
L 900 1144 
z
" transform="scale(0.015625)"/>
       </defs>
       <use xlink:href="#PretendardGOV-Regular-34"/>
       <use xlink:href="#PretendardGOV-Regular-30" x="57.617188"/>
       <use xlink:href="#PretendardGOV-Regular-33" x="115.234375"/>
      </g>
     </g>
    </g>
    <g id="xtick_4">
     <g id="line2d_4">
      <g>
       <use xlink:href="#m105244ecae" x="963.9" y="640.8" style="stroke: #000000; stroke-width: 0.8"/>
      </g>
     </g>
     <g id="text_4">
      <!-- 404 -->
      <g transform="translate(966.439062 665.0875) rotate(-90) scale(0.1 -0.1)">
       <use xlink:href="#PretendardGOV-Regular-34"/>
       <use xlink:href="#PretendardGOV-Regular-30" x="57.617188"/>
       <use xlink:href="#PretendardGOV-Regular-34" x="115.234375"/>
      </g>
     </g>
    </g>
    <g id="xtick_5">
     <g id="line2d_5">
      <g>
       <use xlink:href="#m105244ecae" x="1131.3" y="640.8" style="stroke: #000000; stroke-width: 0.8"/>
      </g>
     </g>
     <g id="text_5">
      <!-- 405 -->
      <g transform="translate(1133.839062 665.0875) rotate(-90) scale(0.1 -0.1)">
       <defs>
        <path id="PretendardGOV-Regular-35" d="M 1888 -63 
Q 1500 -63 1183 92 
Q 866 247 677 520 
Q 488 794 469 1138 
L 1025 1138 
Q 1041 938 1158 777 
Q 1275 616 1467 523 
Q 1659 431 1888 431 
Q 2159 431 2373 561 
Q 2588 691 2709 919 
Q 2831 1147 2831 1431 
Q 2831 1725 2704 1956 
Q 2578 2188 2354 2320 
Q 2131 2453 1850 2456 
Q 1572 2463 1373 2366 
Q 1175 2269 1063 2050 
L 513 2050 
L 813 4525 
L 3175 4525 
L 3175 4025 
L 1294 4025 
L 1138 2700 
L 1188 2700 
Q 1309 2816 1514 2889 
Q 1719 2963 1944 2963 
Q 2350 2963 2678 2766 
Q 3006 2569 3193 2222 
Q 3381 1875 3381 1444 
Q 3381 1016 3187 672 
Q 2994 328 2653 132 
Q 2313 -63 1888 -63 
z
" transform="scale(0.015625)"/>
       </defs>
       <use xlink:href="#PretendardGOV-Regular-34"/>
       <use xlink:href="#PretendardGOV-Regular-30" x="57.617188"/>
       <use xlink:href="#PretendardGOV-Regular-35" x="115.234375"/>
      </g>
     </g>
    </g>
    <g id="xtick_6">
     <g id="line2d_6">
      <g>
       <use xlink:href="#m105244ecae" x="1298.7" y="640.8" style="stroke: #000000; stroke-width: 0.8"/>
      </g>
     </g>
     <g id="text_6">
      <!-- 406 -->
      <g transform="translate(1301.239062 665.0875) rotate(-90) scale(0.1 -0.1)">
       <defs>
        <path id="PretendardGOV-Regular-36" d="M 1838 -63 
Q 1416 -63 1064 131 
Q 713 325 509 659 
Q 306 994 306 1394 
Q 306 1734 473 2104 
Q 641 2475 1000 3006 
L 2019 4525 
L 2663 4525 
L 1444 2713 
L 1475 2688 
Q 1550 2763 1694 2809 
Q 1838 2856 2031 2856 
Q 2419 2856 2728 2662 
Q 3038 2469 3209 2134 
Q 3381 1800 3381 1394 
Q 3381 994 3175 659 
Q 2969 325 2616 131 
Q 2263 -63 1838 -63 
z
M 1844 431 
Q 2131 431 2356 556 
Q 2581 681 2706 906 
Q 2831 1131 2831 1419 
Q 2831 1706 2706 1932 
Q 2581 2159 2356 2286 
Q 2131 2413 1844 2413 
Q 1556 2413 1329 2286 
Q 1103 2159 976 1932 
Q 850 1706 850 1419 
Q 850 1131 976 906 
Q 1103 681 1329 556 
Q 1556 431 1844 431 
z
" transform="scale(0.015625)"/>
       </defs>
       <use xlink:href="#PretendardGOV-Regular-34"/>
       <use xlink:href="#PretendardGOV-Regular-30" x="57.617188"/>
       <use xlink:href="#PretendardGOV-Regular-36" x="115.234375"/>
      </g>
     </g>
    </g>
    <g id="xtick_7">
     <g id="line2d_7">
      <g>
       <use xlink:href="#m105244ecae" x="1466.1" y="640.8" style="stroke: #000000; stroke-width: 0.8"/>
      </g>
     </g>
     <g id="text_7">
      <!-- 407 -->
      <g transform="translate(1468.639062 665.0875) rotate(-90) scale(0.1 -0.1)">
       <defs>
        <path id="PretendardGOV-Regular-37" d="M 2681 3994 
L 2681 4025 
L 425 4025 
L 425 4525 
L 3275 4525 
L 3275 4000 
L 1313 0 
L 719 0 
L 2681 3994 
z
" transform="scale(0.015625)"/>
       </defs>
       <use xlink:href="#PretendardGOV-Regular-34"/>
       <use xlink:href="#PretendardGOV-Regular-30" x="57.617188"/>
       <use xlink:href="#PretendardGOV-Regular-37" x="115.234375"/>
      </g>
     </g>
    </g>
    <g id="xtick_8">
     <g id="line2d_8">
      <g>
       <use xlink:href="#m105244ecae" x="1633.5" y="640.8" style="stroke: #000000; stroke-width: 0.8"/>
      </g>
     </g>
     <g id="text_8">
      <!-- 408 -->
      <g transform="translate(1636.039062 665.0875) rotate(-90) scale(0.1 -0.1)">
       <defs>
        <path id="PretendardGOV-Regular-38" d="M 1844 -63 
Q 1394 -63 1042 100 
Q 691 263 495 550 
Q 300 838 300 1200 
Q 300 1481 415 1728 
Q 531 1975 731 2139 
Q 931 2303 1175 2350 
L 1175 2375 
Q 959 2431 800 2578 
Q 641 2725 553 2936 
Q 466 3147 463 3388 
Q 466 3728 644 4001 
Q 822 4275 1136 4431 
Q 1450 4588 1844 4588 
Q 2231 4588 2543 4431 
Q 2856 4275 3036 4001 
Q 3216 3728 3219 3388 
Q 3216 3147 3127 2936 
Q 3038 2725 2878 2578 
Q 2719 2431 2506 2375 
L 2506 2350 
Q 2750 2303 2950 2139 
Q 3150 1975 3267 1728 
Q 3384 1481 3388 1200 
Q 3384 838 3187 550 
Q 2991 263 2641 100 
Q 2291 -63 1844 -63 
z
M 1844 431 
Q 2144 431 2366 531 
Q 2588 631 2706 811 
Q 2825 991 2825 1231 
Q 2825 1481 2698 1679 
Q 2572 1878 2348 1989 
Q 2125 2100 1844 2100 
Q 1563 2100 1336 1987 
Q 1109 1875 982 1678 
Q 856 1481 863 1231 
Q 856 994 975 812 
Q 1094 631 1317 531 
Q 1541 431 1844 431 
z
M 1844 2575 
Q 2081 2575 2270 2670 
Q 2459 2766 2564 2941 
Q 2669 3116 2669 3344 
Q 2669 3569 2564 3741 
Q 2459 3913 2271 4006 
Q 2084 4100 1844 4100 
Q 1597 4100 1408 4006 
Q 1219 3913 1116 3741 
Q 1013 3569 1013 3344 
Q 1013 3116 1119 2941 
Q 1225 2766 1414 2670 
Q 1603 2575 1844 2575 
z
" transform="scale(0.015625)"/>
       </defs>
       <use xlink:href="#PretendardGOV-Regular-34"/>
       <use xlink:href="#PretendardGOV-Regular-30" x="57.617188"/>
       <use xlink:href="#PretendardGOV-Regular-38" x="115.234375"/>
      </g>
     </g>
    </g>
    <g id="xtick_9">
     <g id="line2d_9">
      <g>
       <use xlink:href="#m105244ecae" x="1800.9" y="640.8" style="stroke: #000000; stroke-width: 0.8"/>
      </g>
     </g>
     <g id="text_9">
      <!-- 409 -->
      <g transform="translate(1803.439062 665.0875) rotate(-90) scale(0.1 -0.1)">
       <defs>
        <path id="PretendardGOV-Regular-39" d="M 1850 4588 
Q 2272 4588 2623 4394 
Q 2975 4200 3178 3865 
Q 3381 3531 3381 3131 
Q 3381 2791 3214 2420 
Q 3047 2050 2688 1519 
L 1669 0 
L 1025 0 
L 2244 1813 
L 2213 1838 
Q 2138 1763 1994 1716 
Q 1850 1669 1656 1669 
Q 1269 1669 959 1862 
Q 650 2056 478 2390 
Q 306 2725 306 3131 
Q 306 3531 512 3865 
Q 719 4200 1072 4394 
Q 1425 4588 1850 4588 
z
M 1844 4094 
Q 1556 4094 1331 3969 
Q 1106 3844 981 3619 
Q 856 3394 856 3106 
Q 856 2819 981 2592 
Q 1106 2366 1331 2239 
Q 1556 2113 1844 2113 
Q 2131 2113 2357 2239 
Q 2584 2366 2711 2592 
Q 2838 2819 2838 3106 
Q 2838 3394 2711 3619 
Q 2584 3844 2357 3969 
Q 2131 4094 1844 4094 
z
" transform="scale(0.015625)"/>
       </defs>
       <use xlink:href="#PretendardGOV-Regular-34"/>
       <use xlink:href="#PretendardGOV-Regular-30" x="57.617188"/>
       <use xlink:href="#PretendardGOV-Regular-39" x="115.234375"/>
      </g>
     </g>
    </g>
    <g id="xtick_10">
     <g id="line2d_10">
      <g>
       <use xlink:href="#m105244ecae" x="1968.3" y="640.8" style="stroke: #000000; stroke-width: 0.8"/>
      </g>
     </g>
     <g id="text_10">
      <!-- 410 -->
      <g transform="translate(1970.839062 665.0875) rotate(-90) scale(0.1 -0.1)">
       <use xlink:href="#PretendardGOV-Regular-34"/>
       <use xlink:href="#PretendardGOV-Regular-31" x="57.617188"/>
       <use xlink:href="#PretendardGOV-Regular-30" x="115.234375"/>
      </g>
     </g>
    </g>
    <g id="xtick_11">
     <g id="line2d_11">
      <g>
       <use xlink:href="#m105244ecae" x="2135.7" y="640.8" style="stroke: #000000; stroke-width: 0.8"/>
      </g>
     </g>
     <g id="text_11">
      <!-- 411 -->
      <g transform="translate(2138.239062 665.0875) rotate(-90) scale(0.1 -0.1)">
       <use xlink:href="#PretendardGOV-Regular-34"/>
       <use xlink:href="#PretendardGOV-Regular-31" x="57.617188"/>
       <use xlink:href="#PretendardGOV-Regular-31" x="115.234375"/>
      </g>
     </g>
    </g>
    <g id="xtick_12">
     <g id="line2d_12">
      <g>
       <use xlink:href="#m105244ecae" x="2303.1" y="640.8" style="stroke: #000000; stroke-width: 0.8"/>
      </g>
     </g>
     <g id="text_12">
      <!-- 412 -->
      <g transform="translate(2305.639062 665.0875) rotate(-90) scale(0.1 -0.1)">
       <use xlink:href="#PretendardGOV-Regular-34"/>
       <use xlink:href="#PretendardGOV-Regular-31" x="57.617188"/>
       <use xlink:href="#PretendardGOV-Regular-32" x="115.234375"/>
      </g>
     </g>
    </g>
    <g id="xtick_13">
     <g id="line2d_13">
      <g>
       <use xlink:href="#m105244ecae" x="2470.5" y="640.8" style="stroke: #000000; stroke-width: 0.8"/>
      </g>
     </g>
     <g id="text_13">
      <!-- 413 -->
      <g transform="translate(2473.039062 665.0875) rotate(-90) scale(0.1 -0.1)">
       <use xlink:href="#PretendardGOV-Regular-34"/>
       <use xlink:href="#PretendardGOV-Regular-31" x="57.617188"/>
       <use xlink:href="#PretendardGOV-Regular-33" x="115.234375"/>
      </g>
     </g>
    </g>
    <g id="xtick_14">
     <g id="line2d_14">
      <g>
       <use xlink:href="#m105244ecae" x="2637.9" y="640.8" style="stroke: #000000; stroke-width: 0.8"/>
      </g>
     </g>
     <g id="text_14">
      <!-- 414 -->
      <g transform="translate(2640.439062 665.0875) rotate(-90) scale(0.1 -0.1)">
       <use xlink:href="#PretendardGOV-Regular-34"/>
       <use xlink:href="#PretendardGOV-Regular-31" x="57.617188"/>
       <use xlink:href="#PretendardGOV-Regular-34" x="115.234375"/>
      </g>
     </g>
    </g>
    <g id="text_15">
     <!-- scode -->
     <g transform="translate(1536.117969 676.157812) scale(0.1 -0.1)">
      <defs>
       <path id="PretendardGOV-Regular-73" d="M 2319 2513 
Q 2259 2734 2089 2857 
Q 1919 2981 1631 2981 
Q 1425 2981 1261 2914 
Q 1097 2847 1005 2730 
Q 913 2613 913 2469 
Q 913 2300 1055 2181 
Q 1197 2063 1494 1994 
L 2000 1869 
Q 2456 1759 2681 1532 
Q 2906 1306 2906 950 
Q 2906 653 2748 423 
Q 2591 194 2291 62 
Q 1991 -69 1575 -69 
Q 1003 -69 668 176 
Q 334 422 269 888 
L 831 888 
Q 878 641 1059 520 
Q 1241 400 1563 400 
Q 1925 400 2137 540 
Q 2350 681 2350 919 
Q 2350 1100 2215 1220 
Q 2081 1341 1794 1406 
L 1281 1525 
Q 838 1628 606 1862 
Q 375 2097 375 2438 
Q 375 2725 533 2953 
Q 691 3181 977 3309 
Q 1263 3438 1631 3438 
Q 1975 3438 2237 3322 
Q 2500 3206 2654 2997 
Q 2809 2788 2844 2513 
L 2319 2513 
z
" transform="scale(0.015625)"/>
       <path id="PretendardGOV-Regular-63" d="M 1819 -69 
Q 1347 -69 995 154 
Q 644 378 456 775 
Q 269 1172 269 1681 
Q 269 2194 461 2592 
Q 653 2991 1001 3214 
Q 1350 3438 1806 3438 
Q 2166 3438 2456 3305 
Q 2747 3172 2930 2930 
Q 3113 2688 3156 2369 
L 2619 2369 
Q 2581 2531 2475 2665 
Q 2369 2800 2201 2881 
Q 2034 2963 1819 2963 
Q 1519 2963 1289 2806 
Q 1059 2650 932 2364 
Q 806 2078 806 1700 
Q 806 1309 929 1018 
Q 1053 728 1283 570 
Q 1513 413 1819 413 
Q 2122 413 2336 567 
Q 2550 722 2619 1000 
L 3156 1000 
Q 3113 694 2938 451 
Q 2763 209 2475 70 
Q 2188 -69 1819 -69 
z
" transform="scale(0.015625)"/>
       <path id="PretendardGOV-Regular-6f" d="M 1819 -69 
Q 1359 -69 1007 148 
Q 656 366 462 762 
Q 269 1159 269 1681 
Q 269 2203 462 2601 
Q 656 3000 1007 3219 
Q 1359 3438 1819 3438 
Q 2275 3438 2623 3219 
Q 2972 3000 3164 2601 
Q 3356 2203 3356 1681 
Q 3356 1159 3164 762 
Q 2972 366 2623 148 
Q 2275 -69 1819 -69 
z
M 1819 406 
Q 2147 406 2372 579 
Q 2597 753 2708 1042 
Q 2819 1331 2819 1681 
Q 2819 2031 2708 2322 
Q 2597 2613 2372 2788 
Q 2147 2963 1819 2963 
Q 1484 2963 1257 2788 
Q 1031 2613 918 2322 
Q 806 2031 806 1681 
Q 806 1331 918 1042 
Q 1031 753 1257 579 
Q 1484 406 1819 406 
z
" transform="scale(0.015625)"/>
       <path id="PretendardGOV-Regular-64" d="M 1713 -69 
Q 1291 -69 964 147 
Q 638 363 453 761 
Q 269 1159 269 1688 
Q 269 2216 453 2612 
Q 638 3009 966 3223 
Q 1294 3438 1719 3438 
Q 2019 3438 2216 3339 
Q 2413 3241 2506 3130 
Q 2600 3019 2700 2856 
L 2738 2856 
L 2738 4525 
L 3281 4525 
L 3281 0 
L 2756 0 
L 2756 519 
L 2700 519 
Q 2594 353 2498 240 
Q 2403 128 2206 29 
Q 2009 -69 1713 -69 
z
M 1788 413 
Q 2091 413 2309 573 
Q 2528 734 2642 1026 
Q 2756 1319 2756 1700 
Q 2756 2078 2645 2361 
Q 2534 2644 2315 2800 
Q 2097 2956 1788 2956 
Q 1472 2956 1253 2792 
Q 1034 2628 923 2343 
Q 813 2059 813 1700 
Q 813 1331 923 1039 
Q 1034 747 1254 580 
Q 1475 413 1788 413 
z
" transform="scale(0.015625)"/>
       <path id="PretendardGOV-Regular-65" d="M 1856 -69 
Q 1372 -69 1012 147 
Q 653 363 461 756 
Q 269 1150 269 1669 
Q 269 2188 461 2589 
Q 653 2991 1001 3214 
Q 1350 3438 1806 3438 
Q 2191 3438 2522 3267 
Q 2853 3097 3061 2717 
Q 3269 2338 3269 1744 
L 3269 1519 
L 806 1519 
Q 819 1166 953 916 
Q 1088 666 1320 536 
Q 1553 406 1856 406 
Q 2144 406 2342 514 
Q 2541 622 2644 794 
L 3219 794 
Q 3138 538 2948 342 
Q 2759 147 2479 39 
Q 2200 -69 1856 -69 
z
M 2725 1975 
Q 2725 2259 2611 2482 
Q 2497 2706 2287 2834 
Q 2078 2963 1806 2963 
Q 1522 2963 1301 2828 
Q 1081 2694 954 2467 
Q 828 2241 809 1975 
L 2725 1975 
z
" transform="scale(0.015625)"/>
      </defs>
      <use xlink:href="#PretendardGOV-Regular-73"/>
      <use xlink:href="#PretendardGOV-Regular-63" x="49.609375"/>
      <use xlink:href="#PretendardGOV-Regular-6f" x="102.539062"/>
      <use xlink:href="#PretendardGOV-Regular-64" x="159.277344"/>
      <use xlink:href="#PretendardGOV-Regular-65" x="218.359375"/>
     </g>
    </g>
   </g>
   <g id="matplotlib.axis_2">
    <g id="ytick_1">
     <g id="line2d_15">
      <defs>
       <path id="mfa66fdd5db" d="M 0 0 
L -3.5 0 
" style="stroke: #000000; stroke-width: 0.8"/>
      </defs>
      <g>
       <use xlink:href="#mfa66fdd5db" x="378" y="640.8" style="stroke: #000000; stroke-width: 0.8"/>
      </g>
     </g>
     <g id="text_16">
      <!-- 0.00 -->
      <g transform="translate(350.83125 644.335156) scale(0.1 -0.1)">
       <defs>
        <path id="PretendardGOV-Regular-2e" d="M 919 -38 
Q 809 -38 717 17 
Q 625 72 570 165 
Q 516 259 519 369 
Q 516 475 570 567 
Q 625 659 717 714 
Q 809 769 919 769 
Q 1025 769 1117 714 
Q 1209 659 1264 567 
Q 1319 475 1319 369 
Q 1319 259 1264 165 
Q 1209 72 1117 17 
Q 1025 -38 919 -38 
z
" transform="scale(0.015625)"/>
       </defs>
       <use xlink:href="#PretendardGOV-Regular-30"/>
       <use xlink:href="#PretendardGOV-Regular-2e" x="57.617188"/>
       <use xlink:href="#PretendardGOV-Regular-30" x="86.425781"/>
       <use xlink:href="#PretendardGOV-Regular-30" x="144.042969"/>
      </g>
     </g>
    </g>
    <g id="ytick_2">
     <g id="line2d_16">
      <g>
       <use xlink:href="#mfa66fdd5db" x="378" y="568.756823" style="stroke: #000000; stroke-width: 0.8"/>
      </g>
     </g>
     <g id="text_17">
      <!-- 0.25 -->
      <g transform="translate(350.83125 572.291979) scale(0.1 -0.1)">
       <use xlink:href="#PretendardGOV-Regular-30"/>
       <use xlink:href="#PretendardGOV-Regular-2e" x="57.617188"/>
       <use xlink:href="#PretendardGOV-Regular-32" x="86.425781"/>
       <use xlink:href="#PretendardGOV-Regular-35" x="144.042969"/>
      </g>
     </g>
    </g>
    <g id="ytick_3">
     <g id="line2d_17">
      <g>
       <use xlink:href="#mfa66fdd5db" x="378" y="496.713646" style="stroke: #000000; stroke-width: 0.8"/>
      </g>
     </g>
     <g id="text_18">
      <!-- 0.50 -->
      <g transform="translate(350.83125 500.248802) scale(0.1 -0.1)">
       <use xlink:href="#PretendardGOV-Regular-30"/>
       <use xlink:href="#PretendardGOV-Regular-2e" x="57.617188"/>
       <use xlink:href="#PretendardGOV-Regular-35" x="86.425781"/>
       <use xlink:href="#PretendardGOV-Regular-30" x="144.042969"/>
      </g>
     </g>
    </g>
    <g id="ytick_4">
     <g id="line2d_18">
      <g>
       <use xlink:href="#mfa66fdd5db" x="378" y="424.670469" style="stroke: #000000; stroke-width: 0.8"/>
      </g>
     </g>
     <g id="text_19">
      <!-- 0.75 -->
      <g transform="translate(350.83125 428.205625) scale(0.1 -0.1)">
       <use xlink:href="#PretendardGOV-Regular-30"/>
       <use xlink:href="#PretendardGOV-Regular-2e" x="57.617188"/>
       <use xlink:href="#PretendardGOV-Regular-37" x="86.425781"/>
       <use xlink:href="#PretendardGOV-Regular-35" x="144.042969"/>
      </g>
     </g>
    </g>
    <g id="ytick_5">
     <g id="line2d_19">
      <g>
       <use xlink:href="#mfa66fdd5db" x="378" y="352.627292" style="stroke: #000000; stroke-width: 0.8"/>
      </g>
     </g>
     <g id="text_20">
      <!-- 1.00 -->
      <g transform="translate(350.83125 356.162448) scale(0.1 -0.1)">
       <use xlink:href="#PretendardGOV-Regular-31"/>
       <use xlink:href="#PretendardGOV-Regular-2e" x="57.617188"/>
       <use xlink:href="#PretendardGOV-Regular-30" x="86.425781"/>
       <use xlink:href="#PretendardGOV-Regular-30" x="144.042969"/>
      </g>
     </g>
    </g>
    <g id="ytick_6">
     <g id="line2d_20">
      <g>
       <use xlink:href="#mfa66fdd5db" x="378" y="280.584115" style="stroke: #000000; stroke-width: 0.8"/>
      </g>
     </g>
     <g id="text_21">
      <!-- 1.25 -->
      <g transform="translate(350.83125 284.119271) scale(0.1 -0.1)">
       <use xlink:href="#PretendardGOV-Regular-31"/>
       <use xlink:href="#PretendardGOV-Regular-2e" x="57.617188"/>
       <use xlink:href="#PretendardGOV-Regular-32" x="86.425781"/>
       <use xlink:href="#PretendardGOV-Regular-35" x="144.042969"/>
      </g>
     </g>
    </g>
    <g id="ytick_7">
     <g id="line2d_21">
      <g>
       <use xlink:href="#mfa66fdd5db" x="378" y="208.540937" style="stroke: #000000; stroke-width: 0.8"/>
      </g>
     </g>
     <g id="text_22">
      <!-- 1.50 -->
      <g transform="translate(350.83125 212.076094) scale(0.1 -0.1)">
       <use xlink:href="#PretendardGOV-Regular-31"/>
       <use xlink:href="#PretendardGOV-Regular-2e" x="57.617188"/>
       <use xlink:href="#PretendardGOV-Regular-35" x="86.425781"/>
       <use xlink:href="#PretendardGOV-Regular-30" x="144.042969"/>
      </g>
     </g>
    </g>
    <g id="ytick_8">
     <g id="line2d_22">
      <g>
       <use xlink:href="#mfa66fdd5db" x="378" y="136.49776" style="stroke: #000000; stroke-width: 0.8"/>
      </g>
     </g>
     <g id="text_23">
      <!-- 1.75 -->
      <g transform="translate(350.83125 140.032917) scale(0.1 -0.1)">
       <use xlink:href="#PretendardGOV-Regular-31"/>
       <use xlink:href="#PretendardGOV-Regular-2e" x="57.617188"/>
       <use xlink:href="#PretendardGOV-Regular-37" x="86.425781"/>
       <use xlink:href="#PretendardGOV-Regular-35" x="144.042969"/>
      </g>
     </g>
    </g>
    <g id="text_24">
     <!-- 1e7 -->
     <g transform="translate(378 83.4) scale(0.1 -0.1)">
      <use xlink:href="#PretendardGOV-Regular-31"/>
      <use xlink:href="#PretendardGOV-Regular-65" x="57.617188"/>
      <use xlink:href="#PretendardGOV-Regular-37" x="112.890625"/>
     </g>
    </g>
   </g>
   <g id="patch_17">
    <path d="M 378 640.8 
L 378 86.4 
" style="fill: none; stroke: #000000; stroke-width: 0.8; stroke-linejoin: miter; stroke-linecap: square"/>
   </g>
   <g id="patch_18">
    <path d="M 2721.6 640.8 
L 2721.6 86.4 
" style="fill: none; stroke: #000000; stroke-width: 0.8; stroke-linejoin: miter; stroke-linecap: square"/>
   </g>
   <g id="patch_19">
    <path d="M 378 640.8 
L 2721.6 640.8 
" style="fill: none; stroke: #000000; stroke-width: 0.8; stroke-linejoin: miter; stroke-linecap: square"/>
   </g>
   <g id="patch_20">
    <path d="M 378 86.4 
L 2721.6 86.4 
" style="fill: none; stroke: #000000; stroke-width: 0.8; stroke-linejoin: miter; stroke-linecap: square"/>
   </g>
   <g id="legend_1">
    <g id="patch_21">
     <path d="M 2631.853125 108.4625 
L 2714.6 108.4625 
Q 2716.6 108.4625 2716.6 106.4625 
L 2716.6 93.4 
Q 2716.6 91.4 2714.6 91.4 
L 2631.853125 91.4 
Q 2629.853125 91.4 2629.853125 93.4 
L 2629.853125 106.4625 
Q 2629.853125 108.4625 2631.853125 108.4625 
z
" style="fill: #ffffff; opacity: 0.8; stroke: #cccccc; stroke-linejoin: miter"/>
    </g>
    <g id="patch_22">
     <path d="M 2633.853125 102.470312 
L 2653.853125 102.470312 
L 2653.853125 95.470312 
L 2633.853125 95.470312 
z
" style="fill: #1f77b4"/>
    </g>
    <g id="text_25">
     <!-- flux_metric -->
     <g transform="translate(2661.853125 102.470312) scale(0.1 -0.1)">
      <defs>
       <path id="PretendardGOV-Regular-66" d="M 1950 2944 
L 1200 2944 
L 1200 0 
L 656 0 
L 656 2944 
L 113 2944 
L 113 3394 
L 656 3394 
L 656 3856 
Q 656 4128 773 4326 
Q 891 4525 1109 4631 
Q 1328 4738 1625 4738 
Q 1800 4738 2025 4700 
L 2025 4219 
Q 1875 4244 1744 4244 
Q 1463 4244 1331 4122 
Q 1200 4000 1200 3738 
L 1200 3394 
L 1950 3394 
L 1950 2944 
z
" transform="scale(0.015625)"/>
       <path id="PretendardGOV-Regular-6c" d="M 969 1031 
Q 969 494 1425 494 
L 1525 494 
L 1525 0 
L 1413 0 
Q 928 0 679 272 
Q 431 544 431 1031 
L 431 4525 
L 969 4525 
L 969 1031 
z
" transform="scale(0.015625)"/>
       <path id="PretendardGOV-Regular-75" d="M 2575 3394 
L 3106 3394 
L 3106 0 
L 2575 0 
L 2575 575 
L 2538 575 
Q 2406 297 2151 126 
Q 1897 -44 1531 -44 
Q 1203 -44 956 98 
Q 709 241 570 528 
Q 431 816 431 1238 
L 431 3394 
L 969 3394 
L 969 1275 
Q 969 1034 1062 853 
Q 1156 672 1323 573 
Q 1491 475 1706 475 
Q 1909 475 2111 578 
Q 2313 681 2444 889 
Q 2575 1097 2575 1394 
L 2575 3394 
z
" transform="scale(0.015625)"/>
       <path id="PretendardGOV-Regular-78" d="M 1638 2013 
L 2444 3394 
L 3063 3394 
L 1969 1700 
L 3063 0 
L 2450 0 
L 1638 1313 
L 838 0 
L 219 0 
L 1288 1700 
L 219 3394 
L 838 3394 
L 1638 2013 
z
" transform="scale(0.015625)"/>
       <path id="PretendardGOV-Regular-5f" d="M 3688 -494 
L 0 -494 
L 0 0 
L 3688 0 
L 3688 -494 
z
" transform="scale(0.015625)"/>
       <path id="PretendardGOV-Regular-6d" d="M 431 3394 
L 950 3394 
L 950 2863 
L 994 2863 
Q 1103 3138 1339 3288 
Q 1575 3438 1906 3438 
Q 2231 3438 2459 3289 
Q 2688 3141 2813 2863 
L 2850 2863 
Q 2984 3131 3246 3284 
Q 3509 3438 3869 3438 
Q 4178 3438 4411 3309 
Q 4644 3181 4775 2920 
Q 4906 2659 4906 2269 
L 4906 0 
L 4369 0 
L 4369 2263 
Q 4369 2616 4175 2786 
Q 3981 2956 3681 2956 
Q 3450 2956 3281 2859 
Q 3113 2763 3025 2594 
Q 2938 2425 2938 2206 
L 2938 0 
L 2394 0 
L 2394 2319 
Q 2394 2506 2309 2651 
Q 2225 2797 2073 2876 
Q 1922 2956 1731 2956 
Q 1528 2956 1353 2848 
Q 1178 2741 1073 2550 
Q 969 2359 969 2119 
L 969 0 
L 431 0 
L 431 3394 
z
" transform="scale(0.015625)"/>
       <path id="PretendardGOV-Regular-74" d="M 1913 2944 
L 1200 2944 
L 1200 975 
Q 1200 675 1319 572 
Q 1438 469 1644 469 
Q 1800 469 1963 481 
L 1963 -19 
Q 1800 -44 1588 -44 
Q 1350 -44 1137 54 
Q 925 153 790 353 
Q 656 553 656 838 
L 656 2944 
L 144 2944 
L 144 3394 
L 656 3394 
L 656 4206 
L 1200 4206 
L 1200 3394 
L 1913 3394 
L 1913 2944 
z
" transform="scale(0.015625)"/>
       <path id="PretendardGOV-Regular-72" d="M 431 3394 
L 950 3394 
L 950 2875 
L 988 2875 
Q 1081 3134 1322 3292 
Q 1563 3450 1863 3450 
Q 2019 3450 2144 3438 
L 2144 2894 
Q 2109 2906 2011 2918 
Q 1913 2931 1819 2931 
Q 1578 2931 1384 2828 
Q 1191 2725 1080 2544 
Q 969 2363 969 2138 
L 969 0 
L 431 0 
L 431 3394 
z
" transform="scale(0.015625)"/>
       <path id="PretendardGOV-Regular-69" d="M 431 3394 
L 969 3394 
L 969 0 
L 431 0 
L 431 3394 
z
M 700 3956 
Q 544 3956 434 4059 
Q 325 4163 325 4313 
Q 325 4463 434 4566 
Q 544 4669 700 4669 
Q 856 4669 968 4566 
Q 1081 4463 1081 4313 
Q 1081 4163 968 4059 
Q 856 3956 700 3956 
z
" transform="scale(0.015625)"/>
      </defs>
      <use xlink:href="#PretendardGOV-Regular-66"/>
      <use xlink:href="#PretendardGOV-Regular-6c" x="33.691406"/>
      <use xlink:href="#PretendardGOV-Regular-75" x="60.9375"/>
      <use xlink:href="#PretendardGOV-Regular-78" x="116.210938"/>
      <use xlink:href="#PretendardGOV-Regular-5f" x="167.480469"/>
      <use xlink:href="#PretendardGOV-Regular-6d" x="225.097656"/>
      <use xlink:href="#PretendardGOV-Regular-65" x="308.496094"/>
      <use xlink:href="#PretendardGOV-Regular-74" x="363.769531"/>
      <use xlink:href="#PretendardGOV-Regular-72" x="397.753906"/>
      <use xlink:href="#PretendardGOV-Regular-69" x="432.714844"/>
      <use xlink:href="#PretendardGOV-Regular-63" x="454.492188"/>
     </g>
    </g>
   </g>
  </g>
 </g>
 <defs>
  <clipPath id="pd5fe226c39">
   <rect x="378" y="86.4" width="2343.6" height="554.4"/>
  </clipPath>
 </defs>
</svg>
