<?xml version="1.0" encoding="utf-8" standalone="no"?>
<!DOCTYPE svg PUBLIC "-//W3C//DTD SVG 1.1//EN"
  "http://www.w3.org/Graphics/SVG/1.1/DTD/svg11.dtd">
<svg xmlns:xlink="http://www.w3.org/1999/xlink" width="7740pt" height="720pt" viewBox="0 0 7740 720" xmlns="http://www.w3.org/2000/svg" version="1.1">
 <metadata>
  <rdf:RDF xmlns:dc="http://purl.org/dc/elements/1.1/" xmlns:cc="http://creativecommons.org/ns#" xmlns:rdf="http://www.w3.org/1999/02/22-rdf-syntax-ns#">
   <cc:Work>
    <dc:type rdf:resource="http://purl.org/dc/dcmitype/StillImage"/>
    <dc:date>2024-06-01T22:08:51.166371</dc:date>
    <dc:format>image/svg+xml</dc:format>
    <dc:creator>
     <cc:Agent>
      <dc:title>Matplotlib v3.8.4, https://matplotlib.org/</dc:title>
     </cc:Agent>
    </dc:creator>
   </cc:Work>
  </rdf:RDF>
 </metadata>
 <defs>
  <style type="text/css">*{stroke-linejoin: round; stroke-linecap: butt}</style>
 </defs>
 <g id="figure_1">
  <g id="patch_1">
   <path d="M 0 720 
L 7740 720 
L 7740 0 
L 0 0 
z
" style="fill: #ffffff"/>
  </g>
  <g id="axes_1">
   <g id="patch_2">
    <path d="M 967.5 640.8 
L 6966 640.8 
L 6966 86.4 
L 967.5 86.4 
z
" style="fill: #ffffff"/>
   </g>
   <g id="patch_3">
    <path d="M 1002.375 640.8 
L 1025.625 640.8 
L 1025.625 612.14585 
L 1002.375 612.14585 
z
" clip-path="url(#p7f99eeae7d)" style="fill: #1f77b4"/>
   </g>
   <g id="patch_4">
    <path d="M 1141.875 640.8 
L 1165.125 640.8 
L 1165.125 614.828007 
L 1141.875 614.828007 
z
" clip-path="url(#p7f99eeae7d)" style="fill: #1f77b4"/>
   </g>
   <g id="patch_5">
    <path d="M 1281.375 640.8 
L 1304.625 640.8 
L 1304.625 628.376817 
L 1281.375 628.376817 
z
" clip-path="url(#p7f99eeae7d)" style="fill: #1f77b4"/>
   </g>
   <g id="patch_6">
    <path d="M 1420.875 640.8 
L 1444.125 640.8 
L 1444.125 622.811662 
L 1420.875 622.811662 
z
" clip-path="url(#p7f99eeae7d)" style="fill: #1f77b4"/>
   </g>
   <g id="patch_7">
    <path d="M 1560.375 640.8 
L 1583.625 640.8 
L 1583.625 612.761239 
L 1560.375 612.761239 
z
" clip-path="url(#p7f99eeae7d)" style="fill: #1f77b4"/>
   </g>
   <g id="patch_8">
    <path d="M 1699.875 640.8 
L 1723.125 640.8 
L 1723.125 614.225282 
L 1699.875 614.225282 
z
" clip-path="url(#p7f99eeae7d)" style="fill: #1f77b4"/>
   </g>
   <g id="patch_9">
    <path d="M 1839.375 640.8 
L 1862.625 640.8 
L 1862.625 616.384387 
L 1839.375 616.384387 
z
" clip-path="url(#p7f99eeae7d)" style="fill: #1f77b4"/>
   </g>
   <g id="patch_10">
    <path d="M 1978.875 640.8 
L 2002.125 640.8 
L 2002.125 615.860079 
L 1978.875 615.860079 
z
" clip-path="url(#p7f99eeae7d)" style="fill: #1f77b4"/>
   </g>
   <g id="patch_11">
    <path d="M 2118.375 640.8 
L 2141.625 640.8 
L 2141.625 619.593962 
L 2118.375 619.593962 
z
" clip-path="url(#p7f99eeae7d)" style="fill: #1f77b4"/>
   </g>
   <g id="patch_12">
    <path d="M 2257.875 640.8 
L 2281.125 640.8 
L 2281.125 618.680018 
L 2257.875 618.680018 
z
" clip-path="url(#p7f99eeae7d)" style="fill: #1f77b4"/>
   </g>
   <g id="patch_13">
    <path d="M 2397.375 640.8 
L 2420.625 640.8 
L 2420.625 616.086049 
L 2397.375 616.086049 
z
" clip-path="url(#p7f99eeae7d)" style="fill: #1f77b4"/>
   </g>
   <g id="patch_14">
    <path d="M 2536.875 640.8 
L 2560.125 640.8 
L 2560.125 620.393253 
L 2536.875 620.393253 
z
" clip-path="url(#p7f99eeae7d)" style="fill: #1f77b4"/>
   </g>
   <g id="patch_15">
    <path d="M 2676.375 640.8 
L 2699.625 640.8 
L 2699.625 622.641159 
L 2676.375 622.641159 
z
" clip-path="url(#p7f99eeae7d)" style="fill: #1f77b4"/>
   </g>
   <g id="patch_16">
    <path d="M 2815.875 640.8 
L 2839.125 640.8 
L 2839.125 621.693437 
L 2815.875 621.693437 
z
" clip-path="url(#p7f99eeae7d)" style="fill: #1f77b4"/>
   </g>
   <g id="patch_17">
    <path d="M 2955.375 640.8 
L 2978.625 640.8 
L 2978.625 615.877198 
L 2955.375 615.877198 
z
" clip-path="url(#p7f99eeae7d)" style="fill: #1f77b4"/>
   </g>
   <g id="patch_18">
    <path d="M 3094.875 640.8 
L 3118.125 640.8 
L 3118.125 586.543594 
L 3094.875 586.543594 
z
" clip-path="url(#p7f99eeae7d)" style="fill: #1f77b4"/>
   </g>
   <g id="patch_19">
    <path d="M 3234.375 640.8 
L 3257.625 640.8 
L 3257.625 583.134904 
L 3234.375 583.134904 
z
" clip-path="url(#p7f99eeae7d)" style="fill: #1f77b4"/>
   </g>
   <g id="patch_20">
    <path d="M 3373.875 640.8 
L 3397.125 640.8 
L 3397.125 573.839375 
L 3373.875 573.839375 
z
" clip-path="url(#p7f99eeae7d)" style="fill: #1f77b4"/>
   </g>
   <g id="patch_21">
    <path d="M 3513.375 640.8 
L 3536.625 640.8 
L 3536.625 566.757383 
L 3513.375 566.757383 
z
" clip-path="url(#p7f99eeae7d)" style="fill: #1f77b4"/>
   </g>
   <g id="patch_22">
    <path d="M 3652.875 640.8 
L 3676.125 640.8 
L 3676.125 590.322079 
L 3652.875 590.322079 
z
" clip-path="url(#p7f99eeae7d)" style="fill: #1f77b4"/>
   </g>
   <g id="patch_23">
    <path d="M 3792.375 640.8 
L 3815.625 640.8 
L 3815.625 624.532832 
L 3792.375 624.532832 
z
" clip-path="url(#p7f99eeae7d)" style="fill: #1f77b4"/>
   </g>
   <g id="patch_24">
    <path d="M 3931.875 640.8 
L 3955.125 640.8 
L 3955.125 630.995138 
L 3931.875 630.995138 
z
" clip-path="url(#p7f99eeae7d)" style="fill: #1f77b4"/>
   </g>
   <g id="patch_25">
    <path d="M 4071.375 640.8 
L 4094.625 640.8 
L 4094.625 623.755267 
L 4071.375 623.755267 
z
" clip-path="url(#p7f99eeae7d)" style="fill: #1f77b4"/>
   </g>
   <g id="patch_26">
    <path d="M 4210.875 640.8 
L 4234.125 640.8 
L 4234.125 623.774136 
L 4210.875 623.774136 
z
" clip-path="url(#p7f99eeae7d)" style="fill: #1f77b4"/>
   </g>
   <g id="patch_27">
    <path d="M 4350.375 640.8 
L 4373.625 640.8 
L 4373.625 627.043691 
L 4350.375 627.043691 
z
" clip-path="url(#p7f99eeae7d)" style="fill: #1f77b4"/>
   </g>
   <g id="patch_28">
    <path d="M 4489.875 640.8 
L 4513.125 640.8 
L 4513.125 620.173653 
L 4489.875 620.173653 
z
" clip-path="url(#p7f99eeae7d)" style="fill: #1f77b4"/>
   </g>
   <g id="patch_29">
    <path d="M 4629.375 640.8 
L 4652.625 640.8 
L 4652.625 618.846512 
L 4629.375 618.846512 
z
" clip-path="url(#p7f99eeae7d)" style="fill: #1f77b4"/>
   </g>
   <g id="patch_30">
    <path d="M 4768.875 640.8 
L 4792.125 640.8 
L 4792.125 623.973034 
L 4768.875 623.973034 
z
" clip-path="url(#p7f99eeae7d)" style="fill: #1f77b4"/>
   </g>
   <g id="patch_31">
    <path d="M 4908.375 640.8 
L 4931.625 640.8 
L 4931.625 621.712479 
L 4908.375 621.712479 
z
" clip-path="url(#p7f99eeae7d)" style="fill: #1f77b4"/>
   </g>
   <g id="patch_32">
    <path d="M 5047.875 640.8 
L 5071.125 640.8 
L 5071.125 620.444832 
L 5047.875 620.444832 
z
" clip-path="url(#p7f99eeae7d)" style="fill: #1f77b4"/>
   </g>
   <g id="patch_33">
    <path d="M 5187.375 640.8 
L 5210.625 640.8 
L 5210.625 623.170966 
L 5187.375 623.170966 
z
" clip-path="url(#p7f99eeae7d)" style="fill: #1f77b4"/>
   </g>
   <g id="patch_34">
    <path d="M 5326.875 640.8 
L 5350.125 640.8 
L 5350.125 626.650822 
L 5326.875 626.650822 
z
" clip-path="url(#p7f99eeae7d)" style="fill: #1f77b4"/>
   </g>
   <g id="patch_35">
    <path d="M 5466.375 640.8 
L 5489.625 640.8 
L 5489.625 623.99229 
L 5466.375 623.99229 
z
" clip-path="url(#p7f99eeae7d)" style="fill: #1f77b4"/>
   </g>
   <g id="patch_36">
    <path d="M 5605.875 640.8 
L 5629.125 640.8 
L 5629.125 627.579161 
L 5605.875 627.579161 
z
" clip-path="url(#p7f99eeae7d)" style="fill: #1f77b4"/>
   </g>
   <g id="patch_37">
    <path d="M 5745.375 640.8 
L 5768.625 640.8 
L 5768.625 632.975922 
L 5745.375 632.975922 
z
" clip-path="url(#p7f99eeae7d)" style="fill: #1f77b4"/>
   </g>
   <g id="patch_38">
    <path d="M 5884.875 640.8 
L 5908.125 640.8 
L 5908.125 636.95033 
L 5884.875 636.95033 
z
" clip-path="url(#p7f99eeae7d)" style="fill: #1f77b4"/>
   </g>
   <g id="patch_39">
    <path d="M 6024.375 640.8 
L 6047.625 640.8 
L 6047.625 638.709217 
L 6024.375 638.709217 
z
" clip-path="url(#p7f99eeae7d)" style="fill: #1f77b4"/>
   </g>
   <g id="patch_40">
    <path d="M 6163.875 640.8 
L 6187.125 640.8 
L 6187.125 638.457267 
L 6163.875 638.457267 
z
" clip-path="url(#p7f99eeae7d)" style="fill: #1f77b4"/>
   </g>
   <g id="patch_41">
    <path d="M 6303.375 640.8 
L 6326.625 640.8 
L 6326.625 640.289252 
L 6303.375 640.289252 
z
" clip-path="url(#p7f99eeae7d)" style="fill: #1f77b4"/>
   </g>
   <g id="patch_42">
    <path d="M 6442.875 640.8 
L 6466.125 640.8 
L 6466.125 640.8 
L 6442.875 640.8 
z
" clip-path="url(#p7f99eeae7d)" style="fill: #1f77b4"/>
   </g>
   <g id="patch_43">
    <path d="M 6582.375 640.8 
L 6605.625 640.8 
L 6605.625 640.8 
L 6582.375 640.8 
z
" clip-path="url(#p7f99eeae7d)" style="fill: #1f77b4"/>
   </g>
   <g id="patch_44">
    <path d="M 6721.875 640.8 
L 6745.125 640.8 
L 6745.125 640.8 
L 6721.875 640.8 
z
" clip-path="url(#p7f99eeae7d)" style="fill: #1f77b4"/>
   </g>
   <g id="patch_45">
    <path d="M 6861.375 640.8 
L 6884.625 640.8 
L 6884.625 639.919075 
L 6861.375 639.919075 
z
" clip-path="url(#p7f99eeae7d)" style="fill: #1f77b4"/>
   </g>
   <g id="patch_46">
    <path d="M 1025.625 640.8 
L 1048.875 640.8 
L 1048.875 585.297264 
L 1025.625 585.297264 
z
" clip-path="url(#p7f99eeae7d)" style="fill: #ff7f0e"/>
   </g>
   <g id="patch_47">
    <path d="M 1165.125 640.8 
L 1188.375 640.8 
L 1188.375 594.745519 
L 1165.125 594.745519 
z
" clip-path="url(#p7f99eeae7d)" style="fill: #ff7f0e"/>
   </g>
   <g id="patch_48">
    <path d="M 1304.625 640.8 
L 1327.875 640.8 
L 1327.875 619.801494 
L 1304.625 619.801494 
z
" clip-path="url(#p7f99eeae7d)" style="fill: #ff7f0e"/>
   </g>
   <g id="patch_49">
    <path d="M 1444.125 640.8 
L 1467.375 640.8 
L 1467.375 608.184939 
L 1444.125 608.184939 
z
" clip-path="url(#p7f99eeae7d)" style="fill: #ff7f0e"/>
   </g>
   <g id="patch_50">
    <path d="M 1583.625 640.8 
L 1606.875 640.8 
L 1606.875 614.958907 
L 1583.625 614.958907 
z
" clip-path="url(#p7f99eeae7d)" style="fill: #ff7f0e"/>
   </g>
   <g id="patch_51">
    <path d="M 1723.125 640.8 
L 1746.375 640.8 
L 1746.375 612.233244 
L 1723.125 612.233244 
z
" clip-path="url(#p7f99eeae7d)" style="fill: #ff7f0e"/>
   </g>
   <g id="patch_52">
    <path d="M 1862.625 640.8 
L 1885.875 640.8 
L 1885.875 595.91286 
L 1862.625 595.91286 
z
" clip-path="url(#p7f99eeae7d)" style="fill: #ff7f0e"/>
   </g>
   <g id="patch_53">
    <path d="M 2002.125 640.8 
L 2025.375 640.8 
L 2025.375 583.046299 
L 2002.125 583.046299 
z
" clip-path="url(#p7f99eeae7d)" style="fill: #ff7f0e"/>
   </g>
   <g id="patch_54">
    <path d="M 2141.625 640.8 
L 2164.875 640.8 
L 2164.875 589.736673 
L 2141.625 589.736673 
z
" clip-path="url(#p7f99eeae7d)" style="fill: #ff7f0e"/>
   </g>
   <g id="patch_55">
    <path d="M 2281.125 640.8 
L 2304.375 640.8 
L 2304.375 600.833072 
L 2281.125 600.833072 
z
" clip-path="url(#p7f99eeae7d)" style="fill: #ff7f0e"/>
   </g>
   <g id="patch_56">
    <path d="M 2420.625 640.8 
L 2443.875 640.8 
L 2443.875 604.555758 
L 2420.625 604.555758 
z
" clip-path="url(#p7f99eeae7d)" style="fill: #ff7f0e"/>
   </g>
   <g id="patch_57">
    <path d="M 2560.125 640.8 
L 2583.375 640.8 
L 2583.375 609.978862 
L 2560.125 609.978862 
z
" clip-path="url(#p7f99eeae7d)" style="fill: #ff7f0e"/>
   </g>
   <g id="patch_58">
    <path d="M 2699.625 640.8 
L 2722.875 640.8 
L 2722.875 601.053675 
L 2699.625 601.053675 
z
" clip-path="url(#p7f99eeae7d)" style="fill: #ff7f0e"/>
   </g>
   <g id="patch_59">
    <path d="M 2839.125 640.8 
L 2862.375 640.8 
L 2862.375 594.174021 
L 2839.125 594.174021 
z
" clip-path="url(#p7f99eeae7d)" style="fill: #ff7f0e"/>
   </g>
   <g id="patch_60">
    <path d="M 2978.625 640.8 
L 3001.875 640.8 
L 3001.875 594.906405 
L 2978.625 594.906405 
z
" clip-path="url(#p7f99eeae7d)" style="fill: #ff7f0e"/>
   </g>
   <g id="patch_61">
    <path d="M 3118.125 640.8 
L 3141.375 640.8 
L 3141.375 598.547529 
L 3118.125 598.547529 
z
" clip-path="url(#p7f99eeae7d)" style="fill: #ff7f0e"/>
   </g>
   <g id="patch_62">
    <path d="M 3257.625 640.8 
L 3280.875 640.8 
L 3280.875 597.15564 
L 3257.625 597.15564 
z
" clip-path="url(#p7f99eeae7d)" style="fill: #ff7f0e"/>
   </g>
   <g id="patch_63">
    <path d="M 3397.125 640.8 
L 3420.375 640.8 
L 3420.375 598.141517 
L 3397.125 598.141517 
z
" clip-path="url(#p7f99eeae7d)" style="fill: #ff7f0e"/>
   </g>
   <g id="patch_64">
    <path d="M 3536.625 640.8 
L 3559.875 640.8 
L 3559.875 594.886994 
L 3536.625 594.886994 
z
" clip-path="url(#p7f99eeae7d)" style="fill: #ff7f0e"/>
   </g>
   <g id="patch_65">
    <path d="M 3676.125 640.8 
L 3699.375 640.8 
L 3699.375 597.278738 
L 3676.125 597.278738 
z
" clip-path="url(#p7f99eeae7d)" style="fill: #ff7f0e"/>
   </g>
   <g id="patch_66">
    <path d="M 3815.625 640.8 
L 3838.875 640.8 
L 3838.875 611.558422 
L 3815.625 611.558422 
z
" clip-path="url(#p7f99eeae7d)" style="fill: #ff7f0e"/>
   </g>
   <g id="patch_67">
    <path d="M 3955.125 640.8 
L 3978.375 640.8 
L 3978.375 609.220612 
L 3955.125 609.220612 
z
" clip-path="url(#p7f99eeae7d)" style="fill: #ff7f0e"/>
   </g>
   <g id="patch_68">
    <path d="M 4094.625 640.8 
L 4117.875 640.8 
L 4117.875 590.335135 
L 4094.625 590.335135 
z
" clip-path="url(#p7f99eeae7d)" style="fill: #ff7f0e"/>
   </g>
   <g id="patch_69">
    <path d="M 4234.125 640.8 
L 4257.375 640.8 
L 4257.375 602.212999 
L 4234.125 602.212999 
z
" clip-path="url(#p7f99eeae7d)" style="fill: #ff7f0e"/>
   </g>
   <g id="patch_70">
    <path d="M 4373.625 640.8 
L 4396.875 640.8 
L 4396.875 610.876244 
L 4373.625 610.876244 
z
" clip-path="url(#p7f99eeae7d)" style="fill: #ff7f0e"/>
   </g>
   <g id="patch_71">
    <path d="M 4513.125 640.8 
L 4536.375 640.8 
L 4536.375 622.496975 
L 4513.125 622.496975 
z
" clip-path="url(#p7f99eeae7d)" style="fill: #ff7f0e"/>
   </g>
   <g id="patch_72">
    <path d="M 4652.625 640.8 
L 4675.875 640.8 
L 4675.875 620.164736 
L 4652.625 620.164736 
z
" clip-path="url(#p7f99eeae7d)" style="fill: #ff7f0e"/>
   </g>
   <g id="patch_73">
    <path d="M 4792.125 640.8 
L 4815.375 640.8 
L 4815.375 617.537979 
L 4792.125 617.537979 
z
" clip-path="url(#p7f99eeae7d)" style="fill: #ff7f0e"/>
   </g>
   <g id="patch_74">
    <path d="M 4931.625 640.8 
L 4954.875 640.8 
L 4954.875 618.190621 
L 4931.625 618.190621 
z
" clip-path="url(#p7f99eeae7d)" style="fill: #ff7f0e"/>
   </g>
   <g id="patch_75">
    <path d="M 5071.125 640.8 
L 5094.375 640.8 
L 5094.375 611.638256 
L 5071.125 611.638256 
z
" clip-path="url(#p7f99eeae7d)" style="fill: #ff7f0e"/>
   </g>
   <g id="patch_76">
    <path d="M 5210.625 640.8 
L 5233.875 640.8 
L 5233.875 608.332599 
L 5210.625 608.332599 
z
" clip-path="url(#p7f99eeae7d)" style="fill: #ff7f0e"/>
   </g>
   <g id="patch_77">
    <path d="M 5350.125 640.8 
L 5373.375 640.8 
L 5373.375 608.363189 
L 5350.125 608.363189 
z
" clip-path="url(#p7f99eeae7d)" style="fill: #ff7f0e"/>
   </g>
   <g id="patch_78">
    <path d="M 5489.625 640.8 
L 5512.875 640.8 
L 5512.875 614.243024 
L 5489.625 614.243024 
z
" clip-path="url(#p7f99eeae7d)" style="fill: #ff7f0e"/>
   </g>
   <g id="patch_79">
    <path d="M 5629.125 640.8 
L 5652.375 640.8 
L 5652.375 615.955509 
L 5629.125 615.955509 
z
" clip-path="url(#p7f99eeae7d)" style="fill: #ff7f0e"/>
   </g>
   <g id="patch_80">
    <path d="M 5768.625 640.8 
L 5791.875 640.8 
L 5791.875 619.598539 
L 5768.625 619.598539 
z
" clip-path="url(#p7f99eeae7d)" style="fill: #ff7f0e"/>
   </g>
   <g id="patch_81">
    <path d="M 5908.125 640.8 
L 5931.375 640.8 
L 5931.375 628.916478 
L 5908.125 628.916478 
z
" clip-path="url(#p7f99eeae7d)" style="fill: #ff7f0e"/>
   </g>
   <g id="patch_82">
    <path d="M 6047.625 640.8 
L 6070.875 640.8 
L 6070.875 633.040682 
L 6047.625 633.040682 
z
" clip-path="url(#p7f99eeae7d)" style="fill: #ff7f0e"/>
   </g>
   <g id="patch_83">
    <path d="M 6187.125 640.8 
L 6210.375 640.8 
L 6210.375 632.105644 
L 6187.125 632.105644 
z
" clip-path="url(#p7f99eeae7d)" style="fill: #ff7f0e"/>
   </g>
   <g id="patch_84">
    <path d="M 6326.625 640.8 
L 6349.875 640.8 
L 6349.875 638.90451 
L 6326.625 638.90451 
z
" clip-path="url(#p7f99eeae7d)" style="fill: #ff7f0e"/>
   </g>
   <g id="patch_85">
    <path d="M 6466.125 640.8 
L 6489.375 640.8 
L 6489.375 640.8 
L 6466.125 640.8 
z
" clip-path="url(#p7f99eeae7d)" style="fill: #ff7f0e"/>
   </g>
   <g id="patch_86">
    <path d="M 6605.625 640.8 
L 6628.875 640.8 
L 6628.875 640.8 
L 6605.625 640.8 
z
" clip-path="url(#p7f99eeae7d)" style="fill: #ff7f0e"/>
   </g>
   <g id="patch_87">
    <path d="M 6745.125 640.8 
L 6768.375 640.8 
L 6768.375 640.8 
L 6745.125 640.8 
z
" clip-path="url(#p7f99eeae7d)" style="fill: #ff7f0e"/>
   </g>
   <g id="patch_88">
    <path d="M 6884.625 640.8 
L 6907.875 640.8 
L 6907.875 640.749652 
L 6884.625 640.749652 
z
" clip-path="url(#p7f99eeae7d)" style="fill: #ff7f0e"/>
   </g>
   <g id="patch_89">
    <path d="M 1048.875 640.8 
L 1072.125 640.8 
L 1072.125 422.35496 
L 1048.875 422.35496 
z
" clip-path="url(#p7f99eeae7d)" style="fill: #2ca02c"/>
   </g>
   <g id="patch_90">
    <path d="M 1188.375 640.8 
L 1211.625 640.8 
L 1211.625 422.612974 
L 1188.375 422.612974 
z
" clip-path="url(#p7f99eeae7d)" style="fill: #2ca02c"/>
   </g>
   <g id="patch_91">
    <path d="M 1327.875 640.8 
L 1351.125 640.8 
L 1351.125 521.265085 
L 1327.875 521.265085 
z
" clip-path="url(#p7f99eeae7d)" style="fill: #2ca02c"/>
   </g>
   <g id="patch_92">
    <path d="M 1467.375 640.8 
L 1490.625 640.8 
L 1490.625 505.878138 
L 1467.375 505.878138 
z
" clip-path="url(#p7f99eeae7d)" style="fill: #2ca02c"/>
   </g>
   <g id="patch_93">
    <path d="M 1606.875 640.8 
L 1630.125 640.8 
L 1630.125 439.466168 
L 1606.875 439.466168 
z
" clip-path="url(#p7f99eeae7d)" style="fill: #2ca02c"/>
   </g>
   <g id="patch_94">
    <path d="M 1746.375 640.8 
L 1769.625 640.8 
L 1769.625 449.65861 
L 1746.375 449.65861 
z
" clip-path="url(#p7f99eeae7d)" style="fill: #2ca02c"/>
   </g>
   <g id="patch_95">
    <path d="M 1885.875 640.8 
L 1909.125 640.8 
L 1909.125 463.855129 
L 1885.875 463.855129 
z
" clip-path="url(#p7f99eeae7d)" style="fill: #2ca02c"/>
   </g>
   <g id="patch_96">
    <path d="M 2025.375 640.8 
L 2048.625 640.8 
L 2048.625 457.00893 
L 2025.375 457.00893 
z
" clip-path="url(#p7f99eeae7d)" style="fill: #2ca02c"/>
   </g>
   <g id="patch_97">
    <path d="M 2164.875 640.8 
L 2188.125 640.8 
L 2188.125 488.222192 
L 2164.875 488.222192 
z
" clip-path="url(#p7f99eeae7d)" style="fill: #2ca02c"/>
   </g>
   <g id="patch_98">
    <path d="M 2304.375 640.8 
L 2327.625 640.8 
L 2327.625 475.539123 
L 2304.375 475.539123 
z
" clip-path="url(#p7f99eeae7d)" style="fill: #2ca02c"/>
   </g>
   <g id="patch_99">
    <path d="M 2443.875 640.8 
L 2467.125 640.8 
L 2467.125 462.689279 
L 2443.875 462.689279 
z
" clip-path="url(#p7f99eeae7d)" style="fill: #2ca02c"/>
   </g>
   <g id="patch_100">
    <path d="M 2583.375 640.8 
L 2606.625 640.8 
L 2606.625 493.998951 
L 2583.375 493.998951 
z
" clip-path="url(#p7f99eeae7d)" style="fill: #2ca02c"/>
   </g>
   <g id="patch_101">
    <path d="M 2722.875 640.8 
L 2746.125 640.8 
L 2746.125 519.710107 
L 2722.875 519.710107 
z
" clip-path="url(#p7f99eeae7d)" style="fill: #2ca02c"/>
   </g>
   <g id="patch_102">
    <path d="M 2862.375 640.8 
L 2885.625 640.8 
L 2885.625 506.101485 
L 2862.375 506.101485 
z
" clip-path="url(#p7f99eeae7d)" style="fill: #2ca02c"/>
   </g>
   <g id="patch_103">
    <path d="M 3001.875 640.8 
L 3025.125 640.8 
L 3025.125 473.344414 
L 3001.875 473.344414 
z
" clip-path="url(#p7f99eeae7d)" style="fill: #2ca02c"/>
   </g>
   <g id="patch_104">
    <path d="M 3141.375 640.8 
L 3164.625 640.8 
L 3164.625 378.233486 
L 3141.375 378.233486 
z
" clip-path="url(#p7f99eeae7d)" style="fill: #2ca02c"/>
   </g>
   <g id="patch_105">
    <path d="M 3280.875 640.8 
L 3304.125 640.8 
L 3304.125 384.263561 
L 3280.875 384.263561 
z
" clip-path="url(#p7f99eeae7d)" style="fill: #2ca02c"/>
   </g>
   <g id="patch_106">
    <path d="M 3420.375 640.8 
L 3443.625 640.8 
L 3443.625 279.523921 
L 3420.375 279.523921 
z
" clip-path="url(#p7f99eeae7d)" style="fill: #2ca02c"/>
   </g>
   <g id="patch_107">
    <path d="M 3559.875 640.8 
L 3583.125 640.8 
L 3583.125 154.527132 
L 3559.875 154.527132 
z
" clip-path="url(#p7f99eeae7d)" style="fill: #2ca02c"/>
   </g>
   <g id="patch_108">
    <path d="M 3699.375 640.8 
L 3722.625 640.8 
L 3722.625 271.063176 
L 3699.375 271.063176 
z
" clip-path="url(#p7f99eeae7d)" style="fill: #2ca02c"/>
   </g>
   <g id="patch_109">
    <path d="M 3838.875 640.8 
L 3862.125 640.8 
L 3862.125 518.861544 
L 3838.875 518.861544 
z
" clip-path="url(#p7f99eeae7d)" style="fill: #2ca02c"/>
   </g>
   <g id="patch_110">
    <path d="M 3978.375 640.8 
L 4001.625 640.8 
L 4001.625 557.64631 
L 3978.375 557.64631 
z
" clip-path="url(#p7f99eeae7d)" style="fill: #2ca02c"/>
   </g>
   <g id="patch_111">
    <path d="M 4117.875 640.8 
L 4141.125 640.8 
L 4141.125 505.803534 
L 4117.875 505.803534 
z
" clip-path="url(#p7f99eeae7d)" style="fill: #2ca02c"/>
   </g>
   <g id="patch_112">
    <path d="M 4257.375 640.8 
L 4280.625 640.8 
L 4280.625 516.278334 
L 4257.375 516.278334 
z
" clip-path="url(#p7f99eeae7d)" style="fill: #2ca02c"/>
   </g>
   <g id="patch_113">
    <path d="M 4396.875 640.8 
L 4420.125 640.8 
L 4420.125 529.159338 
L 4396.875 529.159338 
z
" clip-path="url(#p7f99eeae7d)" style="fill: #2ca02c"/>
   </g>
   <g id="patch_114">
    <path d="M 4536.375 640.8 
L 4559.625 640.8 
L 4559.625 535.188226 
L 4536.375 535.188226 
z
" clip-path="url(#p7f99eeae7d)" style="fill: #2ca02c"/>
   </g>
   <g id="patch_115">
    <path d="M 4675.875 640.8 
L 4699.125 640.8 
L 4699.125 515.942722 
L 4675.875 515.942722 
z
" clip-path="url(#p7f99eeae7d)" style="fill: #2ca02c"/>
   </g>
   <g id="patch_116">
    <path d="M 4815.375 640.8 
L 4838.625 640.8 
L 4838.625 562.943737 
L 4815.375 562.943737 
z
" clip-path="url(#p7f99eeae7d)" style="fill: #2ca02c"/>
   </g>
   <g id="patch_117">
    <path d="M 4954.875 640.8 
L 4978.125 640.8 
L 4978.125 562.670841 
L 4954.875 562.670841 
z
" clip-path="url(#p7f99eeae7d)" style="fill: #2ca02c"/>
   </g>
   <g id="patch_118">
    <path d="M 5094.375 640.8 
L 5117.625 640.8 
L 5117.625 535.153412 
L 5094.375 535.153412 
z
" clip-path="url(#p7f99eeae7d)" style="fill: #2ca02c"/>
   </g>
   <g id="patch_119">
    <path d="M 5233.875 640.8 
L 5257.125 640.8 
L 5257.125 524.336265 
L 5233.875 524.336265 
z
" clip-path="url(#p7f99eeae7d)" style="fill: #2ca02c"/>
   </g>
   <g id="patch_120">
    <path d="M 5373.375 640.8 
L 5396.625 640.8 
L 5396.625 510.498365 
L 5373.375 510.498365 
z
" clip-path="url(#p7f99eeae7d)" style="fill: #2ca02c"/>
   </g>
   <g id="patch_121">
    <path d="M 5512.875 640.8 
L 5536.125 640.8 
L 5536.125 433.777675 
L 5512.875 433.777675 
z
" clip-path="url(#p7f99eeae7d)" style="fill: #2ca02c"/>
   </g>
   <g id="patch_122">
    <path d="M 5652.375 640.8 
L 5675.625 640.8 
L 5675.625 482.864477 
L 5652.375 482.864477 
z
" clip-path="url(#p7f99eeae7d)" style="fill: #2ca02c"/>
   </g>
   <g id="patch_123">
    <path d="M 5791.875 640.8 
L 5815.125 640.8 
L 5815.125 546.573769 
L 5791.875 546.573769 
z
" clip-path="url(#p7f99eeae7d)" style="fill: #2ca02c"/>
   </g>
   <g id="patch_124">
    <path d="M 5931.375 640.8 
L 5954.625 640.8 
L 5954.625 599.82197 
L 5931.375 599.82197 
z
" clip-path="url(#p7f99eeae7d)" style="fill: #2ca02c"/>
   </g>
   <g id="patch_125">
    <path d="M 6070.875 640.8 
L 6094.125 640.8 
L 6094.125 622.659599 
L 6070.875 622.659599 
z
" clip-path="url(#p7f99eeae7d)" style="fill: #2ca02c"/>
   </g>
   <g id="patch_126">
    <path d="M 6210.375 640.8 
L 6233.625 640.8 
L 6233.625 620.473586 
L 6210.375 620.473586 
z
" clip-path="url(#p7f99eeae7d)" style="fill: #2ca02c"/>
   </g>
   <g id="patch_127">
    <path d="M 6349.875 640.8 
L 6373.125 640.8 
L 6373.125 636.36856 
L 6349.875 636.36856 
z
" clip-path="url(#p7f99eeae7d)" style="fill: #2ca02c"/>
   </g>
   <g id="patch_128">
    <path d="M 6489.375 640.8 
L 6512.625 640.8 
L 6512.625 640.8 
L 6489.375 640.8 
z
" clip-path="url(#p7f99eeae7d)" style="fill: #2ca02c"/>
   </g>
   <g id="patch_129">
    <path d="M 6628.875 640.8 
L 6652.125 640.8 
L 6652.125 640.8 
L 6628.875 640.8 
z
" clip-path="url(#p7f99eeae7d)" style="fill: #2ca02c"/>
   </g>
   <g id="patch_130">
    <path d="M 6768.375 640.8 
L 6791.625 640.8 
L 6791.625 640.8 
L 6768.375 640.8 
z
" clip-path="url(#p7f99eeae7d)" style="fill: #2ca02c"/>
   </g>
   <g id="patch_131">
    <path d="M 6907.875 640.8 
L 6931.125 640.8 
L 6931.125 638.480437 
L 6907.875 638.480437 
z
" clip-path="url(#p7f99eeae7d)" style="fill: #2ca02c"/>
   </g>
   <g id="matplotlib.axis_1">
    <g id="xtick_1">
     <g id="line2d_1">
      <defs>
       <path id="m2faf2eba68" d="M 0 0 
L 0 3.5 
" style="stroke: #000000; stroke-width: 0.8"/>
      </defs>
      <g>
       <use xlink:href="#m2faf2eba68" x="1037.25" y="640.8" style="stroke: #000000; stroke-width: 0.8"/>
      </g>
     </g>
     <g id="text_1">
      <!-- 201 -->
      <g transform="translate(1039.789062 665.0875) rotate(-90) scale(0.1 -0.1)">
       <defs>
        <path id="PretendardGOV-Regular-32" d="M 481 406 
L 1956 2038 
Q 2238 2350 2391 2550 
Q 2544 2750 2623 2937 
Q 2703 3125 2706 3331 
Q 2703 3559 2592 3734 
Q 2481 3909 2290 4004 
Q 2100 4100 1863 4100 
Q 1613 4100 1427 3995 
Q 1241 3891 1139 3697 
Q 1038 3503 1038 3250 
L 500 3250 
Q 500 3641 679 3945 
Q 859 4250 1175 4419 
Q 1491 4588 1881 4588 
Q 2266 4588 2573 4420 
Q 2881 4253 3054 3965 
Q 3228 3678 3231 3331 
Q 3228 3075 3139 2840 
Q 3050 2606 2839 2317 
Q 2628 2028 2238 1606 
L 1250 538 
L 1250 500 
L 3306 500 
L 3306 0 
L 481 0 
L 481 406 
z
" transform="scale(0.015625)"/>
        <path id="PretendardGOV-Regular-30" d="M 1844 -63 
Q 1359 -63 1018 187 
Q 678 438 501 920 
Q 325 1403 325 2088 
L 325 2438 
Q 325 3125 501 3606 
Q 678 4088 1018 4338 
Q 1359 4588 1844 4588 
Q 2325 4588 2664 4338 
Q 3003 4088 3179 3606 
Q 3356 3125 3356 2438 
L 3356 2088 
Q 3356 1403 3179 920 
Q 3003 438 2664 187 
Q 2325 -63 1844 -63 
z
M 1844 431 
Q 2813 431 2813 2081 
L 2813 2438 
Q 2813 4094 1844 4094 
Q 1356 4094 1115 3681 
Q 875 3269 875 2438 
L 875 2081 
Q 875 1256 1115 843 
Q 1356 431 1844 431 
z
" transform="scale(0.015625)"/>
        <path id="PretendardGOV-Regular-31" d="M 2163 456 
L 3144 456 
L 3144 0 
L 569 0 
L 569 456 
L 1600 456 
L 1600 3938 
L 1575 3938 
L 569 3269 
L 569 3844 
L 1600 4525 
L 2163 4525 
L 2163 456 
z
" transform="scale(0.015625)"/>
       </defs>
       <use xlink:href="#PretendardGOV-Regular-32"/>
       <use xlink:href="#PretendardGOV-Regular-30" x="57.617188"/>
       <use xlink:href="#PretendardGOV-Regular-31" x="115.234375"/>
      </g>
     </g>
    </g>
    <g id="xtick_2">
     <g id="line2d_2">
      <g>
       <use xlink:href="#m2faf2eba68" x="1176.75" y="640.8" style="stroke: #000000; stroke-width: 0.8"/>
      </g>
     </g>
     <g id="text_2">
      <!-- 202 -->
      <g transform="translate(1179.289062 665.0875) rotate(-90) scale(0.1 -0.1)">
       <use xlink:href="#PretendardGOV-Regular-32"/>
       <use xlink:href="#PretendardGOV-Regular-30" x="57.617188"/>
       <use xlink:href="#PretendardGOV-Regular-32" x="115.234375"/>
      </g>
     </g>
    </g>
    <g id="xtick_3">
     <g id="line2d_3">
      <g>
       <use xlink:href="#m2faf2eba68" x="1316.25" y="640.8" style="stroke: #000000; stroke-width: 0.8"/>
      </g>
     </g>
     <g id="text_3">
      <!-- 203 -->
      <g transform="translate(1318.789062 665.0875) rotate(-90) scale(0.1 -0.1)">
       <defs>
        <path id="PretendardGOV-Regular-33" d="M 900 1144 
Q 922 922 1048 762 
Q 1175 603 1381 520 
Q 1588 438 1844 438 
Q 2119 438 2336 534 
Q 2553 631 2678 823 
Q 2803 1016 2800 1288 
Q 2803 1547 2689 1755 
Q 2575 1963 2325 2088 
Q 2075 2213 1688 2213 
L 1319 2213 
L 1319 2656 
L 2425 3988 
L 2425 4025 
L 544 4025 
L 544 4525 
L 3181 4525 
L 3181 4119 
L 2000 2681 
L 2000 2644 
Q 2384 2622 2693 2439 
Q 3003 2256 3179 1953 
Q 3356 1650 3356 1281 
Q 3356 897 3161 590 
Q 2966 284 2619 110 
Q 2272 -63 1831 -63 
Q 1428 -63 1093 82 
Q 759 228 554 501 
Q 350 775 325 1144 
L 900 1144 
z
" transform="scale(0.015625)"/>
       </defs>
       <use xlink:href="#PretendardGOV-Regular-32"/>
       <use xlink:href="#PretendardGOV-Regular-30" x="57.617188"/>
       <use xlink:href="#PretendardGOV-Regular-33" x="115.234375"/>
      </g>
     </g>
    </g>
    <g id="xtick_4">
     <g id="line2d_4">
      <g>
       <use xlink:href="#m2faf2eba68" x="1455.75" y="640.8" style="stroke: #000000; stroke-width: 0.8"/>
      </g>
     </g>
     <g id="text_4">
      <!-- 204 -->
      <g transform="translate(1458.289062 665.0875) rotate(-90) scale(0.1 -0.1)">
       <defs>
        <path id="PretendardGOV-Regular-34" d="M 231 1388 
L 1994 4525 
L 2550 4525 
L 825 1456 
L 825 1419 
L 2313 1419 
L 2313 2831 
L 2844 2831 
L 2844 1419 
L 3450 1419 
L 3450 925 
L 2844 925 
L 2844 0 
L 2313 0 
L 2313 925 
L 231 925 
L 231 1388 
z
" transform="scale(0.015625)"/>
       </defs>
       <use xlink:href="#PretendardGOV-Regular-32"/>
       <use xlink:href="#PretendardGOV-Regular-30" x="57.617188"/>
       <use xlink:href="#PretendardGOV-Regular-34" x="115.234375"/>
      </g>
     </g>
    </g>
    <g id="xtick_5">
     <g id="line2d_5">
      <g>
       <use xlink:href="#m2faf2eba68" x="1595.25" y="640.8" style="stroke: #000000; stroke-width: 0.8"/>
      </g>
     </g>
     <g id="text_5">
      <!-- 205 -->
      <g transform="translate(1597.789062 665.0875) rotate(-90) scale(0.1 -0.1)">
       <defs>
        <path id="PretendardGOV-Regular-35" d="M 1888 -63 
Q 1500 -63 1183 92 
Q 866 247 677 520 
Q 488 794 469 1138 
L 1025 1138 
Q 1041 938 1158 777 
Q 1275 616 1467 523 
Q 1659 431 1888 431 
Q 2159 431 2373 561 
Q 2588 691 2709 919 
Q 2831 1147 2831 1431 
Q 2831 1725 2704 1956 
Q 2578 2188 2354 2320 
Q 2131 2453 1850 2456 
Q 1572 2463 1373 2366 
Q 1175 2269 1063 2050 
L 513 2050 
L 813 4525 
L 3175 4525 
L 3175 4025 
L 1294 4025 
L 1138 2700 
L 1188 2700 
Q 1309 2816 1514 2889 
Q 1719 2963 1944 2963 
Q 2350 2963 2678 2766 
Q 3006 2569 3193 2222 
Q 3381 1875 3381 1444 
Q 3381 1016 3187 672 
Q 2994 328 2653 132 
Q 2313 -63 1888 -63 
z
" transform="scale(0.015625)"/>
       </defs>
       <use xlink:href="#PretendardGOV-Regular-32"/>
       <use xlink:href="#PretendardGOV-Regular-30" x="57.617188"/>
       <use xlink:href="#PretendardGOV-Regular-35" x="115.234375"/>
      </g>
     </g>
    </g>
    <g id="xtick_6">
     <g id="line2d_6">
      <g>
       <use xlink:href="#m2faf2eba68" x="1734.75" y="640.8" style="stroke: #000000; stroke-width: 0.8"/>
      </g>
     </g>
     <g id="text_6">
      <!-- 206 -->
      <g transform="translate(1737.289062 665.0875) rotate(-90) scale(0.1 -0.1)">
       <defs>
        <path id="PretendardGOV-Regular-36" d="M 1838 -63 
Q 1416 -63 1064 131 
Q 713 325 509 659 
Q 306 994 306 1394 
Q 306 1734 473 2104 
Q 641 2475 1000 3006 
L 2019 4525 
L 2663 4525 
L 1444 2713 
L 1475 2688 
Q 1550 2763 1694 2809 
Q 1838 2856 2031 2856 
Q 2419 2856 2728 2662 
Q 3038 2469 3209 2134 
Q 3381 1800 3381 1394 
Q 3381 994 3175 659 
Q 2969 325 2616 131 
Q 2263 -63 1838 -63 
z
M 1844 431 
Q 2131 431 2356 556 
Q 2581 681 2706 906 
Q 2831 1131 2831 1419 
Q 2831 1706 2706 1932 
Q 2581 2159 2356 2286 
Q 2131 2413 1844 2413 
Q 1556 2413 1329 2286 
Q 1103 2159 976 1932 
Q 850 1706 850 1419 
Q 850 1131 976 906 
Q 1103 681 1329 556 
Q 1556 431 1844 431 
z
" transform="scale(0.015625)"/>
       </defs>
       <use xlink:href="#PretendardGOV-Regular-32"/>
       <use xlink:href="#PretendardGOV-Regular-30" x="57.617188"/>
       <use xlink:href="#PretendardGOV-Regular-36" x="115.234375"/>
      </g>
     </g>
    </g>
    <g id="xtick_7">
     <g id="line2d_7">
      <g>
       <use xlink:href="#m2faf2eba68" x="1874.25" y="640.8" style="stroke: #000000; stroke-width: 0.8"/>
      </g>
     </g>
     <g id="text_7">
      <!-- 207 -->
      <g transform="translate(1876.789062 665.0875) rotate(-90) scale(0.1 -0.1)">
       <defs>
        <path id="PretendardGOV-Regular-37" d="M 2681 3994 
L 2681 4025 
L 425 4025 
L 425 4525 
L 3275 4525 
L 3275 4000 
L 1313 0 
L 719 0 
L 2681 3994 
z
" transform="scale(0.015625)"/>
       </defs>
       <use xlink:href="#PretendardGOV-Regular-32"/>
       <use xlink:href="#PretendardGOV-Regular-30" x="57.617188"/>
       <use xlink:href="#PretendardGOV-Regular-37" x="115.234375"/>
      </g>
     </g>
    </g>
    <g id="xtick_8">
     <g id="line2d_8">
      <g>
       <use xlink:href="#m2faf2eba68" x="2013.75" y="640.8" style="stroke: #000000; stroke-width: 0.8"/>
      </g>
     </g>
     <g id="text_8">
      <!-- 208 -->
      <g transform="translate(2016.289062 665.0875) rotate(-90) scale(0.1 -0.1)">
       <defs>
        <path id="PretendardGOV-Regular-38" d="M 1844 -63 
Q 1394 -63 1042 100 
Q 691 263 495 550 
Q 300 838 300 1200 
Q 300 1481 415 1728 
Q 531 1975 731 2139 
Q 931 2303 1175 2350 
L 1175 2375 
Q 959 2431 800 2578 
Q 641 2725 553 2936 
Q 466 3147 463 3388 
Q 466 3728 644 4001 
Q 822 4275 1136 4431 
Q 1450 4588 1844 4588 
Q 2231 4588 2543 4431 
Q 2856 4275 3036 4001 
Q 3216 3728 3219 3388 
Q 3216 3147 3127 2936 
Q 3038 2725 2878 2578 
Q 2719 2431 2506 2375 
L 2506 2350 
Q 2750 2303 2950 2139 
Q 3150 1975 3267 1728 
Q 3384 1481 3388 1200 
Q 3384 838 3187 550 
Q 2991 263 2641 100 
Q 2291 -63 1844 -63 
z
M 1844 431 
Q 2144 431 2366 531 
Q 2588 631 2706 811 
Q 2825 991 2825 1231 
Q 2825 1481 2698 1679 
Q 2572 1878 2348 1989 
Q 2125 2100 1844 2100 
Q 1563 2100 1336 1987 
Q 1109 1875 982 1678 
Q 856 1481 863 1231 
Q 856 994 975 812 
Q 1094 631 1317 531 
Q 1541 431 1844 431 
z
M 1844 2575 
Q 2081 2575 2270 2670 
Q 2459 2766 2564 2941 
Q 2669 3116 2669 3344 
Q 2669 3569 2564 3741 
Q 2459 3913 2271 4006 
Q 2084 4100 1844 4100 
Q 1597 4100 1408 4006 
Q 1219 3913 1116 3741 
Q 1013 3569 1013 3344 
Q 1013 3116 1119 2941 
Q 1225 2766 1414 2670 
Q 1603 2575 1844 2575 
z
" transform="scale(0.015625)"/>
       </defs>
       <use xlink:href="#PretendardGOV-Regular-32"/>
       <use xlink:href="#PretendardGOV-Regular-30" x="57.617188"/>
       <use xlink:href="#PretendardGOV-Regular-38" x="115.234375"/>
      </g>
     </g>
    </g>
    <g id="xtick_9">
     <g id="line2d_9">
      <g>
       <use xlink:href="#m2faf2eba68" x="2153.25" y="640.8" style="stroke: #000000; stroke-width: 0.8"/>
      </g>
     </g>
     <g id="text_9">
      <!-- 209 -->
      <g transform="translate(2155.789062 665.0875) rotate(-90) scale(0.1 -0.1)">
       <defs>
        <path id="PretendardGOV-Regular-39" d="M 1850 4588 
Q 2272 4588 2623 4394 
Q 2975 4200 3178 3865 
Q 3381 3531 3381 3131 
Q 3381 2791 3214 2420 
Q 3047 2050 2688 1519 
L 1669 0 
L 1025 0 
L 2244 1813 
L 2213 1838 
Q 2138 1763 1994 1716 
Q 1850 1669 1656 1669 
Q 1269 1669 959 1862 
Q 650 2056 478 2390 
Q 306 2725 306 3131 
Q 306 3531 512 3865 
Q 719 4200 1072 4394 
Q 1425 4588 1850 4588 
z
M 1844 4094 
Q 1556 4094 1331 3969 
Q 1106 3844 981 3619 
Q 856 3394 856 3106 
Q 856 2819 981 2592 
Q 1106 2366 1331 2239 
Q 1556 2113 1844 2113 
Q 2131 2113 2357 2239 
Q 2584 2366 2711 2592 
Q 2838 2819 2838 3106 
Q 2838 3394 2711 3619 
Q 2584 3844 2357 3969 
Q 2131 4094 1844 4094 
z
" transform="scale(0.015625)"/>
       </defs>
       <use xlink:href="#PretendardGOV-Regular-32"/>
       <use xlink:href="#PretendardGOV-Regular-30" x="57.617188"/>
       <use xlink:href="#PretendardGOV-Regular-39" x="115.234375"/>
      </g>
     </g>
    </g>
    <g id="xtick_10">
     <g id="line2d_10">
      <g>
       <use xlink:href="#m2faf2eba68" x="2292.75" y="640.8" style="stroke: #000000; stroke-width: 0.8"/>
      </g>
     </g>
     <g id="text_10">
      <!-- 210 -->
      <g transform="translate(2295.289062 665.0875) rotate(-90) scale(0.1 -0.1)">
       <use xlink:href="#PretendardGOV-Regular-32"/>
       <use xlink:href="#PretendardGOV-Regular-31" x="57.617188"/>
       <use xlink:href="#PretendardGOV-Regular-30" x="115.234375"/>
      </g>
     </g>
    </g>
    <g id="xtick_11">
     <g id="line2d_11">
      <g>
       <use xlink:href="#m2faf2eba68" x="2432.25" y="640.8" style="stroke: #000000; stroke-width: 0.8"/>
      </g>
     </g>
     <g id="text_11">
      <!-- 211 -->
      <g transform="translate(2434.789062 665.0875) rotate(-90) scale(0.1 -0.1)">
       <use xlink:href="#PretendardGOV-Regular-32"/>
       <use xlink:href="#PretendardGOV-Regular-31" x="57.617188"/>
       <use xlink:href="#PretendardGOV-Regular-31" x="115.234375"/>
      </g>
     </g>
    </g>
    <g id="xtick_12">
     <g id="line2d_12">
      <g>
       <use xlink:href="#m2faf2eba68" x="2571.75" y="640.8" style="stroke: #000000; stroke-width: 0.8"/>
      </g>
     </g>
     <g id="text_12">
      <!-- 212 -->
      <g transform="translate(2574.289062 665.0875) rotate(-90) scale(0.1 -0.1)">
       <use xlink:href="#PretendardGOV-Regular-32"/>
       <use xlink:href="#PretendardGOV-Regular-31" x="57.617188"/>
       <use xlink:href="#PretendardGOV-Regular-32" x="115.234375"/>
      </g>
     </g>
    </g>
    <g id="xtick_13">
     <g id="line2d_13">
      <g>
       <use xlink:href="#m2faf2eba68" x="2711.25" y="640.8" style="stroke: #000000; stroke-width: 0.8"/>
      </g>
     </g>
     <g id="text_13">
      <!-- 213 -->
      <g transform="translate(2713.789062 665.0875) rotate(-90) scale(0.1 -0.1)">
       <use xlink:href="#PretendardGOV-Regular-32"/>
       <use xlink:href="#PretendardGOV-Regular-31" x="57.617188"/>
       <use xlink:href="#PretendardGOV-Regular-33" x="115.234375"/>
      </g>
     </g>
    </g>
    <g id="xtick_14">
     <g id="line2d_14">
      <g>
       <use xlink:href="#m2faf2eba68" x="2850.75" y="640.8" style="stroke: #000000; stroke-width: 0.8"/>
      </g>
     </g>
     <g id="text_14">
      <!-- 214 -->
      <g transform="translate(2853.289062 665.0875) rotate(-90) scale(0.1 -0.1)">
       <use xlink:href="#PretendardGOV-Regular-32"/>
       <use xlink:href="#PretendardGOV-Regular-31" x="57.617188"/>
       <use xlink:href="#PretendardGOV-Regular-34" x="115.234375"/>
      </g>
     </g>
    </g>
    <g id="xtick_15">
     <g id="line2d_15">
      <g>
       <use xlink:href="#m2faf2eba68" x="2990.25" y="640.8" style="stroke: #000000; stroke-width: 0.8"/>
      </g>
     </g>
     <g id="text_15">
      <!-- 215 -->
      <g transform="translate(2992.789062 665.0875) rotate(-90) scale(0.1 -0.1)">
       <use xlink:href="#PretendardGOV-Regular-32"/>
       <use xlink:href="#PretendardGOV-Regular-31" x="57.617188"/>
       <use xlink:href="#PretendardGOV-Regular-35" x="115.234375"/>
      </g>
     </g>
    </g>
    <g id="xtick_16">
     <g id="line2d_16">
      <g>
       <use xlink:href="#m2faf2eba68" x="3129.75" y="640.8" style="stroke: #000000; stroke-width: 0.8"/>
      </g>
     </g>
     <g id="text_16">
      <!-- 216 -->
      <g transform="translate(3132.289062 665.0875) rotate(-90) scale(0.1 -0.1)">
       <use xlink:href="#PretendardGOV-Regular-32"/>
       <use xlink:href="#PretendardGOV-Regular-31" x="57.617188"/>
       <use xlink:href="#PretendardGOV-Regular-36" x="115.234375"/>
      </g>
     </g>
    </g>
    <g id="xtick_17">
     <g id="line2d_17">
      <g>
       <use xlink:href="#m2faf2eba68" x="3269.25" y="640.8" style="stroke: #000000; stroke-width: 0.8"/>
      </g>
     </g>
     <g id="text_17">
      <!-- 217 -->
      <g transform="translate(3271.789062 665.0875) rotate(-90) scale(0.1 -0.1)">
       <use xlink:href="#PretendardGOV-Regular-32"/>
       <use xlink:href="#PretendardGOV-Regular-31" x="57.617188"/>
       <use xlink:href="#PretendardGOV-Regular-37" x="115.234375"/>
      </g>
     </g>
    </g>
    <g id="xtick_18">
     <g id="line2d_18">
      <g>
       <use xlink:href="#m2faf2eba68" x="3408.75" y="640.8" style="stroke: #000000; stroke-width: 0.8"/>
      </g>
     </g>
     <g id="text_18">
      <!-- 218 -->
      <g transform="translate(3411.289062 665.0875) rotate(-90) scale(0.1 -0.1)">
       <use xlink:href="#PretendardGOV-Regular-32"/>
       <use xlink:href="#PretendardGOV-Regular-31" x="57.617188"/>
       <use xlink:href="#PretendardGOV-Regular-38" x="115.234375"/>
      </g>
     </g>
    </g>
    <g id="xtick_19">
     <g id="line2d_19">
      <g>
       <use xlink:href="#m2faf2eba68" x="3548.25" y="640.8" style="stroke: #000000; stroke-width: 0.8"/>
      </g>
     </g>
     <g id="text_19">
      <!-- 219 -->
      <g transform="translate(3550.789062 665.0875) rotate(-90) scale(0.1 -0.1)">
       <use xlink:href="#PretendardGOV-Regular-32"/>
       <use xlink:href="#PretendardGOV-Regular-31" x="57.617188"/>
       <use xlink:href="#PretendardGOV-Regular-39" x="115.234375"/>
      </g>
     </g>
    </g>
    <g id="xtick_20">
     <g id="line2d_20">
      <g>
       <use xlink:href="#m2faf2eba68" x="3687.75" y="640.8" style="stroke: #000000; stroke-width: 0.8"/>
      </g>
     </g>
     <g id="text_20">
      <!-- 220 -->
      <g transform="translate(3690.289062 665.0875) rotate(-90) scale(0.1 -0.1)">
       <use xlink:href="#PretendardGOV-Regular-32"/>
       <use xlink:href="#PretendardGOV-Regular-32" x="57.617188"/>
       <use xlink:href="#PretendardGOV-Regular-30" x="115.234375"/>
      </g>
     </g>
    </g>
    <g id="xtick_21">
     <g id="line2d_21">
      <g>
       <use xlink:href="#m2faf2eba68" x="3827.25" y="640.8" style="stroke: #000000; stroke-width: 0.8"/>
      </g>
     </g>
     <g id="text_21">
      <!-- 221 -->
      <g transform="translate(3829.789062 665.0875) rotate(-90) scale(0.1 -0.1)">
       <use xlink:href="#PretendardGOV-Regular-32"/>
       <use xlink:href="#PretendardGOV-Regular-32" x="57.617188"/>
       <use xlink:href="#PretendardGOV-Regular-31" x="115.234375"/>
      </g>
     </g>
    </g>
    <g id="xtick_22">
     <g id="line2d_22">
      <g>
       <use xlink:href="#m2faf2eba68" x="3966.75" y="640.8" style="stroke: #000000; stroke-width: 0.8"/>
      </g>
     </g>
     <g id="text_22">
      <!-- 222 -->
      <g transform="translate(3969.289062 665.0875) rotate(-90) scale(0.1 -0.1)">
       <use xlink:href="#PretendardGOV-Regular-32"/>
       <use xlink:href="#PretendardGOV-Regular-32" x="57.617188"/>
       <use xlink:href="#PretendardGOV-Regular-32" x="115.234375"/>
      </g>
     </g>
    </g>
    <g id="xtick_23">
     <g id="line2d_23">
      <g>
       <use xlink:href="#m2faf2eba68" x="4106.25" y="640.8" style="stroke: #000000; stroke-width: 0.8"/>
      </g>
     </g>
     <g id="text_23">
      <!-- 223 -->
      <g transform="translate(4108.789062 665.0875) rotate(-90) scale(0.1 -0.1)">
       <use xlink:href="#PretendardGOV-Regular-32"/>
       <use xlink:href="#PretendardGOV-Regular-32" x="57.617188"/>
       <use xlink:href="#PretendardGOV-Regular-33" x="115.234375"/>
      </g>
     </g>
    </g>
    <g id="xtick_24">
     <g id="line2d_24">
      <g>
       <use xlink:href="#m2faf2eba68" x="4245.75" y="640.8" style="stroke: #000000; stroke-width: 0.8"/>
      </g>
     </g>
     <g id="text_24">
      <!-- 224 -->
      <g transform="translate(4248.289062 665.0875) rotate(-90) scale(0.1 -0.1)">
       <use xlink:href="#PretendardGOV-Regular-32"/>
       <use xlink:href="#PretendardGOV-Regular-32" x="57.617188"/>
       <use xlink:href="#PretendardGOV-Regular-34" x="115.234375"/>
      </g>
     </g>
    </g>
    <g id="xtick_25">
     <g id="line2d_25">
      <g>
       <use xlink:href="#m2faf2eba68" x="4385.25" y="640.8" style="stroke: #000000; stroke-width: 0.8"/>
      </g>
     </g>
     <g id="text_25">
      <!-- 225 -->
      <g transform="translate(4387.789062 665.0875) rotate(-90) scale(0.1 -0.1)">
       <use xlink:href="#PretendardGOV-Regular-32"/>
       <use xlink:href="#PretendardGOV-Regular-32" x="57.617188"/>
       <use xlink:href="#PretendardGOV-Regular-35" x="115.234375"/>
      </g>
     </g>
    </g>
    <g id="xtick_26">
     <g id="line2d_26">
      <g>
       <use xlink:href="#m2faf2eba68" x="4524.75" y="640.8" style="stroke: #000000; stroke-width: 0.8"/>
      </g>
     </g>
     <g id="text_26">
      <!-- 226 -->
      <g transform="translate(4527.289062 665.0875) rotate(-90) scale(0.1 -0.1)">
       <use xlink:href="#PretendardGOV-Regular-32"/>
       <use xlink:href="#PretendardGOV-Regular-32" x="57.617188"/>
       <use xlink:href="#PretendardGOV-Regular-36" x="115.234375"/>
      </g>
     </g>
    </g>
    <g id="xtick_27">
     <g id="line2d_27">
      <g>
       <use xlink:href="#m2faf2eba68" x="4664.25" y="640.8" style="stroke: #000000; stroke-width: 0.8"/>
      </g>
     </g>
     <g id="text_27">
      <!-- 227 -->
      <g transform="translate(4666.789062 665.0875) rotate(-90) scale(0.1 -0.1)">
       <use xlink:href="#PretendardGOV-Regular-32"/>
       <use xlink:href="#PretendardGOV-Regular-32" x="57.617188"/>
       <use xlink:href="#PretendardGOV-Regular-37" x="115.234375"/>
      </g>
     </g>
    </g>
    <g id="xtick_28">
     <g id="line2d_28">
      <g>
       <use xlink:href="#m2faf2eba68" x="4803.75" y="640.8" style="stroke: #000000; stroke-width: 0.8"/>
      </g>
     </g>
     <g id="text_28">
      <!-- 228 -->
      <g transform="translate(4806.289062 665.0875) rotate(-90) scale(0.1 -0.1)">
       <use xlink:href="#PretendardGOV-Regular-32"/>
       <use xlink:href="#PretendardGOV-Regular-32" x="57.617188"/>
       <use xlink:href="#PretendardGOV-Regular-38" x="115.234375"/>
      </g>
     </g>
    </g>
    <g id="xtick_29">
     <g id="line2d_29">
      <g>
       <use xlink:href="#m2faf2eba68" x="4943.25" y="640.8" style="stroke: #000000; stroke-width: 0.8"/>
      </g>
     </g>
     <g id="text_29">
      <!-- 229 -->
      <g transform="translate(4945.789062 665.0875) rotate(-90) scale(0.1 -0.1)">
       <use xlink:href="#PretendardGOV-Regular-32"/>
       <use xlink:href="#PretendardGOV-Regular-32" x="57.617188"/>
       <use xlink:href="#PretendardGOV-Regular-39" x="115.234375"/>
      </g>
     </g>
    </g>
    <g id="xtick_30">
     <g id="line2d_30">
      <g>
       <use xlink:href="#m2faf2eba68" x="5082.75" y="640.8" style="stroke: #000000; stroke-width: 0.8"/>
      </g>
     </g>
     <g id="text_30">
      <!-- 230 -->
      <g transform="translate(5085.289062 665.0875) rotate(-90) scale(0.1 -0.1)">
       <use xlink:href="#PretendardGOV-Regular-32"/>
       <use xlink:href="#PretendardGOV-Regular-33" x="57.617188"/>
       <use xlink:href="#PretendardGOV-Regular-30" x="115.234375"/>
      </g>
     </g>
    </g>
    <g id="xtick_31">
     <g id="line2d_31">
      <g>
       <use xlink:href="#m2faf2eba68" x="5222.25" y="640.8" style="stroke: #000000; stroke-width: 0.8"/>
      </g>
     </g>
     <g id="text_31">
      <!-- 231 -->
      <g transform="translate(5224.789062 665.0875) rotate(-90) scale(0.1 -0.1)">
       <use xlink:href="#PretendardGOV-Regular-32"/>
       <use xlink:href="#PretendardGOV-Regular-33" x="57.617188"/>
       <use xlink:href="#PretendardGOV-Regular-31" x="115.234375"/>
      </g>
     </g>
    </g>
    <g id="xtick_32">
     <g id="line2d_32">
      <g>
       <use xlink:href="#m2faf2eba68" x="5361.75" y="640.8" style="stroke: #000000; stroke-width: 0.8"/>
      </g>
     </g>
     <g id="text_32">
      <!-- 232 -->
      <g transform="translate(5364.289062 665.0875) rotate(-90) scale(0.1 -0.1)">
       <use xlink:href="#PretendardGOV-Regular-32"/>
       <use xlink:href="#PretendardGOV-Regular-33" x="57.617188"/>
       <use xlink:href="#PretendardGOV-Regular-32" x="115.234375"/>
      </g>
     </g>
    </g>
    <g id="xtick_33">
     <g id="line2d_33">
      <g>
       <use xlink:href="#m2faf2eba68" x="5501.25" y="640.8" style="stroke: #000000; stroke-width: 0.8"/>
      </g>
     </g>
     <g id="text_33">
      <!-- 233 -->
      <g transform="translate(5503.789062 665.0875) rotate(-90) scale(0.1 -0.1)">
       <use xlink:href="#PretendardGOV-Regular-32"/>
       <use xlink:href="#PretendardGOV-Regular-33" x="57.617188"/>
       <use xlink:href="#PretendardGOV-Regular-33" x="115.234375"/>
      </g>
     </g>
    </g>
    <g id="xtick_34">
     <g id="line2d_34">
      <g>
       <use xlink:href="#m2faf2eba68" x="5640.75" y="640.8" style="stroke: #000000; stroke-width: 0.8"/>
      </g>
     </g>
     <g id="text_34">
      <!-- 234 -->
      <g transform="translate(5643.289062 665.0875) rotate(-90) scale(0.1 -0.1)">
       <use xlink:href="#PretendardGOV-Regular-32"/>
       <use xlink:href="#PretendardGOV-Regular-33" x="57.617188"/>
       <use xlink:href="#PretendardGOV-Regular-34" x="115.234375"/>
      </g>
     </g>
    </g>
    <g id="xtick_35">
     <g id="line2d_35">
      <g>
       <use xlink:href="#m2faf2eba68" x="5780.25" y="640.8" style="stroke: #000000; stroke-width: 0.8"/>
      </g>
     </g>
     <g id="text_35">
      <!-- 235 -->
      <g transform="translate(5782.789062 665.0875) rotate(-90) scale(0.1 -0.1)">
       <use xlink:href="#PretendardGOV-Regular-32"/>
       <use xlink:href="#PretendardGOV-Regular-33" x="57.617188"/>
       <use xlink:href="#PretendardGOV-Regular-35" x="115.234375"/>
      </g>
     </g>
    </g>
    <g id="xtick_36">
     <g id="line2d_36">
      <g>
       <use xlink:href="#m2faf2eba68" x="5919.75" y="640.8" style="stroke: #000000; stroke-width: 0.8"/>
      </g>
     </g>
     <g id="text_36">
      <!-- 236 -->
      <g transform="translate(5922.289062 665.0875) rotate(-90) scale(0.1 -0.1)">
       <use xlink:href="#PretendardGOV-Regular-32"/>
       <use xlink:href="#PretendardGOV-Regular-33" x="57.617188"/>
       <use xlink:href="#PretendardGOV-Regular-36" x="115.234375"/>
      </g>
     </g>
    </g>
    <g id="xtick_37">
     <g id="line2d_37">
      <g>
       <use xlink:href="#m2faf2eba68" x="6059.25" y="640.8" style="stroke: #000000; stroke-width: 0.8"/>
      </g>
     </g>
     <g id="text_37">
      <!-- 237 -->
      <g transform="translate(6061.789062 665.0875) rotate(-90) scale(0.1 -0.1)">
       <use xlink:href="#PretendardGOV-Regular-32"/>
       <use xlink:href="#PretendardGOV-Regular-33" x="57.617188"/>
       <use xlink:href="#PretendardGOV-Regular-37" x="115.234375"/>
      </g>
     </g>
    </g>
    <g id="xtick_38">
     <g id="line2d_38">
      <g>
       <use xlink:href="#m2faf2eba68" x="6198.75" y="640.8" style="stroke: #000000; stroke-width: 0.8"/>
      </g>
     </g>
     <g id="text_38">
      <!-- 238 -->
      <g transform="translate(6201.289062 665.0875) rotate(-90) scale(0.1 -0.1)">
       <use xlink:href="#PretendardGOV-Regular-32"/>
       <use xlink:href="#PretendardGOV-Regular-33" x="57.617188"/>
       <use xlink:href="#PretendardGOV-Regular-38" x="115.234375"/>
      </g>
     </g>
    </g>
    <g id="xtick_39">
     <g id="line2d_39">
      <g>
       <use xlink:href="#m2faf2eba68" x="6338.25" y="640.8" style="stroke: #000000; stroke-width: 0.8"/>
      </g>
     </g>
     <g id="text_39">
      <!-- 239 -->
      <g transform="translate(6340.789062 665.0875) rotate(-90) scale(0.1 -0.1)">
       <use xlink:href="#PretendardGOV-Regular-32"/>
       <use xlink:href="#PretendardGOV-Regular-33" x="57.617188"/>
       <use xlink:href="#PretendardGOV-Regular-39" x="115.234375"/>
      </g>
     </g>
    </g>
    <g id="xtick_40">
     <g id="line2d_40">
      <g>
       <use xlink:href="#m2faf2eba68" x="6477.75" y="640.8" style="stroke: #000000; stroke-width: 0.8"/>
      </g>
     </g>
     <g id="text_40">
      <!-- 240 -->
      <g transform="translate(6480.289062 665.0875) rotate(-90) scale(0.1 -0.1)">
       <use xlink:href="#PretendardGOV-Regular-32"/>
       <use xlink:href="#PretendardGOV-Regular-34" x="57.617188"/>
       <use xlink:href="#PretendardGOV-Regular-30" x="115.234375"/>
      </g>
     </g>
    </g>
    <g id="xtick_41">
     <g id="line2d_41">
      <g>
       <use xlink:href="#m2faf2eba68" x="6617.25" y="640.8" style="stroke: #000000; stroke-width: 0.8"/>
      </g>
     </g>
     <g id="text_41">
      <!-- 241 -->
      <g transform="translate(6619.789062 665.0875) rotate(-90) scale(0.1 -0.1)">
       <use xlink:href="#PretendardGOV-Regular-32"/>
       <use xlink:href="#PretendardGOV-Regular-34" x="57.617188"/>
       <use xlink:href="#PretendardGOV-Regular-31" x="115.234375"/>
      </g>
     </g>
    </g>
    <g id="xtick_42">
     <g id="line2d_42">
      <g>
       <use xlink:href="#m2faf2eba68" x="6756.75" y="640.8" style="stroke: #000000; stroke-width: 0.8"/>
      </g>
     </g>
     <g id="text_42">
      <!-- 242 -->
      <g transform="translate(6759.289062 665.0875) rotate(-90) scale(0.1 -0.1)">
       <use xlink:href="#PretendardGOV-Regular-32"/>
       <use xlink:href="#PretendardGOV-Regular-34" x="57.617188"/>
       <use xlink:href="#PretendardGOV-Regular-32" x="115.234375"/>
      </g>
     </g>
    </g>
    <g id="xtick_43">
     <g id="line2d_43">
      <g>
       <use xlink:href="#m2faf2eba68" x="6896.25" y="640.8" style="stroke: #000000; stroke-width: 0.8"/>
      </g>
     </g>
     <g id="text_43">
      <!-- 243 -->
      <g transform="translate(6898.789062 665.0875) rotate(-90) scale(0.1 -0.1)">
       <use xlink:href="#PretendardGOV-Regular-32"/>
       <use xlink:href="#PretendardGOV-Regular-34" x="57.617188"/>
       <use xlink:href="#PretendardGOV-Regular-33" x="115.234375"/>
      </g>
     </g>
    </g>
    <g id="text_44">
     <!-- scode -->
     <g transform="translate(3953.067969 676.157812) scale(0.1 -0.1)">
      <defs>
       <path id="PretendardGOV-Regular-73" d="M 2319 2513 
Q 2259 2734 2089 2857 
Q 1919 2981 1631 2981 
Q 1425 2981 1261 2914 
Q 1097 2847 1005 2730 
Q 913 2613 913 2469 
Q 913 2300 1055 2181 
Q 1197 2063 1494 1994 
L 2000 1869 
Q 2456 1759 2681 1532 
Q 2906 1306 2906 950 
Q 2906 653 2748 423 
Q 2591 194 2291 62 
Q 1991 -69 1575 -69 
Q 1003 -69 668 176 
Q 334 422 269 888 
L 831 888 
Q 878 641 1059 520 
Q 1241 400 1563 400 
Q 1925 400 2137 540 
Q 2350 681 2350 919 
Q 2350 1100 2215 1220 
Q 2081 1341 1794 1406 
L 1281 1525 
Q 838 1628 606 1862 
Q 375 2097 375 2438 
Q 375 2725 533 2953 
Q 691 3181 977 3309 
Q 1263 3438 1631 3438 
Q 1975 3438 2237 3322 
Q 2500 3206 2654 2997 
Q 2809 2788 2844 2513 
L 2319 2513 
z
" transform="scale(0.015625)"/>
       <path id="PretendardGOV-Regular-63" d="M 1819 -69 
Q 1347 -69 995 154 
Q 644 378 456 775 
Q 269 1172 269 1681 
Q 269 2194 461 2592 
Q 653 2991 1001 3214 
Q 1350 3438 1806 3438 
Q 2166 3438 2456 3305 
Q 2747 3172 2930 2930 
Q 3113 2688 3156 2369 
L 2619 2369 
Q 2581 2531 2475 2665 
Q 2369 2800 2201 2881 
Q 2034 2963 1819 2963 
Q 1519 2963 1289 2806 
Q 1059 2650 932 2364 
Q 806 2078 806 1700 
Q 806 1309 929 1018 
Q 1053 728 1283 570 
Q 1513 413 1819 413 
Q 2122 413 2336 567 
Q 2550 722 2619 1000 
L 3156 1000 
Q 3113 694 2938 451 
Q 2763 209 2475 70 
Q 2188 -69 1819 -69 
z
" transform="scale(0.015625)"/>
       <path id="PretendardGOV-Regular-6f" d="M 1819 -69 
Q 1359 -69 1007 148 
Q 656 366 462 762 
Q 269 1159 269 1681 
Q 269 2203 462 2601 
Q 656 3000 1007 3219 
Q 1359 3438 1819 3438 
Q 2275 3438 2623 3219 
Q 2972 3000 3164 2601 
Q 3356 2203 3356 1681 
Q 3356 1159 3164 762 
Q 2972 366 2623 148 
Q 2275 -69 1819 -69 
z
M 1819 406 
Q 2147 406 2372 579 
Q 2597 753 2708 1042 
Q 2819 1331 2819 1681 
Q 2819 2031 2708 2322 
Q 2597 2613 2372 2788 
Q 2147 2963 1819 2963 
Q 1484 2963 1257 2788 
Q 1031 2613 918 2322 
Q 806 2031 806 1681 
Q 806 1331 918 1042 
Q 1031 753 1257 579 
Q 1484 406 1819 406 
z
" transform="scale(0.015625)"/>
       <path id="PretendardGOV-Regular-64" d="M 1713 -69 
Q 1291 -69 964 147 
Q 638 363 453 761 
Q 269 1159 269 1688 
Q 269 2216 453 2612 
Q 638 3009 966 3223 
Q 1294 3438 1719 3438 
Q 2019 3438 2216 3339 
Q 2413 3241 2506 3130 
Q 2600 3019 2700 2856 
L 2738 2856 
L 2738 4525 
L 3281 4525 
L 3281 0 
L 2756 0 
L 2756 519 
L 2700 519 
Q 2594 353 2498 240 
Q 2403 128 2206 29 
Q 2009 -69 1713 -69 
z
M 1788 413 
Q 2091 413 2309 573 
Q 2528 734 2642 1026 
Q 2756 1319 2756 1700 
Q 2756 2078 2645 2361 
Q 2534 2644 2315 2800 
Q 2097 2956 1788 2956 
Q 1472 2956 1253 2792 
Q 1034 2628 923 2343 
Q 813 2059 813 1700 
Q 813 1331 923 1039 
Q 1034 747 1254 580 
Q 1475 413 1788 413 
z
" transform="scale(0.015625)"/>
       <path id="PretendardGOV-Regular-65" d="M 1856 -69 
Q 1372 -69 1012 147 
Q 653 363 461 756 
Q 269 1150 269 1669 
Q 269 2188 461 2589 
Q 653 2991 1001 3214 
Q 1350 3438 1806 3438 
Q 2191 3438 2522 3267 
Q 2853 3097 3061 2717 
Q 3269 2338 3269 1744 
L 3269 1519 
L 806 1519 
Q 819 1166 953 916 
Q 1088 666 1320 536 
Q 1553 406 1856 406 
Q 2144 406 2342 514 
Q 2541 622 2644 794 
L 3219 794 
Q 3138 538 2948 342 
Q 2759 147 2479 39 
Q 2200 -69 1856 -69 
z
M 2725 1975 
Q 2725 2259 2611 2482 
Q 2497 2706 2287 2834 
Q 2078 2963 1806 2963 
Q 1522 2963 1301 2828 
Q 1081 2694 954 2467 
Q 828 2241 809 1975 
L 2725 1975 
z
" transform="scale(0.015625)"/>
      </defs>
      <use xlink:href="#PretendardGOV-Regular-73"/>
      <use xlink:href="#PretendardGOV-Regular-63" x="49.609375"/>
      <use xlink:href="#PretendardGOV-Regular-6f" x="102.539062"/>
      <use xlink:href="#PretendardGOV-Regular-64" x="159.277344"/>
      <use xlink:href="#PretendardGOV-Regular-65" x="218.359375"/>
     </g>
    </g>
   </g>
   <g id="matplotlib.axis_2">
    <g id="ytick_1">
     <g id="line2d_44">
      <defs>
       <path id="m965163fd86" d="M 0 0 
L -3.5 0 
" style="stroke: #000000; stroke-width: 0.8"/>
      </defs>
      <g>
       <use xlink:href="#m965163fd86" x="967.5" y="640.8" style="stroke: #000000; stroke-width: 0.8"/>
      </g>
     </g>
     <g id="text_45">
      <!-- 0 -->
      <g transform="translate(954.7375 644.335156) scale(0.1 -0.1)">
       <use xlink:href="#PretendardGOV-Regular-30"/>
      </g>
     </g>
    </g>
    <g id="ytick_2">
     <g id="line2d_45">
      <g>
       <use xlink:href="#m965163fd86" x="967.5" y="549.824908" style="stroke: #000000; stroke-width: 0.8"/>
      </g>
     </g>
     <g id="text_46">
      <!-- 100000 -->
      <g transform="translate(925.925 553.360065) scale(0.1 -0.1)">
       <use xlink:href="#PretendardGOV-Regular-31"/>
       <use xlink:href="#PretendardGOV-Regular-30" x="57.617188"/>
       <use xlink:href="#PretendardGOV-Regular-30" x="115.234375"/>
       <use xlink:href="#PretendardGOV-Regular-30" x="172.851562"/>
       <use xlink:href="#PretendardGOV-Regular-30" x="230.46875"/>
       <use xlink:href="#PretendardGOV-Regular-30" x="288.085938"/>
      </g>
     </g>
    </g>
    <g id="ytick_3">
     <g id="line2d_46">
      <g>
       <use xlink:href="#m965163fd86" x="967.5" y="458.849817" style="stroke: #000000; stroke-width: 0.8"/>
      </g>
     </g>
     <g id="text_47">
      <!-- 200000 -->
      <g transform="translate(925.925 462.384973) scale(0.1 -0.1)">
       <use xlink:href="#PretendardGOV-Regular-32"/>
       <use xlink:href="#PretendardGOV-Regular-30" x="57.617188"/>
       <use xlink:href="#PretendardGOV-Regular-30" x="115.234375"/>
       <use xlink:href="#PretendardGOV-Regular-30" x="172.851562"/>
       <use xlink:href="#PretendardGOV-Regular-30" x="230.46875"/>
       <use xlink:href="#PretendardGOV-Regular-30" x="288.085938"/>
      </g>
     </g>
    </g>
    <g id="ytick_4">
     <g id="line2d_47">
      <g>
       <use xlink:href="#m965163fd86" x="967.5" y="367.874725" style="stroke: #000000; stroke-width: 0.8"/>
      </g>
     </g>
     <g id="text_48">
      <!-- 300000 -->
      <g transform="translate(925.925 371.409881) scale(0.1 -0.1)">
       <use xlink:href="#PretendardGOV-Regular-33"/>
       <use xlink:href="#PretendardGOV-Regular-30" x="57.617188"/>
       <use xlink:href="#PretendardGOV-Regular-30" x="115.234375"/>
       <use xlink:href="#PretendardGOV-Regular-30" x="172.851562"/>
       <use xlink:href="#PretendardGOV-Regular-30" x="230.46875"/>
       <use xlink:href="#PretendardGOV-Regular-30" x="288.085938"/>
      </g>
     </g>
    </g>
    <g id="ytick_5">
     <g id="line2d_48">
      <g>
       <use xlink:href="#m965163fd86" x="967.5" y="276.899633" style="stroke: #000000; stroke-width: 0.8"/>
      </g>
     </g>
     <g id="text_49">
      <!-- 400000 -->
      <g transform="translate(925.925 280.43479) scale(0.1 -0.1)">
       <use xlink:href="#PretendardGOV-Regular-34"/>
       <use xlink:href="#PretendardGOV-Regular-30" x="57.617188"/>
       <use xlink:href="#PretendardGOV-Regular-30" x="115.234375"/>
       <use xlink:href="#PretendardGOV-Regular-30" x="172.851562"/>
       <use xlink:href="#PretendardGOV-Regular-30" x="230.46875"/>
       <use xlink:href="#PretendardGOV-Regular-30" x="288.085938"/>
      </g>
     </g>
    </g>
    <g id="ytick_6">
     <g id="line2d_49">
      <g>
       <use xlink:href="#m965163fd86" x="967.5" y="185.924542" style="stroke: #000000; stroke-width: 0.8"/>
      </g>
     </g>
     <g id="text_50">
      <!-- 500000 -->
      <g transform="translate(925.925 189.459698) scale(0.1 -0.1)">
       <use xlink:href="#PretendardGOV-Regular-35"/>
       <use xlink:href="#PretendardGOV-Regular-30" x="57.617188"/>
       <use xlink:href="#PretendardGOV-Regular-30" x="115.234375"/>
       <use xlink:href="#PretendardGOV-Regular-30" x="172.851562"/>
       <use xlink:href="#PretendardGOV-Regular-30" x="230.46875"/>
       <use xlink:href="#PretendardGOV-Regular-30" x="288.085938"/>
      </g>
     </g>
    </g>
    <g id="ytick_7">
     <g id="line2d_50">
      <g>
       <use xlink:href="#m965163fd86" x="967.5" y="94.94945" style="stroke: #000000; stroke-width: 0.8"/>
      </g>
     </g>
     <g id="text_51">
      <!-- 600000 -->
      <g transform="translate(925.925 98.484606) scale(0.1 -0.1)">
       <use xlink:href="#PretendardGOV-Regular-36"/>
       <use xlink:href="#PretendardGOV-Regular-30" x="57.617188"/>
       <use xlink:href="#PretendardGOV-Regular-30" x="115.234375"/>
       <use xlink:href="#PretendardGOV-Regular-30" x="172.851562"/>
       <use xlink:href="#PretendardGOV-Regular-30" x="230.46875"/>
       <use xlink:href="#PretendardGOV-Regular-30" x="288.085938"/>
      </g>
     </g>
    </g>
   </g>
   <g id="patch_132">
    <path d="M 967.5 640.8 
L 967.5 86.4 
" style="fill: none; stroke: #000000; stroke-width: 0.8; stroke-linejoin: miter; stroke-linecap: square"/>
   </g>
   <g id="patch_133">
    <path d="M 6966 640.8 
L 6966 86.4 
" style="fill: none; stroke: #000000; stroke-width: 0.8; stroke-linejoin: miter; stroke-linecap: square"/>
   </g>
   <g id="patch_134">
    <path d="M 967.5 640.8 
L 6966 640.8 
" style="fill: none; stroke: #000000; stroke-width: 0.8; stroke-linejoin: miter; stroke-linecap: square"/>
   </g>
   <g id="patch_135">
    <path d="M 967.5 86.4 
L 6966 86.4 
" style="fill: none; stroke: #000000; stroke-width: 0.8; stroke-linejoin: miter; stroke-linecap: square"/>
   </g>
   <g id="legend_1">
    <g id="patch_136">
     <path d="M 6892.43125 136.5875 
L 6959 136.5875 
Q 6961 136.5875 6961 134.5875 
L 6961 93.4 
Q 6961 91.4 6959 91.4 
L 6892.43125 91.4 
Q 6890.43125 91.4 6890.43125 93.4 
L 6890.43125 134.5875 
Q 6890.43125 136.5875 6892.43125 136.5875 
z
" style="fill: #ffffff; opacity: 0.8; stroke: #cccccc; stroke-linejoin: miter"/>
    </g>
    <g id="patch_137">
     <path d="M 6894.43125 102.470312 
L 6914.43125 102.470312 
L 6914.43125 95.470312 
L 6894.43125 95.470312 
z
" style="fill: #1f77b4"/>
    </g>
    <g id="text_52">
     <!--  -->
     <g transform="translate(6922.43125 102.470312) scale(0.1 -0.1)">
      <defs>
       <path id="PretendardGOV-Regular-c9c1" d="M 2225 4019 
Q 2225 3650 2406 3309 
Q 2588 2969 2913 2711 
Q 3238 2453 3650 2319 
L 3400 1938 
Q 2913 2103 2544 2433 
Q 2175 2763 1988 3203 
Q 1806 2731 1431 2372 
Q 1056 2013 563 1831 
L 306 2213 
Q 719 2359 1044 2636 
Q 1369 2913 1550 3272 
Q 1731 3631 1731 4019 
L 1731 4256 
L 431 4256 
L 431 4656 
L 3506 4656 
L 3506 4256 
L 2225 4256 
L 2225 4019 
z
M 4813 1688 
L 4325 1688 
L 4325 5050 
L 4813 5050 
L 4813 1688 
z
M 4813 -506 
L 4325 -506 
L 4325 988 
L 1075 988 
L 1075 1394 
L 4813 1394 
L 4813 -506 
z
" transform="scale(0.015625)"/>
       <path id="PretendardGOV-Regular-c7a5" d="M 2106 3994 
Q 2106 3634 2276 3307 
Q 2447 2981 2755 2732 
Q 3063 2484 3469 2350 
L 3238 1963 
Q 2763 2119 2408 2434 
Q 2053 2750 1872 3175 
Q 1694 2697 1325 2339 
Q 956 1981 456 1800 
L 206 2194 
Q 619 2334 941 2606 
Q 1263 2878 1442 3239 
Q 1622 3600 1625 3994 
L 1625 4231 
L 356 4231 
L 356 4638 
L 3356 4638 
L 3356 4231 
L 2106 4231 
L 2106 3994 
z
M 4569 3631 
L 5406 3631 
L 5406 3219 
L 4569 3219 
L 4569 1694 
L 4081 1694 
L 4081 5050 
L 4569 5050 
L 4569 3631 
z
M 2788 1544 
Q 3356 1544 3768 1423 
Q 4181 1303 4400 1075 
Q 4619 847 4619 531 
Q 4619 209 4400 -22 
Q 4181 -253 3768 -373 
Q 3356 -494 2788 -494 
Q 2219 -494 1803 -373 
Q 1388 -253 1166 -22 
Q 944 209 944 531 
Q 944 847 1166 1075 
Q 1388 1303 1803 1423 
Q 2219 1544 2788 1544 
z
M 2788 1150 
Q 2372 1150 2065 1076 
Q 1759 1003 1596 862 
Q 1434 722 1438 531 
Q 1434 334 1596 192 
Q 1759 50 2064 -25 
Q 2369 -100 2788 -100 
Q 3209 -100 3514 -25 
Q 3819 50 3981 192 
Q 4144 334 4144 531 
Q 4144 725 3981 864 
Q 3819 1003 3512 1076 
Q 3206 1150 2788 1150 
z
" transform="scale(0.015625)"/>
       <path id="PretendardGOV-Regular-c778" d="M 4813 981 
L 4325 981 
L 4325 5044 
L 4813 5044 
L 4813 981 
z
M 4988 -388 
L 1225 -388 
L 1225 1394 
L 1713 1394 
L 1713 25 
L 4988 25 
L 4988 -388 
z
M 1813 4656 
Q 2225 4656 2558 4482 
Q 2891 4309 3080 3998 
Q 3269 3688 3269 3294 
Q 3269 2894 3080 2583 
Q 2891 2272 2558 2098 
Q 2225 1925 1813 1925 
Q 1400 1925 1067 2098 
Q 734 2272 545 2583 
Q 356 2894 356 3294 
Q 356 3688 545 3998 
Q 734 4309 1067 4482 
Q 1400 4656 1813 4656 
z
M 1813 4225 
Q 1534 4225 1311 4106 
Q 1088 3988 961 3775 
Q 834 3563 838 3294 
Q 834 3022 961 2808 
Q 1088 2594 1311 2475 
Q 1534 2356 1813 2356 
Q 2084 2356 2307 2475 
Q 2531 2594 2659 2808 
Q 2788 3022 2788 3294 
Q 2788 3559 2659 3771 
Q 2531 3984 2307 4104 
Q 2084 4225 1813 4225 
z
" transform="scale(0.015625)"/>
       <path id="PretendardGOV-Regular-ad6c" d="M 4619 4200 
Q 4619 3663 4592 3247 
Q 4566 2831 4459 2300 
L 5288 2300 
L 5288 1894 
L 2994 1894 
L 2994 -519 
L 2500 -519 
L 2500 1894 
L 225 1894 
L 225 2300 
L 3963 2300 
Q 4075 2831 4103 3250 
Q 4131 3669 4131 4200 
L 4131 4281 
L 863 4281 
L 863 4688 
L 4619 4688 
L 4619 4200 
z
" transform="scale(0.015625)"/>
      </defs>
      <use xlink:href="#PretendardGOV-Regular-c9c1"/>
      <use xlink:href="#PretendardGOV-Regular-c7a5" x="86.425781"/>
      <use xlink:href="#PretendardGOV-Regular-c778" x="172.851562"/>
      <use xlink:href="#PretendardGOV-Regular-ad6c" x="259.277344"/>
     </g>
    </g>
    <g id="patch_138">
     <path d="M 6894.43125 116.532812 
L 6914.43125 116.532812 
L 6914.43125 109.532812 
L 6894.43125 109.532812 
z
" style="fill: #ff7f0e"/>
    </g>
    <g id="text_53">
     <!--  -->
     <g transform="translate(6922.43125 116.532812) scale(0.1 -0.1)">
      <defs>
       <path id="PretendardGOV-Regular-c8fc" d="M 3031 4263 
Q 3028 3906 3309 3582 
Q 3591 3259 4044 3037 
Q 4497 2816 4988 2744 
L 4806 2356 
Q 4366 2431 3958 2606 
Q 3550 2781 3234 3045 
Q 2919 3309 2756 3634 
Q 2594 3309 2278 3046 
Q 1963 2784 1558 2607 
Q 1153 2431 719 2356 
L 525 2744 
Q 1013 2816 1466 3037 
Q 1919 3259 2200 3582 
Q 2481 3906 2481 4263 
L 2481 4300 
L 700 4300 
L 700 4700 
L 4806 4700 
L 4806 4300 
L 3031 4300 
L 3031 4263 
z
M 5288 1475 
L 2988 1475 
L 2988 -506 
L 2506 -506 
L 2506 1475 
L 225 1475 
L 225 1881 
L 5288 1881 
L 5288 1475 
z
" transform="scale(0.015625)"/>
       <path id="PretendardGOV-Regular-ac70" d="M 4825 -506 
L 4338 -506 
L 4338 2406 
L 3013 2406 
L 3013 2813 
L 4338 2813 
L 4338 5050 
L 4825 5050 
L 4825 -506 
z
M 3025 4444 
Q 3025 1800 500 550 
L 231 944 
Q 2378 1981 2531 4044 
L 475 4044 
L 475 4444 
L 3025 4444 
z
" transform="scale(0.015625)"/>
      </defs>
      <use xlink:href="#PretendardGOV-Regular-c8fc"/>
      <use xlink:href="#PretendardGOV-Regular-ac70" x="86.425781"/>
      <use xlink:href="#PretendardGOV-Regular-c778" x="172.851562"/>
      <use xlink:href="#PretendardGOV-Regular-ad6c" x="259.277344"/>
     </g>
    </g>
    <g id="patch_139">
     <path d="M 6894.43125 130.595312 
L 6914.43125 130.595312 
L 6914.43125 123.595312 
L 6894.43125 123.595312 
z
" style="fill: #2ca02c"/>
    </g>
    <g id="text_54">
     <!--  -->
     <g transform="translate(6922.43125 130.595312) scale(0.1 -0.1)">
      <defs>
       <path id="PretendardGOV-Regular-c720" d="M 5306 1475 
L 3963 1475 
L 3963 -506 
L 3469 -506 
L 3469 1475 
L 2044 1475 
L 2044 -506 
L 1538 -506 
L 1538 1475 
L 219 1475 
L 219 1881 
L 5306 1881 
L 5306 1475 
z
M 2750 4825 
Q 3331 4825 3775 4676 
Q 4219 4528 4462 4253 
Q 4706 3978 4706 3613 
Q 4706 3247 4461 2975 
Q 4216 2703 3773 2556 
Q 3331 2409 2750 2413 
Q 2169 2409 1726 2556 
Q 1284 2703 1039 2975 
Q 794 3247 794 3613 
Q 794 3978 1037 4253 
Q 1281 4528 1725 4676 
Q 2169 4825 2750 4825 
z
M 2750 4425 
Q 2319 4425 1989 4325 
Q 1659 4225 1478 4040 
Q 1297 3856 1300 3613 
Q 1297 3369 1478 3186 
Q 1659 3003 1989 2904 
Q 2319 2806 2750 2806 
Q 3178 2806 3509 2904 
Q 3841 3003 4023 3186 
Q 4206 3369 4206 3613 
Q 4206 3856 4023 4040 
Q 3841 4225 3509 4325 
Q 3178 4425 2750 4425 
z
" transform="scale(0.015625)"/>
       <path id="PretendardGOV-Regular-b3d9" d="M 5294 1906 
L 225 1906 
L 225 2300 
L 2519 2300 
L 2519 2950 
L 869 2950 
L 869 4788 
L 4663 4788 
L 4663 4394 
L 1350 4394 
L 1350 3350 
L 4700 3350 
L 4700 2950 
L 2994 2950 
L 2994 2300 
L 5294 2300 
L 5294 1906 
z
M 2756 1500 
Q 3350 1500 3779 1383 
Q 4209 1266 4437 1041 
Q 4666 816 4669 500 
Q 4666 181 4437 -44 
Q 4209 -269 3781 -386 
Q 3353 -503 2756 -506 
Q 2156 -503 1725 -386 
Q 1294 -269 1066 -44 
Q 838 181 838 500 
Q 838 816 1066 1041 
Q 1294 1266 1725 1383 
Q 2156 1500 2756 1500 
z
M 2756 1113 
Q 2313 1113 1992 1039 
Q 1672 966 1503 828 
Q 1334 691 1338 500 
Q 1334 306 1503 168 
Q 1672 31 1992 -41 
Q 2313 -113 2756 -113 
Q 3197 -113 3515 -41 
Q 3834 31 4004 170 
Q 4175 309 4175 500 
Q 4175 691 4004 828 
Q 3834 966 3514 1039 
Q 3194 1113 2756 1113 
z
" transform="scale(0.015625)"/>
      </defs>
      <use xlink:href="#PretendardGOV-Regular-c720"/>
      <use xlink:href="#PretendardGOV-Regular-b3d9" x="86.425781"/>
      <use xlink:href="#PretendardGOV-Regular-c778" x="172.851562"/>
      <use xlink:href="#PretendardGOV-Regular-ad6c" x="259.277344"/>
     </g>
    </g>
   </g>
  </g>
 </g>
 <defs>
  <clipPath id="p7f99eeae7d">
   <rect x="967.5" y="86.4" width="5998.5" height="554.4"/>
  </clipPath>
 </defs>
</svg>
