<?xml version="1.0" encoding="utf-8" standalone="no"?>
<!DOCTYPE svg PUBLIC "-//W3C//DTD SVG 1.1//EN"
  "http://www.w3.org/Graphics/SVG/1.1/DTD/svg11.dtd">
<svg xmlns:xlink="http://www.w3.org/1999/xlink" width="785.196pt" height="269.29116pt" viewBox="0 0 785.196 269.29116" xmlns="http://www.w3.org/2000/svg" version="1.1">
 <metadata>
  <rdf:RDF xmlns:dc="http://purl.org/dc/elements/1.1/" xmlns:cc="http://creativecommons.org/ns#" xmlns:rdf="http://www.w3.org/1999/02/22-rdf-syntax-ns#">
   <cc:Work>
    <dc:type rdf:resource="http://purl.org/dc/dcmitype/StillImage"/>
    <dc:date>2024-06-10T21:25:25.915610</dc:date>
    <dc:format>image/svg+xml</dc:format>
    <dc:creator>
     <cc:Agent>
      <dc:title>Matplotlib v3.8.4, https://matplotlib.org/</dc:title>
     </cc:Agent>
    </dc:creator>
   </cc:Work>
  </rdf:RDF>
 </metadata>
 <defs>
  <style type="text/css">*{stroke-linejoin: round; stroke-linecap: butt}</style>
 </defs>
 <g id="figure_1">
  <g id="patch_1">
   <path d="M 0 269.29116 
L 785.196 269.29116 
L 785.196 0 
L 0 0 
z
" style="fill: #ffffff"/>
  </g>
  <g id="axes_1">
   <g id="patch_2">
    <path d="M 98.1495 239.669132 
L 706.6764 239.669132 
L 706.6764 32.314939 
L 98.1495 32.314939 
z
" style="fill: #ffffff"/>
   </g>
   <g id="patch_3">
    <path d="M 101.687447 239.669132 
L 104.046078 239.669132 
L 104.046078 228.952036 
L 101.687447 228.952036 
z
" clip-path="url(#pa392723652)" style="fill: #1f77b4"/>
   </g>
   <g id="patch_4">
    <path d="M 115.839235 239.669132 
L 118.197867 239.669132 
L 118.197867 229.955204 
L 115.839235 229.955204 
z
" clip-path="url(#pa392723652)" style="fill: #1f77b4"/>
   </g>
   <g id="patch_5">
    <path d="M 129.991024 239.669132 
L 132.349655 239.669132 
L 132.349655 235.022669 
L 129.991024 235.022669 
z
" clip-path="url(#pa392723652)" style="fill: #1f77b4"/>
   </g>
   <g id="patch_6">
    <path d="M 144.142812 239.669132 
L 146.501444 239.669132 
L 146.501444 232.941215 
L 144.142812 232.941215 
z
" clip-path="url(#pa392723652)" style="fill: #1f77b4"/>
   </g>
   <g id="patch_7">
    <path d="M 158.294601 239.669132 
L 160.653232 239.669132 
L 160.653232 229.182201 
L 158.294601 229.182201 
z
" clip-path="url(#pa392723652)" style="fill: #1f77b4"/>
   </g>
   <g id="patch_8">
    <path d="M 172.446389 239.669132 
L 174.80502 239.669132 
L 174.80502 229.729776 
L 172.446389 229.729776 
z
" clip-path="url(#pa392723652)" style="fill: #1f77b4"/>
   </g>
   <g id="patch_9">
    <path d="M 186.598177 239.669132 
L 188.956809 239.669132 
L 188.956809 230.537315 
L 186.598177 230.537315 
z
" clip-path="url(#pa392723652)" style="fill: #1f77b4"/>
   </g>
   <g id="patch_10">
    <path d="M 200.749966 239.669132 
L 203.108597 239.669132 
L 203.108597 230.341215 
L 200.749966 230.341215 
z
" clip-path="url(#pa392723652)" style="fill: #1f77b4"/>
   </g>
   <g id="patch_11">
    <path d="M 214.901754 239.669132 
L 217.260385 239.669132 
L 217.260385 231.737745 
L 214.901754 231.737745 
z
" clip-path="url(#pa392723652)" style="fill: #1f77b4"/>
   </g>
   <g id="patch_12">
    <path d="M 229.053542 239.669132 
L 231.412174 239.669132 
L 231.412174 231.395916 
L 229.053542 231.395916 
z
" clip-path="url(#pa392723652)" style="fill: #1f77b4"/>
   </g>
   <g id="patch_13">
    <path d="M 243.205331 239.669132 
L 245.563962 239.669132 
L 245.563962 230.425732 
L 243.205331 230.425732 
z
" clip-path="url(#pa392723652)" style="fill: #1f77b4"/>
   </g>
   <g id="patch_14">
    <path d="M 257.357119 239.669132 
L 259.715751 239.669132 
L 259.715751 232.036693 
L 257.357119 232.036693 
z
" clip-path="url(#pa392723652)" style="fill: #1f77b4"/>
   </g>
   <g id="patch_15">
    <path d="M 271.508908 239.669132 
L 273.867539 239.669132 
L 273.867539 232.877444 
L 271.508908 232.877444 
z
" clip-path="url(#pa392723652)" style="fill: #1f77b4"/>
   </g>
   <g id="patch_16">
    <path d="M 285.660696 239.669132 
L 288.019327 239.669132 
L 288.019327 232.522982 
L 285.660696 232.522982 
z
" clip-path="url(#pa392723652)" style="fill: #1f77b4"/>
   </g>
   <g id="patch_17">
    <path d="M 299.812484 239.669132 
L 302.171116 239.669132 
L 302.171116 230.347618 
L 299.812484 230.347618 
z
" clip-path="url(#pa392723652)" style="fill: #1f77b4"/>
   </g>
   <g id="patch_18">
    <path d="M 313.964273 239.669132 
L 316.322904 239.669132 
L 316.322904 219.376395 
L 313.964273 219.376395 
z
" clip-path="url(#pa392723652)" style="fill: #1f77b4"/>
   </g>
   <g id="patch_19">
    <path d="M 328.116061 239.669132 
L 330.474692 239.669132 
L 330.474692 218.101493 
L 328.116061 218.101493 
z
" clip-path="url(#pa392723652)" style="fill: #1f77b4"/>
   </g>
   <g id="patch_20">
    <path d="M 342.267849 239.669132 
L 344.626481 239.669132 
L 344.626481 214.624821 
L 342.267849 214.624821 
z
" clip-path="url(#pa392723652)" style="fill: #1f77b4"/>
   </g>
   <g id="patch_21">
    <path d="M 356.419638 239.669132 
L 358.778269 239.669132 
L 358.778269 211.976046 
L 356.419638 211.976046 
z
" clip-path="url(#pa392723652)" style="fill: #1f77b4"/>
   </g>
   <g id="patch_22">
    <path d="M 370.571426 239.669132 
L 372.930058 239.669132 
L 372.930058 220.789607 
L 370.571426 220.789607 
z
" clip-path="url(#pa392723652)" style="fill: #1f77b4"/>
   </g>
   <g id="patch_23">
    <path d="M 384.723215 239.669132 
L 387.081846 239.669132 
L 387.081846 233.58496 
L 384.723215 233.58496 
z
" clip-path="url(#pa392723652)" style="fill: #1f77b4"/>
   </g>
   <g id="patch_24">
    <path d="M 398.875003 239.669132 
L 401.233634 239.669132 
L 401.233634 236.001962 
L 398.875003 236.001962 
z
" clip-path="url(#pa392723652)" style="fill: #1f77b4"/>
   </g>
   <g id="patch_25">
    <path d="M 413.026791 239.669132 
L 415.385423 239.669132 
L 415.385423 233.294138 
L 413.026791 233.294138 
z
" clip-path="url(#pa392723652)" style="fill: #1f77b4"/>
   </g>
   <g id="patch_26">
    <path d="M 427.17858 239.669132 
L 429.537211 239.669132 
L 429.537211 233.301195 
L 427.17858 233.301195 
z
" clip-path="url(#pa392723652)" style="fill: #1f77b4"/>
   </g>
   <g id="patch_27">
    <path d="M 441.330368 239.669132 
L 443.688999 239.669132 
L 443.688999 234.524059 
L 441.330368 234.524059 
z
" clip-path="url(#pa392723652)" style="fill: #1f77b4"/>
   </g>
   <g id="patch_28">
    <path d="M 455.482156 239.669132 
L 457.840788 239.669132 
L 457.840788 231.954559 
L 455.482156 231.954559 
z
" clip-path="url(#pa392723652)" style="fill: #1f77b4"/>
   </g>
   <g id="patch_29">
    <path d="M 469.633945 239.669132 
L 471.992576 239.669132 
L 471.992576 231.458188 
L 469.633945 231.458188 
z
" clip-path="url(#pa392723652)" style="fill: #1f77b4"/>
   </g>
   <g id="patch_30">
    <path d="M 483.785733 239.669132 
L 486.144365 239.669132 
L 486.144365 233.375586 
L 483.785733 233.375586 
z
" clip-path="url(#pa392723652)" style="fill: #1f77b4"/>
   </g>
   <g id="patch_31">
    <path d="M 497.937522 239.669132 
L 500.296153 239.669132 
L 500.296153 232.530104 
L 497.937522 232.530104 
z
" clip-path="url(#pa392723652)" style="fill: #1f77b4"/>
   </g>
   <g id="patch_32">
    <path d="M 512.08931 239.669132 
L 514.447941 239.669132 
L 514.447941 232.055984 
L 512.08931 232.055984 
z
" clip-path="url(#pa392723652)" style="fill: #1f77b4"/>
   </g>
   <g id="patch_33">
    <path d="M 526.241098 239.669132 
L 528.59973 239.669132 
L 528.59973 233.0756 
L 526.241098 233.0756 
z
" clip-path="url(#pa392723652)" style="fill: #1f77b4"/>
   </g>
   <g id="patch_34">
    <path d="M 540.392887 239.669132 
L 542.751518 239.669132 
L 542.751518 234.37712 
L 540.392887 234.37712 
z
" clip-path="url(#pa392723652)" style="fill: #1f77b4"/>
   </g>
   <g id="patch_35">
    <path d="M 554.544675 239.669132 
L 556.903306 239.669132 
L 556.903306 233.382788 
L 554.544675 233.382788 
z
" clip-path="url(#pa392723652)" style="fill: #1f77b4"/>
   </g>
   <g id="patch_36">
    <path d="M 568.696463 239.669132 
L 571.055095 239.669132 
L 571.055095 234.724334 
L 568.696463 234.724334 
z
" clip-path="url(#pa392723652)" style="fill: #1f77b4"/>
   </g>
   <g id="patch_37">
    <path d="M 582.848252 239.669132 
L 585.206883 239.669132 
L 585.206883 236.742806 
L 582.848252 236.742806 
z
" clip-path="url(#pa392723652)" style="fill: #1f77b4"/>
   </g>
   <g id="patch_38">
    <path d="M 597.00004 239.669132 
L 599.358672 239.669132 
L 599.358672 238.229296 
L 597.00004 238.229296 
z
" clip-path="url(#pa392723652)" style="fill: #1f77b4"/>
   </g>
   <g id="patch_39">
    <path d="M 611.151828 239.669132 
L 613.51046 239.669132 
L 613.51046 238.887147 
L 611.151828 238.887147 
z
" clip-path="url(#pa392723652)" style="fill: #1f77b4"/>
   </g>
   <g id="patch_40">
    <path d="M 625.303617 239.669132 
L 627.662248 239.669132 
L 627.662248 238.792914 
L 625.303617 238.792914 
z
" clip-path="url(#pa392723652)" style="fill: #1f77b4"/>
   </g>
   <g id="patch_41">
    <path d="M 639.455405 239.669132 
L 641.814037 239.669132 
L 641.814037 239.478105 
L 639.455405 239.478105 
z
" clip-path="url(#pa392723652)" style="fill: #1f77b4"/>
   </g>
   <g id="patch_42">
    <path d="M 653.607194 239.669132 
L 655.965825 239.669132 
L 655.965825 239.669132 
L 653.607194 239.669132 
z
" clip-path="url(#pa392723652)" style="fill: #1f77b4"/>
   </g>
   <g id="patch_43">
    <path d="M 667.758982 239.669132 
L 670.117613 239.669132 
L 670.117613 239.669132 
L 667.758982 239.669132 
z
" clip-path="url(#pa392723652)" style="fill: #1f77b4"/>
   </g>
   <g id="patch_44">
    <path d="M 681.91077 239.669132 
L 684.269402 239.669132 
L 684.269402 239.669132 
L 681.91077 239.669132 
z
" clip-path="url(#pa392723652)" style="fill: #1f77b4"/>
   </g>
   <g id="patch_45">
    <path d="M 696.062559 239.669132 
L 698.42119 239.669132 
L 698.42119 239.339653 
L 696.062559 239.339653 
z
" clip-path="url(#pa392723652)" style="fill: #1f77b4"/>
   </g>
   <g id="patch_46">
    <path d="M 104.046078 239.669132 
L 106.40471 239.669132 
L 106.40471 218.910249 
L 104.046078 218.910249 
z
" clip-path="url(#pa392723652)" style="fill: #ff7f0e"/>
   </g>
   <g id="patch_47">
    <path d="M 118.197867 239.669132 
L 120.556498 239.669132 
L 120.556498 222.444043 
L 118.197867 222.444043 
z
" clip-path="url(#pa392723652)" style="fill: #ff7f0e"/>
   </g>
   <g id="patch_48">
    <path d="M 132.349655 239.669132 
L 134.708287 239.669132 
L 134.708287 231.815366 
L 132.349655 231.815366 
z
" clip-path="url(#pa392723652)" style="fill: #ff7f0e"/>
   </g>
   <g id="patch_49">
    <path d="M 146.501444 239.669132 
L 148.860075 239.669132 
L 148.860075 227.470594 
L 146.501444 227.470594 
z
" clip-path="url(#pa392723652)" style="fill: #ff7f0e"/>
   </g>
   <g id="patch_50">
    <path d="M 160.653232 239.669132 
L 163.011863 239.669132 
L 163.011863 230.004163 
L 160.653232 230.004163 
z
" clip-path="url(#pa392723652)" style="fill: #ff7f0e"/>
   </g>
   <g id="patch_51">
    <path d="M 174.80502 239.669132 
L 177.163652 239.669132 
L 177.163652 228.984723 
L 174.80502 228.984723 
z
" clip-path="url(#pa392723652)" style="fill: #ff7f0e"/>
   </g>
   <g id="patch_52">
    <path d="M 188.956809 239.669132 
L 191.31544 239.669132 
L 191.31544 222.880646 
L 188.956809 222.880646 
z
" clip-path="url(#pa392723652)" style="fill: #ff7f0e"/>
   </g>
   <g id="patch_53">
    <path d="M 203.108597 239.669132 
L 205.467228 239.669132 
L 205.467228 218.068353 
L 203.108597 218.068353 
z
" clip-path="url(#pa392723652)" style="fill: #ff7f0e"/>
   </g>
   <g id="patch_54">
    <path d="M 217.260385 239.669132 
L 219.619017 239.669132 
L 219.619017 220.570657 
L 217.260385 220.570657 
z
" clip-path="url(#pa392723652)" style="fill: #ff7f0e"/>
   </g>
   <g id="patch_55">
    <path d="M 231.412174 239.669132 
L 233.770805 239.669132 
L 233.770805 224.720882 
L 231.412174 224.720882 
z
" clip-path="url(#pa392723652)" style="fill: #ff7f0e"/>
   </g>
   <g id="patch_56">
    <path d="M 245.563962 239.669132 
L 247.922594 239.669132 
L 247.922594 226.113224 
L 245.563962 226.113224 
z
" clip-path="url(#pa392723652)" style="fill: #ff7f0e"/>
   </g>
   <g id="patch_57">
    <path d="M 259.715751 239.669132 
L 262.074382 239.669132 
L 262.074382 228.141549 
L 259.715751 228.141549 
z
" clip-path="url(#pa392723652)" style="fill: #ff7f0e"/>
   </g>
   <g id="patch_58">
    <path d="M 273.867539 239.669132 
L 276.22617 239.669132 
L 276.22617 224.803391 
L 273.867539 224.803391 
z
" clip-path="url(#pa392723652)" style="fill: #ff7f0e"/>
   </g>
   <g id="patch_59">
    <path d="M 288.019327 239.669132 
L 290.377959 239.669132 
L 290.377959 222.230294 
L 288.019327 222.230294 
z
" clip-path="url(#pa392723652)" style="fill: #ff7f0e"/>
   </g>
   <g id="patch_60">
    <path d="M 302.171116 239.669132 
L 304.529747 239.669132 
L 304.529747 222.504217 
L 302.171116 222.504217 
z
" clip-path="url(#pa392723652)" style="fill: #ff7f0e"/>
   </g>
   <g id="patch_61">
    <path d="M 316.322904 239.669132 
L 318.681535 239.669132 
L 318.681535 223.866053 
L 316.322904 223.866053 
z
" clip-path="url(#pa392723652)" style="fill: #ff7f0e"/>
   </g>
   <g id="patch_62">
    <path d="M 330.474692 239.669132 
L 332.833324 239.669132 
L 332.833324 223.345465 
L 330.474692 223.345465 
z
" clip-path="url(#pa392723652)" style="fill: #ff7f0e"/>
   </g>
   <g id="patch_63">
    <path d="M 344.626481 239.669132 
L 346.985112 239.669132 
L 346.985112 223.714199 
L 344.626481 223.714199 
z
" clip-path="url(#pa392723652)" style="fill: #ff7f0e"/>
   </g>
   <g id="patch_64">
    <path d="M 358.778269 239.669132 
L 361.136901 239.669132 
L 361.136901 222.496957 
L 358.778269 222.496957 
z
" clip-path="url(#pa392723652)" style="fill: #ff7f0e"/>
   </g>
   <g id="patch_65">
    <path d="M 372.930058 239.669132 
L 375.288689 239.669132 
L 375.288689 223.391506 
L 372.930058 223.391506 
z
" clip-path="url(#pa392723652)" style="fill: #ff7f0e"/>
   </g>
   <g id="patch_66">
    <path d="M 387.081846 239.669132 
L 389.440477 239.669132 
L 389.440477 228.732329 
L 387.081846 228.732329 
z
" clip-path="url(#pa392723652)" style="fill: #ff7f0e"/>
   </g>
   <g id="patch_67">
    <path d="M 401.233634 239.669132 
L 403.592266 239.669132 
L 403.592266 227.857952 
L 401.233634 227.857952 
z
" clip-path="url(#pa392723652)" style="fill: #ff7f0e"/>
   </g>
   <g id="patch_68">
    <path d="M 415.385423 239.669132 
L 417.744054 239.669132 
L 417.744054 220.794491 
L 415.385423 220.794491 
z
" clip-path="url(#pa392723652)" style="fill: #ff7f0e"/>
   </g>
   <g id="patch_69">
    <path d="M 429.537211 239.669132 
L 431.895842 239.669132 
L 431.895842 225.236996 
L 429.537211 225.236996 
z
" clip-path="url(#pa392723652)" style="fill: #ff7f0e"/>
   </g>
   <g id="patch_70">
    <path d="M 443.688999 239.669132 
L 446.047631 239.669132 
L 446.047631 228.477184 
L 443.688999 228.477184 
z
" clip-path="url(#pa392723652)" style="fill: #ff7f0e"/>
   </g>
   <g id="patch_71">
    <path d="M 457.840788 239.669132 
L 460.199419 239.669132 
L 460.199419 232.823517 
L 457.840788 232.823517 
z
" clip-path="url(#pa392723652)" style="fill: #ff7f0e"/>
   </g>
   <g id="patch_72">
    <path d="M 471.992576 239.669132 
L 474.351208 239.669132 
L 474.351208 231.951224 
L 471.992576 231.951224 
z
" clip-path="url(#pa392723652)" style="fill: #ff7f0e"/>
   </g>
   <g id="patch_73">
    <path d="M 486.144365 239.669132 
L 488.502996 239.669132 
L 488.502996 230.968776 
L 486.144365 230.968776 
z
" clip-path="url(#pa392723652)" style="fill: #ff7f0e"/>
   </g>
   <g id="patch_74">
    <path d="M 500.296153 239.669132 
L 502.654784 239.669132 
L 502.654784 231.212874 
L 500.296153 231.212874 
z
" clip-path="url(#pa392723652)" style="fill: #ff7f0e"/>
   </g>
   <g id="patch_75">
    <path d="M 514.447941 239.669132 
L 516.806573 239.669132 
L 516.806573 228.762188 
L 514.447941 228.762188 
z
" clip-path="url(#pa392723652)" style="fill: #ff7f0e"/>
   </g>
   <g id="patch_76">
    <path d="M 528.59973 239.669132 
L 530.958361 239.669132 
L 530.958361 227.525821 
L 528.59973 227.525821 
z
" clip-path="url(#pa392723652)" style="fill: #ff7f0e"/>
   </g>
   <g id="patch_77">
    <path d="M 542.751518 239.669132 
L 545.110149 239.669132 
L 545.110149 227.537262 
L 542.751518 227.537262 
z
" clip-path="url(#pa392723652)" style="fill: #ff7f0e"/>
   </g>
   <g id="patch_78">
    <path d="M 556.903306 239.669132 
L 559.261938 239.669132 
L 559.261938 229.736412 
L 556.903306 229.736412 
z
" clip-path="url(#pa392723652)" style="fill: #ff7f0e"/>
   </g>
   <g id="patch_79">
    <path d="M 571.055095 239.669132 
L 573.413726 239.669132 
L 573.413726 230.376908 
L 571.055095 230.376908 
z
" clip-path="url(#pa392723652)" style="fill: #ff7f0e"/>
   </g>
   <g id="patch_80">
    <path d="M 585.206883 239.669132 
L 587.565515 239.669132 
L 587.565515 231.739457 
L 585.206883 231.739457 
z
" clip-path="url(#pa392723652)" style="fill: #ff7f0e"/>
   </g>
   <g id="patch_81">
    <path d="M 599.358672 239.669132 
L 601.717303 239.669132 
L 601.717303 235.224511 
L 599.358672 235.224511 
z
" clip-path="url(#pa392723652)" style="fill: #ff7f0e"/>
   </g>
   <g id="patch_82">
    <path d="M 613.51046 239.669132 
L 615.869091 239.669132 
L 615.869091 236.767027 
L 613.51046 236.767027 
z
" clip-path="url(#pa392723652)" style="fill: #ff7f0e"/>
   </g>
   <g id="patch_83">
    <path d="M 627.662248 239.669132 
L 630.02088 239.669132 
L 630.02088 236.417309 
L 627.662248 236.417309 
z
" clip-path="url(#pa392723652)" style="fill: #ff7f0e"/>
   </g>
   <g id="patch_84">
    <path d="M 641.814037 239.669132 
L 644.172668 239.669132 
L 644.172668 238.96019 
L 641.814037 238.96019 
z
" clip-path="url(#pa392723652)" style="fill: #ff7f0e"/>
   </g>
   <g id="patch_85">
    <path d="M 655.965825 239.669132 
L 658.324456 239.669132 
L 658.324456 239.669132 
L 655.965825 239.669132 
z
" clip-path="url(#pa392723652)" style="fill: #ff7f0e"/>
   </g>
   <g id="patch_86">
    <path d="M 670.117613 239.669132 
L 672.476245 239.669132 
L 672.476245 239.669132 
L 670.117613 239.669132 
z
" clip-path="url(#pa392723652)" style="fill: #ff7f0e"/>
   </g>
   <g id="patch_87">
    <path d="M 684.269402 239.669132 
L 686.628033 239.669132 
L 686.628033 239.669132 
L 684.269402 239.669132 
z
" clip-path="url(#pa392723652)" style="fill: #ff7f0e"/>
   </g>
   <g id="patch_88">
    <path d="M 698.42119 239.669132 
L 700.779822 239.669132 
L 700.779822 239.650301 
L 698.42119 239.650301 
z
" clip-path="url(#pa392723652)" style="fill: #ff7f0e"/>
   </g>
   <g id="patch_89">
    <path d="M 106.40471 239.669132 
L 108.763341 239.669132 
L 108.763341 157.967302 
L 106.40471 157.967302 
z
" clip-path="url(#pa392723652)" style="fill: #2ca02c"/>
   </g>
   <g id="patch_90">
    <path d="M 120.556498 239.669132 
L 122.91513 239.669132 
L 122.91513 158.063803 
L 120.556498 158.063803 
z
" clip-path="url(#pa392723652)" style="fill: #2ca02c"/>
   </g>
   <g id="patch_91">
    <path d="M 134.708287 239.669132 
L 137.066918 239.669132 
L 137.066918 194.961222 
L 134.708287 194.961222 
z
" clip-path="url(#pa392723652)" style="fill: #2ca02c"/>
   </g>
   <g id="patch_92">
    <path d="M 148.860075 239.669132 
L 151.218706 239.669132 
L 151.218706 189.206265 
L 148.860075 189.206265 
z
" clip-path="url(#pa392723652)" style="fill: #2ca02c"/>
   </g>
   <g id="patch_93">
    <path d="M 163.011863 239.669132 
L 165.370495 239.669132 
L 165.370495 164.367159 
L 163.011863 164.367159 
z
" clip-path="url(#pa392723652)" style="fill: #2ca02c"/>
   </g>
   <g id="patch_94">
    <path d="M 177.163652 239.669132 
L 179.522283 239.669132 
L 179.522283 168.17929 
L 177.163652 168.17929 
z
" clip-path="url(#pa392723652)" style="fill: #2ca02c"/>
   </g>
   <g id="patch_95">
    <path d="M 191.31544 239.669132 
L 193.674072 239.669132 
L 193.674072 173.489008 
L 191.31544 173.489008 
z
" clip-path="url(#pa392723652)" style="fill: #2ca02c"/>
   </g>
   <g id="patch_96">
    <path d="M 205.467228 239.669132 
L 207.82586 239.669132 
L 207.82586 170.928424 
L 205.467228 170.928424 
z
" clip-path="url(#pa392723652)" style="fill: #2ca02c"/>
   </g>
   <g id="patch_97">
    <path d="M 219.619017 239.669132 
L 221.977648 239.669132 
L 221.977648 182.602667 
L 219.619017 182.602667 
z
" clip-path="url(#pa392723652)" style="fill: #2ca02c"/>
   </g>
   <g id="patch_98">
    <path d="M 233.770805 239.669132 
L 236.129437 239.669132 
L 236.129437 177.859003 
L 233.770805 177.859003 
z
" clip-path="url(#pa392723652)" style="fill: #2ca02c"/>
   </g>
   <g id="patch_99">
    <path d="M 247.922594 239.669132 
L 250.281225 239.669132 
L 250.281225 173.052962 
L 247.922594 173.052962 
z
" clip-path="url(#pa392723652)" style="fill: #2ca02c"/>
   </g>
   <g id="patch_100">
    <path d="M 262.074382 239.669132 
L 264.433013 239.669132 
L 264.433013 184.763265 
L 262.074382 184.763265 
z
" clip-path="url(#pa392723652)" style="fill: #2ca02c"/>
   </g>
   <g id="patch_101">
    <path d="M 276.22617 239.669132 
L 278.584802 239.669132 
L 278.584802 194.379635 
L 276.22617 194.379635 
z
" clip-path="url(#pa392723652)" style="fill: #2ca02c"/>
   </g>
   <g id="patch_102">
    <path d="M 290.377959 239.669132 
L 292.73659 239.669132 
L 292.73659 189.2898 
L 290.377959 189.2898 
z
" clip-path="url(#pa392723652)" style="fill: #2ca02c"/>
   </g>
   <g id="patch_103">
    <path d="M 304.529747 239.669132 
L 306.888378 239.669132 
L 306.888378 177.038148 
L 304.529747 177.038148 
z
" clip-path="url(#pa392723652)" style="fill: #2ca02c"/>
   </g>
   <g id="patch_104">
    <path d="M 318.681535 239.669132 
L 321.040167 239.669132 
L 321.040167 141.465187 
L 318.681535 141.465187 
z
" clip-path="url(#pa392723652)" style="fill: #2ca02c"/>
   </g>
   <g id="patch_105">
    <path d="M 332.833324 239.669132 
L 335.191955 239.669132 
L 335.191955 143.720528 
L 332.833324 143.720528 
z
" clip-path="url(#pa392723652)" style="fill: #2ca02c"/>
   </g>
   <g id="patch_106">
    <path d="M 346.985112 239.669132 
L 349.343744 239.669132 
L 349.343744 104.546279 
L 346.985112 104.546279 
z
" clip-path="url(#pa392723652)" style="fill: #2ca02c"/>
   </g>
   <g id="patch_107">
    <path d="M 361.136901 239.669132 
L 363.495532 239.669132 
L 363.495532 57.795543 
L 361.136901 57.795543 
z
" clip-path="url(#pa392723652)" style="fill: #2ca02c"/>
   </g>
   <g id="patch_108">
    <path d="M 375.288689 239.669132 
L 377.64732 239.669132 
L 377.64732 101.381829 
L 375.288689 101.381829 
z
" clip-path="url(#pa392723652)" style="fill: #2ca02c"/>
   </g>
   <g id="patch_109">
    <path d="M 389.440477 239.669132 
L 391.799109 239.669132 
L 391.799109 194.06226 
L 389.440477 194.06226 
z
" clip-path="url(#pa392723652)" style="fill: #2ca02c"/>
   </g>
   <g id="patch_110">
    <path d="M 403.592266 239.669132 
L 405.950897 239.669132 
L 405.950897 208.568364 
L 403.592266 208.568364 
z
" clip-path="url(#pa392723652)" style="fill: #2ca02c"/>
   </g>
   <g id="patch_111">
    <path d="M 417.744054 239.669132 
L 420.102685 239.669132 
L 420.102685 189.178362 
L 417.744054 189.178362 
z
" clip-path="url(#pa392723652)" style="fill: #2ca02c"/>
   </g>
   <g id="patch_112">
    <path d="M 431.895842 239.669132 
L 434.254474 239.669132 
L 434.254474 193.096099 
L 431.895842 193.096099 
z
" clip-path="url(#pa392723652)" style="fill: #2ca02c"/>
   </g>
   <g id="patch_113">
    <path d="M 446.047631 239.669132 
L 448.406262 239.669132 
L 448.406262 197.913795 
L 446.047631 197.913795 
z
" clip-path="url(#pa392723652)" style="fill: #2ca02c"/>
   </g>
   <g id="patch_114">
    <path d="M 460.199419 239.669132 
L 462.558051 239.669132 
L 462.558051 200.168692 
L 460.199419 200.168692 
z
" clip-path="url(#pa392723652)" style="fill: #2ca02c"/>
   </g>
   <g id="patch_115">
    <path d="M 474.351208 239.669132 
L 476.709839 239.669132 
L 476.709839 192.970575 
L 474.351208 192.970575 
z
" clip-path="url(#pa392723652)" style="fill: #2ca02c"/>
   </g>
   <g id="patch_116">
    <path d="M 488.502996 239.669132 
L 490.861627 239.669132 
L 490.861627 210.549683 
L 488.502996 210.549683 
z
" clip-path="url(#pa392723652)" style="fill: #2ca02c"/>
   </g>
   <g id="patch_117">
    <path d="M 502.654784 239.669132 
L 505.013416 239.669132 
L 505.013416 210.447616 
L 502.654784 210.447616 
z
" clip-path="url(#pa392723652)" style="fill: #2ca02c"/>
   </g>
   <g id="patch_118">
    <path d="M 516.806573 239.669132 
L 519.165204 239.669132 
L 519.165204 200.155671 
L 516.806573 200.155671 
z
" clip-path="url(#pa392723652)" style="fill: #2ca02c"/>
   </g>
   <g id="patch_119">
    <path d="M 530.958361 239.669132 
L 533.316992 239.669132 
L 533.316992 196.10989 
L 530.958361 196.10989 
z
" clip-path="url(#pa392723652)" style="fill: #2ca02c"/>
   </g>
   <g id="patch_120">
    <path d="M 545.110149 239.669132 
L 547.468781 239.669132 
L 547.468781 190.934301 
L 545.110149 190.934301 
z
" clip-path="url(#pa392723652)" style="fill: #2ca02c"/>
   </g>
   <g id="patch_121">
    <path d="M 559.261938 239.669132 
L 561.620569 239.669132 
L 561.620569 162.239574 
L 559.261938 162.239574 
z
" clip-path="url(#pa392723652)" style="fill: #2ca02c"/>
   </g>
   <g id="patch_122">
    <path d="M 573.413726 239.669132 
L 575.772358 239.669132 
L 575.772358 180.598799 
L 573.413726 180.598799 
z
" clip-path="url(#pa392723652)" style="fill: #2ca02c"/>
   </g>
   <g id="patch_123">
    <path d="M 587.565515 239.669132 
L 589.924146 239.669132 
L 589.924146 204.427062 
L 587.565515 204.427062 
z
" clip-path="url(#pa392723652)" style="fill: #2ca02c"/>
   </g>
   <g id="patch_124">
    <path d="M 601.717303 239.669132 
L 604.075934 239.669132 
L 604.075934 224.342714 
L 601.717303 224.342714 
z
" clip-path="url(#pa392723652)" style="fill: #2ca02c"/>
   </g>
   <g id="patch_125">
    <path d="M 615.869091 239.669132 
L 618.227723 239.669132 
L 618.227723 232.884341 
L 615.869091 232.884341 
z
" clip-path="url(#pa392723652)" style="fill: #2ca02c"/>
   </g>
   <g id="patch_126">
    <path d="M 630.02088 239.669132 
L 632.379511 239.669132 
L 632.379511 232.066739 
L 630.02088 232.066739 
z
" clip-path="url(#pa392723652)" style="fill: #2ca02c"/>
   </g>
   <g id="patch_127">
    <path d="M 644.172668 239.669132 
L 646.531299 239.669132 
L 646.531299 238.011705 
L 644.172668 238.011705 
z
" clip-path="url(#pa392723652)" style="fill: #2ca02c"/>
   </g>
   <g id="patch_128">
    <path d="M 658.324456 239.669132 
L 660.683088 239.669132 
L 660.683088 239.669132 
L 658.324456 239.669132 
z
" clip-path="url(#pa392723652)" style="fill: #2ca02c"/>
   </g>
   <g id="patch_129">
    <path d="M 672.476245 239.669132 
L 674.834876 239.669132 
L 674.834876 239.669132 
L 672.476245 239.669132 
z
" clip-path="url(#pa392723652)" style="fill: #2ca02c"/>
   </g>
   <g id="patch_130">
    <path d="M 686.628033 239.669132 
L 688.986665 239.669132 
L 688.986665 239.669132 
L 686.628033 239.669132 
z
" clip-path="url(#pa392723652)" style="fill: #2ca02c"/>
   </g>
   <g id="patch_131">
    <path d="M 700.779822 239.669132 
L 703.138453 239.669132 
L 703.138453 238.80158 
L 700.779822 238.80158 
z
" clip-path="url(#pa392723652)" style="fill: #2ca02c"/>
   </g>
   <g id="matplotlib.axis_1">
    <g id="xtick_1">
     <g id="line2d_1">
      <defs>
       <path id="m38f1a7547b" d="M 0 0 
L 0 3.5 
" style="stroke: #000000; stroke-width: 0.8"/>
      </defs>
      <g>
       <use xlink:href="#m38f1a7547b" x="105.225394" y="239.669132" style="stroke: #000000; stroke-width: 0.8"/>
      </g>
     </g>
     <g id="text_1">
      <!-- 201 -->
      <g transform="translate(107.002738 258.770382) rotate(-90) scale(0.07 -0.07)">
       <defs>
        <path id="PretendardGOV-Regular-32" d="M 481 406 
L 1956 2038 
Q 2238 2350 2391 2550 
Q 2544 2750 2623 2937 
Q 2703 3125 2706 3331 
Q 2703 3559 2592 3734 
Q 2481 3909 2290 4004 
Q 2100 4100 1863 4100 
Q 1613 4100 1427 3995 
Q 1241 3891 1139 3697 
Q 1038 3503 1038 3250 
L 500 3250 
Q 500 3641 679 3945 
Q 859 4250 1175 4419 
Q 1491 4588 1881 4588 
Q 2266 4588 2573 4420 
Q 2881 4253 3054 3965 
Q 3228 3678 3231 3331 
Q 3228 3075 3139 2840 
Q 3050 2606 2839 2317 
Q 2628 2028 2238 1606 
L 1250 538 
L 1250 500 
L 3306 500 
L 3306 0 
L 481 0 
L 481 406 
z
" transform="scale(0.015625)"/>
        <path id="PretendardGOV-Regular-30" d="M 1844 -63 
Q 1359 -63 1018 187 
Q 678 438 501 920 
Q 325 1403 325 2088 
L 325 2438 
Q 325 3125 501 3606 
Q 678 4088 1018 4338 
Q 1359 4588 1844 4588 
Q 2325 4588 2664 4338 
Q 3003 4088 3179 3606 
Q 3356 3125 3356 2438 
L 3356 2088 
Q 3356 1403 3179 920 
Q 3003 438 2664 187 
Q 2325 -63 1844 -63 
z
M 1844 431 
Q 2813 431 2813 2081 
L 2813 2438 
Q 2813 4094 1844 4094 
Q 1356 4094 1115 3681 
Q 875 3269 875 2438 
L 875 2081 
Q 875 1256 1115 843 
Q 1356 431 1844 431 
z
" transform="scale(0.015625)"/>
        <path id="PretendardGOV-Regular-31" d="M 2163 456 
L 3144 456 
L 3144 0 
L 569 0 
L 569 456 
L 1600 456 
L 1600 3938 
L 1575 3938 
L 569 3269 
L 569 3844 
L 1600 4525 
L 2163 4525 
L 2163 456 
z
" transform="scale(0.015625)"/>
       </defs>
       <use xlink:href="#PretendardGOV-Regular-32"/>
       <use xlink:href="#PretendardGOV-Regular-30" x="57.617188"/>
       <use xlink:href="#PretendardGOV-Regular-31" x="115.234375"/>
      </g>
     </g>
    </g>
    <g id="xtick_2">
     <g id="line2d_2">
      <g>
       <use xlink:href="#m38f1a7547b" x="119.377183" y="239.669132" style="stroke: #000000; stroke-width: 0.8"/>
      </g>
     </g>
     <g id="text_2">
      <!-- 202 -->
      <g transform="translate(121.154526 258.770382) rotate(-90) scale(0.07 -0.07)">
       <use xlink:href="#PretendardGOV-Regular-32"/>
       <use xlink:href="#PretendardGOV-Regular-30" x="57.617188"/>
       <use xlink:href="#PretendardGOV-Regular-32" x="115.234375"/>
      </g>
     </g>
    </g>
    <g id="xtick_3">
     <g id="line2d_3">
      <g>
       <use xlink:href="#m38f1a7547b" x="133.528971" y="239.669132" style="stroke: #000000; stroke-width: 0.8"/>
      </g>
     </g>
     <g id="text_3">
      <!-- 203 -->
      <g transform="translate(135.306315 258.770382) rotate(-90) scale(0.07 -0.07)">
       <defs>
        <path id="PretendardGOV-Regular-33" d="M 900 1144 
Q 922 922 1048 762 
Q 1175 603 1381 520 
Q 1588 438 1844 438 
Q 2119 438 2336 534 
Q 2553 631 2678 823 
Q 2803 1016 2800 1288 
Q 2803 1547 2689 1755 
Q 2575 1963 2325 2088 
Q 2075 2213 1688 2213 
L 1319 2213 
L 1319 2656 
L 2425 3988 
L 2425 4025 
L 544 4025 
L 544 4525 
L 3181 4525 
L 3181 4119 
L 2000 2681 
L 2000 2644 
Q 2384 2622 2693 2439 
Q 3003 2256 3179 1953 
Q 3356 1650 3356 1281 
Q 3356 897 3161 590 
Q 2966 284 2619 110 
Q 2272 -63 1831 -63 
Q 1428 -63 1093 82 
Q 759 228 554 501 
Q 350 775 325 1144 
L 900 1144 
z
" transform="scale(0.015625)"/>
       </defs>
       <use xlink:href="#PretendardGOV-Regular-32"/>
       <use xlink:href="#PretendardGOV-Regular-30" x="57.617188"/>
       <use xlink:href="#PretendardGOV-Regular-33" x="115.234375"/>
      </g>
     </g>
    </g>
    <g id="xtick_4">
     <g id="line2d_4">
      <g>
       <use xlink:href="#m38f1a7547b" x="147.680759" y="239.669132" style="stroke: #000000; stroke-width: 0.8"/>
      </g>
     </g>
     <g id="text_4">
      <!-- 204 -->
      <g transform="translate(149.458103 258.770382) rotate(-90) scale(0.07 -0.07)">
       <defs>
        <path id="PretendardGOV-Regular-34" d="M 231 1388 
L 1994 4525 
L 2550 4525 
L 825 1456 
L 825 1419 
L 2313 1419 
L 2313 2831 
L 2844 2831 
L 2844 1419 
L 3450 1419 
L 3450 925 
L 2844 925 
L 2844 0 
L 2313 0 
L 2313 925 
L 231 925 
L 231 1388 
z
" transform="scale(0.015625)"/>
       </defs>
       <use xlink:href="#PretendardGOV-Regular-32"/>
       <use xlink:href="#PretendardGOV-Regular-30" x="57.617188"/>
       <use xlink:href="#PretendardGOV-Regular-34" x="115.234375"/>
      </g>
     </g>
    </g>
    <g id="xtick_5">
     <g id="line2d_5">
      <g>
       <use xlink:href="#m38f1a7547b" x="161.832548" y="239.669132" style="stroke: #000000; stroke-width: 0.8"/>
      </g>
     </g>
     <g id="text_5">
      <!-- 205 -->
      <g transform="translate(163.609891 258.770382) rotate(-90) scale(0.07 -0.07)">
       <defs>
        <path id="PretendardGOV-Regular-35" d="M 1888 -63 
Q 1500 -63 1183 92 
Q 866 247 677 520 
Q 488 794 469 1138 
L 1025 1138 
Q 1041 938 1158 777 
Q 1275 616 1467 523 
Q 1659 431 1888 431 
Q 2159 431 2373 561 
Q 2588 691 2709 919 
Q 2831 1147 2831 1431 
Q 2831 1725 2704 1956 
Q 2578 2188 2354 2320 
Q 2131 2453 1850 2456 
Q 1572 2463 1373 2366 
Q 1175 2269 1063 2050 
L 513 2050 
L 813 4525 
L 3175 4525 
L 3175 4025 
L 1294 4025 
L 1138 2700 
L 1188 2700 
Q 1309 2816 1514 2889 
Q 1719 2963 1944 2963 
Q 2350 2963 2678 2766 
Q 3006 2569 3193 2222 
Q 3381 1875 3381 1444 
Q 3381 1016 3187 672 
Q 2994 328 2653 132 
Q 2313 -63 1888 -63 
z
" transform="scale(0.015625)"/>
       </defs>
       <use xlink:href="#PretendardGOV-Regular-32"/>
       <use xlink:href="#PretendardGOV-Regular-30" x="57.617188"/>
       <use xlink:href="#PretendardGOV-Regular-35" x="115.234375"/>
      </g>
     </g>
    </g>
    <g id="xtick_6">
     <g id="line2d_6">
      <g>
       <use xlink:href="#m38f1a7547b" x="175.984336" y="239.669132" style="stroke: #000000; stroke-width: 0.8"/>
      </g>
     </g>
     <g id="text_6">
      <!-- 206 -->
      <g transform="translate(177.76168 258.770382) rotate(-90) scale(0.07 -0.07)">
       <defs>
        <path id="PretendardGOV-Regular-36" d="M 1838 -63 
Q 1416 -63 1064 131 
Q 713 325 509 659 
Q 306 994 306 1394 
Q 306 1734 473 2104 
Q 641 2475 1000 3006 
L 2019 4525 
L 2663 4525 
L 1444 2713 
L 1475 2688 
Q 1550 2763 1694 2809 
Q 1838 2856 2031 2856 
Q 2419 2856 2728 2662 
Q 3038 2469 3209 2134 
Q 3381 1800 3381 1394 
Q 3381 994 3175 659 
Q 2969 325 2616 131 
Q 2263 -63 1838 -63 
z
M 1844 431 
Q 2131 431 2356 556 
Q 2581 681 2706 906 
Q 2831 1131 2831 1419 
Q 2831 1706 2706 1932 
Q 2581 2159 2356 2286 
Q 2131 2413 1844 2413 
Q 1556 2413 1329 2286 
Q 1103 2159 976 1932 
Q 850 1706 850 1419 
Q 850 1131 976 906 
Q 1103 681 1329 556 
Q 1556 431 1844 431 
z
" transform="scale(0.015625)"/>
       </defs>
       <use xlink:href="#PretendardGOV-Regular-32"/>
       <use xlink:href="#PretendardGOV-Regular-30" x="57.617188"/>
       <use xlink:href="#PretendardGOV-Regular-36" x="115.234375"/>
      </g>
     </g>
    </g>
    <g id="xtick_7">
     <g id="line2d_7">
      <g>
       <use xlink:href="#m38f1a7547b" x="190.136124" y="239.669132" style="stroke: #000000; stroke-width: 0.8"/>
      </g>
     </g>
     <g id="text_7">
      <!-- 207 -->
      <g transform="translate(191.913468 258.770382) rotate(-90) scale(0.07 -0.07)">
       <defs>
        <path id="PretendardGOV-Regular-37" d="M 2681 3994 
L 2681 4025 
L 425 4025 
L 425 4525 
L 3275 4525 
L 3275 4000 
L 1313 0 
L 719 0 
L 2681 3994 
z
" transform="scale(0.015625)"/>
       </defs>
       <use xlink:href="#PretendardGOV-Regular-32"/>
       <use xlink:href="#PretendardGOV-Regular-30" x="57.617188"/>
       <use xlink:href="#PretendardGOV-Regular-37" x="115.234375"/>
      </g>
     </g>
    </g>
    <g id="xtick_8">
     <g id="line2d_8">
      <g>
       <use xlink:href="#m38f1a7547b" x="204.287913" y="239.669132" style="stroke: #000000; stroke-width: 0.8"/>
      </g>
     </g>
     <g id="text_8">
      <!-- 208 -->
      <g transform="translate(206.065257 258.770382) rotate(-90) scale(0.07 -0.07)">
       <defs>
        <path id="PretendardGOV-Regular-38" d="M 1844 -63 
Q 1394 -63 1042 100 
Q 691 263 495 550 
Q 300 838 300 1200 
Q 300 1481 415 1728 
Q 531 1975 731 2139 
Q 931 2303 1175 2350 
L 1175 2375 
Q 959 2431 800 2578 
Q 641 2725 553 2936 
Q 466 3147 463 3388 
Q 466 3728 644 4001 
Q 822 4275 1136 4431 
Q 1450 4588 1844 4588 
Q 2231 4588 2543 4431 
Q 2856 4275 3036 4001 
Q 3216 3728 3219 3388 
Q 3216 3147 3127 2936 
Q 3038 2725 2878 2578 
Q 2719 2431 2506 2375 
L 2506 2350 
Q 2750 2303 2950 2139 
Q 3150 1975 3267 1728 
Q 3384 1481 3388 1200 
Q 3384 838 3187 550 
Q 2991 263 2641 100 
Q 2291 -63 1844 -63 
z
M 1844 431 
Q 2144 431 2366 531 
Q 2588 631 2706 811 
Q 2825 991 2825 1231 
Q 2825 1481 2698 1679 
Q 2572 1878 2348 1989 
Q 2125 2100 1844 2100 
Q 1563 2100 1336 1987 
Q 1109 1875 982 1678 
Q 856 1481 863 1231 
Q 856 994 975 812 
Q 1094 631 1317 531 
Q 1541 431 1844 431 
z
M 1844 2575 
Q 2081 2575 2270 2670 
Q 2459 2766 2564 2941 
Q 2669 3116 2669 3344 
Q 2669 3569 2564 3741 
Q 2459 3913 2271 4006 
Q 2084 4100 1844 4100 
Q 1597 4100 1408 4006 
Q 1219 3913 1116 3741 
Q 1013 3569 1013 3344 
Q 1013 3116 1119 2941 
Q 1225 2766 1414 2670 
Q 1603 2575 1844 2575 
z
" transform="scale(0.015625)"/>
       </defs>
       <use xlink:href="#PretendardGOV-Regular-32"/>
       <use xlink:href="#PretendardGOV-Regular-30" x="57.617188"/>
       <use xlink:href="#PretendardGOV-Regular-38" x="115.234375"/>
      </g>
     </g>
    </g>
    <g id="xtick_9">
     <g id="line2d_9">
      <g>
       <use xlink:href="#m38f1a7547b" x="218.439701" y="239.669132" style="stroke: #000000; stroke-width: 0.8"/>
      </g>
     </g>
     <g id="text_9">
      <!-- 209 -->
      <g transform="translate(220.217045 258.770382) rotate(-90) scale(0.07 -0.07)">
       <defs>
        <path id="PretendardGOV-Regular-39" d="M 1850 4588 
Q 2272 4588 2623 4394 
Q 2975 4200 3178 3865 
Q 3381 3531 3381 3131 
Q 3381 2791 3214 2420 
Q 3047 2050 2688 1519 
L 1669 0 
L 1025 0 
L 2244 1813 
L 2213 1838 
Q 2138 1763 1994 1716 
Q 1850 1669 1656 1669 
Q 1269 1669 959 1862 
Q 650 2056 478 2390 
Q 306 2725 306 3131 
Q 306 3531 512 3865 
Q 719 4200 1072 4394 
Q 1425 4588 1850 4588 
z
M 1844 4094 
Q 1556 4094 1331 3969 
Q 1106 3844 981 3619 
Q 856 3394 856 3106 
Q 856 2819 981 2592 
Q 1106 2366 1331 2239 
Q 1556 2113 1844 2113 
Q 2131 2113 2357 2239 
Q 2584 2366 2711 2592 
Q 2838 2819 2838 3106 
Q 2838 3394 2711 3619 
Q 2584 3844 2357 3969 
Q 2131 4094 1844 4094 
z
" transform="scale(0.015625)"/>
       </defs>
       <use xlink:href="#PretendardGOV-Regular-32"/>
       <use xlink:href="#PretendardGOV-Regular-30" x="57.617188"/>
       <use xlink:href="#PretendardGOV-Regular-39" x="115.234375"/>
      </g>
     </g>
    </g>
    <g id="xtick_10">
     <g id="line2d_10">
      <g>
       <use xlink:href="#m38f1a7547b" x="232.59149" y="239.669132" style="stroke: #000000; stroke-width: 0.8"/>
      </g>
     </g>
     <g id="text_10">
      <!-- 210 -->
      <g transform="translate(234.368833 258.770382) rotate(-90) scale(0.07 -0.07)">
       <use xlink:href="#PretendardGOV-Regular-32"/>
       <use xlink:href="#PretendardGOV-Regular-31" x="57.617188"/>
       <use xlink:href="#PretendardGOV-Regular-30" x="115.234375"/>
      </g>
     </g>
    </g>
    <g id="xtick_11">
     <g id="line2d_11">
      <g>
       <use xlink:href="#m38f1a7547b" x="246.743278" y="239.669132" style="stroke: #000000; stroke-width: 0.8"/>
      </g>
     </g>
     <g id="text_11">
      <!-- 211 -->
      <g transform="translate(248.520622 258.770382) rotate(-90) scale(0.07 -0.07)">
       <use xlink:href="#PretendardGOV-Regular-32"/>
       <use xlink:href="#PretendardGOV-Regular-31" x="57.617188"/>
       <use xlink:href="#PretendardGOV-Regular-31" x="115.234375"/>
      </g>
     </g>
    </g>
    <g id="xtick_12">
     <g id="line2d_12">
      <g>
       <use xlink:href="#m38f1a7547b" x="260.895066" y="239.669132" style="stroke: #000000; stroke-width: 0.8"/>
      </g>
     </g>
     <g id="text_12">
      <!-- 212 -->
      <g transform="translate(262.67241 258.770382) rotate(-90) scale(0.07 -0.07)">
       <use xlink:href="#PretendardGOV-Regular-32"/>
       <use xlink:href="#PretendardGOV-Regular-31" x="57.617188"/>
       <use xlink:href="#PretendardGOV-Regular-32" x="115.234375"/>
      </g>
     </g>
    </g>
    <g id="xtick_13">
     <g id="line2d_13">
      <g>
       <use xlink:href="#m38f1a7547b" x="275.046855" y="239.669132" style="stroke: #000000; stroke-width: 0.8"/>
      </g>
     </g>
     <g id="text_13">
      <!-- 213 -->
      <g transform="translate(276.824198 258.770382) rotate(-90) scale(0.07 -0.07)">
       <use xlink:href="#PretendardGOV-Regular-32"/>
       <use xlink:href="#PretendardGOV-Regular-31" x="57.617188"/>
       <use xlink:href="#PretendardGOV-Regular-33" x="115.234375"/>
      </g>
     </g>
    </g>
    <g id="xtick_14">
     <g id="line2d_14">
      <g>
       <use xlink:href="#m38f1a7547b" x="289.198643" y="239.669132" style="stroke: #000000; stroke-width: 0.8"/>
      </g>
     </g>
     <g id="text_14">
      <!-- 214 -->
      <g transform="translate(290.975987 258.770382) rotate(-90) scale(0.07 -0.07)">
       <use xlink:href="#PretendardGOV-Regular-32"/>
       <use xlink:href="#PretendardGOV-Regular-31" x="57.617188"/>
       <use xlink:href="#PretendardGOV-Regular-34" x="115.234375"/>
      </g>
     </g>
    </g>
    <g id="xtick_15">
     <g id="line2d_15">
      <g>
       <use xlink:href="#m38f1a7547b" x="303.350431" y="239.669132" style="stroke: #000000; stroke-width: 0.8"/>
      </g>
     </g>
     <g id="text_15">
      <!-- 215 -->
      <g transform="translate(305.127775 258.770382) rotate(-90) scale(0.07 -0.07)">
       <use xlink:href="#PretendardGOV-Regular-32"/>
       <use xlink:href="#PretendardGOV-Regular-31" x="57.617188"/>
       <use xlink:href="#PretendardGOV-Regular-35" x="115.234375"/>
      </g>
     </g>
    </g>
    <g id="xtick_16">
     <g id="line2d_16">
      <g>
       <use xlink:href="#m38f1a7547b" x="317.50222" y="239.669132" style="stroke: #000000; stroke-width: 0.8"/>
      </g>
     </g>
     <g id="text_16">
      <!-- 216 -->
      <g transform="translate(319.279564 258.770382) rotate(-90) scale(0.07 -0.07)">
       <use xlink:href="#PretendardGOV-Regular-32"/>
       <use xlink:href="#PretendardGOV-Regular-31" x="57.617188"/>
       <use xlink:href="#PretendardGOV-Regular-36" x="115.234375"/>
      </g>
     </g>
    </g>
    <g id="xtick_17">
     <g id="line2d_17">
      <g>
       <use xlink:href="#m38f1a7547b" x="331.654008" y="239.669132" style="stroke: #000000; stroke-width: 0.8"/>
      </g>
     </g>
     <g id="text_17">
      <!-- 217 -->
      <g transform="translate(333.431352 258.770382) rotate(-90) scale(0.07 -0.07)">
       <use xlink:href="#PretendardGOV-Regular-32"/>
       <use xlink:href="#PretendardGOV-Regular-31" x="57.617188"/>
       <use xlink:href="#PretendardGOV-Regular-37" x="115.234375"/>
      </g>
     </g>
    </g>
    <g id="xtick_18">
     <g id="line2d_18">
      <g>
       <use xlink:href="#m38f1a7547b" x="345.805797" y="239.669132" style="stroke: #000000; stroke-width: 0.8"/>
      </g>
     </g>
     <g id="text_18">
      <!-- 218 -->
      <g transform="translate(347.58314 258.770382) rotate(-90) scale(0.07 -0.07)">
       <use xlink:href="#PretendardGOV-Regular-32"/>
       <use xlink:href="#PretendardGOV-Regular-31" x="57.617188"/>
       <use xlink:href="#PretendardGOV-Regular-38" x="115.234375"/>
      </g>
     </g>
    </g>
    <g id="xtick_19">
     <g id="line2d_19">
      <g>
       <use xlink:href="#m38f1a7547b" x="359.957585" y="239.669132" style="stroke: #000000; stroke-width: 0.8"/>
      </g>
     </g>
     <g id="text_19">
      <!-- 219 -->
      <g transform="translate(361.734929 258.770382) rotate(-90) scale(0.07 -0.07)">
       <use xlink:href="#PretendardGOV-Regular-32"/>
       <use xlink:href="#PretendardGOV-Regular-31" x="57.617188"/>
       <use xlink:href="#PretendardGOV-Regular-39" x="115.234375"/>
      </g>
     </g>
    </g>
    <g id="xtick_20">
     <g id="line2d_20">
      <g>
       <use xlink:href="#m38f1a7547b" x="374.109373" y="239.669132" style="stroke: #000000; stroke-width: 0.8"/>
      </g>
     </g>
     <g id="text_20">
      <!-- 220 -->
      <g transform="translate(375.886717 258.770382) rotate(-90) scale(0.07 -0.07)">
       <use xlink:href="#PretendardGOV-Regular-32"/>
       <use xlink:href="#PretendardGOV-Regular-32" x="57.617188"/>
       <use xlink:href="#PretendardGOV-Regular-30" x="115.234375"/>
      </g>
     </g>
    </g>
    <g id="xtick_21">
     <g id="line2d_21">
      <g>
       <use xlink:href="#m38f1a7547b" x="388.261162" y="239.669132" style="stroke: #000000; stroke-width: 0.8"/>
      </g>
     </g>
     <g id="text_21">
      <!-- 221 -->
      <g transform="translate(390.038505 258.770382) rotate(-90) scale(0.07 -0.07)">
       <use xlink:href="#PretendardGOV-Regular-32"/>
       <use xlink:href="#PretendardGOV-Regular-32" x="57.617188"/>
       <use xlink:href="#PretendardGOV-Regular-31" x="115.234375"/>
      </g>
     </g>
    </g>
    <g id="xtick_22">
     <g id="line2d_22">
      <g>
       <use xlink:href="#m38f1a7547b" x="402.41295" y="239.669132" style="stroke: #000000; stroke-width: 0.8"/>
      </g>
     </g>
     <g id="text_22">
      <!-- 222 -->
      <g transform="translate(404.190294 258.770382) rotate(-90) scale(0.07 -0.07)">
       <use xlink:href="#PretendardGOV-Regular-32"/>
       <use xlink:href="#PretendardGOV-Regular-32" x="57.617188"/>
       <use xlink:href="#PretendardGOV-Regular-32" x="115.234375"/>
      </g>
     </g>
    </g>
    <g id="xtick_23">
     <g id="line2d_23">
      <g>
       <use xlink:href="#m38f1a7547b" x="416.564738" y="239.669132" style="stroke: #000000; stroke-width: 0.8"/>
      </g>
     </g>
     <g id="text_23">
      <!-- 223 -->
      <g transform="translate(418.342082 258.770382) rotate(-90) scale(0.07 -0.07)">
       <use xlink:href="#PretendardGOV-Regular-32"/>
       <use xlink:href="#PretendardGOV-Regular-32" x="57.617188"/>
       <use xlink:href="#PretendardGOV-Regular-33" x="115.234375"/>
      </g>
     </g>
    </g>
    <g id="xtick_24">
     <g id="line2d_24">
      <g>
       <use xlink:href="#m38f1a7547b" x="430.716527" y="239.669132" style="stroke: #000000; stroke-width: 0.8"/>
      </g>
     </g>
     <g id="text_24">
      <!-- 224 -->
      <g transform="translate(432.49387 258.770382) rotate(-90) scale(0.07 -0.07)">
       <use xlink:href="#PretendardGOV-Regular-32"/>
       <use xlink:href="#PretendardGOV-Regular-32" x="57.617188"/>
       <use xlink:href="#PretendardGOV-Regular-34" x="115.234375"/>
      </g>
     </g>
    </g>
    <g id="xtick_25">
     <g id="line2d_25">
      <g>
       <use xlink:href="#m38f1a7547b" x="444.868315" y="239.669132" style="stroke: #000000; stroke-width: 0.8"/>
      </g>
     </g>
     <g id="text_25">
      <!-- 225 -->
      <g transform="translate(446.645659 258.770382) rotate(-90) scale(0.07 -0.07)">
       <use xlink:href="#PretendardGOV-Regular-32"/>
       <use xlink:href="#PretendardGOV-Regular-32" x="57.617188"/>
       <use xlink:href="#PretendardGOV-Regular-35" x="115.234375"/>
      </g>
     </g>
    </g>
    <g id="xtick_26">
     <g id="line2d_26">
      <g>
       <use xlink:href="#m38f1a7547b" x="459.020103" y="239.669132" style="stroke: #000000; stroke-width: 0.8"/>
      </g>
     </g>
     <g id="text_26">
      <!-- 226 -->
      <g transform="translate(460.797447 258.770382) rotate(-90) scale(0.07 -0.07)">
       <use xlink:href="#PretendardGOV-Regular-32"/>
       <use xlink:href="#PretendardGOV-Regular-32" x="57.617188"/>
       <use xlink:href="#PretendardGOV-Regular-36" x="115.234375"/>
      </g>
     </g>
    </g>
    <g id="xtick_27">
     <g id="line2d_27">
      <g>
       <use xlink:href="#m38f1a7547b" x="473.171892" y="239.669132" style="stroke: #000000; stroke-width: 0.8"/>
      </g>
     </g>
     <g id="text_27">
      <!-- 227 -->
      <g transform="translate(474.949236 258.770382) rotate(-90) scale(0.07 -0.07)">
       <use xlink:href="#PretendardGOV-Regular-32"/>
       <use xlink:href="#PretendardGOV-Regular-32" x="57.617188"/>
       <use xlink:href="#PretendardGOV-Regular-37" x="115.234375"/>
      </g>
     </g>
    </g>
    <g id="xtick_28">
     <g id="line2d_28">
      <g>
       <use xlink:href="#m38f1a7547b" x="487.32368" y="239.669132" style="stroke: #000000; stroke-width: 0.8"/>
      </g>
     </g>
     <g id="text_28">
      <!-- 228 -->
      <g transform="translate(489.101024 258.770382) rotate(-90) scale(0.07 -0.07)">
       <use xlink:href="#PretendardGOV-Regular-32"/>
       <use xlink:href="#PretendardGOV-Regular-32" x="57.617188"/>
       <use xlink:href="#PretendardGOV-Regular-38" x="115.234375"/>
      </g>
     </g>
    </g>
    <g id="xtick_29">
     <g id="line2d_29">
      <g>
       <use xlink:href="#m38f1a7547b" x="501.475469" y="239.669132" style="stroke: #000000; stroke-width: 0.8"/>
      </g>
     </g>
     <g id="text_29">
      <!-- 229 -->
      <g transform="translate(503.252812 258.770382) rotate(-90) scale(0.07 -0.07)">
       <use xlink:href="#PretendardGOV-Regular-32"/>
       <use xlink:href="#PretendardGOV-Regular-32" x="57.617188"/>
       <use xlink:href="#PretendardGOV-Regular-39" x="115.234375"/>
      </g>
     </g>
    </g>
    <g id="xtick_30">
     <g id="line2d_30">
      <g>
       <use xlink:href="#m38f1a7547b" x="515.627257" y="239.669132" style="stroke: #000000; stroke-width: 0.8"/>
      </g>
     </g>
     <g id="text_30">
      <!-- 230 -->
      <g transform="translate(517.404601 258.770382) rotate(-90) scale(0.07 -0.07)">
       <use xlink:href="#PretendardGOV-Regular-32"/>
       <use xlink:href="#PretendardGOV-Regular-33" x="57.617188"/>
       <use xlink:href="#PretendardGOV-Regular-30" x="115.234375"/>
      </g>
     </g>
    </g>
    <g id="xtick_31">
     <g id="line2d_31">
      <g>
       <use xlink:href="#m38f1a7547b" x="529.779045" y="239.669132" style="stroke: #000000; stroke-width: 0.8"/>
      </g>
     </g>
     <g id="text_31">
      <!-- 231 -->
      <g transform="translate(531.556389 258.770382) rotate(-90) scale(0.07 -0.07)">
       <use xlink:href="#PretendardGOV-Regular-32"/>
       <use xlink:href="#PretendardGOV-Regular-33" x="57.617188"/>
       <use xlink:href="#PretendardGOV-Regular-31" x="115.234375"/>
      </g>
     </g>
    </g>
    <g id="xtick_32">
     <g id="line2d_32">
      <g>
       <use xlink:href="#m38f1a7547b" x="543.930834" y="239.669132" style="stroke: #000000; stroke-width: 0.8"/>
      </g>
     </g>
     <g id="text_32">
      <!-- 232 -->
      <g transform="translate(545.708177 258.770382) rotate(-90) scale(0.07 -0.07)">
       <use xlink:href="#PretendardGOV-Regular-32"/>
       <use xlink:href="#PretendardGOV-Regular-33" x="57.617188"/>
       <use xlink:href="#PretendardGOV-Regular-32" x="115.234375"/>
      </g>
     </g>
    </g>
    <g id="xtick_33">
     <g id="line2d_33">
      <g>
       <use xlink:href="#m38f1a7547b" x="558.082622" y="239.669132" style="stroke: #000000; stroke-width: 0.8"/>
      </g>
     </g>
     <g id="text_33">
      <!-- 233 -->
      <g transform="translate(559.859966 258.770382) rotate(-90) scale(0.07 -0.07)">
       <use xlink:href="#PretendardGOV-Regular-32"/>
       <use xlink:href="#PretendardGOV-Regular-33" x="57.617188"/>
       <use xlink:href="#PretendardGOV-Regular-33" x="115.234375"/>
      </g>
     </g>
    </g>
    <g id="xtick_34">
     <g id="line2d_34">
      <g>
       <use xlink:href="#m38f1a7547b" x="572.23441" y="239.669132" style="stroke: #000000; stroke-width: 0.8"/>
      </g>
     </g>
     <g id="text_34">
      <!-- 234 -->
      <g transform="translate(574.011754 258.770382) rotate(-90) scale(0.07 -0.07)">
       <use xlink:href="#PretendardGOV-Regular-32"/>
       <use xlink:href="#PretendardGOV-Regular-33" x="57.617188"/>
       <use xlink:href="#PretendardGOV-Regular-34" x="115.234375"/>
      </g>
     </g>
    </g>
    <g id="xtick_35">
     <g id="line2d_35">
      <g>
       <use xlink:href="#m38f1a7547b" x="586.386199" y="239.669132" style="stroke: #000000; stroke-width: 0.8"/>
      </g>
     </g>
     <g id="text_35">
      <!-- 235 -->
      <g transform="translate(588.163543 258.770382) rotate(-90) scale(0.07 -0.07)">
       <use xlink:href="#PretendardGOV-Regular-32"/>
       <use xlink:href="#PretendardGOV-Regular-33" x="57.617188"/>
       <use xlink:href="#PretendardGOV-Regular-35" x="115.234375"/>
      </g>
     </g>
    </g>
    <g id="xtick_36">
     <g id="line2d_36">
      <g>
       <use xlink:href="#m38f1a7547b" x="600.537987" y="239.669132" style="stroke: #000000; stroke-width: 0.8"/>
      </g>
     </g>
     <g id="text_36">
      <!-- 236 -->
      <g transform="translate(602.315331 258.770382) rotate(-90) scale(0.07 -0.07)">
       <use xlink:href="#PretendardGOV-Regular-32"/>
       <use xlink:href="#PretendardGOV-Regular-33" x="57.617188"/>
       <use xlink:href="#PretendardGOV-Regular-36" x="115.234375"/>
      </g>
     </g>
    </g>
    <g id="xtick_37">
     <g id="line2d_37">
      <g>
       <use xlink:href="#m38f1a7547b" x="614.689776" y="239.669132" style="stroke: #000000; stroke-width: 0.8"/>
      </g>
     </g>
     <g id="text_37">
      <!-- 237 -->
      <g transform="translate(616.467119 258.770382) rotate(-90) scale(0.07 -0.07)">
       <use xlink:href="#PretendardGOV-Regular-32"/>
       <use xlink:href="#PretendardGOV-Regular-33" x="57.617188"/>
       <use xlink:href="#PretendardGOV-Regular-37" x="115.234375"/>
      </g>
     </g>
    </g>
    <g id="xtick_38">
     <g id="line2d_38">
      <g>
       <use xlink:href="#m38f1a7547b" x="628.841564" y="239.669132" style="stroke: #000000; stroke-width: 0.8"/>
      </g>
     </g>
     <g id="text_38">
      <!-- 238 -->
      <g transform="translate(630.618908 258.770382) rotate(-90) scale(0.07 -0.07)">
       <use xlink:href="#PretendardGOV-Regular-32"/>
       <use xlink:href="#PretendardGOV-Regular-33" x="57.617188"/>
       <use xlink:href="#PretendardGOV-Regular-38" x="115.234375"/>
      </g>
     </g>
    </g>
    <g id="xtick_39">
     <g id="line2d_39">
      <g>
       <use xlink:href="#m38f1a7547b" x="642.993352" y="239.669132" style="stroke: #000000; stroke-width: 0.8"/>
      </g>
     </g>
     <g id="text_39">
      <!-- 239 -->
      <g transform="translate(644.770696 258.770382) rotate(-90) scale(0.07 -0.07)">
       <use xlink:href="#PretendardGOV-Regular-32"/>
       <use xlink:href="#PretendardGOV-Regular-33" x="57.617188"/>
       <use xlink:href="#PretendardGOV-Regular-39" x="115.234375"/>
      </g>
     </g>
    </g>
    <g id="xtick_40">
     <g id="line2d_40">
      <g>
       <use xlink:href="#m38f1a7547b" x="657.145141" y="239.669132" style="stroke: #000000; stroke-width: 0.8"/>
      </g>
     </g>
     <g id="text_40">
      <!-- 240 -->
      <g transform="translate(658.922484 258.770382) rotate(-90) scale(0.07 -0.07)">
       <use xlink:href="#PretendardGOV-Regular-32"/>
       <use xlink:href="#PretendardGOV-Regular-34" x="57.617188"/>
       <use xlink:href="#PretendardGOV-Regular-30" x="115.234375"/>
      </g>
     </g>
    </g>
    <g id="xtick_41">
     <g id="line2d_41">
      <g>
       <use xlink:href="#m38f1a7547b" x="671.296929" y="239.669132" style="stroke: #000000; stroke-width: 0.8"/>
      </g>
     </g>
     <g id="text_41">
      <!-- 241 -->
      <g transform="translate(673.074273 258.770382) rotate(-90) scale(0.07 -0.07)">
       <use xlink:href="#PretendardGOV-Regular-32"/>
       <use xlink:href="#PretendardGOV-Regular-34" x="57.617188"/>
       <use xlink:href="#PretendardGOV-Regular-31" x="115.234375"/>
      </g>
     </g>
    </g>
    <g id="xtick_42">
     <g id="line2d_42">
      <g>
       <use xlink:href="#m38f1a7547b" x="685.448717" y="239.669132" style="stroke: #000000; stroke-width: 0.8"/>
      </g>
     </g>
     <g id="text_42">
      <!-- 242 -->
      <g transform="translate(687.226061 258.770382) rotate(-90) scale(0.07 -0.07)">
       <use xlink:href="#PretendardGOV-Regular-32"/>
       <use xlink:href="#PretendardGOV-Regular-34" x="57.617188"/>
       <use xlink:href="#PretendardGOV-Regular-32" x="115.234375"/>
      </g>
     </g>
    </g>
    <g id="xtick_43">
     <g id="line2d_43">
      <g>
       <use xlink:href="#m38f1a7547b" x="699.600506" y="239.669132" style="stroke: #000000; stroke-width: 0.8"/>
      </g>
     </g>
     <g id="text_43">
      <!-- 243 -->
      <g transform="translate(701.37785 258.770382) rotate(-90) scale(0.07 -0.07)">
       <use xlink:href="#PretendardGOV-Regular-32"/>
       <use xlink:href="#PretendardGOV-Regular-34" x="57.617188"/>
       <use xlink:href="#PretendardGOV-Regular-33" x="115.234375"/>
      </g>
     </g>
    </g>
    <g id="text_44">
     <!-- scode -->
     <g transform="translate(392.835528 267.719601) scale(0.07 -0.07)">
      <defs>
       <path id="PretendardGOV-Regular-73" d="M 2319 2513 
Q 2259 2734 2089 2857 
Q 1919 2981 1631 2981 
Q 1425 2981 1261 2914 
Q 1097 2847 1005 2730 
Q 913 2613 913 2469 
Q 913 2300 1055 2181 
Q 1197 2063 1494 1994 
L 2000 1869 
Q 2456 1759 2681 1532 
Q 2906 1306 2906 950 
Q 2906 653 2748 423 
Q 2591 194 2291 62 
Q 1991 -69 1575 -69 
Q 1003 -69 668 176 
Q 334 422 269 888 
L 831 888 
Q 878 641 1059 520 
Q 1241 400 1563 400 
Q 1925 400 2137 540 
Q 2350 681 2350 919 
Q 2350 1100 2215 1220 
Q 2081 1341 1794 1406 
L 1281 1525 
Q 838 1628 606 1862 
Q 375 2097 375 2438 
Q 375 2725 533 2953 
Q 691 3181 977 3309 
Q 1263 3438 1631 3438 
Q 1975 3438 2237 3322 
Q 2500 3206 2654 2997 
Q 2809 2788 2844 2513 
L 2319 2513 
z
" transform="scale(0.015625)"/>
       <path id="PretendardGOV-Regular-63" d="M 1819 -69 
Q 1347 -69 995 154 
Q 644 378 456 775 
Q 269 1172 269 1681 
Q 269 2194 461 2592 
Q 653 2991 1001 3214 
Q 1350 3438 1806 3438 
Q 2166 3438 2456 3305 
Q 2747 3172 2930 2930 
Q 3113 2688 3156 2369 
L 2619 2369 
Q 2581 2531 2475 2665 
Q 2369 2800 2201 2881 
Q 2034 2963 1819 2963 
Q 1519 2963 1289 2806 
Q 1059 2650 932 2364 
Q 806 2078 806 1700 
Q 806 1309 929 1018 
Q 1053 728 1283 570 
Q 1513 413 1819 413 
Q 2122 413 2336 567 
Q 2550 722 2619 1000 
L 3156 1000 
Q 3113 694 2938 451 
Q 2763 209 2475 70 
Q 2188 -69 1819 -69 
z
" transform="scale(0.015625)"/>
       <path id="PretendardGOV-Regular-6f" d="M 1819 -69 
Q 1359 -69 1007 148 
Q 656 366 462 762 
Q 269 1159 269 1681 
Q 269 2203 462 2601 
Q 656 3000 1007 3219 
Q 1359 3438 1819 3438 
Q 2275 3438 2623 3219 
Q 2972 3000 3164 2601 
Q 3356 2203 3356 1681 
Q 3356 1159 3164 762 
Q 2972 366 2623 148 
Q 2275 -69 1819 -69 
z
M 1819 406 
Q 2147 406 2372 579 
Q 2597 753 2708 1042 
Q 2819 1331 2819 1681 
Q 2819 2031 2708 2322 
Q 2597 2613 2372 2788 
Q 2147 2963 1819 2963 
Q 1484 2963 1257 2788 
Q 1031 2613 918 2322 
Q 806 2031 806 1681 
Q 806 1331 918 1042 
Q 1031 753 1257 579 
Q 1484 406 1819 406 
z
" transform="scale(0.015625)"/>
       <path id="PretendardGOV-Regular-64" d="M 1713 -69 
Q 1291 -69 964 147 
Q 638 363 453 761 
Q 269 1159 269 1688 
Q 269 2216 453 2612 
Q 638 3009 966 3223 
Q 1294 3438 1719 3438 
Q 2019 3438 2216 3339 
Q 2413 3241 2506 3130 
Q 2600 3019 2700 2856 
L 2738 2856 
L 2738 4525 
L 3281 4525 
L 3281 0 
L 2756 0 
L 2756 519 
L 2700 519 
Q 2594 353 2498 240 
Q 2403 128 2206 29 
Q 2009 -69 1713 -69 
z
M 1788 413 
Q 2091 413 2309 573 
Q 2528 734 2642 1026 
Q 2756 1319 2756 1700 
Q 2756 2078 2645 2361 
Q 2534 2644 2315 2800 
Q 2097 2956 1788 2956 
Q 1472 2956 1253 2792 
Q 1034 2628 923 2343 
Q 813 2059 813 1700 
Q 813 1331 923 1039 
Q 1034 747 1254 580 
Q 1475 413 1788 413 
z
" transform="scale(0.015625)"/>
       <path id="PretendardGOV-Regular-65" d="M 1856 -69 
Q 1372 -69 1012 147 
Q 653 363 461 756 
Q 269 1150 269 1669 
Q 269 2188 461 2589 
Q 653 2991 1001 3214 
Q 1350 3438 1806 3438 
Q 2191 3438 2522 3267 
Q 2853 3097 3061 2717 
Q 3269 2338 3269 1744 
L 3269 1519 
L 806 1519 
Q 819 1166 953 916 
Q 1088 666 1320 536 
Q 1553 406 1856 406 
Q 2144 406 2342 514 
Q 2541 622 2644 794 
L 3219 794 
Q 3138 538 2948 342 
Q 2759 147 2479 39 
Q 2200 -69 1856 -69 
z
M 2725 1975 
Q 2725 2259 2611 2482 
Q 2497 2706 2287 2834 
Q 2078 2963 1806 2963 
Q 1522 2963 1301 2828 
Q 1081 2694 954 2467 
Q 828 2241 809 1975 
L 2725 1975 
z
" transform="scale(0.015625)"/>
      </defs>
      <use xlink:href="#PretendardGOV-Regular-73"/>
      <use xlink:href="#PretendardGOV-Regular-63" x="49.609375"/>
      <use xlink:href="#PretendardGOV-Regular-6f" x="102.539062"/>
      <use xlink:href="#PretendardGOV-Regular-64" x="159.277344"/>
      <use xlink:href="#PretendardGOV-Regular-65" x="218.359375"/>
     </g>
    </g>
   </g>
   <g id="matplotlib.axis_2">
    <g id="ytick_1">
     <g id="line2d_44">
      <defs>
       <path id="m876cf2dbec" d="M 0 0 
L -3.5 0 
" style="stroke: #000000; stroke-width: 0.8"/>
      </defs>
      <g>
       <use xlink:href="#m876cf2dbec" x="98.1495" y="239.669132" style="stroke: #000000; stroke-width: 0.8"/>
      </g>
     </g>
     <g id="text_45">
      <!-- 0 -->
      <g transform="translate(87.11575 242.143742) scale(0.07 -0.07)">
       <use xlink:href="#PretendardGOV-Regular-30"/>
      </g>
     </g>
    </g>
    <g id="ytick_2">
     <g id="line2d_45">
      <g>
       <use xlink:href="#m876cf2dbec" x="98.1495" y="205.643038" style="stroke: #000000; stroke-width: 0.8"/>
      </g>
     </g>
     <g id="text_46">
      <!-- 100000 -->
      <g transform="translate(66.947 208.117647) scale(0.07 -0.07)">
       <use xlink:href="#PretendardGOV-Regular-31"/>
       <use xlink:href="#PretendardGOV-Regular-30" x="57.617188"/>
       <use xlink:href="#PretendardGOV-Regular-30" x="115.234375"/>
       <use xlink:href="#PretendardGOV-Regular-30" x="172.851562"/>
       <use xlink:href="#PretendardGOV-Regular-30" x="230.46875"/>
       <use xlink:href="#PretendardGOV-Regular-30" x="288.085938"/>
      </g>
     </g>
    </g>
    <g id="ytick_3">
     <g id="line2d_46">
      <g>
       <use xlink:href="#m876cf2dbec" x="98.1495" y="171.616944" style="stroke: #000000; stroke-width: 0.8"/>
      </g>
     </g>
     <g id="text_47">
      <!-- 200000 -->
      <g transform="translate(66.947 174.091553) scale(0.07 -0.07)">
       <use xlink:href="#PretendardGOV-Regular-32"/>
       <use xlink:href="#PretendardGOV-Regular-30" x="57.617188"/>
       <use xlink:href="#PretendardGOV-Regular-30" x="115.234375"/>
       <use xlink:href="#PretendardGOV-Regular-30" x="172.851562"/>
       <use xlink:href="#PretendardGOV-Regular-30" x="230.46875"/>
       <use xlink:href="#PretendardGOV-Regular-30" x="288.085938"/>
      </g>
     </g>
    </g>
    <g id="ytick_4">
     <g id="line2d_47">
      <g>
       <use xlink:href="#m876cf2dbec" x="98.1495" y="137.590849" style="stroke: #000000; stroke-width: 0.8"/>
      </g>
     </g>
     <g id="text_48">
      <!-- 300000 -->
      <g transform="translate(66.947 140.065459) scale(0.07 -0.07)">
       <use xlink:href="#PretendardGOV-Regular-33"/>
       <use xlink:href="#PretendardGOV-Regular-30" x="57.617188"/>
       <use xlink:href="#PretendardGOV-Regular-30" x="115.234375"/>
       <use xlink:href="#PretendardGOV-Regular-30" x="172.851562"/>
       <use xlink:href="#PretendardGOV-Regular-30" x="230.46875"/>
       <use xlink:href="#PretendardGOV-Regular-30" x="288.085938"/>
      </g>
     </g>
    </g>
    <g id="ytick_5">
     <g id="line2d_48">
      <g>
       <use xlink:href="#m876cf2dbec" x="98.1495" y="103.564755" style="stroke: #000000; stroke-width: 0.8"/>
      </g>
     </g>
     <g id="text_49">
      <!-- 400000 -->
      <g transform="translate(66.947 106.039364) scale(0.07 -0.07)">
       <use xlink:href="#PretendardGOV-Regular-34"/>
       <use xlink:href="#PretendardGOV-Regular-30" x="57.617188"/>
       <use xlink:href="#PretendardGOV-Regular-30" x="115.234375"/>
       <use xlink:href="#PretendardGOV-Regular-30" x="172.851562"/>
       <use xlink:href="#PretendardGOV-Regular-30" x="230.46875"/>
       <use xlink:href="#PretendardGOV-Regular-30" x="288.085938"/>
      </g>
     </g>
    </g>
    <g id="ytick_6">
     <g id="line2d_49">
      <g>
       <use xlink:href="#m876cf2dbec" x="98.1495" y="69.53866" style="stroke: #000000; stroke-width: 0.8"/>
      </g>
     </g>
     <g id="text_50">
      <!-- 500000 -->
      <g transform="translate(66.947 72.01327) scale(0.07 -0.07)">
       <use xlink:href="#PretendardGOV-Regular-35"/>
       <use xlink:href="#PretendardGOV-Regular-30" x="57.617188"/>
       <use xlink:href="#PretendardGOV-Regular-30" x="115.234375"/>
       <use xlink:href="#PretendardGOV-Regular-30" x="172.851562"/>
       <use xlink:href="#PretendardGOV-Regular-30" x="230.46875"/>
       <use xlink:href="#PretendardGOV-Regular-30" x="288.085938"/>
      </g>
     </g>
    </g>
    <g id="ytick_7">
     <g id="line2d_50">
      <g>
       <use xlink:href="#m876cf2dbec" x="98.1495" y="35.512566" style="stroke: #000000; stroke-width: 0.8"/>
      </g>
     </g>
     <g id="text_51">
      <!-- 600000 -->
      <g transform="translate(66.947 37.987175) scale(0.07 -0.07)">
       <use xlink:href="#PretendardGOV-Regular-36"/>
       <use xlink:href="#PretendardGOV-Regular-30" x="57.617188"/>
       <use xlink:href="#PretendardGOV-Regular-30" x="115.234375"/>
       <use xlink:href="#PretendardGOV-Regular-30" x="172.851562"/>
       <use xlink:href="#PretendardGOV-Regular-30" x="230.46875"/>
       <use xlink:href="#PretendardGOV-Regular-30" x="288.085938"/>
      </g>
     </g>
    </g>
   </g>
   <g id="patch_132">
    <path d="M 98.1495 239.669132 
L 98.1495 32.314939 
" style="fill: none; stroke: #000000; stroke-width: 0.8; stroke-linejoin: miter; stroke-linecap: square"/>
   </g>
   <g id="patch_133">
    <path d="M 706.6764 239.669132 
L 706.6764 32.314939 
" style="fill: none; stroke: #000000; stroke-width: 0.8; stroke-linejoin: miter; stroke-linecap: square"/>
   </g>
   <g id="patch_134">
    <path d="M 98.1495 239.669132 
L 706.6764 239.669132 
" style="fill: none; stroke: #000000; stroke-width: 0.8; stroke-linejoin: miter; stroke-linecap: square"/>
   </g>
   <g id="patch_135">
    <path d="M 98.1495 32.314939 
L 706.6764 32.314939 
" style="fill: none; stroke: #000000; stroke-width: 0.8; stroke-linejoin: miter; stroke-linecap: square"/>
   </g>
   <g id="legend_1">
    <g id="patch_136">
     <path d="M 655.178275 67.446189 
L 701.7764 67.446189 
Q 703.1764 67.446189 703.1764 66.046189 
L 703.1764 37.214939 
Q 703.1764 35.814939 701.7764 35.814939 
L 655.178275 35.814939 
Q 653.778275 35.814939 653.778275 37.214939 
L 653.778275 66.046189 
Q 653.778275 67.446189 655.178275 67.446189 
z
" style="fill: #ffffff; opacity: 0.8; stroke: #cccccc; stroke-linejoin: miter"/>
    </g>
    <g id="patch_137">
     <path d="M 656.578275 43.564158 
L 670.578275 43.564158 
L 670.578275 38.664158 
L 656.578275 38.664158 
z
" style="fill: #1f77b4"/>
    </g>
    <g id="text_52">
     <!--  -->
     <g transform="translate(676.178275 43.564158) scale(0.07 -0.07)">
      <defs>
       <path id="PretendardGOV-Regular-c9c1" d="M 2225 4019 
Q 2225 3650 2406 3309 
Q 2588 2969 2913 2711 
Q 3238 2453 3650 2319 
L 3400 1938 
Q 2913 2103 2544 2433 
Q 2175 2763 1988 3203 
Q 1806 2731 1431 2372 
Q 1056 2013 563 1831 
L 306 2213 
Q 719 2359 1044 2636 
Q 1369 2913 1550 3272 
Q 1731 3631 1731 4019 
L 1731 4256 
L 431 4256 
L 431 4656 
L 3506 4656 
L 3506 4256 
L 2225 4256 
L 2225 4019 
z
M 4813 1688 
L 4325 1688 
L 4325 5050 
L 4813 5050 
L 4813 1688 
z
M 4813 -506 
L 4325 -506 
L 4325 988 
L 1075 988 
L 1075 1394 
L 4813 1394 
L 4813 -506 
z
" transform="scale(0.015625)"/>
       <path id="PretendardGOV-Regular-c7a5" d="M 2106 3994 
Q 2106 3634 2276 3307 
Q 2447 2981 2755 2732 
Q 3063 2484 3469 2350 
L 3238 1963 
Q 2763 2119 2408 2434 
Q 2053 2750 1872 3175 
Q 1694 2697 1325 2339 
Q 956 1981 456 1800 
L 206 2194 
Q 619 2334 941 2606 
Q 1263 2878 1442 3239 
Q 1622 3600 1625 3994 
L 1625 4231 
L 356 4231 
L 356 4638 
L 3356 4638 
L 3356 4231 
L 2106 4231 
L 2106 3994 
z
M 4569 3631 
L 5406 3631 
L 5406 3219 
L 4569 3219 
L 4569 1694 
L 4081 1694 
L 4081 5050 
L 4569 5050 
L 4569 3631 
z
M 2788 1544 
Q 3356 1544 3768 1423 
Q 4181 1303 4400 1075 
Q 4619 847 4619 531 
Q 4619 209 4400 -22 
Q 4181 -253 3768 -373 
Q 3356 -494 2788 -494 
Q 2219 -494 1803 -373 
Q 1388 -253 1166 -22 
Q 944 209 944 531 
Q 944 847 1166 1075 
Q 1388 1303 1803 1423 
Q 2219 1544 2788 1544 
z
M 2788 1150 
Q 2372 1150 2065 1076 
Q 1759 1003 1596 862 
Q 1434 722 1438 531 
Q 1434 334 1596 192 
Q 1759 50 2064 -25 
Q 2369 -100 2788 -100 
Q 3209 -100 3514 -25 
Q 3819 50 3981 192 
Q 4144 334 4144 531 
Q 4144 725 3981 864 
Q 3819 1003 3512 1076 
Q 3206 1150 2788 1150 
z
" transform="scale(0.015625)"/>
       <path id="PretendardGOV-Regular-c778" d="M 4813 981 
L 4325 981 
L 4325 5044 
L 4813 5044 
L 4813 981 
z
M 4988 -388 
L 1225 -388 
L 1225 1394 
L 1713 1394 
L 1713 25 
L 4988 25 
L 4988 -388 
z
M 1813 4656 
Q 2225 4656 2558 4482 
Q 2891 4309 3080 3998 
Q 3269 3688 3269 3294 
Q 3269 2894 3080 2583 
Q 2891 2272 2558 2098 
Q 2225 1925 1813 1925 
Q 1400 1925 1067 2098 
Q 734 2272 545 2583 
Q 356 2894 356 3294 
Q 356 3688 545 3998 
Q 734 4309 1067 4482 
Q 1400 4656 1813 4656 
z
M 1813 4225 
Q 1534 4225 1311 4106 
Q 1088 3988 961 3775 
Q 834 3563 838 3294 
Q 834 3022 961 2808 
Q 1088 2594 1311 2475 
Q 1534 2356 1813 2356 
Q 2084 2356 2307 2475 
Q 2531 2594 2659 2808 
Q 2788 3022 2788 3294 
Q 2788 3559 2659 3771 
Q 2531 3984 2307 4104 
Q 2084 4225 1813 4225 
z
" transform="scale(0.015625)"/>
       <path id="PretendardGOV-Regular-ad6c" d="M 4619 4200 
Q 4619 3663 4592 3247 
Q 4566 2831 4459 2300 
L 5288 2300 
L 5288 1894 
L 2994 1894 
L 2994 -519 
L 2500 -519 
L 2500 1894 
L 225 1894 
L 225 2300 
L 3963 2300 
Q 4075 2831 4103 3250 
Q 4131 3669 4131 4200 
L 4131 4281 
L 863 4281 
L 863 4688 
L 4619 4688 
L 4619 4200 
z
" transform="scale(0.015625)"/>
      </defs>
      <use xlink:href="#PretendardGOV-Regular-c9c1"/>
      <use xlink:href="#PretendardGOV-Regular-c7a5" x="86.425781"/>
      <use xlink:href="#PretendardGOV-Regular-c778" x="172.851562"/>
      <use xlink:href="#PretendardGOV-Regular-ad6c" x="259.277344"/>
     </g>
    </g>
    <g id="patch_138">
     <path d="M 656.578275 53.407908 
L 670.578275 53.407908 
L 670.578275 48.507908 
L 656.578275 48.507908 
z
" style="fill: #ff7f0e"/>
    </g>
    <g id="text_53">
     <!--  -->
     <g transform="translate(676.178275 53.407908) scale(0.07 -0.07)">
      <defs>
       <path id="PretendardGOV-Regular-c8fc" d="M 3031 4263 
Q 3028 3906 3309 3582 
Q 3591 3259 4044 3037 
Q 4497 2816 4988 2744 
L 4806 2356 
Q 4366 2431 3958 2606 
Q 3550 2781 3234 3045 
Q 2919 3309 2756 3634 
Q 2594 3309 2278 3046 
Q 1963 2784 1558 2607 
Q 1153 2431 719 2356 
L 525 2744 
Q 1013 2816 1466 3037 
Q 1919 3259 2200 3582 
Q 2481 3906 2481 4263 
L 2481 4300 
L 700 4300 
L 700 4700 
L 4806 4700 
L 4806 4300 
L 3031 4300 
L 3031 4263 
z
M 5288 1475 
L 2988 1475 
L 2988 -506 
L 2506 -506 
L 2506 1475 
L 225 1475 
L 225 1881 
L 5288 1881 
L 5288 1475 
z
" transform="scale(0.015625)"/>
       <path id="PretendardGOV-Regular-ac70" d="M 4825 -506 
L 4338 -506 
L 4338 2406 
L 3013 2406 
L 3013 2813 
L 4338 2813 
L 4338 5050 
L 4825 5050 
L 4825 -506 
z
M 3025 4444 
Q 3025 1800 500 550 
L 231 944 
Q 2378 1981 2531 4044 
L 475 4044 
L 475 4444 
L 3025 4444 
z
" transform="scale(0.015625)"/>
      </defs>
      <use xlink:href="#PretendardGOV-Regular-c8fc"/>
      <use xlink:href="#PretendardGOV-Regular-ac70" x="86.425781"/>
      <use xlink:href="#PretendardGOV-Regular-c778" x="172.851562"/>
      <use xlink:href="#PretendardGOV-Regular-ad6c" x="259.277344"/>
     </g>
    </g>
    <g id="patch_139">
     <path d="M 656.578275 63.251658 
L 670.578275 63.251658 
L 670.578275 58.351658 
L 656.578275 58.351658 
z
" style="fill: #2ca02c"/>
    </g>
    <g id="text_54">
     <!--  -->
     <g transform="translate(676.178275 63.251658) scale(0.07 -0.07)">
      <defs>
       <path id="PretendardGOV-Regular-c720" d="M 5306 1475 
L 3963 1475 
L 3963 -506 
L 3469 -506 
L 3469 1475 
L 2044 1475 
L 2044 -506 
L 1538 -506 
L 1538 1475 
L 219 1475 
L 219 1881 
L 5306 1881 
L 5306 1475 
z
M 2750 4825 
Q 3331 4825 3775 4676 
Q 4219 4528 4462 4253 
Q 4706 3978 4706 3613 
Q 4706 3247 4461 2975 
Q 4216 2703 3773 2556 
Q 3331 2409 2750 2413 
Q 2169 2409 1726 2556 
Q 1284 2703 1039 2975 
Q 794 3247 794 3613 
Q 794 3978 1037 4253 
Q 1281 4528 1725 4676 
Q 2169 4825 2750 4825 
z
M 2750 4425 
Q 2319 4425 1989 4325 
Q 1659 4225 1478 4040 
Q 1297 3856 1300 3613 
Q 1297 3369 1478 3186 
Q 1659 3003 1989 2904 
Q 2319 2806 2750 2806 
Q 3178 2806 3509 2904 
Q 3841 3003 4023 3186 
Q 4206 3369 4206 3613 
Q 4206 3856 4023 4040 
Q 3841 4225 3509 4325 
Q 3178 4425 2750 4425 
z
" transform="scale(0.015625)"/>
       <path id="PretendardGOV-Regular-b3d9" d="M 5294 1906 
L 225 1906 
L 225 2300 
L 2519 2300 
L 2519 2950 
L 869 2950 
L 869 4788 
L 4663 4788 
L 4663 4394 
L 1350 4394 
L 1350 3350 
L 4700 3350 
L 4700 2950 
L 2994 2950 
L 2994 2300 
L 5294 2300 
L 5294 1906 
z
M 2756 1500 
Q 3350 1500 3779 1383 
Q 4209 1266 4437 1041 
Q 4666 816 4669 500 
Q 4666 181 4437 -44 
Q 4209 -269 3781 -386 
Q 3353 -503 2756 -506 
Q 2156 -503 1725 -386 
Q 1294 -269 1066 -44 
Q 838 181 838 500 
Q 838 816 1066 1041 
Q 1294 1266 1725 1383 
Q 2156 1500 2756 1500 
z
M 2756 1113 
Q 2313 1113 1992 1039 
Q 1672 966 1503 828 
Q 1334 691 1338 500 
Q 1334 306 1503 168 
Q 1672 31 1992 -41 
Q 2313 -113 2756 -113 
Q 3197 -113 3515 -41 
Q 3834 31 4004 170 
Q 4175 309 4175 500 
Q 4175 691 4004 828 
Q 3834 966 3514 1039 
Q 3194 1113 2756 1113 
z
" transform="scale(0.015625)"/>
      </defs>
      <use xlink:href="#PretendardGOV-Regular-c720"/>
      <use xlink:href="#PretendardGOV-Regular-b3d9" x="86.425781"/>
      <use xlink:href="#PretendardGOV-Regular-c778" x="172.851562"/>
      <use xlink:href="#PretendardGOV-Regular-ad6c" x="259.277344"/>
     </g>
    </g>
   </g>
  </g>
 </g>
 <defs>
  <clipPath id="pa392723652">
   <rect x="98.1495" y="32.314939" width="608.5269" height="207.354193"/>
  </clipPath>
 </defs>
</svg>
