<?xml version="1.0" encoding="utf-8" standalone="no"?>
<!DOCTYPE svg PUBLIC "-//W3C//DTD SVG 1.1//EN"
  "http://www.w3.org/Graphics/SVG/1.1/DTD/svg11.dtd">
<svg xmlns:xlink="http://www.w3.org/1999/xlink" width="460.8pt" height="345.6pt" viewBox="0 0 460.8 345.6" xmlns="http://www.w3.org/2000/svg" version="1.1">
 <metadata>
  <rdf:RDF xmlns:dc="http://purl.org/dc/elements/1.1/" xmlns:cc="http://creativecommons.org/ns#" xmlns:rdf="http://www.w3.org/1999/02/22-rdf-syntax-ns#">
   <cc:Work>
    <dc:type rdf:resource="http://purl.org/dc/dcmitype/StillImage"/>
    <dc:date>2024-06-14T23:04:18.404681</dc:date>
    <dc:format>image/svg+xml</dc:format>
    <dc:creator>
     <cc:Agent>
      <dc:title>Matplotlib v3.8.4, https://matplotlib.org/</dc:title>
     </cc:Agent>
    </dc:creator>
   </cc:Work>
  </rdf:RDF>
 </metadata>
 <defs>
  <style type="text/css">*{stroke-linejoin: round; stroke-linecap: butt}</style>
 </defs>
 <g id="figure_1">
  <g id="patch_1">
   <path d="M 0 345.6 
L 460.8 345.6 
L 460.8 0 
L 0 0 
z
" style="fill: #ffffff"/>
  </g>
  <g id="axes_1">
   <g id="patch_2">
    <path d="M 57.6 307.584 
L 414.72 307.584 
L 414.72 41.472 
L 57.6 41.472 
z
" style="fill: #ffffff"/>
   </g>
   <g id="patch_3">
    <path d="M 75.456 307.584 
L 111.168 307.584 
L 111.168 249.386667 
L 75.456 249.386667 
z
" clip-path="url(#p4048beafbb)" style="fill: #1f77b4"/>
   </g>
   <g id="patch_4">
    <path d="M 146.88 307.584 
L 182.592 307.584 
L 182.592 245.397333 
L 146.88 245.397333 
z
" clip-path="url(#p4048beafbb)" style="fill: #1f77b4"/>
   </g>
   <g id="patch_5">
    <path d="M 218.304 307.584 
L 254.016 307.584 
L 254.016 242.581333 
L 218.304 242.581333 
z
" clip-path="url(#p4048beafbb)" style="fill: #1f77b4"/>
   </g>
   <g id="patch_6">
    <path d="M 289.728 307.584 
L 325.44 307.584 
L 325.44 239.765333 
L 289.728 239.765333 
z
" clip-path="url(#p4048beafbb)" style="fill: #1f77b4"/>
   </g>
   <g id="patch_7">
    <path d="M 361.152 307.584 
L 396.864 307.584 
L 396.864 238.826667 
L 361.152 238.826667 
z
" clip-path="url(#p4048beafbb)" style="fill: #1f77b4"/>
   </g>
   <g id="matplotlib.axis_1">
    <g id="xtick_1">
     <g id="line2d_1">
      <defs>
       <path id="m664ca542d0" d="M 0 0 
L 0 3.5 
" style="stroke: #000000; stroke-width: 0.8"/>
      </defs>
      <g>
       <use xlink:href="#m664ca542d0" x="93.312" y="307.584" style="stroke: #000000; stroke-width: 0.8"/>
      </g>
     </g>
     <g id="text_1">
      <!-- 1등급 -->
      <g transform="translate(95.851063 337.630875) rotate(-90) scale(0.1 -0.1)">
       <defs>
        <path id="PretendardGOV-Regular-31" d="M 2163 456 
L 3144 456 
L 3144 0 
L 569 0 
L 569 456 
L 1600 456 
L 1600 3938 
L 1575 3938 
L 569 3269 
L 569 3844 
L 1600 4525 
L 2163 4525 
L 2163 456 
z
" transform="scale(0.015625)"/>
        <path id="PretendardGOV-Regular-b4f1" d="M 5294 1994 
L 225 1994 
L 225 2406 
L 5294 2406 
L 5294 1994 
z
M 4700 2938 
L 869 2938 
L 869 4825 
L 4663 4825 
L 4663 4413 
L 1350 4413 
L 1350 3338 
L 4700 3338 
L 4700 2938 
z
M 2756 1506 
Q 3350 1506 3779 1389 
Q 4209 1272 4437 1047 
Q 4666 822 4669 506 
Q 4666 188 4437 -37 
Q 4209 -263 3781 -378 
Q 3353 -494 2756 -494 
Q 2156 -494 1725 -378 
Q 1294 -263 1066 -37 
Q 838 188 838 506 
Q 838 822 1066 1047 
Q 1294 1272 1725 1389 
Q 2156 1506 2756 1506 
z
M 2756 1125 
Q 2309 1122 1990 1048 
Q 1672 975 1503 836 
Q 1334 697 1338 506 
Q 1334 213 1707 53 
Q 2081 -106 2756 -106 
Q 3422 -106 3798 53 
Q 4175 213 4175 506 
Q 4175 697 4004 836 
Q 3834 975 3515 1048 
Q 3197 1122 2756 1125 
z
" transform="scale(0.015625)"/>
        <path id="PretendardGOV-Regular-ae09" d="M 1375 1131 
L 4156 1131 
L 4156 1869 
L 4644 1869 
L 4644 -431 
L 888 -431 
L 888 1869 
L 1375 1869 
L 1375 1131 
z
M 4156 -31 
L 4156 744 
L 1375 744 
L 1375 -31 
L 4156 -31 
z
M 4644 4388 
Q 4644 3947 4617 3590 
Q 4591 3234 4491 2775 
L 5313 2775 
L 5313 2369 
L 225 2369 
L 225 2775 
L 4009 2775 
Q 4106 3231 4131 3587 
Q 4156 3944 4156 4388 
L 869 4388 
L 869 4794 
L 4644 4794 
L 4644 4388 
z
" transform="scale(0.015625)"/>
       </defs>
       <use xlink:href="#PretendardGOV-Regular-31"/>
       <use xlink:href="#PretendardGOV-Regular-b4f1" x="57.617188"/>
       <use xlink:href="#PretendardGOV-Regular-ae09" x="144.042969"/>
      </g>
     </g>
    </g>
    <g id="xtick_2">
     <g id="line2d_2">
      <g>
       <use xlink:href="#m664ca542d0" x="164.736" y="307.584" style="stroke: #000000; stroke-width: 0.8"/>
      </g>
     </g>
     <g id="text_2">
      <!-- ~ 2등급 -->
      <g transform="translate(167.275063 346.274625) rotate(-90) scale(0.1 -0.1)">
       <defs>
        <path id="PretendardGOV-Regular-7e" d="M 444 2331 
Q 594 2503 778 2592 
Q 963 2681 1169 2681 
Q 1325 2681 1475 2636 
Q 1625 2591 1863 2500 
Q 2094 2409 2237 2367 
Q 2381 2325 2531 2325 
Q 2744 2325 2923 2423 
Q 3103 2522 3244 2713 
L 3244 2194 
Q 2931 1844 2513 1844 
Q 2353 1844 2195 1891 
Q 2038 1938 1825 2025 
Q 1600 2113 1450 2156 
Q 1300 2200 1150 2200 
Q 944 2200 764 2101 
Q 584 2003 444 1813 
L 444 2331 
z
" transform="scale(0.015625)"/>
        <path id="PretendardGOV-Regular-20" transform="scale(0.015625)"/>
        <path id="PretendardGOV-Regular-32" d="M 481 406 
L 1956 2038 
Q 2238 2350 2391 2550 
Q 2544 2750 2623 2937 
Q 2703 3125 2706 3331 
Q 2703 3559 2592 3734 
Q 2481 3909 2290 4004 
Q 2100 4100 1863 4100 
Q 1613 4100 1427 3995 
Q 1241 3891 1139 3697 
Q 1038 3503 1038 3250 
L 500 3250 
Q 500 3641 679 3945 
Q 859 4250 1175 4419 
Q 1491 4588 1881 4588 
Q 2266 4588 2573 4420 
Q 2881 4253 3054 3965 
Q 3228 3678 3231 3331 
Q 3228 3075 3139 2840 
Q 3050 2606 2839 2317 
Q 2628 2028 2238 1606 
L 1250 538 
L 1250 500 
L 3306 500 
L 3306 0 
L 481 0 
L 481 406 
z
" transform="scale(0.015625)"/>
       </defs>
       <use xlink:href="#PretendardGOV-Regular-7e"/>
       <use xlink:href="#PretendardGOV-Regular-20" x="57.617188"/>
       <use xlink:href="#PretendardGOV-Regular-32" x="86.425781"/>
       <use xlink:href="#PretendardGOV-Regular-b4f1" x="144.042969"/>
       <use xlink:href="#PretendardGOV-Regular-ae09" x="230.46875"/>
      </g>
     </g>
    </g>
    <g id="xtick_3">
     <g id="line2d_3">
      <g>
       <use xlink:href="#m664ca542d0" x="236.16" y="307.584" style="stroke: #000000; stroke-width: 0.8"/>
      </g>
     </g>
     <g id="text_3">
      <!-- ~ 3등급 -->
      <g transform="translate(238.699063 346.274625) rotate(-90) scale(0.1 -0.1)">
       <defs>
        <path id="PretendardGOV-Regular-33" d="M 900 1144 
Q 922 922 1048 762 
Q 1175 603 1381 520 
Q 1588 438 1844 438 
Q 2119 438 2336 534 
Q 2553 631 2678 823 
Q 2803 1016 2800 1288 
Q 2803 1547 2689 1755 
Q 2575 1963 2325 2088 
Q 2075 2213 1688 2213 
L 1319 2213 
L 1319 2656 
L 2425 3988 
L 2425 4025 
L 544 4025 
L 544 4525 
L 3181 4525 
L 3181 4119 
L 2000 2681 
L 2000 2644 
Q 2384 2622 2693 2439 
Q 3003 2256 3179 1953 
Q 3356 1650 3356 1281 
Q 3356 897 3161 590 
Q 2966 284 2619 110 
Q 2272 -63 1831 -63 
Q 1428 -63 1093 82 
Q 759 228 554 501 
Q 350 775 325 1144 
L 900 1144 
z
" transform="scale(0.015625)"/>
       </defs>
       <use xlink:href="#PretendardGOV-Regular-7e"/>
       <use xlink:href="#PretendardGOV-Regular-20" x="57.617188"/>
       <use xlink:href="#PretendardGOV-Regular-33" x="86.425781"/>
       <use xlink:href="#PretendardGOV-Regular-b4f1" x="144.042969"/>
       <use xlink:href="#PretendardGOV-Regular-ae09" x="230.46875"/>
      </g>
     </g>
    </g>
    <g id="xtick_4">
     <g id="line2d_4">
      <g>
       <use xlink:href="#m664ca542d0" x="307.584" y="307.584" style="stroke: #000000; stroke-width: 0.8"/>
      </g>
     </g>
     <g id="text_4">
      <!-- ~ 4등급 -->
      <g transform="translate(310.123063 346.274625) rotate(-90) scale(0.1 -0.1)">
       <defs>
        <path id="PretendardGOV-Regular-34" d="M 231 1388 
L 1994 4525 
L 2550 4525 
L 825 1456 
L 825 1419 
L 2313 1419 
L 2313 2831 
L 2844 2831 
L 2844 1419 
L 3450 1419 
L 3450 925 
L 2844 925 
L 2844 0 
L 2313 0 
L 2313 925 
L 231 925 
L 231 1388 
z
" transform="scale(0.015625)"/>
       </defs>
       <use xlink:href="#PretendardGOV-Regular-7e"/>
       <use xlink:href="#PretendardGOV-Regular-20" x="57.617188"/>
       <use xlink:href="#PretendardGOV-Regular-34" x="86.425781"/>
       <use xlink:href="#PretendardGOV-Regular-b4f1" x="144.042969"/>
       <use xlink:href="#PretendardGOV-Regular-ae09" x="230.46875"/>
      </g>
     </g>
    </g>
    <g id="xtick_5">
     <g id="line2d_5">
      <g>
       <use xlink:href="#m664ca542d0" x="379.008" y="307.584" style="stroke: #000000; stroke-width: 0.8"/>
      </g>
     </g>
     <g id="text_5">
      <!-- ~ 5등급 -->
      <g transform="translate(381.547063 346.274625) rotate(-90) scale(0.1 -0.1)">
       <defs>
        <path id="PretendardGOV-Regular-35" d="M 1888 -63 
Q 1500 -63 1183 92 
Q 866 247 677 520 
Q 488 794 469 1138 
L 1025 1138 
Q 1041 938 1158 777 
Q 1275 616 1467 523 
Q 1659 431 1888 431 
Q 2159 431 2373 561 
Q 2588 691 2709 919 
Q 2831 1147 2831 1431 
Q 2831 1725 2704 1956 
Q 2578 2188 2354 2320 
Q 2131 2453 1850 2456 
Q 1572 2463 1373 2366 
Q 1175 2269 1063 2050 
L 513 2050 
L 813 4525 
L 3175 4525 
L 3175 4025 
L 1294 4025 
L 1138 2700 
L 1188 2700 
Q 1309 2816 1514 2889 
Q 1719 2963 1944 2963 
Q 2350 2963 2678 2766 
Q 3006 2569 3193 2222 
Q 3381 1875 3381 1444 
Q 3381 1016 3187 672 
Q 2994 328 2653 132 
Q 2313 -63 1888 -63 
z
" transform="scale(0.015625)"/>
       </defs>
       <use xlink:href="#PretendardGOV-Regular-7e"/>
       <use xlink:href="#PretendardGOV-Regular-20" x="57.617188"/>
       <use xlink:href="#PretendardGOV-Regular-35" x="86.425781"/>
       <use xlink:href="#PretendardGOV-Regular-b4f1" x="144.042969"/>
       <use xlink:href="#PretendardGOV-Regular-ae09" x="230.46875"/>
      </g>
     </g>
    </g>
   </g>
   <g id="matplotlib.axis_2">
    <g id="ytick_1">
     <g id="line2d_6">
      <defs>
       <path id="m787ee645ba" d="M 0 0 
L -3.5 0 
" style="stroke: #000000; stroke-width: 0.8"/>
      </defs>
      <g>
       <use xlink:href="#m787ee645ba" x="57.6" y="307.584" style="stroke: #000000; stroke-width: 0.8"/>
      </g>
     </g>
     <g id="text_6">
      <!-- 0 -->
      <g transform="translate(44.8375 311.119156) scale(0.1 -0.1)">
       <defs>
        <path id="PretendardGOV-Regular-30" d="M 1844 -63 
Q 1359 -63 1018 187 
Q 678 438 501 920 
Q 325 1403 325 2088 
L 325 2438 
Q 325 3125 501 3606 
Q 678 4088 1018 4338 
Q 1359 4588 1844 4588 
Q 2325 4588 2664 4338 
Q 3003 4088 3179 3606 
Q 3356 3125 3356 2438 
L 3356 2088 
Q 3356 1403 3179 920 
Q 3003 438 2664 187 
Q 2325 -63 1844 -63 
z
M 1844 431 
Q 2813 431 2813 2081 
L 2813 2438 
Q 2813 4094 1844 4094 
Q 1356 4094 1115 3681 
Q 875 3269 875 2438 
L 875 2081 
Q 875 1256 1115 843 
Q 1356 431 1844 431 
z
" transform="scale(0.015625)"/>
       </defs>
       <use xlink:href="#PretendardGOV-Regular-30"/>
      </g>
     </g>
    </g>
    <g id="ytick_2">
     <g id="line2d_7">
      <g>
       <use xlink:href="#m787ee645ba" x="57.6" y="260.650667" style="stroke: #000000; stroke-width: 0.8"/>
      </g>
     </g>
     <g id="text_7">
      <!-- 1000 -->
      <g transform="translate(27.55 264.185823) scale(0.1 -0.1)">
       <use xlink:href="#PretendardGOV-Regular-31"/>
       <use xlink:href="#PretendardGOV-Regular-30" x="57.617188"/>
       <use xlink:href="#PretendardGOV-Regular-30" x="115.234375"/>
       <use xlink:href="#PretendardGOV-Regular-30" x="172.851562"/>
      </g>
     </g>
    </g>
    <g id="ytick_3">
     <g id="line2d_8">
      <g>
       <use xlink:href="#m787ee645ba" x="57.6" y="213.717333" style="stroke: #000000; stroke-width: 0.8"/>
      </g>
     </g>
     <g id="text_8">
      <!-- 2000 -->
      <g transform="translate(27.55 217.25249) scale(0.1 -0.1)">
       <use xlink:href="#PretendardGOV-Regular-32"/>
       <use xlink:href="#PretendardGOV-Regular-30" x="57.617188"/>
       <use xlink:href="#PretendardGOV-Regular-30" x="115.234375"/>
       <use xlink:href="#PretendardGOV-Regular-30" x="172.851562"/>
      </g>
     </g>
    </g>
    <g id="ytick_4">
     <g id="line2d_9">
      <g>
       <use xlink:href="#m787ee645ba" x="57.6" y="166.784" style="stroke: #000000; stroke-width: 0.8"/>
      </g>
     </g>
     <g id="text_9">
      <!-- 3000 -->
      <g transform="translate(27.55 170.319156) scale(0.1 -0.1)">
       <use xlink:href="#PretendardGOV-Regular-33"/>
       <use xlink:href="#PretendardGOV-Regular-30" x="57.617188"/>
       <use xlink:href="#PretendardGOV-Regular-30" x="115.234375"/>
       <use xlink:href="#PretendardGOV-Regular-30" x="172.851562"/>
      </g>
     </g>
    </g>
    <g id="ytick_5">
     <g id="line2d_10">
      <g>
       <use xlink:href="#m787ee645ba" x="57.6" y="119.850667" style="stroke: #000000; stroke-width: 0.8"/>
      </g>
     </g>
     <g id="text_10">
      <!-- 4000 -->
      <g transform="translate(27.55 123.385823) scale(0.1 -0.1)">
       <use xlink:href="#PretendardGOV-Regular-34"/>
       <use xlink:href="#PretendardGOV-Regular-30" x="57.617188"/>
       <use xlink:href="#PretendardGOV-Regular-30" x="115.234375"/>
       <use xlink:href="#PretendardGOV-Regular-30" x="172.851562"/>
      </g>
     </g>
    </g>
    <g id="ytick_6">
     <g id="line2d_11">
      <g>
       <use xlink:href="#m787ee645ba" x="57.6" y="72.917333" style="stroke: #000000; stroke-width: 0.8"/>
      </g>
     </g>
     <g id="text_11">
      <!-- 5000 -->
      <g transform="translate(27.55 76.45249) scale(0.1 -0.1)">
       <use xlink:href="#PretendardGOV-Regular-35"/>
       <use xlink:href="#PretendardGOV-Regular-30" x="57.617188"/>
       <use xlink:href="#PretendardGOV-Regular-30" x="115.234375"/>
       <use xlink:href="#PretendardGOV-Regular-30" x="172.851562"/>
      </g>
     </g>
    </g>
   </g>
   <g id="patch_8">
    <path d="M 57.6 307.584 
L 57.6 41.472 
" style="fill: none; stroke: #000000; stroke-width: 0.8; stroke-linejoin: miter; stroke-linecap: square"/>
   </g>
   <g id="patch_9">
    <path d="M 414.72 307.584 
L 414.72 41.472 
" style="fill: none; stroke: #000000; stroke-width: 0.8; stroke-linejoin: miter; stroke-linecap: square"/>
   </g>
   <g id="patch_10">
    <path d="M 57.6 307.584 
L 414.72 307.584 
" style="fill: none; stroke: #000000; stroke-width: 0.8; stroke-linejoin: miter; stroke-linecap: square"/>
   </g>
   <g id="patch_11">
    <path d="M 57.6 41.472 
L 414.72 41.472 
" style="fill: none; stroke: #000000; stroke-width: 0.8; stroke-linejoin: miter; stroke-linecap: square"/>
   </g>
   <g id="text_12">
    <!-- LINE 4 시나리오별 소요 시간 -->
    <g transform="translate(165.695625 35.472) scale(0.12 -0.12)">
     <defs>
      <path id="PretendardGOV-Regular-4c" d="M 500 4525 
L 1063 4525 
L 1063 500 
L 3163 500 
L 3163 0 
L 500 0 
L 500 4525 
z
" transform="scale(0.015625)"/>
      <path id="PretendardGOV-Regular-49" d="M 250 4525 
L 2425 4525 
L 2425 4025 
L 1631 4025 
L 1631 500 
L 2425 500 
L 2425 0 
L 250 0 
L 250 500 
L 1069 500 
L 1069 4025 
L 250 4025 
L 250 4525 
z
" transform="scale(0.015625)"/>
      <path id="PretendardGOV-Regular-4e" d="M 4094 0 
L 3556 0 
L 1106 3525 
L 1063 3525 
L 1063 0 
L 500 0 
L 500 4525 
L 1044 4525 
L 3494 994 
L 3538 994 
L 3538 4525 
L 4094 4525 
L 4094 0 
z
" transform="scale(0.015625)"/>
      <path id="PretendardGOV-Regular-45" d="M 500 4525 
L 3244 4525 
L 3244 4025 
L 1063 4025 
L 1063 2513 
L 3100 2513 
L 3100 2019 
L 1063 2019 
L 1063 500 
L 3275 500 
L 3275 0 
L 500 0 
L 500 4525 
z
" transform="scale(0.015625)"/>
      <path id="PretendardGOV-Regular-c2dc" d="M 2200 3556 
Q 2197 3063 2400 2577 
Q 2603 2091 2950 1712 
Q 3297 1334 3706 1150 
L 3406 763 
Q 2931 997 2545 1461 
Q 2159 1925 1963 2516 
Q 1769 1888 1381 1392 
Q 994 897 506 650 
L 194 1063 
Q 603 1253 950 1642 
Q 1297 2031 1503 2536 
Q 1709 3041 1713 3556 
L 1713 4569 
L 2200 4569 
L 2200 3556 
z
M 4806 -519 
L 4313 -519 
L 4313 5050 
L 4806 5050 
L 4806 -519 
z
" transform="scale(0.015625)"/>
      <path id="PretendardGOV-Regular-b098" d="M 5425 2419 
L 4525 2419 
L 4525 -506 
L 4038 -506 
L 4038 5050 
L 4525 5050 
L 4525 2831 
L 5425 2831 
L 5425 2419 
z
M 944 1319 
Q 1597 1322 2222 1381 
Q 2847 1441 3500 1575 
L 3563 1156 
Q 2884 1019 2236 962 
Q 1588 906 900 906 
L 456 906 
L 456 4500 
L 944 4500 
L 944 1319 
z
" transform="scale(0.015625)"/>
      <path id="PretendardGOV-Regular-b9ac" d="M 4813 -519 
L 4325 -519 
L 4325 5050 
L 4813 5050 
L 4813 -519 
z
M 3125 2556 
L 1050 2556 
L 1050 1244 
Q 1797 1244 2439 1287 
Q 3081 1331 3788 1444 
L 3838 1031 
Q 3116 916 2456 873 
Q 1797 831 1013 831 
L 550 831 
L 550 2956 
L 2631 2956 
L 2631 4125 
L 538 4125 
L 538 4531 
L 3125 4531 
L 3125 2556 
z
" transform="scale(0.015625)"/>
      <path id="PretendardGOV-Regular-c624" d="M 2756 4688 
Q 3344 4684 3806 4503 
Q 4269 4322 4528 3992 
Q 4788 3663 4788 3231 
Q 4788 2825 4561 2509 
Q 4334 2194 3928 2006 
Q 3522 1819 2994 1784 
L 2994 619 
L 5313 619 
L 5313 206 
L 225 206 
L 225 619 
L 2513 619 
L 2513 1784 
Q 1988 1819 1581 2008 
Q 1175 2197 950 2511 
Q 725 2825 725 3231 
Q 725 3663 984 3992 
Q 1244 4322 1706 4503 
Q 2169 4684 2756 4688 
z
M 2756 4281 
Q 2309 4281 1954 4148 
Q 1600 4016 1400 3777 
Q 1200 3538 1200 3231 
Q 1200 2916 1400 2675 
Q 1600 2434 1953 2303 
Q 2306 2172 2756 2169 
Q 3206 2172 3559 2303 
Q 3913 2434 4113 2675 
Q 4313 2916 4313 3231 
Q 4313 3538 4113 3777 
Q 3913 4016 3558 4148 
Q 3203 4281 2756 4281 
z
" transform="scale(0.015625)"/>
      <path id="PretendardGOV-Regular-bcc4" d="M 4825 2144 
L 4338 2144 
L 4338 2856 
L 3025 2856 
L 3025 2369 
L 506 2369 
L 506 4788 
L 994 4788 
L 994 3988 
L 2544 3988 
L 2544 4788 
L 3025 4788 
L 3025 4250 
L 4338 4250 
L 4338 5050 
L 4825 5050 
L 4825 2144 
z
M 4825 569 
L 1725 569 
L 1725 -38 
L 5038 -38 
L 5038 -431 
L 1238 -431 
L 1238 944 
L 4338 944 
L 4338 1481 
L 1225 1481 
L 1225 1875 
L 4825 1875 
L 4825 569 
z
M 2544 2769 
L 2544 3600 
L 994 3600 
L 994 2769 
L 2544 2769 
z
M 4338 3244 
L 4338 3869 
L 3025 3869 
L 3025 3244 
L 4338 3244 
z
" transform="scale(0.015625)"/>
      <path id="PretendardGOV-Regular-c18c" d="M 5313 219 
L 225 219 
L 225 625 
L 2500 625 
L 2500 1988 
L 2981 1988 
L 2981 625 
L 5313 625 
L 5313 219 
z
M 2994 4244 
Q 2994 3800 3301 3390 
Q 3609 2981 4089 2698 
Q 4569 2416 5063 2331 
L 4844 1925 
Q 4413 2013 3997 2228 
Q 3581 2444 3248 2766 
Q 2916 3088 2741 3475 
Q 2566 3088 2234 2766 
Q 1903 2444 1489 2228 
Q 1075 2013 644 1925 
L 425 2331 
Q 919 2416 1395 2698 
Q 1872 2981 2176 3389 
Q 2481 3797 2481 4244 
L 2481 4669 
L 2994 4669 
L 2994 4244 
z
" transform="scale(0.015625)"/>
      <path id="PretendardGOV-Regular-c694" d="M 5313 206 
L 225 206 
L 225 619 
L 1488 619 
L 1488 2119 
Q 1125 2306 925 2601 
Q 725 2897 725 3269 
Q 725 3694 984 4017 
Q 1244 4341 1705 4519 
Q 2166 4697 2756 4700 
Q 3347 4697 3808 4519 
Q 4269 4341 4528 4017 
Q 4788 3694 4788 3269 
Q 4788 2903 4594 2611 
Q 4400 2319 4050 2131 
L 4050 619 
L 5313 619 
L 5313 206 
z
M 2756 4294 
Q 2303 4297 1950 4169 
Q 1597 4041 1398 3808 
Q 1200 3575 1200 3269 
Q 1200 2963 1398 2727 
Q 1597 2491 1950 2361 
Q 2303 2231 2756 2231 
Q 3206 2231 3559 2362 
Q 3913 2494 4113 2728 
Q 4313 2963 4313 3269 
Q 4313 3575 4113 3808 
Q 3913 4041 3559 4169 
Q 3206 4297 2756 4294 
z
M 3556 619 
L 3556 1941 
Q 3184 1844 2756 1844 
Q 2325 1844 1969 1938 
L 1969 619 
L 3556 619 
z
" transform="scale(0.015625)"/>
      <path id="PretendardGOV-Regular-ac04" d="M 4569 3356 
L 5406 3356 
L 5406 2944 
L 4569 2944 
L 4569 981 
L 4075 981 
L 4075 5050 
L 4569 5050 
L 4569 3356 
z
M 3069 4619 
Q 3069 3916 2748 3328 
Q 2428 2741 1839 2309 
Q 1250 1878 444 1625 
L 231 2019 
Q 897 2228 1397 2554 
Q 1897 2881 2190 3301 
Q 2484 3722 2534 4206 
L 463 4206 
L 463 4619 
L 3069 4619 
z
M 4825 -388 
L 1088 -388 
L 1088 1394 
L 1575 1394 
L 1575 25 
L 4825 25 
L 4825 -388 
z
" transform="scale(0.015625)"/>
     </defs>
     <use xlink:href="#PretendardGOV-Regular-4c"/>
     <use xlink:href="#PretendardGOV-Regular-49" x="53.320312"/>
     <use xlink:href="#PretendardGOV-Regular-4e" x="95.214844"/>
     <use xlink:href="#PretendardGOV-Regular-45" x="166.992188"/>
     <use xlink:href="#PretendardGOV-Regular-20" x="223.730469"/>
     <use xlink:href="#PretendardGOV-Regular-34" x="252.539062"/>
     <use xlink:href="#PretendardGOV-Regular-20" x="310.15625"/>
     <use xlink:href="#PretendardGOV-Regular-c2dc" x="338.964844"/>
     <use xlink:href="#PretendardGOV-Regular-b098" x="425.390625"/>
     <use xlink:href="#PretendardGOV-Regular-b9ac" x="511.816406"/>
     <use xlink:href="#PretendardGOV-Regular-c624" x="598.242188"/>
     <use xlink:href="#PretendardGOV-Regular-bcc4" x="684.667969"/>
     <use xlink:href="#PretendardGOV-Regular-20" x="771.09375"/>
     <use xlink:href="#PretendardGOV-Regular-c18c" x="799.902344"/>
     <use xlink:href="#PretendardGOV-Regular-c694" x="886.328125"/>
     <use xlink:href="#PretendardGOV-Regular-20" x="972.753906"/>
     <use xlink:href="#PretendardGOV-Regular-c2dc" x="1001.5625"/>
     <use xlink:href="#PretendardGOV-Regular-ac04" x="1087.988281"/>
    </g>
   </g>
  </g>
 </g>
 <defs>
  <clipPath id="p4048beafbb">
   <rect x="57.6" y="41.472" width="357.12" height="266.112"/>
  </clipPath>
 </defs>
</svg>
