<?xml version="1.0" encoding="utf-8" standalone="no"?>
<!DOCTYPE svg PUBLIC "-//W3C//DTD SVG 1.1//EN"
  "http://www.w3.org/Graphics/SVG/1.1/DTD/svg11.dtd">
<svg xmlns:xlink="http://www.w3.org/1999/xlink" width="730.414884pt" height="269.29116pt" viewBox="0 0 730.414884 269.29116" xmlns="http://www.w3.org/2000/svg" version="1.1">
 <metadata>
  <rdf:RDF xmlns:dc="http://purl.org/dc/elements/1.1/" xmlns:cc="http://creativecommons.org/ns#" xmlns:rdf="http://www.w3.org/1999/02/22-rdf-syntax-ns#">
   <cc:Work>
    <dc:type rdf:resource="http://purl.org/dc/dcmitype/StillImage"/>
    <dc:date>2024-06-10T21:35:27.468302</dc:date>
    <dc:format>image/svg+xml</dc:format>
    <dc:creator>
     <cc:Agent>
      <dc:title>Matplotlib v3.8.4, https://matplotlib.org/</dc:title>
     </cc:Agent>
    </dc:creator>
   </cc:Work>
  </rdf:RDF>
 </metadata>
 <defs>
  <style type="text/css">*{stroke-linejoin: round; stroke-linecap: butt}</style>
 </defs>
 <g id="figure_1">
  <g id="patch_1">
   <path d="M 0 269.29116 
L 730.414884 269.29116 
L 730.414884 0 
L 0 0 
z
" style="fill: #ffffff"/>
  </g>
  <g id="axes_1">
   <g id="patch_2">
    <path d="M 91.30186 239.669132 
L 657.373395 239.669132 
L 657.373395 32.314939 
L 91.30186 32.314939 
z
" style="fill: #ffffff"/>
   </g>
   <g id="patch_3">
    <path d="M 94.839808 239.669132 
L 98.377755 239.669132 
L 98.377755 203.747281 
L 94.839808 203.747281 
z
" clip-path="url(#p3f71eb4121)" style="fill: #1f77b4"/>
   </g>
   <g id="patch_4">
    <path d="M 108.991596 239.669132 
L 112.529543 239.669132 
L 112.529543 217.948832 
L 108.991596 217.948832 
z
" clip-path="url(#p3f71eb4121)" style="fill: #1f77b4"/>
   </g>
   <g id="patch_5">
    <path d="M 123.143384 239.669132 
L 126.681331 239.669132 
L 126.681331 208.813064 
L 123.143384 208.813064 
z
" clip-path="url(#p3f71eb4121)" style="fill: #1f77b4"/>
   </g>
   <g id="patch_6">
    <path d="M 137.295173 239.669132 
L 140.83312 239.669132 
L 140.83312 219.795955 
L 137.295173 219.795955 
z
" clip-path="url(#p3f71eb4121)" style="fill: #1f77b4"/>
   </g>
   <g id="patch_7">
    <path d="M 151.446961 239.669132 
L 154.984908 239.669132 
L 154.984908 217.852463 
L 151.446961 217.852463 
z
" clip-path="url(#p3f71eb4121)" style="fill: #1f77b4"/>
   </g>
   <g id="patch_8">
    <path d="M 165.598749 239.669132 
L 169.136697 239.669132 
L 169.136697 213.690611 
L 165.598749 213.690611 
z
" clip-path="url(#p3f71eb4121)" style="fill: #1f77b4"/>
   </g>
   <g id="patch_9">
    <path d="M 179.750538 239.669132 
L 183.288485 239.669132 
L 183.288485 205.064869 
L 179.750538 205.064869 
z
" clip-path="url(#p3f71eb4121)" style="fill: #1f77b4"/>
   </g>
   <g id="patch_10">
    <path d="M 193.902326 239.669132 
L 197.440273 239.669132 
L 197.440273 127.503881 
L 193.902326 127.503881 
z
" clip-path="url(#p3f71eb4121)" style="fill: #1f77b4"/>
   </g>
   <g id="patch_11">
    <path d="M 208.054115 239.669132 
L 211.592062 239.669132 
L 211.592062 208.864425 
L 208.054115 208.864425 
z
" clip-path="url(#p3f71eb4121)" style="fill: #1f77b4"/>
   </g>
   <g id="patch_12">
    <path d="M 222.205903 239.669132 
L 225.74385 239.669132 
L 225.74385 220.587184 
L 222.205903 220.587184 
z
" clip-path="url(#p3f71eb4121)" style="fill: #1f77b4"/>
   </g>
   <g id="patch_13">
    <path d="M 236.357691 239.669132 
L 239.895638 239.669132 
L 239.895638 196.932271 
L 236.357691 196.932271 
z
" clip-path="url(#p3f71eb4121)" style="fill: #1f77b4"/>
   </g>
   <g id="patch_14">
    <path d="M 250.50948 239.669132 
L 254.047427 239.669132 
L 254.047427 221.448876 
L 250.50948 221.448876 
z
" clip-path="url(#p3f71eb4121)" style="fill: #1f77b4"/>
   </g>
   <g id="patch_15">
    <path d="M 264.661268 239.669132 
L 268.199215 239.669132 
L 268.199215 225.639118 
L 264.661268 225.639118 
z
" clip-path="url(#p3f71eb4121)" style="fill: #1f77b4"/>
   </g>
   <g id="patch_16">
    <path d="M 278.813056 239.669132 
L 282.351003 239.669132 
L 282.351003 208.83239 
L 278.813056 208.83239 
z
" clip-path="url(#p3f71eb4121)" style="fill: #1f77b4"/>
   </g>
   <g id="patch_17">
    <path d="M 292.964845 239.669132 
L 296.502792 239.669132 
L 296.502792 192.726246 
L 292.964845 192.726246 
z
" clip-path="url(#p3f71eb4121)" style="fill: #1f77b4"/>
   </g>
   <g id="patch_18">
    <path d="M 307.116633 239.669132 
L 310.65458 239.669132 
L 310.65458 142.04158 
L 307.116633 142.04158 
z
" clip-path="url(#p3f71eb4121)" style="fill: #1f77b4"/>
   </g>
   <g id="patch_19">
    <path d="M 321.268422 239.669132 
L 324.806369 239.669132 
L 324.806369 134.90934 
L 321.268422 134.90934 
z
" clip-path="url(#p3f71eb4121)" style="fill: #1f77b4"/>
   </g>
   <g id="patch_20">
    <path d="M 335.42021 239.669132 
L 338.958157 239.669132 
L 338.958157 187.714228 
L 335.42021 187.714228 
z
" clip-path="url(#p3f71eb4121)" style="fill: #1f77b4"/>
   </g>
   <g id="patch_21">
    <path d="M 349.571998 239.669132 
L 353.109945 239.669132 
L 353.109945 126.278243 
L 349.571998 126.278243 
z
" clip-path="url(#p3f71eb4121)" style="fill: #1f77b4"/>
   </g>
   <g id="patch_22">
    <path d="M 363.723787 239.669132 
L 367.261734 239.669132 
L 367.261734 210.80586 
L 363.723787 210.80586 
z
" clip-path="url(#p3f71eb4121)" style="fill: #1f77b4"/>
   </g>
   <g id="patch_23">
    <path d="M 377.875575 239.669132 
L 381.413522 239.669132 
L 381.413522 208.031061 
L 377.875575 208.031061 
z
" clip-path="url(#p3f71eb4121)" style="fill: #1f77b4"/>
   </g>
   <g id="patch_24">
    <path d="M 392.027363 239.669132 
L 395.56531 239.669132 
L 395.56531 224.751114 
L 392.027363 224.751114 
z
" clip-path="url(#p3f71eb4121)" style="fill: #1f77b4"/>
   </g>
   <g id="patch_25">
    <path d="M 406.179152 239.669132 
L 409.717099 239.669132 
L 409.717099 173.88758 
L 406.179152 173.88758 
z
" clip-path="url(#p3f71eb4121)" style="fill: #1f77b4"/>
   </g>
   <g id="patch_26">
    <path d="M 420.33094 239.669132 
L 423.868887 239.669132 
L 423.868887 200.784593 
L 420.33094 200.784593 
z
" clip-path="url(#p3f71eb4121)" style="fill: #1f77b4"/>
   </g>
   <g id="patch_27">
    <path d="M 434.482728 239.669132 
L 438.020676 239.669132 
L 438.020676 83.292518 
L 434.482728 83.292518 
z
" clip-path="url(#p3f71eb4121)" style="fill: #1f77b4"/>
   </g>
   <g id="patch_28">
    <path d="M 448.634517 239.669132 
L 452.172464 239.669132 
L 452.172464 178.617765 
L 448.634517 178.617765 
z
" clip-path="url(#p3f71eb4121)" style="fill: #1f77b4"/>
   </g>
   <g id="patch_29">
    <path d="M 462.786305 239.669132 
L 466.324252 239.669132 
L 466.324252 194.166452 
L 462.786305 194.166452 
z
" clip-path="url(#p3f71eb4121)" style="fill: #1f77b4"/>
   </g>
   <g id="patch_30">
    <path d="M 476.938094 239.669132 
L 480.476041 239.669132 
L 480.476041 186.4948 
L 476.938094 186.4948 
z
" clip-path="url(#p3f71eb4121)" style="fill: #1f77b4"/>
   </g>
   <g id="patch_31">
    <path d="M 491.089882 239.669132 
L 494.627829 239.669132 
L 494.627829 169.012131 
L 491.089882 169.012131 
z
" clip-path="url(#p3f71eb4121)" style="fill: #1f77b4"/>
   </g>
   <g id="patch_32">
    <path d="M 505.24167 239.669132 
L 508.779617 239.669132 
L 508.779617 183.984891 
L 505.24167 183.984891 
z
" clip-path="url(#p3f71eb4121)" style="fill: #1f77b4"/>
   </g>
   <g id="patch_33">
    <path d="M 519.393459 239.669132 
L 522.931406 239.669132 
L 522.931406 172.889747 
L 519.393459 172.889747 
z
" clip-path="url(#p3f71eb4121)" style="fill: #1f77b4"/>
   </g>
   <g id="patch_34">
    <path d="M 533.545247 239.669132 
L 537.083194 239.669132 
L 537.083194 199.902006 
L 533.545247 199.902006 
z
" clip-path="url(#p3f71eb4121)" style="fill: #1f77b4"/>
   </g>
   <g id="patch_35">
    <path d="M 547.697035 239.669132 
L 551.234983 239.669132 
L 551.234983 173.510804 
L 547.697035 173.510804 
z
" clip-path="url(#p3f71eb4121)" style="fill: #1f77b4"/>
   </g>
   <g id="patch_36">
    <path d="M 561.848824 239.669132 
L 565.386771 239.669132 
L 565.386771 170.529155 
L 561.848824 170.529155 
z
" clip-path="url(#p3f71eb4121)" style="fill: #1f77b4"/>
   </g>
   <g id="patch_37">
    <path d="M 576.000612 239.669132 
L 579.538559 239.669132 
L 579.538559 187.710827 
L 576.000612 187.710827 
z
" clip-path="url(#p3f71eb4121)" style="fill: #1f77b4"/>
   </g>
   <g id="patch_38">
    <path d="M 590.152401 239.669132 
L 593.690348 239.669132 
L 593.690348 193.75422 
L 590.152401 193.75422 
z
" clip-path="url(#p3f71eb4121)" style="fill: #1f77b4"/>
   </g>
   <g id="patch_39">
    <path d="M 604.304189 239.669132 
L 607.842136 239.669132 
L 607.842136 205.084644 
L 604.304189 205.084644 
z
" clip-path="url(#p3f71eb4121)" style="fill: #1f77b4"/>
   </g>
   <g id="patch_40">
    <path d="M 618.455977 239.669132 
L 621.993924 239.669132 
L 621.993924 209.196072 
L 618.455977 209.196072 
z
" clip-path="url(#p3f71eb4121)" style="fill: #1f77b4"/>
   </g>
   <g id="patch_41">
    <path d="M 632.607766 239.669132 
L 636.145713 239.669132 
L 636.145713 191.560379 
L 632.607766 191.560379 
z
" clip-path="url(#p3f71eb4121)" style="fill: #1f77b4"/>
   </g>
   <g id="patch_42">
    <path d="M 646.759554 239.669132 
L 650.297501 239.669132 
L 650.297501 157.497362 
L 646.759554 157.497362 
z
" clip-path="url(#p3f71eb4121)" style="fill: #1f77b4"/>
   </g>
   <g id="patch_43">
    <path d="M 98.377755 239.669132 
L 101.915702 239.669132 
L 101.915702 210.963038 
L 98.377755 210.963038 
z
" clip-path="url(#p3f71eb4121)" style="fill: #ff7f0e"/>
   </g>
   <g id="patch_44">
    <path d="M 112.529543 239.669132 
L 116.06749 239.669132 
L 116.06749 214.851325 
L 112.529543 214.851325 
z
" clip-path="url(#p3f71eb4121)" style="fill: #ff7f0e"/>
   </g>
   <g id="patch_45">
    <path d="M 126.681331 239.669132 
L 130.219278 239.669132 
L 130.219278 209.693696 
L 126.681331 209.693696 
z
" clip-path="url(#p3f71eb4121)" style="fill: #ff7f0e"/>
   </g>
   <g id="patch_46">
    <path d="M 140.83312 239.669132 
L 144.371067 239.669132 
L 144.371067 222.513813 
L 140.83312 222.513813 
z
" clip-path="url(#p3f71eb4121)" style="fill: #ff7f0e"/>
   </g>
   <g id="patch_47">
    <path d="M 154.984908 239.669132 
L 158.522855 239.669132 
L 158.522855 219.630794 
L 154.984908 219.630794 
z
" clip-path="url(#p3f71eb4121)" style="fill: #ff7f0e"/>
   </g>
   <g id="patch_48">
    <path d="M 169.136697 239.669132 
L 172.674644 239.669132 
L 172.674644 217.699745 
L 169.136697 217.699745 
z
" clip-path="url(#p3f71eb4121)" style="fill: #ff7f0e"/>
   </g>
   <g id="patch_49">
    <path d="M 183.288485 239.669132 
L 186.826432 239.669132 
L 186.826432 205.273999 
L 183.288485 205.273999 
z
" clip-path="url(#p3f71eb4121)" style="fill: #ff7f0e"/>
   </g>
   <g id="patch_50">
    <path d="M 197.440273 239.669132 
L 200.97822 239.669132 
L 200.97822 139.466115 
L 197.440273 139.466115 
z
" clip-path="url(#p3f71eb4121)" style="fill: #ff7f0e"/>
   </g>
   <g id="patch_51">
    <path d="M 211.592062 239.669132 
L 215.130009 239.669132 
L 215.130009 205.997086 
L 211.592062 205.997086 
z
" clip-path="url(#p3f71eb4121)" style="fill: #ff7f0e"/>
   </g>
   <g id="patch_52">
    <path d="M 225.74385 239.669132 
L 229.281797 239.669132 
L 229.281797 223.076321 
L 225.74385 223.076321 
z
" clip-path="url(#p3f71eb4121)" style="fill: #ff7f0e"/>
   </g>
   <g id="patch_53">
    <path d="M 239.895638 239.669132 
L 243.433585 239.669132 
L 243.433585 198.189333 
L 239.895638 198.189333 
z
" clip-path="url(#p3f71eb4121)" style="fill: #ff7f0e"/>
   </g>
   <g id="patch_54">
    <path d="M 254.047427 239.669132 
L 257.585374 239.669132 
L 257.585374 222.506115 
L 254.047427 222.506115 
z
" clip-path="url(#p3f71eb4121)" style="fill: #ff7f0e"/>
   </g>
   <g id="patch_55">
    <path d="M 268.199215 239.669132 
L 271.737162 239.669132 
L 271.737162 225.463468 
L 268.199215 225.463468 
z
" clip-path="url(#p3f71eb4121)" style="fill: #ff7f0e"/>
   </g>
   <g id="patch_56">
    <path d="M 282.351003 239.669132 
L 285.888951 239.669132 
L 285.888951 212.800713 
L 282.351003 212.800713 
z
" clip-path="url(#p3f71eb4121)" style="fill: #ff7f0e"/>
   </g>
   <g id="patch_57">
    <path d="M 296.502792 239.669132 
L 300.040739 239.669132 
L 300.040739 192.03334 
L 296.502792 192.03334 
z
" clip-path="url(#p3f71eb4121)" style="fill: #ff7f0e"/>
   </g>
   <g id="patch_58">
    <path d="M 310.65458 239.669132 
L 314.192527 239.669132 
L 314.192527 142.800733 
L 310.65458 142.800733 
z
" clip-path="url(#p3f71eb4121)" style="fill: #ff7f0e"/>
   </g>
   <g id="patch_59">
    <path d="M 324.806369 239.669132 
L 328.344316 239.669132 
L 328.344316 124.792764 
L 324.806369 124.792764 
z
" clip-path="url(#p3f71eb4121)" style="fill: #ff7f0e"/>
   </g>
   <g id="patch_60">
    <path d="M 338.958157 239.669132 
L 342.496104 239.669132 
L 342.496104 186.21484 
L 338.958157 186.21484 
z
" clip-path="url(#p3f71eb4121)" style="fill: #ff7f0e"/>
   </g>
   <g id="patch_61">
    <path d="M 353.109945 239.669132 
L 356.647892 239.669132 
L 356.647892 117.326861 
L 353.109945 117.326861 
z
" clip-path="url(#p3f71eb4121)" style="fill: #ff7f0e"/>
   </g>
   <g id="patch_62">
    <path d="M 367.261734 239.669132 
L 370.799681 239.669132 
L 370.799681 209.122981 
L 367.261734 209.122981 
z
" clip-path="url(#p3f71eb4121)" style="fill: #ff7f0e"/>
   </g>
   <g id="patch_63">
    <path d="M 381.413522 239.669132 
L 384.951469 239.669132 
L 384.951469 208.384519 
L 381.413522 208.384519 
z
" clip-path="url(#p3f71eb4121)" style="fill: #ff7f0e"/>
   </g>
   <g id="patch_64">
    <path d="M 395.56531 239.669132 
L 399.103258 239.669132 
L 399.103258 225.68496 
L 395.56531 225.68496 
z
" clip-path="url(#p3f71eb4121)" style="fill: #ff7f0e"/>
   </g>
   <g id="patch_65">
    <path d="M 409.717099 239.669132 
L 413.255046 239.669132 
L 413.255046 168.181699 
L 409.717099 168.181699 
z
" clip-path="url(#p3f71eb4121)" style="fill: #ff7f0e"/>
   </g>
   <g id="patch_66">
    <path d="M 423.868887 239.669132 
L 427.406834 239.669132 
L 427.406834 198.168194 
L 423.868887 198.168194 
z
" clip-path="url(#p3f71eb4121)" style="fill: #ff7f0e"/>
   </g>
   <g id="patch_67">
    <path d="M 438.020676 239.669132 
L 441.558623 239.669132 
L 441.558623 55.354294 
L 438.020676 55.354294 
z
" clip-path="url(#p3f71eb4121)" style="fill: #ff7f0e"/>
   </g>
   <g id="patch_68">
    <path d="M 452.172464 239.669132 
L 455.710411 239.669132 
L 455.710411 174.566658 
L 452.172464 174.566658 
z
" clip-path="url(#p3f71eb4121)" style="fill: #ff7f0e"/>
   </g>
   <g id="patch_69">
    <path d="M 466.324252 239.669132 
L 469.862199 239.669132 
L 469.862199 192.11641 
L 466.324252 192.11641 
z
" clip-path="url(#p3f71eb4121)" style="fill: #ff7f0e"/>
   </g>
   <g id="patch_70">
    <path d="M 480.476041 239.669132 
L 484.013988 239.669132 
L 484.013988 185.294821 
L 480.476041 185.294821 
z
" clip-path="url(#p3f71eb4121)" style="fill: #ff7f0e"/>
   </g>
   <g id="patch_71">
    <path d="M 494.627829 239.669132 
L 498.165776 239.669132 
L 498.165776 164.405543 
L 494.627829 164.405543 
z
" clip-path="url(#p3f71eb4121)" style="fill: #ff7f0e"/>
   </g>
   <g id="patch_72">
    <path d="M 508.779617 239.669132 
L 512.317565 239.669132 
L 512.317565 183.518365 
L 508.779617 183.518365 
z
" clip-path="url(#p3f71eb4121)" style="fill: #ff7f0e"/>
   </g>
   <g id="patch_73">
    <path d="M 522.931406 239.669132 
L 526.469353 239.669132 
L 526.469353 163.484343 
L 522.931406 163.484343 
z
" clip-path="url(#p3f71eb4121)" style="fill: #ff7f0e"/>
   </g>
   <g id="patch_74">
    <path d="M 537.083194 239.669132 
L 540.621141 239.669132 
L 540.621141 198.256742 
L 537.083194 198.256742 
z
" clip-path="url(#p3f71eb4121)" style="fill: #ff7f0e"/>
   </g>
   <g id="patch_75">
    <path d="M 551.234983 239.669132 
L 554.77293 239.669132 
L 554.77293 172.742221 
L 551.234983 172.742221 
z
" clip-path="url(#p3f71eb4121)" style="fill: #ff7f0e"/>
   </g>
   <g id="patch_76">
    <path d="M 565.386771 239.669132 
L 568.924718 239.669132 
L 568.924718 169.177109 
L 565.386771 169.177109 
z
" clip-path="url(#p3f71eb4121)" style="fill: #ff7f0e"/>
   </g>
   <g id="patch_77">
    <path d="M 579.538559 239.669132 
L 583.076506 239.669132 
L 583.076506 186.686681 
L 579.538559 186.686681 
z
" clip-path="url(#p3f71eb4121)" style="fill: #ff7f0e"/>
   </g>
   <g id="patch_78">
    <path d="M 593.690348 239.669132 
L 597.228295 239.669132 
L 597.228295 197.186265 
L 593.690348 197.186265 
z
" clip-path="url(#p3f71eb4121)" style="fill: #ff7f0e"/>
   </g>
   <g id="patch_79">
    <path d="M 607.842136 239.669132 
L 611.380083 239.669132 
L 611.380083 210.360432 
L 607.842136 210.360432 
z
" clip-path="url(#p3f71eb4121)" style="fill: #ff7f0e"/>
   </g>
   <g id="patch_80">
    <path d="M 621.993924 239.669132 
L 625.531872 239.669132 
L 625.531872 210.124318 
L 621.993924 210.124318 
z
" clip-path="url(#p3f71eb4121)" style="fill: #ff7f0e"/>
   </g>
   <g id="patch_81">
    <path d="M 636.145713 239.669132 
L 639.68366 239.669132 
L 639.68366 203.355048 
L 636.145713 203.355048 
z
" clip-path="url(#p3f71eb4121)" style="fill: #ff7f0e"/>
   </g>
   <g id="patch_82">
    <path d="M 650.297501 239.669132 
L 653.835448 239.669132 
L 653.835448 161.335061 
L 650.297501 161.335061 
z
" clip-path="url(#p3f71eb4121)" style="fill: #ff7f0e"/>
   </g>
   <g id="matplotlib.axis_1">
    <g id="xtick_1">
     <g id="line2d_1">
      <defs>
       <path id="md229bcd09a" d="M 0 0 
L 0 3.5 
" style="stroke: #000000; stroke-width: 0.8"/>
      </defs>
      <g>
       <use xlink:href="#md229bcd09a" x="98.377755" y="239.669132" style="stroke: #000000; stroke-width: 0.8"/>
      </g>
     </g>
     <g id="text_1">
      <!-- 95 -->
      <g transform="translate(100.155098 254.736632) rotate(-90) scale(0.07 -0.07)">
       <defs>
        <path id="PretendardGOV-Regular-39" d="M 1850 4588 
Q 2272 4588 2623 4394 
Q 2975 4200 3178 3865 
Q 3381 3531 3381 3131 
Q 3381 2791 3214 2420 
Q 3047 2050 2688 1519 
L 1669 0 
L 1025 0 
L 2244 1813 
L 2213 1838 
Q 2138 1763 1994 1716 
Q 1850 1669 1656 1669 
Q 1269 1669 959 1862 
Q 650 2056 478 2390 
Q 306 2725 306 3131 
Q 306 3531 512 3865 
Q 719 4200 1072 4394 
Q 1425 4588 1850 4588 
z
M 1844 4094 
Q 1556 4094 1331 3969 
Q 1106 3844 981 3619 
Q 856 3394 856 3106 
Q 856 2819 981 2592 
Q 1106 2366 1331 2239 
Q 1556 2113 1844 2113 
Q 2131 2113 2357 2239 
Q 2584 2366 2711 2592 
Q 2838 2819 2838 3106 
Q 2838 3394 2711 3619 
Q 2584 3844 2357 3969 
Q 2131 4094 1844 4094 
z
" transform="scale(0.015625)"/>
        <path id="PretendardGOV-Regular-35" d="M 1888 -63 
Q 1500 -63 1183 92 
Q 866 247 677 520 
Q 488 794 469 1138 
L 1025 1138 
Q 1041 938 1158 777 
Q 1275 616 1467 523 
Q 1659 431 1888 431 
Q 2159 431 2373 561 
Q 2588 691 2709 919 
Q 2831 1147 2831 1431 
Q 2831 1725 2704 1956 
Q 2578 2188 2354 2320 
Q 2131 2453 1850 2456 
Q 1572 2463 1373 2366 
Q 1175 2269 1063 2050 
L 513 2050 
L 813 4525 
L 3175 4525 
L 3175 4025 
L 1294 4025 
L 1138 2700 
L 1188 2700 
Q 1309 2816 1514 2889 
Q 1719 2963 1944 2963 
Q 2350 2963 2678 2766 
Q 3006 2569 3193 2222 
Q 3381 1875 3381 1444 
Q 3381 1016 3187 672 
Q 2994 328 2653 132 
Q 2313 -63 1888 -63 
z
" transform="scale(0.015625)"/>
       </defs>
       <use xlink:href="#PretendardGOV-Regular-39"/>
       <use xlink:href="#PretendardGOV-Regular-35" x="57.617188"/>
      </g>
     </g>
    </g>
    <g id="xtick_2">
     <g id="line2d_2">
      <g>
       <use xlink:href="#md229bcd09a" x="112.529543" y="239.669132" style="stroke: #000000; stroke-width: 0.8"/>
      </g>
     </g>
     <g id="text_2">
      <!-- 96 -->
      <g transform="translate(114.306887 254.736632) rotate(-90) scale(0.07 -0.07)">
       <defs>
        <path id="PretendardGOV-Regular-36" d="M 1838 -63 
Q 1416 -63 1064 131 
Q 713 325 509 659 
Q 306 994 306 1394 
Q 306 1734 473 2104 
Q 641 2475 1000 3006 
L 2019 4525 
L 2663 4525 
L 1444 2713 
L 1475 2688 
Q 1550 2763 1694 2809 
Q 1838 2856 2031 2856 
Q 2419 2856 2728 2662 
Q 3038 2469 3209 2134 
Q 3381 1800 3381 1394 
Q 3381 994 3175 659 
Q 2969 325 2616 131 
Q 2263 -63 1838 -63 
z
M 1844 431 
Q 2131 431 2356 556 
Q 2581 681 2706 906 
Q 2831 1131 2831 1419 
Q 2831 1706 2706 1932 
Q 2581 2159 2356 2286 
Q 2131 2413 1844 2413 
Q 1556 2413 1329 2286 
Q 1103 2159 976 1932 
Q 850 1706 850 1419 
Q 850 1131 976 906 
Q 1103 681 1329 556 
Q 1556 431 1844 431 
z
" transform="scale(0.015625)"/>
       </defs>
       <use xlink:href="#PretendardGOV-Regular-39"/>
       <use xlink:href="#PretendardGOV-Regular-36" x="57.617188"/>
      </g>
     </g>
    </g>
    <g id="xtick_3">
     <g id="line2d_3">
      <g>
       <use xlink:href="#md229bcd09a" x="126.681331" y="239.669132" style="stroke: #000000; stroke-width: 0.8"/>
      </g>
     </g>
     <g id="text_3">
      <!-- 97 -->
      <g transform="translate(128.458675 254.736632) rotate(-90) scale(0.07 -0.07)">
       <defs>
        <path id="PretendardGOV-Regular-37" d="M 2681 3994 
L 2681 4025 
L 425 4025 
L 425 4525 
L 3275 4525 
L 3275 4000 
L 1313 0 
L 719 0 
L 2681 3994 
z
" transform="scale(0.015625)"/>
       </defs>
       <use xlink:href="#PretendardGOV-Regular-39"/>
       <use xlink:href="#PretendardGOV-Regular-37" x="57.617188"/>
      </g>
     </g>
    </g>
    <g id="xtick_4">
     <g id="line2d_4">
      <g>
       <use xlink:href="#md229bcd09a" x="140.83312" y="239.669132" style="stroke: #000000; stroke-width: 0.8"/>
      </g>
     </g>
     <g id="text_4">
      <!-- 98 -->
      <g transform="translate(142.610464 254.736632) rotate(-90) scale(0.07 -0.07)">
       <defs>
        <path id="PretendardGOV-Regular-38" d="M 1844 -63 
Q 1394 -63 1042 100 
Q 691 263 495 550 
Q 300 838 300 1200 
Q 300 1481 415 1728 
Q 531 1975 731 2139 
Q 931 2303 1175 2350 
L 1175 2375 
Q 959 2431 800 2578 
Q 641 2725 553 2936 
Q 466 3147 463 3388 
Q 466 3728 644 4001 
Q 822 4275 1136 4431 
Q 1450 4588 1844 4588 
Q 2231 4588 2543 4431 
Q 2856 4275 3036 4001 
Q 3216 3728 3219 3388 
Q 3216 3147 3127 2936 
Q 3038 2725 2878 2578 
Q 2719 2431 2506 2375 
L 2506 2350 
Q 2750 2303 2950 2139 
Q 3150 1975 3267 1728 
Q 3384 1481 3388 1200 
Q 3384 838 3187 550 
Q 2991 263 2641 100 
Q 2291 -63 1844 -63 
z
M 1844 431 
Q 2144 431 2366 531 
Q 2588 631 2706 811 
Q 2825 991 2825 1231 
Q 2825 1481 2698 1679 
Q 2572 1878 2348 1989 
Q 2125 2100 1844 2100 
Q 1563 2100 1336 1987 
Q 1109 1875 982 1678 
Q 856 1481 863 1231 
Q 856 994 975 812 
Q 1094 631 1317 531 
Q 1541 431 1844 431 
z
M 1844 2575 
Q 2081 2575 2270 2670 
Q 2459 2766 2564 2941 
Q 2669 3116 2669 3344 
Q 2669 3569 2564 3741 
Q 2459 3913 2271 4006 
Q 2084 4100 1844 4100 
Q 1597 4100 1408 4006 
Q 1219 3913 1116 3741 
Q 1013 3569 1013 3344 
Q 1013 3116 1119 2941 
Q 1225 2766 1414 2670 
Q 1603 2575 1844 2575 
z
" transform="scale(0.015625)"/>
       </defs>
       <use xlink:href="#PretendardGOV-Regular-39"/>
       <use xlink:href="#PretendardGOV-Regular-38" x="57.617188"/>
      </g>
     </g>
    </g>
    <g id="xtick_5">
     <g id="line2d_5">
      <g>
       <use xlink:href="#md229bcd09a" x="154.984908" y="239.669132" style="stroke: #000000; stroke-width: 0.8"/>
      </g>
     </g>
     <g id="text_5">
      <!-- 99 -->
      <g transform="translate(156.762252 254.736632) rotate(-90) scale(0.07 -0.07)">
       <use xlink:href="#PretendardGOV-Regular-39"/>
       <use xlink:href="#PretendardGOV-Regular-39" x="57.617188"/>
      </g>
     </g>
    </g>
    <g id="xtick_6">
     <g id="line2d_6">
      <g>
       <use xlink:href="#md229bcd09a" x="169.136697" y="239.669132" style="stroke: #000000; stroke-width: 0.8"/>
      </g>
     </g>
     <g id="text_6">
      <!-- 100 -->
      <g transform="translate(170.91404 258.770382) rotate(-90) scale(0.07 -0.07)">
       <defs>
        <path id="PretendardGOV-Regular-31" d="M 2163 456 
L 3144 456 
L 3144 0 
L 569 0 
L 569 456 
L 1600 456 
L 1600 3938 
L 1575 3938 
L 569 3269 
L 569 3844 
L 1600 4525 
L 2163 4525 
L 2163 456 
z
" transform="scale(0.015625)"/>
        <path id="PretendardGOV-Regular-30" d="M 1844 -63 
Q 1359 -63 1018 187 
Q 678 438 501 920 
Q 325 1403 325 2088 
L 325 2438 
Q 325 3125 501 3606 
Q 678 4088 1018 4338 
Q 1359 4588 1844 4588 
Q 2325 4588 2664 4338 
Q 3003 4088 3179 3606 
Q 3356 3125 3356 2438 
L 3356 2088 
Q 3356 1403 3179 920 
Q 3003 438 2664 187 
Q 2325 -63 1844 -63 
z
M 1844 431 
Q 2813 431 2813 2081 
L 2813 2438 
Q 2813 4094 1844 4094 
Q 1356 4094 1115 3681 
Q 875 3269 875 2438 
L 875 2081 
Q 875 1256 1115 843 
Q 1356 431 1844 431 
z
" transform="scale(0.015625)"/>
       </defs>
       <use xlink:href="#PretendardGOV-Regular-31"/>
       <use xlink:href="#PretendardGOV-Regular-30" x="57.617188"/>
       <use xlink:href="#PretendardGOV-Regular-30" x="115.234375"/>
      </g>
     </g>
    </g>
    <g id="xtick_7">
     <g id="line2d_7">
      <g>
       <use xlink:href="#md229bcd09a" x="183.288485" y="239.669132" style="stroke: #000000; stroke-width: 0.8"/>
      </g>
     </g>
     <g id="text_7">
      <!-- 101 -->
      <g transform="translate(185.065829 258.770382) rotate(-90) scale(0.07 -0.07)">
       <use xlink:href="#PretendardGOV-Regular-31"/>
       <use xlink:href="#PretendardGOV-Regular-30" x="57.617188"/>
       <use xlink:href="#PretendardGOV-Regular-31" x="115.234375"/>
      </g>
     </g>
    </g>
    <g id="xtick_8">
     <g id="line2d_8">
      <g>
       <use xlink:href="#md229bcd09a" x="197.440273" y="239.669132" style="stroke: #000000; stroke-width: 0.8"/>
      </g>
     </g>
     <g id="text_8">
      <!-- 102 -->
      <g transform="translate(199.217617 258.770382) rotate(-90) scale(0.07 -0.07)">
       <defs>
        <path id="PretendardGOV-Regular-32" d="M 481 406 
L 1956 2038 
Q 2238 2350 2391 2550 
Q 2544 2750 2623 2937 
Q 2703 3125 2706 3331 
Q 2703 3559 2592 3734 
Q 2481 3909 2290 4004 
Q 2100 4100 1863 4100 
Q 1613 4100 1427 3995 
Q 1241 3891 1139 3697 
Q 1038 3503 1038 3250 
L 500 3250 
Q 500 3641 679 3945 
Q 859 4250 1175 4419 
Q 1491 4588 1881 4588 
Q 2266 4588 2573 4420 
Q 2881 4253 3054 3965 
Q 3228 3678 3231 3331 
Q 3228 3075 3139 2840 
Q 3050 2606 2839 2317 
Q 2628 2028 2238 1606 
L 1250 538 
L 1250 500 
L 3306 500 
L 3306 0 
L 481 0 
L 481 406 
z
" transform="scale(0.015625)"/>
       </defs>
       <use xlink:href="#PretendardGOV-Regular-31"/>
       <use xlink:href="#PretendardGOV-Regular-30" x="57.617188"/>
       <use xlink:href="#PretendardGOV-Regular-32" x="115.234375"/>
      </g>
     </g>
    </g>
    <g id="xtick_9">
     <g id="line2d_9">
      <g>
       <use xlink:href="#md229bcd09a" x="211.592062" y="239.669132" style="stroke: #000000; stroke-width: 0.8"/>
      </g>
     </g>
     <g id="text_9">
      <!-- 103 -->
      <g transform="translate(213.369405 258.770382) rotate(-90) scale(0.07 -0.07)">
       <defs>
        <path id="PretendardGOV-Regular-33" d="M 900 1144 
Q 922 922 1048 762 
Q 1175 603 1381 520 
Q 1588 438 1844 438 
Q 2119 438 2336 534 
Q 2553 631 2678 823 
Q 2803 1016 2800 1288 
Q 2803 1547 2689 1755 
Q 2575 1963 2325 2088 
Q 2075 2213 1688 2213 
L 1319 2213 
L 1319 2656 
L 2425 3988 
L 2425 4025 
L 544 4025 
L 544 4525 
L 3181 4525 
L 3181 4119 
L 2000 2681 
L 2000 2644 
Q 2384 2622 2693 2439 
Q 3003 2256 3179 1953 
Q 3356 1650 3356 1281 
Q 3356 897 3161 590 
Q 2966 284 2619 110 
Q 2272 -63 1831 -63 
Q 1428 -63 1093 82 
Q 759 228 554 501 
Q 350 775 325 1144 
L 900 1144 
z
" transform="scale(0.015625)"/>
       </defs>
       <use xlink:href="#PretendardGOV-Regular-31"/>
       <use xlink:href="#PretendardGOV-Regular-30" x="57.617188"/>
       <use xlink:href="#PretendardGOV-Regular-33" x="115.234375"/>
      </g>
     </g>
    </g>
    <g id="xtick_10">
     <g id="line2d_10">
      <g>
       <use xlink:href="#md229bcd09a" x="225.74385" y="239.669132" style="stroke: #000000; stroke-width: 0.8"/>
      </g>
     </g>
     <g id="text_10">
      <!-- 104 -->
      <g transform="translate(227.521194 258.770382) rotate(-90) scale(0.07 -0.07)">
       <defs>
        <path id="PretendardGOV-Regular-34" d="M 231 1388 
L 1994 4525 
L 2550 4525 
L 825 1456 
L 825 1419 
L 2313 1419 
L 2313 2831 
L 2844 2831 
L 2844 1419 
L 3450 1419 
L 3450 925 
L 2844 925 
L 2844 0 
L 2313 0 
L 2313 925 
L 231 925 
L 231 1388 
z
" transform="scale(0.015625)"/>
       </defs>
       <use xlink:href="#PretendardGOV-Regular-31"/>
       <use xlink:href="#PretendardGOV-Regular-30" x="57.617188"/>
       <use xlink:href="#PretendardGOV-Regular-34" x="115.234375"/>
      </g>
     </g>
    </g>
    <g id="xtick_11">
     <g id="line2d_11">
      <g>
       <use xlink:href="#md229bcd09a" x="239.895638" y="239.669132" style="stroke: #000000; stroke-width: 0.8"/>
      </g>
     </g>
     <g id="text_11">
      <!-- 105 -->
      <g transform="translate(241.672982 258.770382) rotate(-90) scale(0.07 -0.07)">
       <use xlink:href="#PretendardGOV-Regular-31"/>
       <use xlink:href="#PretendardGOV-Regular-30" x="57.617188"/>
       <use xlink:href="#PretendardGOV-Regular-35" x="115.234375"/>
      </g>
     </g>
    </g>
    <g id="xtick_12">
     <g id="line2d_12">
      <g>
       <use xlink:href="#md229bcd09a" x="254.047427" y="239.669132" style="stroke: #000000; stroke-width: 0.8"/>
      </g>
     </g>
     <g id="text_12">
      <!-- 106 -->
      <g transform="translate(255.82477 258.770382) rotate(-90) scale(0.07 -0.07)">
       <use xlink:href="#PretendardGOV-Regular-31"/>
       <use xlink:href="#PretendardGOV-Regular-30" x="57.617188"/>
       <use xlink:href="#PretendardGOV-Regular-36" x="115.234375"/>
      </g>
     </g>
    </g>
    <g id="xtick_13">
     <g id="line2d_13">
      <g>
       <use xlink:href="#md229bcd09a" x="268.199215" y="239.669132" style="stroke: #000000; stroke-width: 0.8"/>
      </g>
     </g>
     <g id="text_13">
      <!-- 107 -->
      <g transform="translate(269.976559 258.770382) rotate(-90) scale(0.07 -0.07)">
       <use xlink:href="#PretendardGOV-Regular-31"/>
       <use xlink:href="#PretendardGOV-Regular-30" x="57.617188"/>
       <use xlink:href="#PretendardGOV-Regular-37" x="115.234375"/>
      </g>
     </g>
    </g>
    <g id="xtick_14">
     <g id="line2d_14">
      <g>
       <use xlink:href="#md229bcd09a" x="282.351003" y="239.669132" style="stroke: #000000; stroke-width: 0.8"/>
      </g>
     </g>
     <g id="text_14">
      <!-- 108 -->
      <g transform="translate(284.128347 258.770382) rotate(-90) scale(0.07 -0.07)">
       <use xlink:href="#PretendardGOV-Regular-31"/>
       <use xlink:href="#PretendardGOV-Regular-30" x="57.617188"/>
       <use xlink:href="#PretendardGOV-Regular-38" x="115.234375"/>
      </g>
     </g>
    </g>
    <g id="xtick_15">
     <g id="line2d_15">
      <g>
       <use xlink:href="#md229bcd09a" x="296.502792" y="239.669132" style="stroke: #000000; stroke-width: 0.8"/>
      </g>
     </g>
     <g id="text_15">
      <!-- 109 -->
      <g transform="translate(298.280136 258.770382) rotate(-90) scale(0.07 -0.07)">
       <use xlink:href="#PretendardGOV-Regular-31"/>
       <use xlink:href="#PretendardGOV-Regular-30" x="57.617188"/>
       <use xlink:href="#PretendardGOV-Regular-39" x="115.234375"/>
      </g>
     </g>
    </g>
    <g id="xtick_16">
     <g id="line2d_16">
      <g>
       <use xlink:href="#md229bcd09a" x="310.65458" y="239.669132" style="stroke: #000000; stroke-width: 0.8"/>
      </g>
     </g>
     <g id="text_16">
      <!-- 110 -->
      <g transform="translate(312.431924 258.770382) rotate(-90) scale(0.07 -0.07)">
       <use xlink:href="#PretendardGOV-Regular-31"/>
       <use xlink:href="#PretendardGOV-Regular-31" x="57.617188"/>
       <use xlink:href="#PretendardGOV-Regular-30" x="115.234375"/>
      </g>
     </g>
    </g>
    <g id="xtick_17">
     <g id="line2d_17">
      <g>
       <use xlink:href="#md229bcd09a" x="324.806369" y="239.669132" style="stroke: #000000; stroke-width: 0.8"/>
      </g>
     </g>
     <g id="text_17">
      <!-- 111 -->
      <g transform="translate(326.583712 258.770382) rotate(-90) scale(0.07 -0.07)">
       <use xlink:href="#PretendardGOV-Regular-31"/>
       <use xlink:href="#PretendardGOV-Regular-31" x="57.617188"/>
       <use xlink:href="#PretendardGOV-Regular-31" x="115.234375"/>
      </g>
     </g>
    </g>
    <g id="xtick_18">
     <g id="line2d_18">
      <g>
       <use xlink:href="#md229bcd09a" x="338.958157" y="239.669132" style="stroke: #000000; stroke-width: 0.8"/>
      </g>
     </g>
     <g id="text_18">
      <!-- 112 -->
      <g transform="translate(340.735501 258.770382) rotate(-90) scale(0.07 -0.07)">
       <use xlink:href="#PretendardGOV-Regular-31"/>
       <use xlink:href="#PretendardGOV-Regular-31" x="57.617188"/>
       <use xlink:href="#PretendardGOV-Regular-32" x="115.234375"/>
      </g>
     </g>
    </g>
    <g id="xtick_19">
     <g id="line2d_19">
      <g>
       <use xlink:href="#md229bcd09a" x="353.109945" y="239.669132" style="stroke: #000000; stroke-width: 0.8"/>
      </g>
     </g>
     <g id="text_19">
      <!-- 113 -->
      <g transform="translate(354.887289 258.770382) rotate(-90) scale(0.07 -0.07)">
       <use xlink:href="#PretendardGOV-Regular-31"/>
       <use xlink:href="#PretendardGOV-Regular-31" x="57.617188"/>
       <use xlink:href="#PretendardGOV-Regular-33" x="115.234375"/>
      </g>
     </g>
    </g>
    <g id="xtick_20">
     <g id="line2d_20">
      <g>
       <use xlink:href="#md229bcd09a" x="367.261734" y="239.669132" style="stroke: #000000; stroke-width: 0.8"/>
      </g>
     </g>
     <g id="text_20">
      <!-- 114 -->
      <g transform="translate(369.039077 258.770382) rotate(-90) scale(0.07 -0.07)">
       <use xlink:href="#PretendardGOV-Regular-31"/>
       <use xlink:href="#PretendardGOV-Regular-31" x="57.617188"/>
       <use xlink:href="#PretendardGOV-Regular-34" x="115.234375"/>
      </g>
     </g>
    </g>
    <g id="xtick_21">
     <g id="line2d_21">
      <g>
       <use xlink:href="#md229bcd09a" x="381.413522" y="239.669132" style="stroke: #000000; stroke-width: 0.8"/>
      </g>
     </g>
     <g id="text_21">
      <!-- 115 -->
      <g transform="translate(383.190866 258.770382) rotate(-90) scale(0.07 -0.07)">
       <use xlink:href="#PretendardGOV-Regular-31"/>
       <use xlink:href="#PretendardGOV-Regular-31" x="57.617188"/>
       <use xlink:href="#PretendardGOV-Regular-35" x="115.234375"/>
      </g>
     </g>
    </g>
    <g id="xtick_22">
     <g id="line2d_22">
      <g>
       <use xlink:href="#md229bcd09a" x="395.56531" y="239.669132" style="stroke: #000000; stroke-width: 0.8"/>
      </g>
     </g>
     <g id="text_22">
      <!-- 116 -->
      <g transform="translate(397.342654 258.770382) rotate(-90) scale(0.07 -0.07)">
       <use xlink:href="#PretendardGOV-Regular-31"/>
       <use xlink:href="#PretendardGOV-Regular-31" x="57.617188"/>
       <use xlink:href="#PretendardGOV-Regular-36" x="115.234375"/>
      </g>
     </g>
    </g>
    <g id="xtick_23">
     <g id="line2d_23">
      <g>
       <use xlink:href="#md229bcd09a" x="409.717099" y="239.669132" style="stroke: #000000; stroke-width: 0.8"/>
      </g>
     </g>
     <g id="text_23">
      <!-- 117 -->
      <g transform="translate(411.494443 258.770382) rotate(-90) scale(0.07 -0.07)">
       <use xlink:href="#PretendardGOV-Regular-31"/>
       <use xlink:href="#PretendardGOV-Regular-31" x="57.617188"/>
       <use xlink:href="#PretendardGOV-Regular-37" x="115.234375"/>
      </g>
     </g>
    </g>
    <g id="xtick_24">
     <g id="line2d_24">
      <g>
       <use xlink:href="#md229bcd09a" x="423.868887" y="239.669132" style="stroke: #000000; stroke-width: 0.8"/>
      </g>
     </g>
     <g id="text_24">
      <!-- 118 -->
      <g transform="translate(425.646231 258.770382) rotate(-90) scale(0.07 -0.07)">
       <use xlink:href="#PretendardGOV-Regular-31"/>
       <use xlink:href="#PretendardGOV-Regular-31" x="57.617188"/>
       <use xlink:href="#PretendardGOV-Regular-38" x="115.234375"/>
      </g>
     </g>
    </g>
    <g id="xtick_25">
     <g id="line2d_25">
      <g>
       <use xlink:href="#md229bcd09a" x="438.020676" y="239.669132" style="stroke: #000000; stroke-width: 0.8"/>
      </g>
     </g>
     <g id="text_25">
      <!-- 119 -->
      <g transform="translate(439.798019 258.770382) rotate(-90) scale(0.07 -0.07)">
       <use xlink:href="#PretendardGOV-Regular-31"/>
       <use xlink:href="#PretendardGOV-Regular-31" x="57.617188"/>
       <use xlink:href="#PretendardGOV-Regular-39" x="115.234375"/>
      </g>
     </g>
    </g>
    <g id="xtick_26">
     <g id="line2d_26">
      <g>
       <use xlink:href="#md229bcd09a" x="452.172464" y="239.669132" style="stroke: #000000; stroke-width: 0.8"/>
      </g>
     </g>
     <g id="text_26">
      <!-- 120 -->
      <g transform="translate(453.949808 258.770382) rotate(-90) scale(0.07 -0.07)">
       <use xlink:href="#PretendardGOV-Regular-31"/>
       <use xlink:href="#PretendardGOV-Regular-32" x="57.617188"/>
       <use xlink:href="#PretendardGOV-Regular-30" x="115.234375"/>
      </g>
     </g>
    </g>
    <g id="xtick_27">
     <g id="line2d_27">
      <g>
       <use xlink:href="#md229bcd09a" x="466.324252" y="239.669132" style="stroke: #000000; stroke-width: 0.8"/>
      </g>
     </g>
     <g id="text_27">
      <!-- 121 -->
      <g transform="translate(468.101596 258.770382) rotate(-90) scale(0.07 -0.07)">
       <use xlink:href="#PretendardGOV-Regular-31"/>
       <use xlink:href="#PretendardGOV-Regular-32" x="57.617188"/>
       <use xlink:href="#PretendardGOV-Regular-31" x="115.234375"/>
      </g>
     </g>
    </g>
    <g id="xtick_28">
     <g id="line2d_28">
      <g>
       <use xlink:href="#md229bcd09a" x="480.476041" y="239.669132" style="stroke: #000000; stroke-width: 0.8"/>
      </g>
     </g>
     <g id="text_28">
      <!-- 122 -->
      <g transform="translate(482.253384 258.770382) rotate(-90) scale(0.07 -0.07)">
       <use xlink:href="#PretendardGOV-Regular-31"/>
       <use xlink:href="#PretendardGOV-Regular-32" x="57.617188"/>
       <use xlink:href="#PretendardGOV-Regular-32" x="115.234375"/>
      </g>
     </g>
    </g>
    <g id="xtick_29">
     <g id="line2d_29">
      <g>
       <use xlink:href="#md229bcd09a" x="494.627829" y="239.669132" style="stroke: #000000; stroke-width: 0.8"/>
      </g>
     </g>
     <g id="text_29">
      <!-- 123 -->
      <g transform="translate(496.405173 258.770382) rotate(-90) scale(0.07 -0.07)">
       <use xlink:href="#PretendardGOV-Regular-31"/>
       <use xlink:href="#PretendardGOV-Regular-32" x="57.617188"/>
       <use xlink:href="#PretendardGOV-Regular-33" x="115.234375"/>
      </g>
     </g>
    </g>
    <g id="xtick_30">
     <g id="line2d_30">
      <g>
       <use xlink:href="#md229bcd09a" x="508.779617" y="239.669132" style="stroke: #000000; stroke-width: 0.8"/>
      </g>
     </g>
     <g id="text_30">
      <!-- 124 -->
      <g transform="translate(510.556961 258.770382) rotate(-90) scale(0.07 -0.07)">
       <use xlink:href="#PretendardGOV-Regular-31"/>
       <use xlink:href="#PretendardGOV-Regular-32" x="57.617188"/>
       <use xlink:href="#PretendardGOV-Regular-34" x="115.234375"/>
      </g>
     </g>
    </g>
    <g id="xtick_31">
     <g id="line2d_31">
      <g>
       <use xlink:href="#md229bcd09a" x="522.931406" y="239.669132" style="stroke: #000000; stroke-width: 0.8"/>
      </g>
     </g>
     <g id="text_31">
      <!-- 125 -->
      <g transform="translate(524.70875 258.770382) rotate(-90) scale(0.07 -0.07)">
       <use xlink:href="#PretendardGOV-Regular-31"/>
       <use xlink:href="#PretendardGOV-Regular-32" x="57.617188"/>
       <use xlink:href="#PretendardGOV-Regular-35" x="115.234375"/>
      </g>
     </g>
    </g>
    <g id="xtick_32">
     <g id="line2d_32">
      <g>
       <use xlink:href="#md229bcd09a" x="537.083194" y="239.669132" style="stroke: #000000; stroke-width: 0.8"/>
      </g>
     </g>
     <g id="text_32">
      <!-- 126 -->
      <g transform="translate(538.860538 258.770382) rotate(-90) scale(0.07 -0.07)">
       <use xlink:href="#PretendardGOV-Regular-31"/>
       <use xlink:href="#PretendardGOV-Regular-32" x="57.617188"/>
       <use xlink:href="#PretendardGOV-Regular-36" x="115.234375"/>
      </g>
     </g>
    </g>
    <g id="xtick_33">
     <g id="line2d_33">
      <g>
       <use xlink:href="#md229bcd09a" x="551.234983" y="239.669132" style="stroke: #000000; stroke-width: 0.8"/>
      </g>
     </g>
     <g id="text_33">
      <!-- 127 -->
      <g transform="translate(553.012326 258.770382) rotate(-90) scale(0.07 -0.07)">
       <use xlink:href="#PretendardGOV-Regular-31"/>
       <use xlink:href="#PretendardGOV-Regular-32" x="57.617188"/>
       <use xlink:href="#PretendardGOV-Regular-37" x="115.234375"/>
      </g>
     </g>
    </g>
    <g id="xtick_34">
     <g id="line2d_34">
      <g>
       <use xlink:href="#md229bcd09a" x="565.386771" y="239.669132" style="stroke: #000000; stroke-width: 0.8"/>
      </g>
     </g>
     <g id="text_34">
      <!-- 128 -->
      <g transform="translate(567.164115 258.770382) rotate(-90) scale(0.07 -0.07)">
       <use xlink:href="#PretendardGOV-Regular-31"/>
       <use xlink:href="#PretendardGOV-Regular-32" x="57.617188"/>
       <use xlink:href="#PretendardGOV-Regular-38" x="115.234375"/>
      </g>
     </g>
    </g>
    <g id="xtick_35">
     <g id="line2d_35">
      <g>
       <use xlink:href="#md229bcd09a" x="579.538559" y="239.669132" style="stroke: #000000; stroke-width: 0.8"/>
      </g>
     </g>
     <g id="text_35">
      <!-- 129 -->
      <g transform="translate(581.315903 258.770382) rotate(-90) scale(0.07 -0.07)">
       <use xlink:href="#PretendardGOV-Regular-31"/>
       <use xlink:href="#PretendardGOV-Regular-32" x="57.617188"/>
       <use xlink:href="#PretendardGOV-Regular-39" x="115.234375"/>
      </g>
     </g>
    </g>
    <g id="xtick_36">
     <g id="line2d_36">
      <g>
       <use xlink:href="#md229bcd09a" x="593.690348" y="239.669132" style="stroke: #000000; stroke-width: 0.8"/>
      </g>
     </g>
     <g id="text_36">
      <!-- 130 -->
      <g transform="translate(595.467691 258.770382) rotate(-90) scale(0.07 -0.07)">
       <use xlink:href="#PretendardGOV-Regular-31"/>
       <use xlink:href="#PretendardGOV-Regular-33" x="57.617188"/>
       <use xlink:href="#PretendardGOV-Regular-30" x="115.234375"/>
      </g>
     </g>
    </g>
    <g id="xtick_37">
     <g id="line2d_37">
      <g>
       <use xlink:href="#md229bcd09a" x="607.842136" y="239.669132" style="stroke: #000000; stroke-width: 0.8"/>
      </g>
     </g>
     <g id="text_37">
      <!-- 131 -->
      <g transform="translate(609.61948 258.770382) rotate(-90) scale(0.07 -0.07)">
       <use xlink:href="#PretendardGOV-Regular-31"/>
       <use xlink:href="#PretendardGOV-Regular-33" x="57.617188"/>
       <use xlink:href="#PretendardGOV-Regular-31" x="115.234375"/>
      </g>
     </g>
    </g>
    <g id="xtick_38">
     <g id="line2d_38">
      <g>
       <use xlink:href="#md229bcd09a" x="621.993924" y="239.669132" style="stroke: #000000; stroke-width: 0.8"/>
      </g>
     </g>
     <g id="text_38">
      <!-- 132 -->
      <g transform="translate(623.771268 258.770382) rotate(-90) scale(0.07 -0.07)">
       <use xlink:href="#PretendardGOV-Regular-31"/>
       <use xlink:href="#PretendardGOV-Regular-33" x="57.617188"/>
       <use xlink:href="#PretendardGOV-Regular-32" x="115.234375"/>
      </g>
     </g>
    </g>
    <g id="xtick_39">
     <g id="line2d_39">
      <g>
       <use xlink:href="#md229bcd09a" x="636.145713" y="239.669132" style="stroke: #000000; stroke-width: 0.8"/>
      </g>
     </g>
     <g id="text_39">
      <!-- 133 -->
      <g transform="translate(637.923057 258.770382) rotate(-90) scale(0.07 -0.07)">
       <use xlink:href="#PretendardGOV-Regular-31"/>
       <use xlink:href="#PretendardGOV-Regular-33" x="57.617188"/>
       <use xlink:href="#PretendardGOV-Regular-33" x="115.234375"/>
      </g>
     </g>
    </g>
    <g id="xtick_40">
     <g id="line2d_40">
      <g>
       <use xlink:href="#md229bcd09a" x="650.297501" y="239.669132" style="stroke: #000000; stroke-width: 0.8"/>
      </g>
     </g>
     <g id="text_40">
      <!-- 134 -->
      <g transform="translate(652.074845 258.770382) rotate(-90) scale(0.07 -0.07)">
       <use xlink:href="#PretendardGOV-Regular-31"/>
       <use xlink:href="#PretendardGOV-Regular-33" x="57.617188"/>
       <use xlink:href="#PretendardGOV-Regular-34" x="115.234375"/>
      </g>
     </g>
    </g>
   </g>
   <g id="matplotlib.axis_2">
    <g id="ytick_1">
     <g id="line2d_41">
      <defs>
       <path id="mc526698409" d="M 0 0 
L -3.5 0 
" style="stroke: #000000; stroke-width: 0.8"/>
      </defs>
      <g>
       <use xlink:href="#mc526698409" x="91.30186" y="239.669132" style="stroke: #000000; stroke-width: 0.8"/>
      </g>
     </g>
     <g id="text_41">
      <!-- 0.0 -->
      <g transform="translate(74.217485 242.143742) scale(0.07 -0.07)">
       <defs>
        <path id="PretendardGOV-Regular-2e" d="M 919 -38 
Q 809 -38 717 17 
Q 625 72 570 165 
Q 516 259 519 369 
Q 516 475 570 567 
Q 625 659 717 714 
Q 809 769 919 769 
Q 1025 769 1117 714 
Q 1209 659 1264 567 
Q 1319 475 1319 369 
Q 1319 259 1264 165 
Q 1209 72 1117 17 
Q 1025 -38 919 -38 
z
" transform="scale(0.015625)"/>
       </defs>
       <use xlink:href="#PretendardGOV-Regular-30"/>
       <use xlink:href="#PretendardGOV-Regular-2e" x="57.617188"/>
       <use xlink:href="#PretendardGOV-Regular-30" x="86.425781"/>
      </g>
     </g>
    </g>
    <g id="ytick_2">
     <g id="line2d_42">
      <g>
       <use xlink:href="#mc526698409" x="91.30186" y="198.938732" style="stroke: #000000; stroke-width: 0.8"/>
      </g>
     </g>
     <g id="text_42">
      <!-- 0.2 -->
      <g transform="translate(74.217485 201.413341) scale(0.07 -0.07)">
       <use xlink:href="#PretendardGOV-Regular-30"/>
       <use xlink:href="#PretendardGOV-Regular-2e" x="57.617188"/>
       <use xlink:href="#PretendardGOV-Regular-32" x="86.425781"/>
      </g>
     </g>
    </g>
    <g id="ytick_3">
     <g id="line2d_43">
      <g>
       <use xlink:href="#mc526698409" x="91.30186" y="158.208331" style="stroke: #000000; stroke-width: 0.8"/>
      </g>
     </g>
     <g id="text_43">
      <!-- 0.4 -->
      <g transform="translate(74.217485 160.68294) scale(0.07 -0.07)">
       <use xlink:href="#PretendardGOV-Regular-30"/>
       <use xlink:href="#PretendardGOV-Regular-2e" x="57.617188"/>
       <use xlink:href="#PretendardGOV-Regular-34" x="86.425781"/>
      </g>
     </g>
    </g>
    <g id="ytick_4">
     <g id="line2d_44">
      <g>
       <use xlink:href="#mc526698409" x="91.30186" y="117.47793" style="stroke: #000000; stroke-width: 0.8"/>
      </g>
     </g>
     <g id="text_44">
      <!-- 0.6 -->
      <g transform="translate(74.217485 119.95254) scale(0.07 -0.07)">
       <use xlink:href="#PretendardGOV-Regular-30"/>
       <use xlink:href="#PretendardGOV-Regular-2e" x="57.617188"/>
       <use xlink:href="#PretendardGOV-Regular-36" x="86.425781"/>
      </g>
     </g>
    </g>
    <g id="ytick_5">
     <g id="line2d_45">
      <g>
       <use xlink:href="#mc526698409" x="91.30186" y="76.74753" style="stroke: #000000; stroke-width: 0.8"/>
      </g>
     </g>
     <g id="text_45">
      <!-- 0.8 -->
      <g transform="translate(74.217485 79.222139) scale(0.07 -0.07)">
       <use xlink:href="#PretendardGOV-Regular-30"/>
       <use xlink:href="#PretendardGOV-Regular-2e" x="57.617188"/>
       <use xlink:href="#PretendardGOV-Regular-38" x="86.425781"/>
      </g>
     </g>
    </g>
    <g id="ytick_6">
     <g id="line2d_46">
      <g>
       <use xlink:href="#mc526698409" x="91.30186" y="36.017129" style="stroke: #000000; stroke-width: 0.8"/>
      </g>
     </g>
     <g id="text_46">
      <!-- 1.0 -->
      <g transform="translate(74.217485 38.491738) scale(0.07 -0.07)">
       <use xlink:href="#PretendardGOV-Regular-31"/>
       <use xlink:href="#PretendardGOV-Regular-2e" x="57.617188"/>
       <use xlink:href="#PretendardGOV-Regular-30" x="86.425781"/>
      </g>
     </g>
    </g>
    <g id="text_47">
     <!-- 1e7 -->
     <g transform="translate(91.30186 29.314939) scale(0.07 -0.07)">
      <defs>
       <path id="PretendardGOV-Regular-65" d="M 1856 -69 
Q 1372 -69 1012 147 
Q 653 363 461 756 
Q 269 1150 269 1669 
Q 269 2188 461 2589 
Q 653 2991 1001 3214 
Q 1350 3438 1806 3438 
Q 2191 3438 2522 3267 
Q 2853 3097 3061 2717 
Q 3269 2338 3269 1744 
L 3269 1519 
L 806 1519 
Q 819 1166 953 916 
Q 1088 666 1320 536 
Q 1553 406 1856 406 
Q 2144 406 2342 514 
Q 2541 622 2644 794 
L 3219 794 
Q 3138 538 2948 342 
Q 2759 147 2479 39 
Q 2200 -69 1856 -69 
z
M 2725 1975 
Q 2725 2259 2611 2482 
Q 2497 2706 2287 2834 
Q 2078 2963 1806 2963 
Q 1522 2963 1301 2828 
Q 1081 2694 954 2467 
Q 828 2241 809 1975 
L 2725 1975 
z
" transform="scale(0.015625)"/>
      </defs>
      <use xlink:href="#PretendardGOV-Regular-31"/>
      <use xlink:href="#PretendardGOV-Regular-65" x="57.617188"/>
      <use xlink:href="#PretendardGOV-Regular-37" x="112.890625"/>
     </g>
    </g>
   </g>
   <g id="patch_83">
    <path d="M 91.30186 239.669132 
L 91.30186 32.314939 
" style="fill: none; stroke: #000000; stroke-width: 0.8; stroke-linejoin: miter; stroke-linecap: square"/>
   </g>
   <g id="patch_84">
    <path d="M 657.373395 239.669132 
L 657.373395 32.314939 
" style="fill: none; stroke: #000000; stroke-width: 0.8; stroke-linejoin: miter; stroke-linecap: square"/>
   </g>
   <g id="patch_85">
    <path d="M 91.30186 239.669132 
L 657.373395 239.669132 
" style="fill: none; stroke: #000000; stroke-width: 0.8; stroke-linejoin: miter; stroke-linecap: square"/>
   </g>
   <g id="patch_86">
    <path d="M 91.30186 32.314939 
L 657.373395 32.314939 
" style="fill: none; stroke: #000000; stroke-width: 0.8; stroke-linejoin: miter; stroke-linecap: square"/>
   </g>
   <g id="legend_1">
    <g id="patch_87">
     <path d="M 594.85902 57.602439 
L 652.473395 57.602439 
Q 653.873395 57.602439 653.873395 56.202439 
L 653.873395 37.214939 
Q 653.873395 35.814939 652.473395 35.814939 
L 594.85902 35.814939 
Q 593.45902 35.814939 593.45902 37.214939 
L 593.45902 56.202439 
Q 593.45902 57.602439 594.85902 57.602439 
z
" style="fill: #ffffff; opacity: 0.8; stroke: #cccccc; stroke-linejoin: miter"/>
    </g>
    <g id="patch_88">
     <path d="M 596.25902 43.564158 
L 610.25902 43.564158 
L 610.25902 38.664158 
L 596.25902 38.664158 
z
" style="fill: #1f77b4"/>
    </g>
    <g id="text_48">
     <!-- IN_FLUX -->
     <g transform="translate(615.85902 43.564158) scale(0.07 -0.07)">
      <defs>
       <path id="PretendardGOV-Regular-49" d="M 250 4525 
L 2425 4525 
L 2425 4025 
L 1631 4025 
L 1631 500 
L 2425 500 
L 2425 0 
L 250 0 
L 250 500 
L 1069 500 
L 1069 4025 
L 250 4025 
L 250 4525 
z
" transform="scale(0.015625)"/>
       <path id="PretendardGOV-Regular-4e" d="M 4094 0 
L 3556 0 
L 1106 3525 
L 1063 3525 
L 1063 0 
L 500 0 
L 500 4525 
L 1044 4525 
L 3494 994 
L 3538 994 
L 3538 4525 
L 4094 4525 
L 4094 0 
z
" transform="scale(0.015625)"/>
       <path id="PretendardGOV-Regular-5f" d="M 3688 -494 
L 0 -494 
L 0 0 
L 3688 0 
L 3688 -494 
z
" transform="scale(0.015625)"/>
       <path id="PretendardGOV-Regular-46" d="M 500 4525 
L 3225 4525 
L 3225 4025 
L 1063 4025 
L 1063 2513 
L 3019 2513 
L 3019 2019 
L 1063 2019 
L 1063 0 
L 500 0 
L 500 4525 
z
" transform="scale(0.015625)"/>
       <path id="PretendardGOV-Regular-4c" d="M 500 4525 
L 1063 4525 
L 1063 500 
L 3163 500 
L 3163 0 
L 500 0 
L 500 4525 
z
" transform="scale(0.015625)"/>
       <path id="PretendardGOV-Regular-55" d="M 4025 4525 
L 4025 1531 
Q 4025 1069 3806 701 
Q 3588 334 3188 126 
Q 2788 -81 2263 -81 
Q 1738 -81 1338 126 
Q 938 334 719 701 
Q 500 1069 500 1531 
L 500 4525 
L 1063 4525 
L 1063 1575 
Q 1063 1247 1208 990 
Q 1353 734 1625 589 
Q 1897 444 2263 444 
Q 2631 444 2901 589 
Q 3172 734 3317 990 
Q 3463 1247 3463 1575 
L 3463 4525 
L 4025 4525 
z
" transform="scale(0.015625)"/>
       <path id="PretendardGOV-Regular-58" d="M 1938 2656 
L 1975 2656 
L 3131 4525 
L 3794 4525 
L 2375 2263 
L 3794 0 
L 3131 0 
L 1975 1831 
L 1938 1831 
L 781 0 
L 119 0 
L 1575 2263 
L 119 4525 
L 788 4525 
L 1938 2656 
z
" transform="scale(0.015625)"/>
      </defs>
      <use xlink:href="#PretendardGOV-Regular-49"/>
      <use xlink:href="#PretendardGOV-Regular-4e" x="41.894531"/>
      <use xlink:href="#PretendardGOV-Regular-5f" x="113.671875"/>
      <use xlink:href="#PretendardGOV-Regular-46" x="171.289062"/>
      <use xlink:href="#PretendardGOV-Regular-4c" x="226.953125"/>
      <use xlink:href="#PretendardGOV-Regular-55" x="280.273438"/>
      <use xlink:href="#PretendardGOV-Regular-58" x="350.976562"/>
     </g>
    </g>
    <g id="patch_89">
     <path d="M 596.25902 53.407908 
L 610.25902 53.407908 
L 610.25902 48.507908 
L 596.25902 48.507908 
z
" style="fill: #ff7f0e"/>
    </g>
    <g id="text_49">
     <!-- OUT_FLUX -->
     <g transform="translate(615.85902 53.407908) scale(0.07 -0.07)">
      <defs>
       <path id="PretendardGOV-Regular-4f" d="M 4325 2263 
Q 4325 1559 4069 1032 
Q 3813 506 3358 221 
Q 2903 -63 2325 -63 
Q 1744 -63 1291 221 
Q 838 506 581 1032 
Q 325 1559 325 2263 
Q 325 2966 581 3492 
Q 838 4019 1291 4303 
Q 1744 4588 2325 4588 
Q 2903 4588 3358 4303 
Q 3813 4019 4069 3492 
Q 4325 2966 4325 2263 
z
M 3781 2263 
Q 3781 2831 3590 3237 
Q 3400 3644 3070 3853 
Q 2741 4063 2325 4063 
Q 1909 4063 1579 3853 
Q 1250 3644 1059 3237 
Q 869 2831 869 2263 
Q 869 1694 1059 1287 
Q 1250 881 1579 672 
Q 1909 463 2325 463 
Q 2741 463 3070 672 
Q 3400 881 3590 1287 
Q 3781 1694 3781 2263 
z
" transform="scale(0.015625)"/>
       <path id="PretendardGOV-Regular-54" d="M 250 4525 
L 3663 4525 
L 3663 4025 
L 2244 4025 
L 2244 0 
L 1675 0 
L 1675 4025 
L 250 4025 
L 250 4525 
z
" transform="scale(0.015625)"/>
      </defs>
      <use xlink:href="#PretendardGOV-Regular-4f"/>
      <use xlink:href="#PretendardGOV-Regular-55" x="72.65625"/>
      <use xlink:href="#PretendardGOV-Regular-54" x="143.359375"/>
      <use xlink:href="#PretendardGOV-Regular-5f" x="204.492188"/>
      <use xlink:href="#PretendardGOV-Regular-46" x="262.109375"/>
      <use xlink:href="#PretendardGOV-Regular-4c" x="317.773438"/>
      <use xlink:href="#PretendardGOV-Regular-55" x="371.09375"/>
      <use xlink:href="#PretendardGOV-Regular-58" x="441.796875"/>
     </g>
    </g>
   </g>
  </g>
 </g>
 <defs>
  <clipPath id="p3f71eb4121">
   <rect x="91.30186" y="32.314939" width="566.071535" height="207.354193"/>
  </clipPath>
 </defs>
</svg>
